# Blender 4.3.2
# www.blender.org
mtllib ak arms.mtl
o Cube.002
v -191.449631 -136.946472 12.869700
v -184.374496 -139.205612 12.539042
v -219.172073 -129.358871 12.870889
v -191.449631 -136.946472 -13.869730
v -184.374496 -139.205612 -13.539069
v -227.282181 -128.557724 12.473639
v -189.623657 -154.218552 -13.290957
v -205.885376 -155.951370 -13.334227
v -205.885376 -155.951370 12.334193
v -189.623657 -154.218552 12.290923
v -184.851685 -147.701767 -13.399367
v -184.851685 -147.701767 12.399343
v -229.243530 -137.476257 12.356521
v -222.541122 -148.855591 12.328383
v -40.229832 -132.417496 -10.704110
v 109.647682 -16.873333 -20.891428
v -191.299988 -137.100006 11.099992
v -185.399994 -139.000000 11.099981
v -219.399979 -129.400009 11.099990
v -185.399994 -139.000000 -12.100010
v -191.299988 -137.100006 -12.100010
v -226.199997 -128.900009 11.099990
v -190.299988 -153.100006 -12.100017
v -190.299988 -153.100006 11.099982
v -205.699997 -154.699997 11.099982
v -205.699997 -154.699997 -12.100017
v -186.000000 -147.300003 -12.100017
v -186.000000 -147.300003 11.099982
v -228.000000 -137.300003 11.099992
v -221.699997 -147.900009 11.099982
v -39.100002 -131.799988 -9.500011
v -181.701767 -225.007980 -85.855347
v -215.826691 -148.586914 -105.636894
v -138.571838 -225.007996 -160.258392
v -172.696762 -148.586914 -180.039917
v -31.019220 -135.112656 1.492260
v -22.014202 -58.691586 -92.692314
v 12.110710 -135.112671 -72.910782
v -65.144127 -58.691570 -18.289270
v -47.740791 -48.308960 -8.200923
v -13.615880 -124.730042 11.580618
v 29.514051 -124.730049 -62.822422
v -4.610860 -48.308975 -82.603966
v -287.816467 -314.045532 -246.772461
v -321.941376 -237.624435 -266.554016
v -365.071289 -237.624435 -192.150970
v -330.946381 -314.045502 -172.369431
v -379.813965 -368.930115 -300.101532
v -413.938873 -292.509003 -319.883087
v -457.068817 -292.509003 -245.480072
v -422.943909 -368.930054 -225.698502
v -11.152930 -123.260674 13.008358
v -45.277840 -46.839600 -6.773182
v -2.147910 -46.839615 -81.176208
v -63.841492 -51.504005 -12.332763
v -275.749451 -313.174225 103.809189
v -333.713104 -253.649963 126.014610
v -306.608063 -313.278076 23.536306
v -364.571747 -253.753891 45.741718
v -149.184921 -171.709198 54.971973
v -238.007202 -112.288857 -3.095493
v -180.043533 -171.813095 -25.300924
v -207.148560 -112.184944 77.177399
v -189.120621 -92.034546 70.220947
v -131.156967 -151.558807 48.015553
v -162.015579 -151.662704 -32.257336
v -219.979248 -92.138466 -10.051907
v -405.968140 -424.335846 61.876190
v -463.931793 -364.811615 84.081596
v -433.073151 -364.707733 164.354507
v -375.109528 -424.231995 142.149078
v -450.119873 -473.685547 78.912903
v -508.083496 -414.161285 101.118324
v -477.224915 -414.057434 181.391235
v -419.261230 -473.581635 159.185822
v -112.886856 -96.750046 -51.214527
v -181.765442 -225.548370 -85.189362
v -216.372955 -148.046539 -105.250656
v -138.025574 -225.548401 -160.644623
v -172.633087 -148.046539 -180.705902
v -31.082901 -135.653030 2.158251
v -21.950531 -58.151203 -93.358315
v 12.656980 -135.653061 -73.297012
v -65.690399 -58.151192 -17.903042
v -46.855240 -47.073341 -7.113673
v -12.336290 -124.376854 12.896288
v 31.291660 -124.376862 -62.365868
v -3.227290 -47.073364 -82.375847
v -287.270233 -314.585846 -247.158691
v -321.877716 -237.084000 -267.219971
v -365.617554 -237.084000 -191.764740
v -331.010071 -314.585815 -171.703445
v -380.699524 -370.165741 -301.188812
v -415.218414 -292.862213 -321.198730
v -458.846436 -292.862213 -245.936615
v -424.327484 -370.165680 -225.926636
v -12.536500 -124.496292 12.780229
v -47.055450 -47.192780 -7.229723
v -3.427510 -47.192795 -82.491875
v -64.387764 -50.963619 -11.946542
v -273.654449 -312.541840 104.841026
v -332.907166 -252.488510 127.123085
v -307.414062 -314.439484 22.427839
v -366.666718 -254.386261 44.709900
v -147.089905 -171.076797 56.003796
v -240.102203 -112.921227 -4.127323
v -180.849533 -172.974518 -26.409384
v -206.342636 -111.023514 78.285858
v -188.032227 -90.666870 71.285492
v -128.915451 -150.715225 49.028835
v -161.528290 -151.601624 -32.968109
v -220.157211 -91.452858 -10.541176
v -406.774109 -425.497284 60.767731
v -466.026825 -365.444000 83.049782
v -432.267242 -363.546326 165.462952
v -373.014526 -423.599609 143.180923
v -451.208252 -475.053223 77.848381
v -510.324951 -415.004883 100.105057
v -477.712158 -414.118500 182.102005
v -419.083313 -474.267242 159.675095
v -112.399574 -96.688995 -51.925312
vn -0.3256 0.5440 0.7733
vn 0.0825 0.5913 0.8022
vn 0.0858 0.5899 -0.8029
vn -0.3201 0.5470 -0.7735
vn -0.5886 0.2023 0.7827
vn -0.5864 0.2074 -0.7830
vn -0.5494 0.0963 -0.8300
vn -0.5455 0.1096 0.8309
vn 0.0230 0.0049 -0.9997
vn 0.6104 0.1532 -0.7772
vn 0.5616 -0.1357 -0.8162
vn 0.3752 0.4836 -0.7908
vn -0.0151 0.0162 -0.9998
vn -0.0150 0.0162 0.9998
vn 0.3190 -0.5351 -0.7822
vn 0.3191 -0.5353 0.7821
vn -0.0824 -0.5818 0.8092
vn -0.0821 -0.5836 -0.8079
vn 0.5792 -0.1990 -0.7905
vn 0.5792 -0.1990 0.7905
vn 0.5297 -0.0962 0.8427
vn 0.5295 -0.0960 -0.8429
vn -0.0000 -0.0000 1.0000
vn -0.5336 0.1569 0.8311
vn -0.6002 -0.0996 0.7936
vn -0.3957 -0.4501 0.8005
vn -0.0000 -0.0000 -1.0000
vn 0.5015 -0.0000 -0.8652
vn -0.5015 -0.0000 0.8652
vn -0.3968 0.8886 -0.2300
vn 0.3968 -0.8886 0.2300
vn 0.7688 0.4586 0.4457
vn -0.7688 -0.4586 -0.4457
vn -0.3588 -0.0012 -0.9334
vn 0.3588 0.0012 0.9334
vn -0.6740 0.6921 0.2582
vn 0.6740 -0.6921 -0.2582
vn 0.6457 0.7218 -0.2492
vn -0.6457 -0.7218 0.2492
vn -0.5012 0.0002 0.8654
vn 0.5019 0.0002 -0.8649
vn 0.3972 -0.8884 0.2302
vn -0.3964 0.8888 -0.2298
vn -0.5033 -0.0010 0.8641
vn -0.5050 -0.0021 0.8631
vn 0.4998 -0.0010 -0.8662
vn -0.3986 0.8876 -0.2310
vn 0.3950 -0.8897 0.2290
vn 0.4980 -0.0021 -0.8672
vn 0.3933 -0.8907 0.2280
vn -0.4003 0.8865 -0.2321
vn -0.3961 0.8890 -0.2296
vn 0.3975 -0.8882 0.2304
vn 0.5022 0.0004 -0.8647
vn -0.5008 0.0004 0.8656
vn 0.3556 0.0040 0.9346
vn 0.3558 0.0043 0.9346
vn -0.3558 -0.0043 -0.9346
vn 0.6733 -0.6921 -0.2599
vn 0.6736 -0.6918 -0.2601
vn -0.6728 0.6929 0.2591
vn -0.6729 0.6929 0.2592
vn -0.6733 0.6921 0.2599
vn 0.6719 -0.6939 -0.2588
vn 0.6704 -0.6958 -0.2576
vn 0.6719 -0.6940 -0.2587
vn -0.3553 -0.0036 -0.9347
vn -0.6740 0.6914 0.2603
vn -0.6396 -0.7233 0.2602
vn -0.6746 0.6906 0.2606
vn 0.3350 -0.0218 0.9420
vn -0.3548 -0.0030 -0.9349
vn -0.3478 0.0076 -0.9375
vn 0.6396 0.7233 -0.2602
vn 0.3554 0.0037 0.9347
vn -0.6723 0.6937 0.2584
vn 0.6738 -0.6915 -0.2603
vt 0.059901 0.498823
vt 0.060489 0.498896
vt 0.059741 0.498598
vt 0.059725 0.498280
vt 0.061032 0.497939
vt 0.061355 0.498247
vt 0.061293 0.497925
vt 0.061106 0.498648
vt 0.059952 0.498212
vt 0.059429 0.522686
vt 0.060017 0.522759
vt 0.059269 0.522461
vt 0.059252 0.522143
vt 0.060560 0.521801
vt 0.060820 0.521787
vt 0.060883 0.522110
vt 0.060634 0.522511
vt 0.059479 0.522075
vt 0.728533 0.045458
vt 0.728533 0.119203
vt 0.614571 0.119203
vt 0.614571 0.045458
vt 0.000000 0.667556
vt 0.000000 0.593811
vt 0.113962 0.593811
vt 0.113962 0.667556
vt 0.364961 0.554277
vt 0.364961 0.628022
vt 0.250999 0.628022
vt 0.250999 0.554277
vt 0.125499 0.667549
vt 0.125499 0.593805
vt 0.239461 0.593805
vt 0.239461 0.667549
vt 0.614571 0.193658
vt 0.728533 0.193658
vt 0.728533 0.202257
vt 0.614571 0.202257
vt 0.000000 0.519356
vt 0.113962 0.519356
vt 0.239461 0.519349
vt 0.125499 0.519349
vt 0.250999 0.702477
vt 0.364961 0.702477
vt 0.242907 0.828984
vt 0.242907 0.942725
vt 0.129875 0.943631
vt 0.129875 0.829890
vt 0.000000 0.510756
vt 0.113962 0.510756
vt 0.364961 0.711077
vt 0.250999 0.711077
vt 0.125499 0.510750
vt 0.239461 0.510750
vt 0.239461 0.713007
vt 0.125499 0.713007
vt 0.113029 0.961885
vt 0.000000 0.960976
vt 0.000000 0.847236
vt 0.113029 0.848146
vt 0.250999 0.508819
vt 0.364961 0.508819
vt 0.113962 0.713014
vt 0.000000 0.713014
vt 0.614571 0.000000
vt 0.728533 -0.000000
vt 0.259965 0.360020
vt 0.256313 0.213386
vt 0.369723 0.219556
vt 0.373375 0.366190
vt 0.376621 0.443657
vt 0.380273 0.297029
vt 0.493682 0.290859
vt 0.490030 0.437487
vt 0.804203 0.373536
vt 0.757617 0.432337
vt 0.757617 0.314663
vt 0.804203 0.255863
vt 0.711027 0.492566
vt 0.711027 0.374861
vt 0.757617 0.433644
vt 0.757617 0.551348
vt 0.757617 0.582229
vt 0.804203 0.523428
vt 0.804203 0.544778
vt 0.757617 0.603579
vt 0.251661 0.026605
vt 0.365071 0.032775
vt 0.384925 0.110254
vt 0.498334 0.104084
vt 0.757617 0.283712
vt 0.711027 0.224930
vt 0.498997 0.077479
vt 0.385588 0.083649
vt 0.374998 0.006170
vt 0.488407 -0.000000
vt 0.711027 0.203573
vt 0.757617 0.262356
vt 0.250999 -0.000000
vt 0.364408 0.006170
vt 0.488407 0.502643
vt 0.374998 0.508813
vt 0.374998 0.431348
vt 0.364408 0.508819
vt 0.250999 0.502649
vt 0.261588 0.425178
vt 0.757617 0.603652
vt 0.711027 0.544869
vt 0.757617 0.262374
vt 0.804203 0.203573
vt 0.498997 0.453262
vt 0.614571 0.453262
vt 0.614571 0.527007
vt 0.498997 0.527007
vt 0.374998 0.554929
vt 0.490571 0.554929
vt 0.490571 0.628674
vt 0.374998 0.628674
vt 0.614571 0.157457
vt 0.498997 0.157457
vt 0.498997 0.083713
vt 0.614571 0.083713
vt 0.498997 0.249689
vt 0.614571 0.249689
vt 0.614571 0.323434
vt 0.498997 0.323434
vt 0.614571 0.601462
vt 0.614423 0.610720
vt 0.499145 0.610720
vt 0.498997 0.601462
vt 0.490571 0.703129
vt 0.374998 0.703129
vt 0.614571 0.397889
vt 0.498997 0.397889
vt 0.498997 0.009257
vt 0.614571 0.009257
vt 0.621653 0.751994
vt 0.735987 0.752914
vt 0.735987 0.867967
vt 0.621653 0.867047
vt 0.490424 0.712386
vt 0.375145 0.712386
vt 0.499145 0.000000
vt 0.614423 -0.000000
vt 0.614423 0.407146
vt 0.499145 0.407146
vt 0.499145 0.203573
vt 0.614423 0.203573
vt 0.374998 0.828357
vt 0.374998 0.713303
vt 0.489334 0.712386
vt 0.489334 0.827440
vt 0.375145 0.508813
vt 0.490424 0.508813
vt 0.242079 0.360869
vt 0.127073 0.367010
vt 0.130755 0.220382
vt 0.245761 0.214241
vt 0.123983 0.444736
vt 0.008977 0.438595
vt 0.005296 0.291962
vt 0.120302 0.298103
vt 0.662792 0.434513
vt 0.662800 0.552218
vt 0.614597 0.493489
vt 0.614589 0.375785
vt 0.662816 0.315534
vt 0.711015 0.256785
vt 0.711008 0.374459
vt 0.662809 0.433207
vt 0.614579 0.225853
vt 0.615169 0.203573
vt 0.662800 0.262963
vt 0.662783 0.284581
vt 0.135445 0.033608
vt 0.250451 0.027467
vt 0.000606 0.105182
vt 0.115612 0.111323
vt 0.710999 0.524351
vt 0.662800 0.583099
vt 0.000000 0.078310
vt 0.010856 -0.000000
vt 0.125499 0.006210
vt 0.114877 0.084507
vt 0.711027 0.545839
vt 0.663270 0.605061
vt 0.136356 0.006210
vt 0.125499 0.510756
vt 0.010857 0.504546
vt 0.125499 0.432433
vt 0.240376 0.426235
vt 0.250999 0.504540
vt 0.136356 0.510750
vt 0.662800 0.262982
vt 0.710427 0.203573
vt 0.662332 0.605132
vt 0.614571 0.545931
s 1
usemtl Material.005
f 7/1/1 8/2/2 9/2/3 10/1/4
f 11/3/5 7/1/1 10/1/4 12/3/6
f 2/4/7 5/4/8 11/3/5 12/3/6
f 3/5/9 13/6/10 6/7/11
f 13/6/10 3/5/9 14/8/12
f 9/2/3 14/8/12 3/5/9
f 1/9/13 10/1/4 9/2/3 3/5/9
f 11/3/5 4/9/14 7/1/1
f 12/3/6 10/1/4 1/9/13
f 1/9/13 2/4/7 12/3/6
f 5/4/8 4/9/14 11/3/5
f 23/10/15 24/10/16 25/11/17 26/11/18
f 27/12/19 28/12/20 24/10/16 23/10/15
f 18/13/21 28/12/20 27/12/19 20/13/22
f 19/14/23 22/15/24 29/16/25
f 29/16/25 30/17/26 19/14/23
f 25/11/17 19/14/23 30/17/26
f 17/18/23 19/14/23 25/11/17 24/10/16
f 27/12/19 23/10/15 21/18/27
f 28/12/20 17/18/23 24/10/16
f 17/18/23 28/12/20 18/13/21
f 20/13/22 27/12/19 21/18/27
usemtl Material.007
f 45/19/28 35/20/28 34/21/28 44/22/28
f 47/23/29 32/24/29 33/25/29 46/26/29
f 46/27/30 33/28/30 35/29/30 45/30/30
f 44/31/31 34/32/31 32/33/31 47/34/31
f 38/35/28 37/36/28 43/37/28 42/38/28
f 34/21/28 35/20/28 37/36/28 38/35/28
f 33/25/29 32/24/29 36/39/29 39/40/29
f 36/41/31 32/33/31 34/32/31 38/42/31
f 37/43/30 35/29/30 33/28/30 39/44/30
f 40/45/32 41/46/32 42/47/32 43/48/32
f 39/40/29 36/39/29 41/49/29 40/50/29
f 37/43/30 39/44/30 40/51/30 43/52/30
f 36/41/31 38/42/31 42/53/31 41/54/31
f 44/31/31 47/34/31 51/55/31 48/56/31
f 48/57/33 51/58/33 50/59/33 49/60/33
f 46/27/30 45/30/30 49/61/30 50/62/30
f 47/23/29 46/26/29 50/63/29 51/64/29
f 45/19/28 44/22/28 48/65/28 49/66/28
f 69/67/34 59/68/34 58/69/34 68/70/34
f 71/71/35 56/72/35 57/73/35 70/74/35
f 57/75/36 59/76/36 69/77/36 70/78/36
f 68/79/37 58/80/37 56/81/37 71/82/37
f 61/83/36 63/84/36 64/85/36 67/86/36
f 58/69/34 59/68/34 61/87/34 62/88/34
f 57/73/35 56/72/35 60/89/35 63/90/35
f 60/91/37 56/81/37 58/80/37 62/92/37
f 61/83/36 59/76/36 57/75/36 63/84/36
f 64/93/38 65/94/38 66/95/38 67/96/38
f 60/91/37 62/92/37 66/97/37 65/98/37
f 62/88/34 61/87/34 67/99/34 66/100/34
f 63/90/35 60/89/35 65/94/35 64/93/35
f 71/71/35 70/74/35 74/101/35 75/102/35
f 72/103/39 75/104/39 74/105/39 73/106/39
f 69/67/34 68/70/34 72/103/34 73/106/34
f 68/79/37 71/82/37 75/107/37 72/108/37
f 70/78/36 69/77/36 73/109/36 74/110/36
f 90/111/40 89/112/40 79/113/29 80/114/29
f 92/115/41 91/116/41 78/117/28 77/118/28
f 91/119/42 90/120/42 80/121/31 78/122/31
f 89/123/43 92/124/43 77/125/30 79/126/30
f 83/127/44 87/128/45 88/129/45 82/130/44
f 79/113/29 83/127/44 82/130/44 80/114/29
f 78/117/28 84/131/46 81/132/46 77/118/28
f 81/133/47 83/134/47 79/126/30 77/125/30
f 82/135/48 84/136/48 78/122/31 80/121/31
f 85/137/33 88/138/33 87/139/33 86/140/33
f 84/131/46 85/141/49 86/142/49 81/132/46
f 82/135/48 88/143/50 85/144/50 84/136/48
f 81/133/47 86/145/51 87/146/51 83/134/47
f 89/123/43 93/147/52 96/148/52 92/124/43
f 93/149/32 94/150/32 95/151/32 96/152/32
f 91/119/42 95/148/53 94/147/53 90/120/42
f 92/115/41 96/153/54 95/154/54 91/116/41
f 90/111/40 94/146/55 93/145/55 89/112/40
f 114/155/56 113/156/56 103/157/57 104/158/57
f 116/159/58 115/160/58 102/161/58 101/162/58
f 102/163/59 115/164/60 114/165/60 104/166/59
f 113/167/61 116/168/62 101/169/63 103/170/63
f 106/171/64 112/172/65 109/173/65 108/174/66
f 103/157/57 107/175/57 106/176/57 104/158/57
f 102/161/58 108/177/67 105/178/67 101/162/58
f 105/179/68 107/180/68 103/170/63 101/169/63
f 106/171/64 108/174/66 102/163/59 104/166/59
f 109/181/69 112/182/69 111/183/69 110/184/69
f 105/179/68 110/185/70 111/186/70 107/180/68
f 107/175/71 111/187/71 112/99/71 106/176/71
f 108/177/67 109/181/72 110/184/72 105/178/67
f 116/159/73 120/188/73 119/189/73 115/160/73
f 117/190/74 118/191/74 119/192/74 120/193/74
f 114/155/56 118/191/75 117/190/75 113/156/56
f 113/167/61 117/194/76 120/195/76 116/168/62
f 115/164/60 119/196/77 118/197/77 114/165/60
l 97 98
l 98 99
l 52 53
l 53 54
