# Blender 4.3.2
# www.blender.org
mtllib wrists.mtl
o right_wrist
v 45.737206 -58.809525 24.638636
v 6.483088 -28.242702 23.721771
v 46.886677 -58.825535 -25.108074
v 7.632564 -28.258717 -26.024944
v 40.618919 -65.385948 24.522491
v 2.514280 -34.835136 -26.141096
v 41.768394 -65.401947 -25.224224
v 1.364804 -34.819118 23.605619
v 9.084204 -26.393518 -25.991999
v 48.338318 -56.960342 -25.075130
v 47.188847 -56.944336 24.671581
v 7.934728 -26.377508 23.754715
v -1.226460 -38.148602 23.546818
v 38.027657 -68.715431 24.463686
v 39.177132 -68.731430 -25.283028
v -0.076984 -38.164616 -26.199894
v -2.729260 -40.079529 23.512718
v 36.524857 -70.646355 24.429581
v 37.674332 -70.662361 -25.317133
v -1.579784 -40.095539 -26.233997
v -2.936600 -40.345940 23.508013
v 36.317516 -70.912766 24.424879
v 37.466991 -70.928764 -25.321836
v -1.787124 -40.361950 -26.238701
v 11.784564 -22.923868 -25.930717
v 51.038681 -53.490681 -25.013855
v 49.889202 -53.474682 24.732862
v 10.635088 -22.907852 23.815994
v -3.505896 -41.077419 23.495094
v 35.748219 -71.644249 24.411959
v 36.897694 -71.660255 -25.334757
v -2.356420 -41.093430 -26.251621
v 93.923531 -58.057381 11.062510
v 73.253433 -19.859173 0.076887
v 94.384079 -19.785841 -39.426674
v 115.054169 -57.984047 -28.441050
v 87.244148 -62.701790 7.481050
v 87.704674 -24.430258 -43.008141
v 108.374771 -62.628464 -32.022507
v 66.574043 -24.503584 -3.504572
v 40.841160 -61.137634 22.045597
v 6.534719 -33.632076 -23.567921
v 41.876053 -61.152039 -22.742447
v 5.499824 -33.617657 21.220123
v 66.932442 -28.957417 -22.173843
v 46.989296 -53.237968 22.185116
v 11.647960 -25.718000 21.359646
v 12.682855 -25.732414 -23.428398
v 48.024193 -53.252380 -22.602926
v 93.891396 -60.180614 13.853866
v 70.932816 -17.753328 1.651979
v 117.361481 -60.099167 -30.023298
v 94.402901 -17.671885 -42.225189
v 86.552704 -65.283478 9.918898
v 87.064209 -22.774725 -46.160160
v 110.022789 -65.202026 -33.958271
v 63.594124 -22.856171 -2.282993
v 79.135025 -70.441238 5.941575
v 102.605103 -70.359787 -37.935593
v 79.646538 -27.932495 -50.137474
v 56.176453 -28.013935 -6.260312
v 97.337967 -15.631034 -40.651421
v 120.296501 -58.058338 -28.449547
v 96.826431 -58.139778 15.427622
v 73.867882 -15.712472 3.225750
v 46.276081 -59.241581 25.355127
v 5.911696 -27.810196 24.412333
v 47.458076 -59.258045 -25.798634
v 7.093684 -27.826658 -26.741436
v 41.157803 -65.818001 25.238983
v 1.975400 -34.403080 -26.857582
v 42.339790 -65.834457 -25.914785
v 0.793412 -34.386616 24.296181
v 8.545320 -25.961468 -26.708490
v 48.909710 -57.392849 -25.765690
v 47.727722 -57.376381 25.388073
v 7.363336 -25.945002 24.445278
v -1.797852 -37.716095 24.237375
v 38.566536 -69.147484 25.180178
v 39.748524 -69.163940 -25.973589
v -0.615864 -37.732563 -26.916388
v -3.300652 -39.647026 24.203276
v 37.063736 -71.078415 25.146074
v 38.245720 -71.094872 -26.007689
v -2.118664 -39.663486 -26.950489
v -3.507996 -39.913433 24.198576
v 36.856396 -71.344818 25.141371
v 38.038383 -71.361282 -26.012392
v -2.326008 -39.929897 -26.955193
v 11.674740 -22.146860 -26.508240
v 51.835396 -53.419586 -25.570198
v 50.659370 -53.403214 25.325367
v 10.498720 -22.130476 24.387327
v -4.302608 -41.148514 24.051435
v 35.858044 -72.421249 24.989477
v 37.034065 -72.437630 -25.906088
v 93.520027 -58.803947 11.477269
v 72.303093 -19.650320 0.214479
v 93.965729 -19.586630 -40.306416
v 115.179825 -58.746712 -29.034853
v 87.662491 -62.901005 8.360785
v 88.108170 -23.683685 -43.422905
v 109.325111 -62.837322 -32.160107
v 66.448395 -23.740925 -2.910768
v 41.611320 -61.066170 22.638100
v 6.424900 -32.855068 -24.145445
v 42.672768 -61.080944 -23.298790
v 5.363456 -32.840282 21.791452
v 67.729156 -28.886324 -22.730188
v 47.099113 -54.014973 22.762640
v 10.851248 -25.789091 21.915987
v 11.912691 -25.803881 -24.020903
v 48.160561 -54.029755 -23.174255
v 93.921837 -60.744984 14.657886
v 70.270126 -17.160414 2.098178
v 118.024170 -60.692081 -30.469496
v 94.372459 -17.107512 -43.029202
v 86.583145 -65.847839 10.722918
v 87.033768 -22.210358 -46.964172
v 110.685463 -65.794922 -34.404472
v 62.931438 -22.263266 -1.836793
v 78.731514 -71.187798 6.356335
v 102.730759 -71.122452 -38.529396
v 79.228195 -27.733280 -51.017216
v 55.226101 -27.805082 -6.122720
v 97.741470 -14.884461 -41.066185
v 121.246849 -58.267189 -28.587145
v 73.742233 -14.949808 3.819550
v 14.091018 -45.133389 -2.522104
v 10.587631 -47.744823 -2.522422
v 10.587631 -47.744823 2.732199
v 14.091018 -45.133389 2.731885
v 94.651543 -46.037231 -1.584733
v 93.297653 -43.633480 -1.592455
v 94.651543 -46.037231 2.664091
v 97.072800 -43.159702 -5.260347
v 94.904663 -41.644852 -4.045398
v 94.457832 -43.500835 -4.037416
v 95.397720 -45.172791 -4.032556
v 6.072854 -48.053242 -2.517997
v 6.072854 -48.053246 2.727773
v 10.897314 -42.745926 -6.455893
v 13.105504 -44.396660 -5.168410
v 9.225347 -43.994007 -6.455756
v 10.167372 -46.587685 -5.168006
v 6.554237 -44.138504 -6.459502
v 6.222423 -46.837093 -5.180812
v 13.105509 -44.396660 5.378227
v 10.897314 -42.745934 6.665721
v 10.167375 -46.587688 5.377822
v 9.225346 -43.994007 6.665577
v 6.222422 -46.837105 5.390624
v 6.554237 -44.138512 6.669323
v 12.393250 -43.864239 -2.099388
v 12.393250 -43.864239 2.309179
v 9.864036 -45.752514 2.309176
v 9.864036 -45.752514 -2.099390
v 6.331656 -45.948574 2.309176
v 6.331656 -45.948574 -2.099390
v 11.843219 -43.453053 -3.689190
v 10.515347 -42.460396 -4.347715
v 9.629232 -45.106010 -3.689192
v 9.062333 -43.545185 -4.347716
v 6.610459 -43.681282 -4.347716
v 6.413331 -45.284527 -3.689192
v 11.843219 -43.453053 3.899017
v 10.515347 -42.460396 4.557542
v 9.629232 -45.106010 3.899014
v 9.062333 -43.545185 4.557541
v 6.413331 -45.284527 3.899014
v 6.610459 -43.681282 4.557541
vn -0.7889 0.6143 -0.0184
vn -0.0231 0.0003 0.9997
vn 0.0231 -0.0003 -0.9997
vn 0.7889 -0.6143 0.0184
vn 0.6141 0.7891 0.0139
vn -0.6141 -0.7891 -0.0139
vn -0.7514 -0.5225 -0.4029
vn 0.7514 0.5225 0.4029
vn 0.4717 0.0016 -0.8818
vn 0.4614 -0.8526 0.2452
vn -0.4717 -0.0016 0.8818
vn -0.4614 0.8526 -0.2452
vn -0.0392 -0.0203 0.9990
vn 0.0769 0.0690 -0.9946
vn 0.0070 -0.0210 -0.9998
vn 0.7725 -0.6347 0.0181
vn -0.8047 0.5934 -0.0188
vn -0.7319 0.6812 -0.0171
vn 0.7514 0.5229 0.4025
vn -0.7514 -0.5229 -0.4025
vn -0.4944 -0.0179 0.8691
vn -0.4512 0.8596 -0.2400
vn -0.4563 0.8561 -0.2427
vn -0.4673 0.0012 0.8841
vn -0.4716 -0.0018 0.8818
vn 0.4765 0.0052 -0.8792
vn 0.4716 0.0018 -0.8818
vn -0.4613 0.8526 -0.2454
vn 0.4613 -0.8526 0.2454
vn 0.4655 -0.8497 0.2476
vn 0.4697 -0.8467 0.2498
vn -0.4629 0.0043 0.8864
vn 0.4814 0.0087 -0.8765
vn 0.4376 -0.8686 0.2327
vn -0.5856 0.7856 0.1998
vn -0.3389 0.9174 0.2089
vn -0.3389 0.9174 -0.2089
vn -0.5856 0.7856 -0.1998
vn 0.2348 0.0842 0.9684
vn 0.3798 -0.1849 0.9064
vn 0.4163 0.0607 0.9072
vn 0.2676 0.3234 0.9077
vn 0.7973 0.4499 0.4023
vn 0.8545 0.4817 0.1944
vn 0.8543 0.4816 0.1954
vn 0.1285 0.9704 0.2046
vn 0.1284 0.9704 -0.2046
vn -0.2060 0.1545 0.9663
vn -0.0885 0.2387 0.9670
vn -0.1458 0.3955 0.9068
vn -0.3389 0.2543 0.9058
vn -0.5459 0.7323 0.4071
vn -0.3139 0.8501 0.4229
vn 0.0306 0.2475 0.9684
vn 0.0554 0.4299 0.9012
vn 0.1198 0.9033 0.4120
vn -0.3139 0.8501 -0.4229
vn -0.5459 0.7323 -0.4071
vn -0.3386 0.2548 -0.9058
vn -0.1458 0.3955 -0.9068
vn -0.0885 0.2387 -0.9670
vn -0.2058 0.1547 -0.9663
vn 0.1198 0.9035 -0.4114
vn 0.0554 0.4299 -0.9012
vn 0.0300 0.2472 -0.9685
vn 0.5876 -0.7870 -0.1878
vn 0.5876 -0.7870 0.1878
vn 0.5876 -0.7871 0.1877
vn 0.5876 -0.7871 -0.1877
vn 0.0544 -0.9807 -0.1877
vn 0.0544 -0.9807 0.1877
vn -0.1158 -0.9742 0.1936
vn -0.1158 -0.9742 -0.1936
vn 0.1792 -0.1347 -0.9746
vn 0.2952 -0.2217 -0.9294
vn 0.1258 -0.3465 -0.9296
vn 0.0754 -0.2077 -0.9753
vn 0.5527 -0.7403 -0.3827
vn -0.0461 -0.3747 -0.9260
vn -0.0248 -0.2150 -0.9763
vn 0.0512 -0.9225 -0.3827
vn -0.1088 -0.9153 -0.3879
vn 0.5527 -0.7403 0.3827
vn 0.2952 -0.2217 0.9294
vn 0.1791 -0.1346 0.9746
vn 0.0754 -0.2077 0.9753
vn 0.1258 -0.3465 0.9296
vn 0.0512 -0.9225 0.3827
vn -0.1088 -0.9153 0.3879
vn -0.0248 -0.2149 0.9763
vn -0.0461 -0.3747 0.9260
vt 0.984979 0.867649
vt 0.984979 0.777797
vt 0.989506 0.777722
vt 0.989506 0.867574
vt 0.985661 0.483819
vt 0.977529 0.483676
vt 0.977529 0.394432
vt 0.985661 0.394575
vt 0.964239 0.870492
vt 0.980298 0.870203
vt 0.980298 0.959451
vt 0.964239 0.959740
vt 0.961465 0.483394
vt 0.961465 0.394150
vt 0.588388 0.991347
vt 0.588388 0.901494
vt 0.604356 0.901753
vt 0.604356 0.991606
vt 0.969019 0.867913
vt 0.969019 0.778061
vt 0.612440 0.991737
vt 0.612440 0.901884
vt 0.960939 0.868046
vt 0.960939 0.778194
vt 0.956109 0.870639
vt 0.956109 0.959886
vt 0.984853 0.959369
vt 0.984853 0.870121
vt 0.993325 0.869969
vt 0.993325 0.959216
vt 0.956908 0.483314
vt 0.956908 0.394070
vt 0.583859 0.991274
vt 0.583859 0.901421
vt 0.951394 0.959971
vt 0.951394 0.870724
vt 0.950744 0.959983
vt 0.950744 0.870735
vt 0.990378 0.394658
vt 0.990378 0.483902
vt 0.956253 0.868124
vt 0.956253 0.778272
vt 0.617128 0.901960
vt 0.617128 0.991813
vt 0.991029 0.483913
vt 0.991029 0.394669
vt 0.992816 0.394701
vt 0.992816 0.483945
vt 0.617775 0.901970
vt 0.617775 0.991824
vt 0.955606 0.868134
vt 0.955606 0.778283
vt 0.820749 0.092190
vt 0.820749 0.002915
vt 0.909014 0.000000
vt 0.909014 0.089275
vt 0.948433 0.483165
vt 0.948433 0.393921
vt 0.997926 0.777583
vt 0.997926 0.867435
vt 0.575435 0.991138
vt 0.575435 0.901284
vt 0.909014 0.184380
vt 0.820749 0.181465
vt 0.909014 0.095105
vt 0.948958 0.960015
vt 0.948958 0.870767
vt 0.619551 0.901999
vt 0.619551 0.991852
vt 0.953831 0.868164
vt 0.953831 0.778312
vt 0.820753 0.647873
vt 0.901059 0.646427
vt 0.901059 0.727227
vt 0.820753 0.728673
vt 0.820753 0.564180
vt 0.901059 0.565626
vt 0.820753 0.644980
vt 0.242600 0.855029
vt 0.242600 0.935405
vt 0.163134 0.938029
vt 0.163134 0.857653
vt 0.413394 0.946967
vt 0.413394 0.866591
vt 0.492860 0.869215
vt 0.492860 0.949591
vt 0.984641 0.371324
vt 0.984641 0.280926
vt 0.991912 0.280359
vt 0.991912 0.370756
vt 1.000000 0.181182
vt 0.981361 0.181175
vt 0.981361 0.092378
vt 1.000000 0.092385
vt 0.966461 0.282345
vt 0.966461 0.372743
vt 0.973549 0.276782
vt 0.955379 0.275362
vt 0.955379 0.184948
vt 0.973549 0.186367
vt 0.962920 0.181167
vt 0.962920 0.092371
vt 0.992564 0.000013
vt 0.992564 0.088832
vt 0.974116 0.088826
vt 0.974116 0.000007
vt 0.955468 0.000000
vt 0.955468 0.088819
vt 0.948084 0.283779
vt 0.948084 0.374177
vt 0.991914 0.187803
vt 0.991914 0.278217
vt 0.948112 0.274794
vt 0.948112 0.184380
vt 0.955545 0.092368
vt 0.955545 0.181164
vt 0.999942 0.088835
vt 0.999942 0.000016
vt 0.827086 0.787722
vt 0.827086 0.877468
vt 0.737889 0.879075
vt 0.737889 0.789329
vt 0.648690 0.782728
vt 0.737887 0.784334
vt 0.737887 0.874080
vt 0.648690 0.872474
vt 0.916277 0.486389
vt 0.911748 0.486316
vt 0.911748 0.393921
vt 0.916277 0.393994
vt 0.915607 0.869872
vt 0.915607 0.778101
vt 0.923737 0.777954
vt 0.923737 0.869726
vt 0.939172 0.000362
vt 0.939172 0.092130
vt 0.923108 0.091848
vt 0.923108 0.000080
vt 0.939795 0.777665
vt 0.939795 0.869437
vt 0.770104 0.971543
vt 0.754144 0.971807
vt 0.754144 0.879413
vt 0.770104 0.879149
vt 0.932245 0.394253
vt 0.932245 0.486648
vt 0.746064 0.971940
vt 0.746064 0.879547
vt 0.940329 0.394384
vt 0.940329 0.486779
vt 0.947305 0.000505
vt 0.947305 0.092273
vt 0.918552 0.091768
vt 0.909014 0.091405
vt 0.909014 0.000100
vt 0.918552 0.000000
vt 0.944350 0.777583
vt 0.944350 0.869355
vt 0.774631 0.879075
vt 0.774631 0.971468
vt 0.952021 0.000588
vt 0.952021 0.092356
vt 0.952672 0.000600
vt 0.952672 0.092368
vt 0.910892 0.869957
vt 0.910892 0.778185
vt 0.945017 0.394460
vt 0.945017 0.486855
vt 0.741377 0.972018
vt 0.741377 0.879624
vt 0.910241 0.869969
vt 0.907392 0.869752
vt 0.907392 0.778444
vt 0.910241 0.778197
vt 0.740731 0.972028
vt 0.740731 0.879635
vt 0.945664 0.394470
vt 0.945664 0.486865
vt 0.173970 0.855029
vt 0.083668 0.852046
vt 0.083668 0.760710
vt 0.173970 0.763692
vt 0.953831 0.777608
vt 0.953831 0.868916
vt 0.902257 0.485953
vt 0.902257 0.394024
vt 0.784043 0.879128
vt 0.784043 0.971055
vt 0.737889 0.971818
vt 0.737889 0.879891
vt 0.082348 0.481233
vt 0.082359 0.564092
vt -0.000000 0.562605
vt -0.000000 0.479731
vt 0.082359 0.732813
vt 0.082348 0.815672
vt -0.000000 0.817174
vt -0.000000 0.734299
vt 0.820753 0.393921
vt 0.902257 0.396613
vt 0.902257 0.479050
vt 0.820753 0.476359
vt 0.902254 0.266817
vt 0.820749 0.269509
vt 0.820749 0.187072
vt 0.902254 0.184380
vt 0.910464 0.373722
vt 0.902254 0.372835
vt 0.902254 0.280359
vt 0.910531 0.280781
vt 0.909013 0.183519
vt 0.909017 0.092671
vt 0.928706 0.092368
vt 0.928653 0.183683
vt 0.928701 0.282191
vt 0.928634 0.375133
vt 0.921642 0.279076
vt 0.921575 0.186152
vt 0.939756 0.184743
vt 0.939824 0.277667
vt 0.947101 0.183683
vt 0.947154 0.092368
vt 0.008366 0.899420
vt 0.026807 0.899434
vt 0.026862 0.990726
vt 0.008422 0.990713
vt 0.046512 0.899642
vt 0.046512 0.990486
vt 0.948077 0.283872
vt 0.948084 0.376358
vt 0.902254 0.187900
vt 0.000006 0.990403
vt -0.000000 0.899578
vt 0.083668 0.479458
vt 0.174907 0.481120
vt 0.174917 0.572925
vt 0.083668 0.571278
vt 0.289778 0.272391
vt 0.291103 0.270627
vt 0.288625 0.314282
vt 0.287864 0.313185
vt 0.288802 0.312963
vt 0.289645 0.313440
vt 0.288871 0.312377
vt 0.290082 0.313065
vt 0.291267 0.268349
vt 0.288579 0.270774
vt 0.289212 0.269932
vt 0.290520 0.270413
vt 0.289408 0.271892
vt 0.289290 0.268584
vt 0.290653 0.268422
vt 0.409967 0.274357
vt 0.410908 0.273107
vt 0.411012 0.271356
vt 0.409275 0.273424
vt 0.409765 0.274084
vt 0.410588 0.272989
vt 0.409815 0.272706
vt 0.410682 0.271396
vt 0.409887 0.271490
s 1
usemtl Material.005
f 4/1/1 2/2/1 12/3/1 9/4/1
f 14/5/2 5/6/2 8/7/2 13/8/2
f 6/9/3 4/10/3 3/11/3 7/12/3
f 5/6/2 1/13/2 2/14/2 8/7/2
f 3/15/4 1/16/4 5/17/4 7/18/4
f 2/2/1 4/1/1 6/19/1 8/20/1
f 15/21/4 7/18/4 5/17/4 14/22/4
f 8/20/1 6/19/1 16/23/1 13/24/1
f 16/25/3 6/9/3 7/12/3 15/26/3
f 10/27/3 9/28/3 25/29/3 26/30/3
f 3/11/3 4/10/3 9/28/3 10/27/3
f 2/14/2 1/13/2 11/31/2 12/32/2
f 1/16/4 3/15/4 10/33/4 11/34/4
f 16/25/3 15/26/3 19/35/3 20/36/3
f 20/36/3 19/35/3 23/37/3 24/38/3
f 14/5/2 13/8/2 17/39/2 18/40/2
f 13/24/1 16/23/1 20/41/1 17/42/1
f 15/21/4 14/22/4 18/43/4 19/44/4
f 22/45/2 21/46/2 29/47/2 30/48/2
f 19/44/4 18/43/4 22/49/4 23/50/4
f 17/42/1 20/41/1 24/51/1 21/52/1
f 18/40/2 17/39/2 21/46/2 22/45/2
f 26/53/5 25/54/5 28/55/5 27/56/5
f 12/32/2 11/31/2 27/57/2 28/58/2
f 9/4/1 12/3/1 28/59/1 25/60/1
f 11/34/4 10/33/4 26/61/4 27/62/4
f 31/63/6 30/64/6 29/53/6 32/65/6
f 24/38/3 23/37/3 31/66/3 32/67/3
f 23/50/4 22/49/4 30/68/4 31/69/4
f 21/52/1 24/51/1 32/70/1 29/71/1
f 33/72/7 34/73/7 35/74/7 36/75/7
f 40/76/8 37/77/8 39/73/8 38/78/8
f 44/79/5 41/80/5 43/81/5 42/82/5
f 46/83/6 47/84/6 48/85/6 49/86/6
f 52/87/9 53/88/9 62/89/9 63/90/9
f 59/91/10 56/92/10 54/93/10 58/94/10
f 55/95/9 53/88/9 52/87/9 56/96/9
f 54/97/11 50/98/11 51/99/11 57/100/11
f 52/101/10 50/102/10 54/93/10 56/92/10
f 51/103/12 53/104/12 55/105/12 57/106/12
f 61/107/12 57/106/12 55/105/12 60/108/12
f 60/109/9 55/95/9 56/96/9 59/110/9
f 54/97/11 57/100/11 61/111/11 58/112/11
f 51/99/11 50/98/11 64/113/11 65/114/11
f 64/115/10 50/102/10 52/101/10 63/116/10
f 62/117/12 53/104/12 51/103/12 65/118/12
f 61/119/7 60/120/7 59/121/7 58/122/7
f 65/123/8 64/124/8 63/125/8 62/126/8
f 69/127/4 74/128/4 77/129/4 67/130/4
f 79/131/3 78/132/3 73/133/3 70/134/3
f 71/135/2 72/136/2 68/137/2 69/138/2
f 70/134/3 73/133/3 67/139/3 66/140/3
f 68/141/1 72/142/1 70/143/1 66/144/1
f 67/130/4 73/145/4 71/146/4 69/127/4
f 80/147/1 79/148/1 70/143/1 72/142/1
f 73/145/4 78/149/4 81/150/4 71/146/4
f 81/151/2 80/152/2 72/136/2 71/135/2
f 75/153/13 91/154/13 90/155/13 74/156/13
f 68/137/2 75/153/2 74/156/2 69/138/2
f 67/139/3 77/157/3 76/158/3 66/140/3
f 66/144/1 76/159/1 75/160/1 68/141/1
f 81/151/2 85/161/2 84/162/2 80/152/2
f 85/161/2 89/163/2 88/164/2 84/162/2
f 79/131/3 83/165/3 82/166/3 78/132/3
f 78/149/4 82/167/4 85/168/4 81/150/4
f 80/147/1 84/169/1 83/170/1 79/148/1
f 87/171/14 95/172/14 94/173/14 86/174/14
f 84/169/1 88/175/1 87/176/1 83/170/1
f 82/167/4 86/177/4 89/178/4 85/168/4
f 83/165/3 87/171/3 86/174/3 82/166/3
f 91/179/6 92/180/6 93/181/6 90/182/6
f 77/157/15 93/183/15 92/184/15 76/158/15
f 74/128/16 90/185/16 93/186/16 77/129/16
f 76/159/17 92/187/17 91/188/17 75/160/17
f 88/175/18 96/189/18 95/190/18 87/176/18
f 97/191/19 100/192/19 99/193/19 98/194/19
f 104/195/20 102/196/20 103/197/20 101/198/20
f 108/199/6 106/200/6 107/201/6 105/202/6
f 110/203/5 113/204/5 112/205/5 111/206/5
f 116/207/21 127/208/21 126/209/21 117/210/21
f 123/211/22 122/212/22 118/213/23 120/214/23
f 119/215/24 120/216/24 116/207/25 117/210/25
f 118/217/26 121/218/26 115/219/27 114/220/27
f 116/221/28 120/214/23 118/213/23 114/222/28
f 115/223/29 121/224/30 119/225/30 117/226/29
f 125/227/31 124/228/31 119/225/30 121/224/30
f 124/229/32 123/230/32 120/216/24 119/215/24
f 118/217/26 122/209/33 125/231/33 121/218/26
f 126/232/34 128/233/34 115/223/34 117/226/34
f 125/234/19 122/235/19 123/236/19 124/237/19
usemtl None
f 129/238/35 130/239/36 131/239/37 132/238/38
f 136/240/39 137/241/40 138/242/41
f 136/240/39 138/242/41 139/243/42
f 139/243/43 138/242/43 134/244/44 133/245/45
f 130/239/36 140/246/46 141/246/47 131/239/37
f 142/247/48 144/248/49 145/249/50 143/250/51
f 143/250/52 145/249/53 130/239/36 129/238/35
f 144/248/49 146/251/54 147/252/55 145/249/50
f 145/249/53 147/252/56 140/246/46 130/239/36
f 132/238/38 131/239/37 150/249/57 148/250/58
f 148/250/59 150/249/60 151/248/61 149/247/62
f 131/239/37 141/246/47 152/252/63 150/249/57
f 150/249/60 152/252/64 153/251/65 151/248/61
f 153/251/65 149/247/62 151/248/61
f 142/247/48 146/251/54 144/248/49
f 154/253/66 155/253/67 156/254/68 157/254/69
f 157/254/70 156/254/71 158/255/72 159/255/73
f 161/256/74 160/257/75 162/258/76 163/259/77
f 160/257/78 154/253/66 157/254/69 162/258/78
f 163/259/77 162/258/76 165/260/79 164/261/80
f 162/258/81 157/254/70 159/255/73 165/260/82
f 155/253/67 166/257/83 168/258/83 156/254/68
f 166/257/84 167/256/85 169/259/86 168/258/87
f 156/254/71 168/258/88 170/260/89 158/255/72
f 168/258/87 169/259/86 171/261/90 170/260/91
f 171/261/90 169/259/86 167/256/85
f 161/256/74 163/259/77 164/261/80
l 133 135
