# Blender 4.3.2
# www.blender.org
mtllib ak hands.mtl
o Cube.002
v -196.841965 -68.919052 -13.866531
v -165.399994 -47.900002 12.862597
v 10.921830 -19.384838 10.765184
v 109.647682 -16.873333 -20.891428
v -151.900009 -35.200001 14.499995
v -196.999985 -68.900002 -12.100010
v -165.399994 -47.900002 11.099998
v 9.700000 -19.500000 9.500004
v 48.319714 -87.780029 47.483433
v 14.194800 -11.358956 27.701902
v 91.449638 -87.780037 -26.919590
v 57.324734 -11.358968 -46.701141
v 7.255950 -112.278160 23.679617
v 16.260981 -35.857113 -70.504967
v 50.385891 -112.278168 -50.723412
v -26.868948 -35.857094 3.898065
v -82.028252 -96.646141 29.058355
v -139.991928 -37.121914 51.263767
v -112.886856 -96.750046 -51.214527
v -170.850510 -37.225815 -29.009117
v -116.704346 -135.404678 42.438763
v -205.526611 -75.984337 -15.628709
v -147.562927 -135.508575 -37.834133
v -174.668015 -75.880432 64.644173
v 49.599289 -87.426849 48.799107
v 15.080360 -10.123336 28.789143
v 93.227257 -87.426857 -26.463051
v 58.708313 -10.123347 -46.473015
v 7.192281 -112.818542 24.345596
v 16.324640 -35.316730 -71.170944
v 50.932152 -112.818550 -51.109646
v -27.415232 -35.316711 4.284306
v -419.083313 -474.267242 159.675095
v -79.786736 -95.802582 30.071636
v -138.903534 -35.754234 52.328308
v -112.399574 -96.688995 -51.925312
v -171.028473 -36.540207 -29.498386
v -114.609337 -134.772308 43.470589
v -207.621582 -76.616722 -16.660538
v -148.368942 -136.669983 -38.942581
v -173.862045 -74.718994 65.752632
vn 0.7688 0.4586 0.4457
vn 0.5015 -0.0000 -0.8652
vn -0.5015 -0.0000 0.8652
vn 0.3968 -0.8886 0.2300
vn -0.3968 0.8886 -0.2300
vn 0.6457 0.7218 -0.2492
vn -0.3588 -0.0012 -0.9334
vn 0.3588 0.0012 0.9334
vn 0.6740 -0.6921 -0.2582
vn -0.6740 0.6921 0.2582
vn -0.7688 -0.4586 -0.4457
vn -0.5006 0.0005 0.8657
vn -0.5031 -0.0009 0.8642
vn 0.5024 0.0005 -0.8646
vn 0.5000 -0.0009 -0.8661
vn -0.3984 0.8877 -0.2309
vn -0.3960 0.8891 -0.2295
vn 0.3952 -0.8895 0.2291
vn 0.3977 -0.8881 0.2305
vn -0.6396 -0.7233 0.2602
vn 0.3454 -0.0104 0.9384
vn -0.3553 -0.0036 -0.9347
vn -0.6740 0.6913 0.2604
vn -0.6711 0.6948 0.2585
vn -0.6686 0.6979 0.2567
vn 0.6720 -0.6941 -0.2582
vn 0.6737 -0.6920 -0.2596
vn 0.6738 -0.6918 -0.2596
vn 0.6313 0.7250 -0.2753
vt 0.848475 0.114647
vt 0.848475 0.000906
vt 0.961507 0.000000
vt 0.961507 0.113740
vt 0.873065 0.868686
vt 0.893356 0.868686
vt 0.893356 0.982648
vt 0.873065 0.982648
vt 0.919161 0.982656
vt 0.898871 0.982656
vt 0.898871 0.868694
vt 0.919161 0.868694
vt 0.681742 0.981930
vt 0.681742 0.867967
vt 0.702032 0.867967
vt 0.702032 0.981930
vt 0.681742 0.981929
vt 0.661451 0.981929
vt 0.661451 0.867967
vt 0.000000 0.000000
vt 0.728533 -0.000000
vt 0.842110 0.000000
vt 0.848475 0.077940
vt 0.734898 0.077940
vt 0.741082 0.656162
vt 0.737029 0.605132
vt 0.850606 0.605132
vt 0.854659 0.656162
vt 0.730846 0.128968
vt 0.844423 0.128968
vt 0.929063 0.576803
vt 0.929063 0.501796
vt 0.954579 0.469603
vt 0.954579 0.544610
vt 0.930365 0.406560
vt 0.930365 0.331542
vt 0.955868 0.363731
vt 0.955868 0.438750
vt 0.489331 0.944330
vt 0.374998 0.943410
vt 0.374998 0.828357
vt 0.489331 0.829277
vt 0.642601 0.867967
vt 0.642601 0.983541
vt 0.621653 0.983393
vt 0.621653 0.868115
vt 0.943509 0.981237
vt 0.943509 0.865663
vt 0.964457 0.865811
vt 0.964457 0.981089
vt 0.961071 0.318999
vt 0.940123 0.319147
vt 0.940123 0.203573
vt 0.961071 0.203721
vt 0.933755 0.750237
vt 0.954703 0.750089
vt 0.954703 0.865663
vt 0.933755 0.865515
vt 0.614571 0.610720
vt 0.608200 0.689477
vt 0.493155 0.689502
vt 0.499760 0.610720
vt 0.730963 0.657028
vt 0.615793 0.656940
vt 0.620130 0.605132
vt 0.734941 0.605132
vt 0.612328 0.740713
vt 0.497159 0.740802
vt 0.899090 0.750089
vt 0.925525 0.782315
vt 0.924665 0.858300
vt 0.898871 0.826167
vt 0.863969 0.792556
vt 0.889846 0.760316
vt 0.890707 0.836289
vt 0.863969 0.868686
s 0
usemtl Material.005
f 32/20/1 29/20/1 31/20/1
f 32/20/1 31/20/1 30/20/1
f 39/20/29 41/20/29 40/20/29
f 41/20/29 38/20/29 40/20/29
s 1
usemtl Material.007
f 11/1/1 12/2/1 10/3/1 9/4/1
f 14/5/2 12/6/2 11/7/2 15/8/2
f 13/9/3 9/10/3 10/11/3 16/12/3
f 11/13/4 9/14/4 13/15/4 15/16/4
f 10/14/5 12/17/5 14/18/5 16/19/5
f 19/21/6 20/22/6 18/23/6 17/24/6
f 22/25/7 20/26/7 19/27/7 23/28/7
f 21/29/8 17/24/8 18/23/8 24/30/8
f 19/31/9 17/32/9 21/33/9 23/34/9
f 18/35/10 20/36/10 22/37/10 24/38/10
f 27/39/11 25/40/11 26/41/11 28/42/11
f 30/43/12 31/44/12 27/45/13 28/46/13
f 29/47/14 32/48/14 26/49/15 25/50/15
f 27/51/16 31/52/17 29/53/17 25/54/16
f 26/55/18 32/56/19 30/57/19 28/58/18
f 36/59/20 34/60/20 35/61/20 37/62/20
f 39/63/21 40/64/21 36/65/21 37/66/21
f 38/67/22 41/68/22 35/61/22 34/60/22
f 36/69/23 40/70/24 38/71/25 34/72/23
f 35/73/26 41/74/27 39/75/28 37/76/26
