# Blender 4.3.2
# www.blender.org
mtllib hands.mtl
o right_wrist
v 144.668381 -98.978836 70.771072
v 103.237587 -1.585514 40.803860
v 209.162109 -98.961830 -18.338736
v 167.731323 -1.568557 -48.305969
v 106.154442 -123.940849 42.891640
v 129.217331 -26.530594 -76.185425
v 170.648178 -123.923889 -46.218185
v 64.723633 -26.547560 12.924404
v 94.158630 -131.715683 34.208122
v 52.727810 -34.322384 4.240895
v 117.221573 -34.305393 -84.868927
v 158.652374 -131.698685 -54.901699
v 2.671820 -63.102451 60.141098
v -92.334618 -14.884247 87.505020
v -27.535902 -62.597507 -45.628654
v -122.542336 -14.379312 -18.264727
v -20.023502 -111.367706 66.392433
v -145.237656 -62.644573 -12.013391
v -50.231220 -110.862755 -39.377312
v -115.029930 -63.149506 93.756371
v -27.375641 -127.003227 68.417564
v -122.382095 -78.785042 95.781487
v -152.589798 -78.280090 -9.988268
v -57.583370 -126.498283 -37.352188
v 145.273239 -99.568657 72.721687
v 103.050735 0.342966 42.082451
v 211.237915 -99.408257 -18.347336
v 169.136124 0.660373 -49.070148
v 105.422440 -125.861893 44.407410
v 129.949341 -24.609552 -77.701195
v 171.943512 -125.424950 -47.050831
v 63.428272 -25.046476 13.757044
v 92.753807 -133.944580 34.972313
v 50.652050 -33.875957 4.249495
v 116.616676 -33.715584 -86.819534
v 158.839218 -133.627182 -56.180298
v 4.731750 -62.193771 60.818047
v -92.369034 -12.912637 88.785179
v -26.141870 -61.677689 -47.283321
v -123.242653 -12.396564 -19.316179
v -18.333200 -112.025436 67.450867
v -146.927963 -61.986843 -13.071821
v -49.356480 -111.506851 -41.174534
v -115.904678 -62.505421 95.553574
v -25.685352 -127.660957 69.475990
v -123.256813 -78.140938 97.578697
v -154.280121 -77.622368 -11.046699
v -56.708630 -127.142372 -39.149410
vn 0.4226 0.8988 -0.1164
vn 0.7172 0.4648 0.5192
vn 0.5863 0.0002 -0.8101
vn -0.5863 -0.0002 0.8101
vn 0.3766 -0.8854 0.2724
vn -0.3766 0.8854 -0.2724
vn -0.7172 -0.4648 -0.5192
vn 0.8637 -0.4383 -0.2488
vn -0.2746 0.0046 -0.9615
vn 0.2746 -0.0046 0.9615
vn -0.8637 0.4383 0.2488
vn -0.7174 -0.4624 -0.5211
vn -0.5725 0.0101 0.8198
vn -0.5898 -0.0002 0.8075
vn 0.5821 -0.0040 -0.8131
vn -0.3838 0.8813 -0.2757
vn 0.3756 -0.8869 0.2691
vn 0.7174 0.4624 0.5211
vn 0.5955 0.0039 -0.8033
vn -0.3709 0.8899 -0.2657
vn 0.3964 -0.8728 0.2848
vn -0.4226 -0.8988 0.1164
vn -0.8647 0.4361 0.2490
vn -0.8617 0.4426 0.2482
vn 0.2736 -0.0068 0.9618
vn 0.2725 -0.0090 0.9621
vn -0.2757 0.0024 -0.9613
vn -0.2767 0.0002 -0.9610
vn -0.8658 0.4339 0.2493
vn 0.8616 -0.4428 -0.2482
vn 0.8627 -0.4406 -0.2485
vn 0.8657 -0.4341 -0.2493
vn 0.2766 -0.0004 0.9610
vn -0.2726 0.0088 -0.9621
vt 0.000000 0.000000
vt 0.937000 0.450244
vt 0.857846 0.441256
vt 0.857846 0.354855
vt 0.937000 0.363843
vt 0.942787 0.196389
vt 0.942787 0.276052
vt 0.930982 0.273192
vt 0.930982 0.193528
vt 0.980688 0.205574
vt 0.980688 0.285237
vt 0.969039 0.082524
vt 0.931138 0.091709
vt 0.931138 0.012045
vt 0.969039 0.002861
vt 0.930972 0.632034
vt 0.930972 0.545634
vt 0.969728 0.549970
vt 0.969728 0.636371
vt 0.602494 0.888113
vt 0.602494 0.974514
vt 0.563738 0.978850
vt 0.563738 0.892449
vt 0.857846 0.459233
vt 0.937000 0.536645
vt 0.857846 0.545634
vt 0.980844 0.000000
vt 0.980844 0.079663
vt 0.981799 0.551321
vt 0.981799 0.637722
vt 0.551666 0.980201
vt 0.551666 0.893800
vt 0.949091 0.810912
vt 0.877542 0.794122
vt 0.877542 0.710129
vt 0.949091 0.726919
vt 0.953855 0.111667
vt 0.953855 0.183118
vt 0.944949 0.179746
vt 0.944949 0.108295
vt 0.619383 0.894467
vt 0.639680 0.888113
vt 0.639680 0.973998
vt 0.619383 0.980353
vt 0.450625 0.986761
vt 0.430328 0.980406
vt 0.430328 0.894521
vt 0.450625 0.900875
vt 0.981344 0.122077
vt 0.981344 0.193528
vt 0.471995 0.982897
vt 0.471995 0.911632
vt 0.499530 0.901214
vt 0.499530 0.972480
vt 0.508450 0.897839
vt 0.508450 0.969105
vt 0.612807 0.982412
vt 0.612807 0.896526
vt 0.457201 0.902934
vt 0.457201 0.988820
vt 0.791192 0.911554
vt 0.791254 0.823246
vt 0.872326 0.814190
vt 0.872326 0.902588
vt 0.283629 0.551925
vt 0.296668 0.549159
vt 0.296601 0.630736
vt 0.283953 0.633911
vt 0.244960 0.642915
vt 0.244960 0.561287
vt 0.735911 0.627303
vt 0.736235 0.545317
vt 0.774997 0.554741
vt 0.775063 0.636317
vt 0.297701 0.449266
vt 0.257946 0.453866
vt 0.257800 0.365092
vt 0.297764 0.360958
vt 0.244960 0.455059
vt 0.284634 0.459201
vt 0.284488 0.547975
vt 0.244960 0.543457
vt 0.386130 0.804292
vt 0.386130 0.892690
vt 0.305058 0.883634
vt 0.304996 0.795326
vt 0.723356 0.624189
vt 0.723356 0.542560
vt 0.244960 0.366661
vt 0.297701 0.460851
vt 0.297764 0.549159
vt 0.858012 0.309285
vt 0.858012 0.223529
vt 0.930982 0.206145
vt 0.930982 0.291901
vt 0.698123 0.603971
vt 0.707656 0.604240
vt 0.679839 0.671937
vt 0.670306 0.671669
vt 0.670306 0.543104
vt 0.667679 0.603134
vt 0.639997 0.542560
vt 0.529016 0.987049
vt 0.529016 0.898844
vt 0.550093 0.892546
vt 0.550093 0.980325
vt 0.639997 0.670505
vt 0.639997 0.610059
vt 0.609870 0.610972
vt 0.581863 0.543146
vt 0.612125 0.542560
vt 0.600352 0.611253
vt 0.572345 0.543428
vt 0.158821 0.894750
vt 0.165396 0.896809
vt 0.165396 0.985013
vt 0.158821 0.982955
vt 0.522440 0.989107
vt 0.522440 0.900903
s 0
usemtl Material.008
f 45/1/1 47/1/1 46/1/1
f 45/1/1 48/1/1 47/1/1
s 1
f 3/2/2 4/3/2 2/4/2 1/5/2
f 6/6/3 7/7/3 12/8/3 11/9/3
f 6/6/3 4/10/3 3/11/3 7/7/3
f 5/12/4 1/13/4 2/14/4 8/15/4
f 3/16/5 1/17/5 5/18/5 7/19/5
f 2/20/6 4/21/6 6/22/6 8/23/6
f 9/24/7 10/2/7 11/25/7 12/26/7
f 5/12/4 8/15/4 10/27/4 9/28/4
f 7/19/5 5/18/5 9/29/5 12/30/5
f 8/23/6 6/22/6 11/31/6 10/32/6
f 15/33/1 16/34/1 14/35/1 13/36/1
f 19/37/8 17/38/8 21/39/8 24/40/8
f 18/41/9 16/42/9 15/43/9 19/44/9
f 17/45/10 13/46/10 14/47/10 20/48/10
f 15/49/8 13/50/8 17/38/8 19/37/8
f 14/51/11 16/52/11 18/53/11 20/54/11
f 20/54/11 18/53/11 23/55/11 22/56/11
f 18/41/9 19/44/9 24/57/9 23/58/9
f 17/45/10 20/48/10 22/59/10 21/60/10
f 27/61/12 25/62/12 26/63/12 28/64/12
f 30/65/13 35/66/13 36/67/13 31/68/13
f 30/65/14 31/68/14 27/69/14 28/70/14
f 29/71/15 32/72/15 26/73/15 25/74/15
f 27/75/16 31/76/16 29/77/16 25/78/16
f 26/79/17 32/80/17 30/81/17 28/82/17
f 33/83/18 36/84/18 35/85/18 34/86/18
f 29/71/19 33/87/19 34/88/19 32/72/19
f 31/76/20 36/79/20 33/89/20 29/77/20
f 32/80/21 34/90/21 35/91/21 30/81/21
f 39/92/22 37/93/22 38/94/22 40/95/22
f 43/96/23 48/97/24 45/98/24 41/99/23
f 42/100/25 43/96/25 39/101/26 40/102/26
f 41/103/27 44/104/27 38/105/28 37/106/28
f 39/101/29 43/96/23 41/99/23 37/107/29
f 38/108/30 44/109/31 42/110/31 40/111/30
f 44/109/31 46/112/32 47/113/32 42/110/31
f 42/114/25 47/115/33 48/116/33 43/117/25
f 41/103/27 45/118/34 46/119/34 44/104/27
