# Blender 4.3.2
# www.blender.org
mtllib wrists.mtl
o right_wrist
v -33.433548 -154.205017 75.217804
v -170.030807 -101.052505 -10.315825
v -66.387421 -153.654160 -40.167366
v -137.076935 -101.603348 105.069344
v -158.864365 -77.305260 -13.391568
v -55.220978 -129.906921 -43.243118
v -22.267111 -130.457794 72.142036
v -125.910484 -77.856110 101.993591
v -42.064800 -172.560776 77.595238
v -75.018669 -172.009918 -37.789928
v -178.662048 -119.408257 -7.938382
v -145.708176 -119.959091 107.446785
v -44.134834 -176.962997 78.165413
v -77.088699 -176.412155 -37.219746
v -180.732086 -123.810486 -7.368191
v -147.778214 -124.361320 108.016968
v -125.492310 -76.966782 101.878403
v -158.446167 -76.415932 -13.506768
v -21.848928 -129.568466 72.026855
v -54.802803 -129.017609 -43.358311
v -181.079941 -124.550285 -7.272381
v -148.126083 -125.101128 108.112793
v -44.482700 -177.702805 78.261238
v -77.436577 -177.151962 -37.123924
v -124.840294 -75.580200 101.698814
v -157.794174 -75.029343 -13.686349
v -21.196930 -128.181870 71.847260
v -54.150795 -127.631004 -43.537891
v 94.158630 -131.715683 34.208122
v 52.727810 -34.322384 4.240895
v 117.221573 -34.305393 -84.868927
v 158.652374 -131.698685 -54.901699
v 70.079002 -147.322403 16.777372
v 93.141937 -49.912109 -102.299667
v 134.572723 -147.305405 -72.332451
v 28.648199 -49.929081 -13.189854
v -41.281864 -156.577042 72.247963
v -166.496017 -107.853897 -6.157855
v -71.489586 -156.072083 -33.521774
v -136.288315 -108.358833 99.611885
v -295.725433 -697.692078 142.333466
v -27.375641 -127.003227 68.417564
v -122.382095 -78.785042 95.781487
v -152.589798 -78.280090 -9.988268
v -57.583370 -126.498283 -37.352188
v -38.907360 -151.527267 71.593925
v -133.913803 -103.309067 98.957855
v -164.121506 -102.804115 -6.811905
v -69.115082 -151.022308 -34.175827
v 93.343964 -135.992004 39.789833
v 48.146709 -29.744781 7.098325
v 163.700760 -135.973480 -57.420864
v 118.503494 -29.726234 -90.112381
v 72.828873 -149.288437 24.939383
v 97.988396 -43.022667 -104.962830
v 143.185669 -149.269897 -72.271332
v 27.631611 -43.041222 -7.752124
v 120.421852 -28.482903 -88.723724
v 165.619125 -134.730148 -56.032204
v 95.262321 -134.748657 41.178482
v 50.065079 -28.501450 8.486974
v 126.841331 -159.863113 -84.102608
v 81.644096 -53.615894 -116.794121
v 11.287311 -53.634418 -19.583412
v 56.484570 -159.881653 13.108095
v 125.513687 -160.723618 -85.063683
v 80.316429 -54.476406 -117.755196
v 9.959661 -54.494923 -20.544483
v 55.156898 -160.742157 12.147025
v -31.743250 -154.862747 76.276230
v -171.721100 -100.394775 -11.374245
v -65.512688 -154.298248 -41.964573
v -137.951675 -100.959259 106.866562
v -160.554672 -76.647530 -14.449999
v -54.346241 -130.551010 -45.040329
v -20.576799 -131.115524 73.200470
v -126.785217 -77.212021 103.790794
v -40.374500 -173.218491 78.653664
v -74.143929 -172.654007 -39.587135
v -180.352371 -118.750504 -8.996802
v -146.582932 -119.314987 109.243988
v -42.444519 -177.620743 79.223839
v -76.213959 -177.056244 -39.016953
v -182.422379 -123.152748 -8.426621
v -148.652939 -123.717232 109.814178
v -126.367027 -76.322685 103.675606
v -160.136475 -75.758202 -14.565187
v -20.158628 -130.226196 73.085281
v -53.928059 -129.661697 -45.155510
v -183.139877 -125.458961 -7.949331
v -149.520111 -126.020927 109.767456
v -43.782368 -179.685562 79.312691
v -77.402138 -179.123566 -38.404083
v -124.874733 -73.608574 102.978973
v -158.494492 -73.046600 -14.737798
v -19.136992 -127.273186 72.524208
v -52.756775 -126.711197 -45.192562
v 92.753807 -133.944580 34.972313
v 50.652050 -33.875957 4.249495
v 116.616676 -33.715584 -86.819534
v 158.839218 -133.627182 -56.180298
v 70.683884 -147.912231 18.727983
v 94.546745 -47.683216 -103.063866
v 136.648529 -147.751831 -72.341042
v 28.461363 -48.000622 -11.911253
v -422.588104 -383.190033 -477.138641
v -39.221939 -155.668365 72.924934
v -167.196350 -105.871147 -7.209304
v -70.095558 -155.152267 -35.176449
v -136.322708 -106.387215 100.892059
v -25.685352 -127.660957 69.475990
v -123.256813 -78.140938 97.578697
v -154.280121 -77.622368 -11.046699
v -56.708630 -127.142372 -39.149410
v -38.207043 -153.510025 72.645378
v -135.307816 -104.228867 100.612518
v -166.181442 -103.712791 -7.488855
v -69.080658 -152.993927 -35.455997
v 92.611984 -137.913055 41.305599
v 46.851330 -28.243698 7.930964
v 164.996140 -137.474564 -58.253517
v 119.235474 -27.805223 -91.628166
v 72.096855 -151.209473 26.455164
v 98.720398 -41.101658 -106.478630
v 144.481033 -150.770981 -73.103981
v 26.336241 -41.540154 -6.919494
v 121.826675 -26.254005 -89.487930
v 167.694870 -135.176575 -56.040798
v 95.867180 -135.338501 43.129105
v 49.878220 -26.572950 9.765574
v 128.136703 -161.364182 -84.935242
v 82.376099 -51.694862 -118.309906
v 9.991950 -52.133331 -18.750772
v 55.752560 -161.802673 14.623876
v 79.711594 -53.886555 -119.705803
v 7.883850 -54.048500 -20.535892
v 53.752083 -162.971054 12.911214
vn 0.8637 -0.4383 -0.2488
vn -0.2746 0.0046 -0.9615
vn 0.2746 -0.0046 0.9615
vn -0.8637 0.4383 0.2488
vn -0.4226 -0.8988 0.1164
vn 0.4226 0.8988 -0.1164
vn -0.7172 -0.4648 -0.5192
vn 0.7172 0.4648 0.5192
vn -0.5863 -0.0002 0.8101
vn 0.5863 0.0002 -0.8101
vn 0.3766 -0.8854 0.2724
vn -0.3766 0.8854 -0.2724
vn -0.2258 0.1047 -0.9685
vn 0.2372 -0.0820 0.9680
vn 0.3200 0.0955 0.9426
vn -0.8113 0.5357 0.2343
vn 0.9054 -0.3355 -0.2602
vn -0.8969 0.3593 0.2579
vn -0.3100 -0.0729 -0.9479
vn 0.8241 -0.5141 -0.2378
vn 0.7174 0.4624 0.5211
vn -0.7174 -0.4624 -0.5211
vn 0.8657 -0.4341 -0.2494
vn 0.8676 -0.4299 -0.2498
vn 0.8657 -0.4341 -0.2493
vn 0.2767 -0.0004 0.9610
vn 0.2786 0.0039 0.9604
vn 0.2766 -0.0003 0.9610
vn -0.2727 0.0089 -0.9621
vn -0.2706 0.0131 -0.9626
vn -0.2726 0.0088 -0.9621
vn -0.8617 0.4426 0.2483
vn -0.8597 0.4468 0.2477
vn -0.8617 0.4426 0.2482
vn 0.5231 -0.0404 -0.8513
vn -0.5870 0.0015 0.8096
vn -0.5870 0.0014 0.8096
vn 0.5870 -0.0014 -0.8096
vn -0.3778 0.8854 -0.2708
vn 0.3778 -0.8854 0.2708
vn -0.7174 -0.4626 -0.5209
vn -0.4552 0.8278 -0.3278
vn 0.3448 -0.9057 0.2468
vn -0.6250 -0.0235 0.7803
vn 0.4726 -0.8129 0.3405
vn 0.6348 0.0301 -0.7721
vt 0.939929 0.454520
vt 0.950384 0.458480
vt 0.950384 0.536426
vt 0.939929 0.532467
vt 0.998329 0.448848
vt 0.988342 0.451974
vt 0.988342 0.358281
vt 0.998329 0.355155
vt 0.000957 0.900086
vt 0.010944 0.903213
vt 0.010944 0.996906
vt 0.000957 0.993779
vt 0.963909 0.541548
vt 0.963909 0.463601
vt 0.089551 0.904948
vt 0.103099 0.899822
vt 0.103099 0.977566
vt 0.089551 0.982692
vt 0.113571 0.973605
vt 0.113571 0.895860
vt 0.980623 0.360698
vt 0.980623 0.454391
vt 0.018663 0.999323
vt 0.018663 0.905630
vt 0.089044 0.905140
vt 0.089044 0.982884
vt 0.978771 0.454971
vt 0.978771 0.361278
vt 0.000583 0.993662
vt 0.000583 0.899969
vt 0.998703 0.355037
vt 0.998703 0.448731
vt 0.964415 0.541740
vt 0.964415 0.463793
vt 0.020514 0.999903
vt 0.020514 0.906209
vt 0.020826 0.906307
vt 0.020826 1.000000
vt 0.116082 0.894910
vt 0.116082 0.972654
vt 0.937422 0.531518
vt 0.937422 0.453571
vt 0.999286 0.354855
vt 0.999286 0.448548
vt 0.077887 0.881231
vt 0.000000 0.899787
vt 0.000000 0.808253
vt 0.077887 0.789697
vt 0.978460 0.455068
vt 0.978460 0.361375
vt 0.937000 0.531358
vt 0.937000 0.453411
vt 0.116504 0.894750
vt 0.116504 0.972495
vt 0.551666 0.869796
vt 0.551666 0.778167
vt 0.629719 0.796483
vt 0.629719 0.888113
vt 0.965205 0.464092
vt 0.965205 0.542039
vt -0.000000 0.993480
vt 0.088253 0.983183
vt 0.088253 0.905439
vt 0.857846 0.459233
vt 0.937000 0.450244
vt 0.937000 0.536645
vt 0.857846 0.545634
vt 0.176506 0.830719
vt 0.255661 0.839707
vt 0.255661 0.926108
vt 0.176506 0.917120
vt 0.872326 0.814190
vt 0.943875 0.830980
vt 0.943875 0.914973
vt 0.872326 0.898183
vt 0.508450 0.969105
vt 0.508450 0.897839
vt 0.522440 0.892546
vt 0.522440 0.963811
vt 0.711393 0.899179
vt 0.782789 0.882170
vt 0.782789 0.966076
vt 0.711393 0.983085
vt 0.612807 0.896526
vt 0.612807 0.982412
vt 0.602494 0.985641
vt 0.602494 0.899755
vt 0.457201 0.988820
vt 0.457201 0.902934
vt 0.467514 0.906163
vt 0.467514 0.992049
vt 0.944949 0.108295
vt 0.944949 0.179746
vt 0.930982 0.174456
vt 0.930982 0.103005
vt 0.392748 0.903627
vt 0.392748 0.990533
vt 0.390860 0.990990
vt 0.390860 0.904085
vt 0.346659 0.893007
vt 0.362744 0.896904
vt 0.362744 0.983810
vt 0.346659 0.979912
vt 0.382933 0.901797
vt 0.382933 0.988702
vt 0.412937 0.985640
vt 0.412937 0.898735
vt 0.306926 0.987162
vt 0.306926 0.892906
vt 0.327570 0.895216
vt 0.327570 0.989472
vt 0.987518 0.710345
vt 0.987518 0.804601
vt 0.966874 0.806910
vt 0.966874 0.712655
vt 0.429021 0.981743
vt 0.429021 0.894837
vt 0.344017 0.991312
vt 0.344017 0.897057
vt 0.950427 0.714495
vt 0.950427 0.808751
vt 0.877542 0.814190
vt 0.791192 0.804384
vt 0.791192 0.710129
vt 0.877542 0.719935
vt 0.304995 0.986946
vt 0.304995 0.892690
vt 0.989449 0.710129
vt 0.989449 0.804384
vt 0.384820 0.902254
vt 0.384820 0.989160
vt 0.345353 0.979595
vt 0.345353 0.892690
vt 0.726347 0.778109
vt 0.726347 0.872365
vt 0.639997 0.882170
vt 0.639997 0.787915
vt 0.345353 0.897206
vt 0.345353 0.991462
vt 0.949091 0.808900
vt 0.949091 0.714645
vt 0.430328 0.894521
vt 0.430328 0.981426
vt 0.533982 0.721872
vt 0.503703 0.795562
vt 0.492511 0.795247
vt 0.522790 0.721557
vt 0.138173 0.990880
vt 0.138173 0.894868
vt 0.148159 0.897994
vt 0.148159 0.994006
vt 0.136062 0.894994
vt 0.136062 0.991006
vt 0.126075 0.994132
vt 0.126075 0.898120
vt 0.478032 0.794839
vt 0.508311 0.721149
vt 0.757968 0.672089
vt 0.788453 0.745918
vt 0.773997 0.746346
vt 0.743512 0.672517
vt 0.762823 0.746677
vt 0.732337 0.672848
vt 0.155879 0.900411
vt 0.155879 0.996423
vt 0.118355 0.996549
vt 0.118355 0.900537
vt 0.758509 0.672073
vt 0.788995 0.745902
vt 0.157730 0.900991
vt 0.157730 0.997003
vt 0.136435 0.894877
vt 0.136435 0.990889
vt 0.137799 0.990763
vt 0.137799 0.894751
vt 0.477490 0.794824
vt 0.507769 0.721134
vt 0.729658 0.812851
vt 0.728327 0.812580
vt 0.758677 0.746778
vt 0.760143 0.746756
vt 0.729658 0.672927
vt 0.536666 0.721948
vt 0.506387 0.795638
vt 0.116504 0.997129
vt 0.116504 0.901117
vt 0.505908 0.721102
vt 0.475763 0.655140
vt 0.477490 0.654879
vt 0.176506 0.812032
vt 0.176506 0.718552
vt 0.256137 0.737238
vt 0.256137 0.830719
vt 0.158821 0.901457
vt 0.158821 0.997044
vt 0.257187 0.830586
vt 0.257187 0.736689
vt 0.728327 0.673276
vt 0.555224 0.635949
vt 0.475763 0.654879
vt 0.475763 0.561495
vt 0.555224 0.542565
vt 0.475763 0.794465
vt 0.137799 0.894750
vt 0.137799 0.990337
vt 0.556536 0.636613
vt 0.556536 0.542814
vt 0.386130 0.804292
vt 0.386130 0.892690
vt 0.305058 0.883634
vt 0.304996 0.795326
vt 0.169388 0.797386
vt 0.169388 0.885784
vt 0.088253 0.894750
vt 0.088316 0.806443
vt 0.930982 0.188761
vt 0.858012 0.206145
vt 0.858012 0.120389
vt 0.600352 0.611253
vt 0.584407 0.611704
vt 0.556536 0.544206
vt 0.572345 0.543428
vt 0.930972 0.562794
vt 0.930972 0.648639
vt 0.857846 0.631479
vt 0.165396 0.896809
vt 0.176490 0.900407
vt 0.176490 0.988186
vt 0.165396 0.985013
vt 0.572345 0.671973
vt 0.556536 0.672131
vt 0.707656 0.604240
vt 0.723356 0.604702
vt 0.695673 0.672073
vt 0.679839 0.671937
vt 0.982545 0.823127
vt 0.985268 0.823929
vt 0.985334 0.912747
vt 0.982220 0.912355
vt 0.975927 0.355108
vt 0.976251 0.444335
vt 0.960157 0.448190
vt 0.959832 0.358963
vt 0.939955 0.453028
vt 0.939630 0.363801
vt 0.962018 0.907516
vt 0.962343 0.818289
vt 0.296532 0.916049
vt 0.275885 0.918333
vt 0.275739 0.821704
vt 0.296386 0.819420
vt 0.260030 0.718623
vt 0.280676 0.720907
vt 0.280530 0.817536
vt 0.259883 0.815252
vt 0.945924 0.903661
vt 0.946248 0.814434
vt 0.259436 0.920153
vt 0.259289 0.823524
vt 0.297126 0.722727
vt 0.296979 0.819356
vt 0.639997 0.778109
vt 0.640059 0.681947
vt 0.728327 0.672073
vt 0.728327 0.768326
vt 0.299519 0.819356
vt 0.299456 0.915519
vt 0.257187 0.814804
vt 0.257187 0.718551
vt 0.937000 0.364541
vt 0.299456 0.723192
vt 0.299519 0.819354
vt 0.943875 0.903061
vt 0.943875 0.814190
s 1
usemtl Material.008
f 10/1/1 3/2/1 1/3/1 9/4/1
f 6/5/2 3/6/2 2/7/2 5/8/2
f 8/9/3 4/10/3 1/11/3 7/12/3
f 7/13/1 1/3/1 3/2/1 6/14/1
f 5/15/4 2/16/4 4/17/4 8/18/4
f 12/19/4 4/17/4 2/16/4 11/20/4
f 11/21/2 2/7/2 3/6/2 10/22/2
f 9/23/3 1/11/3 4/10/3 12/24/3
f 18/25/4 5/15/4 8/18/4 17/26/4
f 11/21/2 10/22/2 14/27/2 15/28/2
f 8/9/3 7/12/3 19/29/3 17/30/3
f 6/5/2 5/8/2 18/31/2 20/32/2
f 19/33/1 7/13/1 6/14/1 20/34/1
f 13/35/3 16/36/3 22/37/3 23/38/3
f 12/19/4 11/20/4 15/39/4 16/40/4
f 10/1/1 9/4/1 13/41/1 14/42/1
f 9/23/3 12/24/3 16/36/3 13/35/3
f 20/32/2 18/31/2 26/43/2 28/44/2
f 21/45/5 24/46/5 23/47/5 22/48/5
f 15/28/2 14/27/2 24/49/2 21/50/2
f 14/42/1 13/41/1 23/51/1 24/52/1
f 16/40/4 15/39/4 21/53/4 22/54/4
f 26/55/6 25/56/6 27/57/6 28/58/6
f 19/33/1 20/34/1 28/59/1 27/60/1
f 17/30/3 19/29/3 27/61/3 25/46/3
f 18/25/4 17/26/4 25/62/4 26/63/4
f 29/64/7 30/65/7 31/66/7 32/67/7
f 36/68/8 33/69/8 35/70/8 34/71/8
f 40/72/6 37/73/6 39/74/6 38/75/6
f 43/76/4 44/77/4 48/78/4 47/79/4
f 46/80/5 47/81/5 48/82/5 49/83/5
f 44/84/2 45/85/2 49/86/2 48/87/2
f 42/88/3 43/89/3 47/90/3 46/91/3
f 45/92/1 42/93/1 46/94/1 49/95/1
f 51/96/9 50/97/9 60/98/9 61/99/9
f 63/100/10 55/101/10 56/102/10 62/103/10
f 55/101/10 53/104/10 52/105/10 56/102/10
f 54/106/9 50/97/9 51/96/9 57/107/9
f 52/108/11 50/109/11 54/110/11 56/111/11
f 51/112/12 53/113/12 55/114/12 57/115/12
f 65/116/9 54/106/9 57/107/9 64/117/9
f 62/118/11 56/111/11 54/110/11 65/119/11
f 64/120/12 57/115/12 55/114/12 63/121/12
f 59/122/8 58/123/8 61/124/8 60/125/8
f 50/109/11 52/108/11 59/126/11 60/127/11
f 53/113/12 51/112/12 61/128/12 58/129/12
f 52/105/10 53/104/10 58/130/10 59/131/10
f 63/100/10 62/103/10 66/132/10 67/133/10
f 68/134/7 67/135/7 66/136/7 69/137/7
f 62/118/11 65/119/11 69/138/11 66/139/11
f 64/120/12 63/121/12 67/140/12 68/141/12
f 65/116/9 64/117/9 68/142/9 69/143/9
f 79/144/4 78/145/4 70/146/4 72/147/4
f 75/148/3 74/149/3 71/150/3 72/151/3
f 77/152/2 76/153/2 70/154/2 73/155/2
f 76/156/4 75/157/4 72/147/4 70/146/4
f 74/158/1 77/159/1 73/160/1 71/161/1
f 81/162/1 80/163/1 71/161/1 73/160/1
f 80/164/3 79/165/3 72/151/3 71/150/3
f 78/166/2 81/167/2 73/155/2 70/154/2
f 87/168/1 86/169/1 77/159/1 74/158/1
f 80/164/3 84/170/3 83/171/3 79/165/3
f 77/152/2 86/172/2 88/173/2 76/153/2
f 75/148/3 89/174/3 87/175/3 74/149/3
f 88/176/4 89/177/4 75/157/4 76/156/4
f 82/178/13 92/179/13 91/180/13 85/181/13
f 81/162/1 85/181/1 84/182/1 80/163/1
f 79/144/4 83/183/4 82/184/4 78/145/4
f 78/166/2 82/185/2 85/186/2 81/167/2
f 89/177/14 97/187/14 95/188/14 87/189/14
f 90/190/6 91/191/6 92/192/6 93/193/6
f 84/170/15 90/194/15 93/195/15 83/171/15
f 83/196/16 93/193/16 92/192/16 82/197/16
f 85/181/17 91/180/17 90/198/17 84/182/17
f 95/199/5 97/200/5 96/201/5 94/202/5
f 88/176/18 96/203/18 97/187/18 89/177/18
f 86/172/19 94/204/19 96/205/19 88/173/19
f 87/206/20 95/199/20 94/202/20 86/207/20
f 98/208/21 101/209/21 100/210/21 99/211/21
f 105/212/22 103/213/22 104/214/22 102/215/22
f 110/95/5 108/216/5 109/217/5 107/218/5
f 112/219/23 116/220/24 117/221/24 113/222/25
f 115/223/6 118/224/6 117/225/6 116/67/6
f 113/226/26 117/227/27 118/228/27 114/229/28
f 111/230/29 115/231/30 116/220/30 112/219/31
f 114/232/32 118/233/33 115/234/33 111/235/34
f 120/236/35 130/237/35 129/238/35 119/239/35
f 132/240/36 131/241/36 125/242/37 124/243/37
f 124/243/37 125/242/37 121/244/37 122/245/37
f 123/246/38 126/247/38 120/236/38 119/239/38
f 121/248/39 125/249/39 123/250/39 119/251/39
f 120/252/40 126/253/40 124/254/40 122/255/40
f 134/256/38 133/257/38 126/247/38 123/246/38
f 131/258/39 134/259/39 123/250/39 125/249/39
f 133/260/40 132/261/40 124/254/40 126/253/40
f 128/262/41 129/263/41 130/264/41 127/265/41
f 119/251/42 129/266/42 128/267/42 121/248/42
f 122/255/43 127/268/43 130/269/43 120/252/43
f 121/244/44 128/52/44 127/270/44 122/245/44
f 133/260/45 136/271/45 135/272/45 132/261/45
f 134/256/46 137/273/46 136/274/46 133/257/46
