# Blender 4.3.2
# www.blender.org
mtllib arm.mtl
o right_wrist
v -187.200150 -158.664719 -13.999994
v -187.200150 -158.664734 14.000012
v -203.019241 -135.561554 14.000008
v -203.019241 -135.561539 -13.999999
v -25.951950 -48.255745 -13.999998
v -41.771023 -25.152569 -14.000002
v -41.771023 -25.152565 14.000003
v -25.951950 -48.255745 14.000006
v -186.778137 -159.351868 -14.805405
v -186.778137 -159.351883 14.805410
v -203.507278 -134.919601 14.805406
v -203.507278 -134.919601 -14.805409
v -25.463907 -48.897690 -14.805403
v -42.193035 -24.465416 -14.805406
v -42.193035 -24.465412 14.805406
v -25.463907 -48.897694 14.805408
v -32.810429 -47.075306 -4.519413
v -33.290203 -42.928631 -4.519413
v -33.290203 -42.928631 4.519433
v -34.481087 -46.989300 -2.906440
v -34.481087 -46.989300 2.906461
v -34.960869 -42.492420 2.906461
v -34.960869 -42.492420 -2.906441
v -34.275463 -38.174400 2.906459
v -34.316147 -42.667774 3.856805
v -33.630745 -38.349724 3.856803
v -33.836372 -47.024559 3.856785
v -33.290203 -42.928631 4.519433
v -32.810429 -47.075306 4.519433
v -34.275463 -38.174400 -2.906443
v -33.630745 -38.349724 -3.856786
v -33.290203 -42.928631 -4.519413
v -34.316147 -42.667774 -3.856785
v -33.836372 -47.024559 -3.856784
v -32.810429 -47.075306 -4.519413
v -32.810429 -47.075306 -4.519413
v -32.810429 -47.075306 4.519433
v -33.836372 -47.024559 3.856785
v -33.836372 -47.024559 -3.856784
v -32.810429 -47.075306 4.519433
v -34.481087 -46.989300 2.906461
v -34.481087 -46.989300 -2.906440
v -28.993906 -47.023983 2.569840
v -28.993906 -47.023983 -2.569819
v -27.305029 -47.023983 -4.207070
v -28.767632 -47.023983 3.388465
v -28.149458 -47.023983 3.987740
v -27.305029 -47.023983 4.207090
v -28.767632 -47.023983 -3.388445
v -28.149458 -47.023983 -3.987719
v -33.145321 -45.829910 -2.711863
v -33.295048 -42.230659 -2.711864
v -33.295048 -42.230659 -4.765517
v -33.145321 -45.829910 -4.765518
v -33.145321 -45.829910 -4.765518
v -33.145321 -45.829910 -2.711863
v -33.295048 -42.230659 -4.765517
v -33.145321 -45.829910 -4.765518
v -33.145321 -45.829910 2.495499
v -33.145321 -45.829910 4.754881
v -33.295048 -42.230679 4.754880
v -33.295048 -42.230659 2.495498
v -33.145321 -45.829910 4.754881
v -33.145321 -45.829910 2.495499
v -33.295048 -42.230679 4.754880
v -33.145321 -45.829910 4.754881
v -33.290302 -42.928730 -5.119414
v -32.810520 -47.075565 -5.119413
v -33.290394 -42.928818 5.119434
v -35.050838 -47.050541 -3.084306
v -35.534813 -42.475166 -3.080480
v -35.534813 -42.475166 3.080500
v -35.050838 -47.050541 3.084328
v -34.831493 -38.037407 3.085526
v -34.039009 -38.250507 4.285144
v -34.738277 -42.658588 4.283094
v -34.251774 -47.070389 4.287295
v -32.925415 -38.534534 5.020852
v -33.613964 -42.927124 5.024584
v -33.139305 -47.112415 5.019896
v -34.831493 -38.037407 -3.085510
v -34.039009 -38.250507 -4.285128
v -32.925415 -38.534534 -5.020835
v -34.738277 -42.658585 -4.283073
v -33.613960 -42.927124 -5.024566
v -34.251774 -47.070389 -4.287297
v -33.139301 -47.112415 -5.019878
v -32.822803 -47.675179 -4.519413
v -33.866692 -47.623798 -3.856784
v -33.866692 -47.623798 3.856785
v -32.822803 -47.675179 4.519433
v -32.810600 -47.075794 5.119433
v -34.513855 -47.588402 -2.906440
v -34.513855 -47.588402 2.906461
v -29.570377 -46.878071 -2.649734
v -29.570377 -46.878071 2.649755
v -27.369179 -47.007744 -4.803410
v -31.943974 -52.948074 -2.628198
v -31.943974 -52.948074 2.628220
v -30.652700 -52.197899 -2.651354
v -30.652700 -52.197899 2.651375
v -31.574934 -52.541962 2.644670
v -31.574934 -52.541962 -2.644649
v -29.265451 -46.897972 3.698784
v -28.422558 -46.954857 4.517490
v -27.369179 -47.007744 4.803430
v -29.265451 -46.897972 -3.698763
v -28.422558 -46.954857 -4.517471
v -31.369192 -52.766289 3.665027
v -33.744804 -45.854847 -2.711863
v -33.744804 -45.854847 -4.765518
v -33.893188 -42.183487 -4.765517
v -33.893188 -42.183487 -2.711864
v -33.085350 -38.165478 -2.711865
v -33.130997 -46.429741 -4.765518
v -33.130997 -46.429741 -2.711863
v -33.295048 -42.230659 -5.365518
v -33.145321 -45.829910 -5.365517
v -33.744804 -45.854847 2.495499
v -33.893188 -42.183487 2.495498
v -33.893188 -42.183510 4.754880
v -33.744804 -45.854847 4.754881
v -33.130997 -46.429741 4.754881
v -33.130997 -46.429741 2.495499
v -33.295048 -42.230679 5.354880
v -33.145321 -45.829910 5.354881
vn -0.0000 -0.0000 -1.0000
vn -0.8251 -0.5650 -0.0000
vn -0.0000 -0.0000 1.0000
vn -0.5650 0.8251 -0.0000
vn 0.5650 -0.8251 -0.0000
vn 0.8251 0.5650 -0.0000
vn -0.9496 -0.1021 -0.2964
vn -0.9496 -0.1021 0.2964
vn -0.9566 0.0288 0.2901
vn -0.9566 0.0288 -0.2901
vn -0.9267 0.2283 0.2984
vn -0.7036 0.0153 0.7105
vn -0.6807 0.1653 0.7137
vn -0.6923 -0.0764 0.7175
vn -0.5396 0.0025 0.8419
vn -0.5481 -0.0619 0.8341
vn -0.9267 0.2283 -0.2984
vn -0.6806 0.1653 -0.7137
vn -0.5396 0.0025 -0.8419
vn -0.7036 0.0153 -0.7105
vn -0.6923 -0.0764 -0.7175
vn -0.5481 -0.0619 -0.8341
vn -0.0207 -0.9998 -0.0000
vn -0.0505 -0.9987 -0.0000
vn -0.0546 -0.9985 -0.0000
vn -0.9991 -0.0416 -0.0000
vn -0.9969 0.0783 -0.0000
vn -0.9969 0.0784 -0.0000
vn 0.9514 0.1014 0.2909
vn 0.9582 -0.0282 0.2847
vn 0.9582 -0.0282 -0.2847
vn 0.9514 0.1014 -0.2909
vn 0.9288 -0.2281 -0.2922
vn 0.6881 -0.1671 -0.7061
vn 0.7107 -0.0163 -0.7033
vn 0.6997 0.0765 -0.7104
vn 0.5415 -0.1280 -0.8309
vn 0.5474 -0.0034 -0.8369
vn 0.5552 0.0621 -0.8294
vn 0.9288 -0.2281 0.2921
vn 0.6881 -0.1671 0.7061
vn 0.7107 -0.0163 0.7033
vn 0.5474 -0.0034 0.8369
vn 0.5415 -0.1280 0.8309
vn 0.6997 0.0765 0.7104
vn 0.5552 0.0621 0.8294
vn 0.0207 0.9998 -0.0000
vn 0.0504 0.9987 -0.0000
vn 0.0546 0.9985 -0.0000
vn 0.3437 -0.9285 0.1406
vn 0.3440 -0.9284 -0.1405
vn 0.3444 -0.9298 -0.1301
vn 0.3444 -0.9298 0.1302
vn 0.9992 0.0404 -0.0000
vn 0.9969 -0.0789 -0.0000
vn 0.9608 -0.2771 -0.0000
vn 0.9969 -0.0786 -0.0000
vt 0.239895 0.000000
vt 0.285763 0.000000
vt 0.285764 0.999591
vt 0.239896 0.999591
vt 0.431513 0.423115
vt 0.431513 0.416000
vt 0.477381 0.416000
vt 0.477381 0.423115
vt 0.194028 0.000000
vt 0.239895 0.999591
vt 0.194027 0.999591
vt 0.285764 0.000000
vt 0.331631 0.000000
vt 0.331631 0.999591
vt 0.331632 0.000000
vt 0.377500 0.000000
vt 0.377499 0.999591
vt 0.477381 0.437344
vt 0.477381 0.444459
vt 0.431513 0.444459
vt 0.431513 0.437344
vt 0.194027 0.000000
vt 0.194027 1.000000
vt 0.145521 1.000000
vt 0.145521 0.000000
vt 0.480020 0.393428
vt 0.431513 0.393428
vt 0.431513 0.385904
vt 0.480020 0.385904
vt 0.048506 0.000000
vt 0.048507 1.000000
vt 0.000001 1.000000
vt 0.000000 0.000000
vt 0.097013 0.000000
vt 0.097013 1.000000
vt 0.048507 0.000000
vt 0.145520 0.000000
vt 0.097014 1.000000
vt 0.431513 0.400952
vt 0.480020 0.400952
vt 0.480020 0.408476
vt 0.431513 0.408476
vt 0.583592 0.001837
vt 0.595962 0.003868
vt 0.596923 0.030414
vt 0.584553 0.028384
vt 0.694669 0.053493
vt 0.694648 0.027450
vt 0.697980 0.027056
vt 0.698001 0.053098
vt 0.697315 0.001320
vt 0.700598 0.001752
vt 0.701651 0.026442
vt 0.704195 0.002378
vt 0.595460 0.056286
vt 0.583090 0.054256
vt 0.579728 0.053098
vt 0.577647 0.025786
vt 0.581190 0.027225
vt 0.580228 0.001511
vt 0.576683 0.001320
vt 0.623827 0.689993
vt 0.596923 0.689993
vt 0.598895 0.683883
vt 0.621855 0.683883
vt 0.601724 0.680042
vt 0.619026 0.680042
vt 0.958700 0.001320
vt 0.960964 0.022166
vt 0.956603 0.023094
vt 0.954340 0.002248
vt 0.708668 0.668998
vt 0.713465 0.667978
vt 0.715729 0.688824
vt 0.710932 0.689844
vt 0.726744 0.496189
vt 0.723374 0.469900
vt 0.736704 0.466694
vt 0.740090 0.492980
vt 0.735753 0.440024
vt 0.740027 0.439856
vt 0.740975 0.466347
vt 0.744280 0.491672
vt 0.743968 0.440022
vt 0.744941 0.466409
vt 0.748084 0.490426
vt 0.722403 0.443234
vt 0.898512 0.412373
vt 0.902771 0.412004
vt 0.898321 0.438961
vt 0.894347 0.439401
vt 0.894566 0.412914
vt 0.902584 0.438771
vt 0.899912 0.465238
vt 0.895703 0.464462
vt 0.891856 0.463582
vt 0.680706 0.678053
vt 0.682678 0.671833
vt 0.705638 0.671833
vt 0.707610 0.678053
vt 0.685507 0.667978
vt 0.702809 0.667978
vt 0.825718 0.783231
vt 0.825718 0.814827
vt 0.822967 0.814786
vt 0.822967 0.783269
vt 0.951316 0.604877
vt 0.955756 0.603755
vt 0.958058 0.625060
vt 0.953618 0.626183
vt 0.954225 0.650493
vt 0.953093 0.244872
vt 0.955394 0.266177
vt 0.950509 0.267411
vt 0.948208 0.246105
s 1
usemtl Material.007
f 1/1/1 4/2/1 6/3/1 5/4/1
f 2/5/2 3/6/2 4/7/2 1/8/2
f 3/9/3 2/1/3 8/10/3 7/11/3
f 4/12/4 3/13/4 7/14/4 6/3/4
f 2/15/5 1/16/5 5/17/5 8/14/5
f 6/18/6 7/19/6 8/20/6 5/21/6
f 9/22/3 13/23/3 14/24/3 12/25/3
f 10/26/6 9/27/6 12/28/6 11/29/6
f 11/30/1 15/31/1 16/32/1 10/33/1
f 12/34/5 14/35/5 15/31/5 11/36/5
f 10/37/4 16/24/4 13/38/4 9/34/4
f 14/39/2 13/40/2 16/41/2 15/42/2
usemtl None
f 20/43/7 21/44/8 22/45/9 23/46/10
f 24/47/11 22/48/9 25/49/12 26/50/13
f 22/48/9 21/51/8 27/52/14 25/49/12
f 26/50/13 25/49/12 28/53/15
f 25/49/12 27/52/14 29/54/16 28/53/15
f 23/46/10 22/45/9 24/55/11 30/56/17
f 31/57/18 32/58/19 33/59/20
f 30/56/17 31/57/18 33/59/20 23/46/10
f 23/46/10 33/59/20 34/60/21 20/43/7
f 33/59/20 32/58/19 35/61/22 34/60/21
f 36/62/23 37/63/23 38/64/24 39/65/24
f 39/65/24 38/64/24 41/66/25 42/67/25
f 51/68/26 52/69/27 53/70/27 54/71/26
f 59/72/26 60/73/26 61/74/27 62/75/28
f 70/76/29 71/77/30 72/78/31 73/79/32
f 74/80/33 75/81/34 76/82/35 72/78/31
f 72/78/31 76/82/35 77/83/36 73/79/32
f 75/81/34 78/84/37 79/85/38 76/82/35
f 76/82/35 79/85/38 80/86/39 77/83/36
f 71/77/30 81/87/40 74/80/33 72/78/31
f 82/88/41 75/81/34 74/80/33 81/89/40
f 82/88/41 84/90/42 85/91/43 83/92/44
f 81/89/40 71/93/30 84/90/42 82/88/41
f 71/93/30 70/94/29 86/95/45 84/90/42
f 84/90/42 86/95/45 87/96/46 85/91/43
f 88/97/47 89/98/48 90/99/48 91/100/47
f 89/98/48 93/101/49 94/102/49 90/99/48
f 100/103/50 101/104/51 102/105/52 103/106/53
f 110/107/54 111/108/54 112/109/55 113/110/55
f 113/110/55 112/109/55 114/111/56
f 119/112/54 120/113/57 121/114/57 122/115/54
l 63 64
l 95 96
l 98 99
l 95 107
l 46 47
l 45 50
l 96 104
l 115 116
l 117 118
l 19 40
l 43 44
l 43 46
l 47 48
l 44 49
l 107 108
l 55 56
l 57 58
l 125 126
l 49 50
l 67 68
l 104 105
l 102 109
l 123 124
l 65 66
l 97 108
l 17 18
l 69 92
l 105 106
