# Blender 4.3.2
# www.blender.org
mtllib hand.mtl
o right_wrist
v -2.040953 -31.883520 14.000003
v -17.860029 -8.780339 13.999999
v -2.040953 -31.883524 -13.999997
v -30.588915 -17.495995 -14.000000
v -14.769836 -40.599171 -13.999995
v -30.588915 -17.495987 13.999999
v -14.769836 -40.599171 14.000004
v -1.552914 -32.525467 14.805407
v -18.282043 -8.093186 14.805404
v -1.552914 -32.525467 -14.805401
v -18.282047 -8.093186 -14.805404
v -31.146206 -16.682091 -14.986415
v -14.212544 -41.413074 -14.986410
v -31.146206 -16.682085 14.986414
v -14.212544 -41.413074 14.986418
v -9.761541 -24.682968 3.483987
v -25.935459 -14.053593 4.754875
vn -0.0000 -0.0000 1.0000
vn 0.5650 -0.8251 -0.0000
vn -0.0097 -0.0066 0.9999
vn -0.8251 -0.5650 -0.0000
vn -0.0097 -0.0066 -0.9999
vn -0.5746 0.8184 -0.0000
vn 0.5553 -0.8317 -0.0000
vn 0.8251 0.5650 -0.0000
vt 0.423367 0.566361
vt 0.423367 0.645268
vt 0.377500 0.645268
vt 0.377500 0.566361
vt 0.423368 0.658308
vt 0.423367 0.737215
vt 0.377500 0.737215
vt 0.377500 0.658308
vt 0.426599 0.079112
vt 0.377500 0.079112
vt 0.377795 0.000000
vt 0.426302 0.000000
vt 0.480020 0.400952
vt 0.431513 0.400952
vt 0.431513 0.393428
vt 0.480020 0.393428
vt 0.426599 0.263825
vt 0.377500 0.263825
vt 0.377797 0.184713
vt 0.426303 0.184713
vt 0.377500 0.290314
vt 0.426599 0.290314
vt 0.426303 0.369426
vt 0.377797 0.369426
vt 0.426599 0.171469
vt 0.377500 0.171469
vt 0.377796 0.092357
vt 0.426303 0.092357
vt 0.000000 0.000000
s 1
usemtl Material.007
f 7/1/1 1/2/1 2/3/1 6/4/1
f 5/5/2 3/6/2 1/7/2 7/8/2
f 12/9/3 13/10/3 10/11/3 11/12/3
f 10/13/4 8/14/4 9/15/4 11/16/4
f 15/17/5 14/18/5 9/19/5 8/20/5
f 13/21/6 15/22/6 8/23/6 10/24/6
f 14/25/7 12/26/7 11/27/7 9/28/7
s 0
f 15/29/8 13/29/8 12/29/8
f 14/29/8 15/29/8 12/29/8
l 4 5
l 4 6
