# Blender 4.3.2
# www.blender.org
mtllib arms.mtl
o wrist
v -5.491120 -4.594982 -0.500000
v -5.491120 -4.594982 0.500000
v -6.012130 -3.741431 0.500000
v -6.012130 -3.741431 -0.500000
v -0.429625 -1.505432 -0.500000
v -0.950635 -0.651881 -0.500000
v -0.950635 -0.651881 0.500000
v -0.429625 -1.505432 0.500000
v -0.416271 -1.497280 0.500000
v -0.937280 -0.643729 0.500000
v -0.416271 -1.497280 -0.500000
v -0.937280 -0.643729 -0.500000
v -0.429625 -1.505432 -0.500000
v -0.950635 -0.651881 -0.500000
v -0.950635 -0.651881 0.500000
v -0.429625 -1.505432 0.500000
v -5.498221 -4.618256 -0.516166
v -5.498221 -4.618256 0.516166
v -6.036076 -3.737108 0.516166
v -6.036076 -3.737108 -0.516166
v -0.405680 -1.509755 -0.516166
v -0.943535 -0.628608 -0.516166
v -0.943535 -0.628608 0.516166
v -0.405680 -1.509755 0.516166
v -0.405955 -1.514180 0.519799
v -0.947596 -0.626830 0.519799
v -0.405955 -1.514180 -0.519799
v -0.436726 -1.528706 -0.516166
v -0.974581 -0.647558 -0.516166
v -0.974581 -0.647558 0.516166
v -0.436726 -1.528706 0.516166
v -1.467858 -1.215579 -0.145794
v -1.544047 -1.221313 -0.147818
v -1.544047 -1.221312 0.147817
v -1.467858 -1.215579 0.145794
v -1.536500 -1.110750 0.069230
v -1.564154 -1.055025 0.069473
v -1.564154 -1.055025 -0.069473
v -1.536500 -1.110750 -0.069230
v -1.602727 -1.170397 0.149018
v -1.602727 -1.170396 -0.149019
v -1.643744 -1.090318 -0.148862
v -1.643744 -1.090318 0.148862
v -1.507273 -1.138533 -0.070602
v -1.453866 -1.155013 -0.082288
v -1.453866 -1.155013 0.082288
v -1.507273 -1.138533 0.070601
v -1.488900 -1.193873 -0.124254
v -1.488900 -1.193873 0.124254
v -1.534109 -1.194407 0.124254
v -1.534109 -1.194407 -0.124254
v -1.558598 -1.127278 0.094058
v -1.558598 -1.127278 -0.094058
v -1.591073 -1.062017 -0.094058
v -1.591073 -1.062017 0.094058
v -1.580920 -1.153394 0.124254
v -1.616904 -1.083107 0.124254
v -1.616904 -1.083107 -0.124254
v -1.580920 -1.153393 -0.124254
v -1.517565 -1.165399 -0.094058
v -1.517565 -1.165399 0.094058
v -1.487657 -1.164892 0.094058
v -1.487657 -1.164892 -0.094058
vn -0.0000 -0.0000 -1.0000
vn -0.8536 -0.5210 -0.0000
vn -0.0000 -0.0000 1.0000
vn -0.5210 0.8536 -0.0000
vn 0.5210 -0.8536 -0.0000
vn 0.8536 0.5210 -0.0000
vn -0.8004 0.4979 -0.3337
vn -0.2450 0.1107 0.9632
vn -0.5210 0.8535 -0.0000
vn -0.2454 0.1109 0.9630
vn -0.8006 0.4979 -0.3333
vn 0.5210 -0.8535 -0.0000
vn 0.0911 0.0556 -0.9943
vn -0.4269 0.9043 -0.0000
vn -0.0750 0.9972 -0.0000
vn 0.3196 0.9475 -0.0000
vn -0.8037 -0.5951 -0.0000
vn -0.9695 -0.2450 -0.0088
vn -0.9695 -0.2450 0.0088
vn 0.7876 0.6162 -0.0000
vn 0.9643 0.2649 0.0026
vn 0.9643 0.2649 -0.0026
vn -0.4905 -0.8714 -0.0000
vn -0.2949 -0.9555 -0.0000
vn -0.9879 0.1368 -0.0725
vn -0.9877 0.1397 -0.0701
vn -0.9876 0.1399 0.0707
vn -0.9880 0.1366 0.0726
vn 0.0118 -0.9999 -0.0000
vn -0.3465 -0.9381 -0.0000
vn 0.8009 0.5988 -0.0000
vn 0.9672 0.2541 -0.0000
vn -0.7886 -0.6149 -0.0000
vn -0.9649 -0.2627 -0.0000
vn -0.9649 -0.2628 0.0001
vn 0.3577 0.9338 -0.0000
vn -0.0169 0.9999 -0.0000
vn 0.9991 -0.0429 -0.0000
vt 0.596014 -0.000000
vt 0.596014 0.612417
vt 0.479817 0.612417
vt 0.479817 -0.000000
vt 0.596014 0.862512
vt 0.479817 0.862512
vt 0.479817 0.746315
vt 0.596014 0.746315
vt 0.712211 -0.000000
vt 0.712211 0.612417
vt 0.828409 0.000000
vt 0.828409 0.612417
vt 0.944606 0.612417
vt 0.828408 0.612417
vt 0.828408 -0.000000
vt 0.944606 -0.000000
vt 0.712211 0.862512
vt 0.712211 0.746315
vt 0.584708 0.862512
vt 0.586324 0.862512
vt 0.586324 0.978709
vt 0.584708 0.978709
vt 0.583092 0.978709
vt 0.583092 0.862512
vt 0.689600 0.862512
vt 0.691215 0.862512
vt 0.691215 0.978709
vt 0.689600 0.978709
vt 0.104891 0.982466
vt 0.103276 0.982466
vt 0.103276 0.866269
vt 0.104891 0.866269
vt 0.863809 0.612417
vt 0.863809 0.728614
vt 0.747612 0.728614
vt 0.747612 0.612417
vt 0.000000 0.000000
vt 0.119954 0.000000
vt 0.119954 0.616173
vt 0.000000 0.616173
vt 0.380236 0.616173
vt 0.380236 0.736127
vt 0.260282 0.736127
vt 0.260282 0.616173
vt 0.239908 0.000000
vt 0.239908 0.616173
vt 0.359862 0.000000
vt 0.359862 0.616173
vt 0.479817 0.616173
vt 0.380236 0.736128
vt 0.380236 0.856082
vt 0.260282 0.856082
vt 0.260282 0.736128
vt 0.863809 0.732793
vt 0.863809 0.612839
vt 0.867310 0.612417
vt 0.867310 0.733215
vt 0.260282 0.976458
vt 0.260282 0.856504
vt 0.263782 0.856082
vt 0.263782 0.976880
vt 0.239908 0.866268
vt 0.119954 0.866268
vt 0.119954 0.746314
vt 0.239908 0.746314
vt 0.197124 0.599248
vt 0.197991 0.599251
vt 0.198449 0.597958
vt 0.199061 0.596701
vt 0.198882 0.598456
vt 0.199560 0.597101
vt 0.197669 0.598697
vt 0.197095 0.598692
vt 0.197641 0.656616
vt 0.198508 0.656618
vt 0.198967 0.655326
vt 0.199578 0.654068
vt 0.199399 0.655823
vt 0.200078 0.654468
vt 0.198186 0.656064
vt 0.197612 0.656060
s 1
usemtl Material.003
f 5/1/1 1/2/1 4/3/1 6/4/1
f 2/5/2 3/6/2 4/7/2 1/8/2
f 7/9/3 3/10/3 2/2/3 8/1/3
f 4/9/4 3/11/4 7/12/4 6/10/4
f 2/13/5 1/14/5 5/15/5 8/16/5
f 5/17/6 6/5/6 7/8/6 8/18/6
f 14/19/1 12/20/7 11/21/1 13/22/1
f 16/22/3 9/23/3 10/24/8 15/19/3
f 15/25/9 10/26/10 12/27/11 14/28/9
f 13/29/12 11/30/12 9/31/12 16/32/12
f 13/33/2 16/34/2 15/35/2 14/36/2
f 21/37/3 22/38/3 20/39/3 17/40/3
f 18/41/6 17/42/6 20/43/6 19/44/6
f 23/38/1 24/45/1 18/46/1 19/39/1
f 20/46/5 22/45/5 23/47/5 19/48/5
f 18/4/4 24/49/4 21/48/4 17/47/4
f 21/50/2 24/51/2 23/52/2 22/53/2
f 31/54/13 30/55/13 26/56/13 25/57/13
f 28/58/14 31/59/14 25/60/14 27/61/14
f 28/62/6 29/63/6 30/64/6 31/65/6
usemtl Material.002
f 32/66/15 33/67/16 34/67/16 35/66/15
f 36/68/17 37/69/18 38/69/19 39/68/17
f 40/70/20 41/70/20 42/71/21 43/71/22
f 44/72/23 45/73/24 46/73/24 47/72/23
f 40/70/20 34/67/16 33/67/16 41/70/20
f 36/68/17 39/68/17 44/72/23 47/72/23
f 35/66/25 46/73/26 45/73/27 32/66/28
f 48/74/29 49/74/29 50/75/30 51/75/30
f 52/76/31 53/76/31 54/77/32 55/77/32
f 56/78/33 57/79/34 58/79/35 59/78/33
f 60/80/36 61/80/36 62/81/37 63/81/37
f 56/78/33 59/78/33 51/75/30 50/75/30
f 52/76/31 61/80/36 60/80/36 53/76/31
f 49/74/38 48/74/38 63/81/38 62/81/38
