# Blender 4.3.2
# www.blender.org
mtllib wrist.mtl
o wrist
v -0.495972 -1.616225 0.560000
v -1.079502 -0.660248 0.560000
v -0.495972 -1.616225 -0.560000
v -1.079502 -0.660248 -0.560000
v -0.652727 -0.399743 -0.560000
v -0.069196 -1.355720 -0.560000
v -0.652727 -0.399743 0.560000
v -0.069196 -1.355720 0.560000
v -0.429625 -1.505432 -0.500000
v -0.950635 -0.651881 -0.500000
v -0.950635 -0.651881 0.500000
v -0.429625 -1.505432 0.500000
v -0.416271 -1.497280 0.500000
v -0.937280 -0.643729 0.500000
v -0.416271 -1.497280 -0.500000
v -0.937280 -0.643729 -0.500000
v -0.429625 -1.505432 -0.500000
v -0.950635 -0.651881 -0.500000
v -0.950635 -0.651881 0.500000
v -0.429625 -1.505432 0.500000
v -0.503072 -1.639498 0.576166
v -1.103448 -0.655925 0.576166
v -0.503072 -1.639498 -0.576166
v -1.103448 -0.655925 -0.576166
v -0.645626 -0.376469 -0.576166
v -0.045251 -1.360043 -0.576166
v -0.645626 -0.376469 0.576166
v -0.045251 -1.360043 0.576166
v -0.405680 -1.509755 -0.516166
v -0.943535 -0.628608 -0.516166
v -0.943535 -0.628608 0.516166
v -0.405680 -1.509755 0.516166
v -0.405955 -1.514180 0.519799
v -0.947596 -0.626830 0.519799
v -0.405955 -1.514180 -0.519799
v -0.947596 -0.626830 -0.519799
v -0.436726 -1.528706 -0.516166
v -0.974581 -0.647558 -0.516166
v -0.974581 -0.647558 0.516166
v -0.436726 -1.528706 0.516166
v -0.200495 -1.167769 0.130224
v -0.200495 -1.167768 -0.135489
v -0.230608 -1.171713 -0.002632
v -0.145362 -1.244069 -0.002632
v -0.264329 -1.079103 -0.136767
v -0.264329 -1.079103 0.131503
v -0.296533 -1.081054 -0.002632
v -0.123604 -1.246901 -0.058525
v -0.123604 -1.246901 0.053261
v -0.203122 -1.146765 -0.002632
v -0.235851 -1.068657 -0.115371
v -0.235851 -1.068657 0.110107
v -0.261544 -1.068657 -0.002632
vn -0.8536 -0.5210 -0.0000
vn -0.0000 -0.0000 -1.0000
vn -0.0000 -0.0000 1.0000
vn 0.5210 -0.8536 -0.0000
vn -0.5210 0.8536 -0.0000
vn 0.8536 0.5210 -0.0000
vn -0.5210 0.8535 -0.0000
vn 0.5210 -0.8535 -0.0000
vn 0.0911 0.0556 0.9943
vn 0.0911 0.0556 -0.9943
vn 0.6092 -0.7930 -0.0000
vn -0.4269 0.9043 -0.0000
vn 0.7672 0.2811 0.5765
vn 0.9412 0.3378 0.0001
vn 0.7407 0.6718 0.0001
vn 0.6266 0.5753 0.5257
vn 0.7669 0.2816 -0.5767
vn 0.6269 0.5748 -0.5259
vn -0.6594 0.7518 -0.0000
vn 0.1291 0.9916 -0.0000
vt 0.130141 0.746314
vt -0.000000 0.746314
vt 0.000000 0.616173
vt 0.130141 0.616173
vt 0.104891 0.996409
vt 0.104891 0.866268
vt 0.156529 0.866268
vt 0.156529 0.996409
vt 0.208167 0.866268
vt 0.208167 0.996409
vt 0.944606 0.267796
vt 0.996244 0.267796
vt 0.996244 0.397937
vt 0.944606 0.397937
vt 0.996244 0.528077
vt 0.944606 0.528077
vt 0.260282 0.746314
vt 0.260282 0.616173
vt 0.712211 0.862512
vt 0.596014 0.862512
vt 0.596014 0.746315
vt 0.712211 0.746315
vt 0.584708 0.862512
vt 0.586324 0.862512
vt 0.586324 0.978709
vt 0.584708 0.978709
vt 0.583092 0.978709
vt 0.583092 0.862512
vt 0.689600 0.862512
vt 0.691215 0.862512
vt 0.691215 0.978709
vt 0.689600 0.978709
vt 0.104891 0.982466
vt 0.103276 0.982466
vt 0.103276 0.866269
vt 0.104891 0.866269
vt 0.863809 0.612417
vt 0.863809 0.728614
vt 0.747612 0.728614
vt 0.747612 0.612417
vt 0.747612 0.746315
vt 0.613714 0.746315
vt 0.613714 0.612417
vt 1.000000 0.133898
vt 0.944606 0.133898
vt 0.944606 -0.000000
vt 1.000000 0.000000
vt 1.000000 0.267796
vt 0.992451 0.746315
vt 0.992451 0.880213
vt 0.937056 0.880213
vt 0.937056 0.746315
vt 0.380236 0.750071
vt 0.380236 0.616173
vt 0.435630 0.616173
vt 0.435630 0.750071
vt 0.479817 0.746315
vt 0.479817 0.612417
vt 0.380236 0.736128
vt 0.380236 0.856082
vt 0.260282 0.856082
vt 0.260282 0.736128
vt 0.937056 0.746737
vt 0.937056 0.866691
vt 0.933556 0.867113
vt 0.933556 0.746315
vt 0.863809 0.732793
vt 0.863809 0.612839
vt 0.867310 0.612417
vt 0.867310 0.733215
vt 0.477578 0.856504
vt 0.477578 0.976458
vt 0.474077 0.976880
vt 0.474077 0.856082
vt 0.260282 0.976458
vt 0.260282 0.856504
vt 0.263782 0.856082
vt 0.263782 0.976880
vt 0.239908 0.866268
vt 0.119954 0.866268
vt 0.119954 0.746314
vt 0.239908 0.746314
vt 0.173060 0.597063
vt 0.173553 0.597058
vt 0.172445 0.598567
vt 0.171953 0.598571
vt 0.170931 0.599790
vt 0.171075 0.599788
s 1
usemtl Material.003
f 1/1/1 2/2/1 4/3/1 3/4/1
f 3/5/2 4/6/2 5/7/2 6/8/2
f 2/9/3 1/10/3 8/8/3 7/7/3
f 8/11/4 1/12/4 3/13/4 6/14/4
f 5/15/5 4/16/5 2/14/5 7/13/5
f 6/17/6 5/1/6 7/4/6 8/18/6
f 9/19/6 10/20/6 11/21/6 12/22/6
f 18/23/2 16/24/2 15/25/2 17/26/2
f 20/26/3 13/27/3 14/28/3 19/23/3
f 19/29/7 14/30/7 16/31/7 18/32/7
f 17/33/8 15/34/8 13/35/8 20/36/8
f 17/37/1 20/38/1 19/39/1 18/40/1
f 21/40/6 23/41/6 24/42/6 22/43/6
f 23/44/3 26/45/3 25/46/3 24/47/3
f 22/45/2 27/44/2 28/48/2 21/11/2
f 28/49/5 26/50/5 23/51/5 21/52/5
f 25/53/4 27/54/4 22/55/4 24/56/4
f 26/43/1 28/42/1 27/57/1 25/58/1
f 29/59/1 32/60/1 31/61/1 30/62/1
f 38/63/9 37/64/9 35/65/9 36/66/9
f 40/67/10 39/68/10 34/69/10 33/70/10
f 39/71/11 38/72/11 36/73/11 34/74/11
f 37/75/12 40/76/12 33/77/12 35/78/12
f 37/79/6 38/80/6 39/81/6 40/82/6
usemtl Material.002
f 45/83/13 47/84/14 43/85/15 42/86/16
f 47/84/14 46/83/17 41/86/18 43/85/15
f 48/87/19 44/88/20 49/87/19
l 52 53
l 43 44
l 50 53
l 51 53
