# Blender 4.3.2
# www.blender.org
mtllib arms.mtl
o left_arm
v -1.885801 -1.324865 -1.236759
v -2.057896 -0.502415 -1.351053
v -1.411905 -1.323430 -1.939984
v -1.584000 -0.500980 -2.054278
v -0.309843 -0.847380 -0.173762
v -0.008042 -0.023494 -0.991280
v 0.164053 -0.845944 -0.876986
v -0.481937 -0.024930 -0.288056
v -3.212590 -1.869003 -3.154561
v -3.384685 -1.046553 -3.268855
v -3.858581 -1.047989 -2.565631
v -3.686486 -1.870439 -2.451336
v -0.072333 0.099173 -0.011774
v -2.302625 -2.698608 0.907691
v -2.905920 -2.156973 1.156231
v -2.630702 -2.705226 0.125754
v -3.233996 -2.163591 0.374294
v -1.152745 -1.190585 0.412474
v -2.084116 -0.655568 -0.120923
v -1.480821 -1.197203 -0.369463
v -1.756039 -0.648950 0.661014
v -3.463964 -3.798016 0.484614
v -4.067259 -3.256381 0.733153
v -3.739182 -3.249763 1.515091
v -3.135888 -3.791398 1.266551
v -1.889002 -1.333604 -1.228088
v -2.064748 -0.493707 -1.344807
v -1.405053 -1.332138 -1.946230
v -1.580799 -0.492241 -2.062949
v -0.313044 -0.856118 -0.165091
v -0.004840 -0.014756 -0.999951
v 0.170905 -0.854653 -0.883233
v -0.488789 -0.016222 -0.281809
v -3.227886 -1.882443 -3.173751
v -3.402961 -1.045747 -3.290025
v -3.885065 -1.047208 -2.574621
v -3.709990 -1.883903 -2.458347
v -0.098818 0.099953 -0.020764
v -2.267078 -2.692649 0.929146
v -2.900589 -2.146532 1.171585
v -2.636034 -2.715667 0.110400
v -3.269544 -2.169550 0.352839
v -1.117197 -1.184626 0.433929
v -2.119663 -0.661527 -0.142378
v -1.486152 -1.207644 -0.384817
v -1.750708 -0.638509 0.676368
v -3.473639 -3.811905 0.470303
v -4.104027 -3.265004 0.712216
v -3.745049 -3.250727 1.526393
v -3.129856 -3.801069 1.275638
vn 0.5588 0.0017 -0.8293
vn -0.5588 -0.0017 0.8293
vn -0.2029 0.9699 -0.1348
vn 0.2029 -0.9699 0.1348
vn -0.8041 -0.2436 -0.5423
vn -0.3869 -0.0078 -0.9221
vn 0.3869 0.0078 0.9221
vn -0.7114 0.6387 0.2931
vn 0.7114 -0.6387 -0.2931
vn -0.5867 -0.7694 0.2527
vn -0.5583 -0.0015 0.8297
vn -0.5585 -0.0016 0.8295
vn 0.5594 0.0019 -0.8289
vn 0.5591 0.0018 -0.8291
vn 0.2035 -0.9697 0.1352
vn 0.2032 -0.9698 0.1350
vn -0.2024 0.9700 -0.1344
vn -0.2026 0.9700 -0.1346
vn -0.5619 -0.0026 0.8272
vn -0.5618 -0.0026 0.8272
vn 0.5557 0.0007 -0.8314
vn -0.2061 0.9689 -0.1369
vn 0.1998 -0.9708 0.1327
vn 0.8041 0.2436 0.5423
vn 0.3728 0.0200 0.9277
vn 0.3728 0.0203 0.9277
vn 0.3728 0.0202 0.9277
vn -0.3725 -0.0068 -0.9280
vn -0.3726 -0.0136 -0.9279
vn -0.3726 -0.0137 -0.9279
vn 0.7083 -0.6384 -0.3012
vn 0.7082 -0.6386 -0.3011
vn -0.7077 0.6410 0.2972
vn -0.7079 0.6399 0.2992
vn -0.7078 0.6399 0.2991
vn 0.3727 0.0205 0.9277
vn -0.3723 -0.0197 -0.9279
vn -0.7089 0.6376 0.3015
vn -0.7090 0.6375 0.3015
vn 0.7080 -0.6388 -0.3011
vn 0.5773 0.7732 -0.2625
vn -0.5647 -0.7777 0.2763
vt 0.847204 0.531214
vt 0.847204 0.624520
vt 0.722207 0.624520
vt 0.722207 0.531214
vt 0.597209 0.714015
vt 0.597209 0.620708
vt 0.722207 0.620708
vt 0.722207 0.714015
vt 0.748764 0.000000
vt 0.748764 0.093307
vt 0.623766 0.093307
vt 0.623766 -0.000000
vt 0.623766 0.365603
vt 0.623766 0.272296
vt 0.748764 0.272296
vt 0.748764 0.365603
vt 0.847204 0.706182
vt 0.722207 0.706182
vt 0.597209 0.539046
vt 0.722207 0.539046
vt 0.748764 0.190634
vt 0.623766 0.190634
vt 0.623766 0.174969
vt 0.748764 0.174969
vt 0.000000 0.000000
vt 0.438823 0.999168
vt 0.315292 0.998062
vt 0.315292 0.873274
vt 0.438823 0.874381
vt 0.503992 0.455680
vt 0.503992 0.274548
vt 0.623766 0.292478
vt 0.623766 0.473610
vt 0.349790 0.531502
vt 0.349790 0.350437
vt 0.469559 0.332478
vt 0.469559 0.513543
vt 0.469559 0.513283
vt 0.469559 0.332151
vt 0.315292 0.473468
vt 0.315292 0.292404
vt 0.503992 0.024589
vt 0.623766 0.042520
vt 0.349790 0.100572
vt 0.469559 0.082613
vt 0.315292 0.042539
vt 0.469559 0.082193
vt 0.589333 0.531214
vt 0.157921 0.534570
vt 0.285084 0.534570
vt 0.285327 0.628961
vt 0.157678 0.628961
vt 0.127406 0.719835
vt 0.000243 0.719835
vt 0.000000 0.625443
vt 0.127649 0.625444
vt 0.596965 0.716180
vt 0.469803 0.716180
vt 0.469559 0.621789
vt 0.597209 0.621789
vt 0.315535 0.531502
vt 0.442698 0.531502
vt 0.442941 0.625893
vt 0.315292 0.625893
vt 0.285327 0.710623
vt 0.157678 0.710623
vt 0.000000 0.543781
vt 0.127649 0.543781
vt 0.442941 0.707555
vt 0.315292 0.707555
vt 0.469559 0.540127
vt 0.597209 0.540127
vt 0.852793 0.979123
vt 0.852793 0.852124
vt 0.978618 0.851192
vt 0.978618 0.978192
vt 0.122158 0.457508
vt 0.000138 0.475741
vt 0.000000 0.294056
vt 0.122255 0.276061
vt 0.279826 0.534570
vt 0.158080 0.516267
vt 0.157678 0.333852
vt 0.279938 0.351809
vt 0.157274 0.516536
vt 0.157678 0.334193
vt 0.315153 0.475887
vt 0.315292 0.294133
vt -0.000000 0.044191
vt 0.122255 0.026196
vt 0.157678 0.083893
vt 0.279938 0.101850
vt 0.315292 0.044175
vt 0.157678 0.084328
vt 0.035533 0.534868
s 1
usemtl Material.011
f 10/1/1 4/2/1 3/3/1 9/4/1
f 12/5/2 1/6/2 2/7/2 11/8/2
f 11/9/3 2/10/3 4/11/3 10/12/3
f 9/13/4 3/14/4 1/15/4 12/16/4
f 3/3/1 4/2/1 6/17/1 7/18/1
f 2/7/2 1/6/2 5/19/2 8/20/2
f 5/21/4 1/15/4 3/14/4 7/22/4
f 6/23/3 4/11/3 2/10/3 8/24/3
s 0
f 32/25/5 30/25/5 31/25/5
s 1
f 9/26/5 12/27/5 11/28/5 10/29/5
f 23/30/6 17/31/6 16/32/6 22/33/6
f 25/34/7 14/35/7 15/36/7 24/37/7
f 24/38/8 15/39/8 17/31/8 23/30/8
f 22/40/9 16/41/9 14/35/9 25/34/9
f 16/32/6 17/31/6 19/42/6 20/43/6
f 15/36/7 14/35/7 18/44/7 21/45/7
f 18/44/9 14/35/9 16/41/9 20/46/9
f 19/42/8 17/31/8 15/39/8 21/47/8
f 22/33/10 25/48/10 24/38/10 23/30/10
f 35/49/11 34/50/11 28/51/12 29/52/12
f 37/53/13 36/54/13 27/55/14 26/56/14
f 36/57/15 35/58/15 29/59/16 27/60/16
f 34/61/17 37/62/17 26/63/18 28/64/18
f 28/51/12 32/65/19 31/66/20 29/52/12
f 27/55/14 33/67/21 30/68/21 26/56/14
f 30/69/22 32/70/22 28/64/18 26/63/18
f 31/71/23 33/72/23 27/60/16 29/59/16
s 0
f 30/25/5 33/25/5 31/25/5
s 1
f 34/73/24 35/74/24 36/75/24 37/76/24
f 48/77/25 47/78/25 41/79/26 42/80/27
f 50/81/28 49/82/28 40/83/29 39/84/30
f 49/85/31 48/77/31 42/80/32 40/86/32
f 47/87/33 50/81/33 39/84/34 41/88/35
f 41/79/26 45/89/36 44/90/36 42/80/27
f 40/83/29 46/91/37 43/92/37 39/84/30
f 43/92/38 45/93/39 41/88/35 39/84/34
f 44/90/40 46/94/40 40/86/32 42/80/32
f 47/78/41 48/77/41 49/85/41 50/95/41
s 0
f 46/25/42 44/25/42 45/25/42
f 43/25/42 46/25/42 45/25/42
