# Blender 4.3.2
# www.blender.org
mtllib arns.mtl
o right_wrist
v -1.175208 -1.832550 0.131025
v -0.825722 -1.716585 0.560839
v -1.376230 -1.010393 0.723116
v -1.087382 -1.720283 -0.310723
v -1.637890 -1.014091 -0.148446
v -1.504234 -0.900569 -0.189054
v -0.953727 -1.606761 -0.351331
v -1.242574 -0.896871 0.682508
v -0.692067 -1.603064 0.520231
v -6.085357 -4.791587 1.202798
v -5.823697 -4.787890 2.074360
v -5.273190 -5.494082 1.912083
v -5.534850 -5.497780 1.040521
v -0.774119 -1.608763 0.389192
v -1.300348 -1.836633 -0.061842
v -1.466554 -1.908605 -0.204297
v -1.682357 -1.044130 -0.389263
v -0.874349 -1.908605 -0.895234
v -1.090153 -1.044130 -1.080200
v -6.216033 -3.263763 -5.473609
v -6.808238 -3.263763 -4.782672
v -6.592434 -4.128240 -4.597708
v -6.000229 -4.128240 -5.288643
v -1.159699 -1.839468 0.163171
v -0.802817 -1.736511 0.580921
v -1.384332 -0.990257 0.752337
v -1.079280 -1.740418 -0.339944
v -1.660795 -0.994165 -0.168528
v -1.522918 -0.883167 -0.205642
v -0.946970 -1.621972 -0.375058
v -1.249071 -0.879296 0.706517
v -0.673319 -1.618106 0.536439
v -6.104105 -4.776544 1.186590
v -5.830454 -4.772679 2.098089
v -5.254506 -5.511484 1.928671
v -5.528353 -5.515355 1.016512
v -0.758614 -1.615682 0.421335
v -1.451049 -1.915524 -0.172154
v -1.701015 -1.016656 -0.374366
v -0.855691 -1.936079 -0.910131
v -1.105657 -1.037211 -1.112343
v -6.231541 -3.256846 -5.505756
v -6.832402 -3.237195 -4.788024
v -6.593224 -4.129438 -4.597453
v -5.989980 -4.150241 -5.315728
v -1.309850 -1.283393 -0.000001
v -1.298201 -1.284142 -0.107329
v -1.291325 -1.581370 -0.213315
v -1.287952 -1.770887 -0.209619
v -1.366783 -1.772970 -0.000001
v -1.366736 -1.772923 -0.047295
v -1.355825 -1.772121 -0.106326
v -1.361323 -1.579399 -0.108076
v -1.373330 -1.579078 -0.000001
v -1.361323 -1.579399 0.108074
v -1.355825 -1.772121 0.106325
v -1.366736 -1.772923 0.047294
v -1.298201 -1.284142 0.107327
v -1.291325 -1.581370 0.213313
v -1.287952 -1.770887 0.209617
v -1.230192 -1.290155 -0.212789
v -1.230192 -1.290155 0.212787
v -1.279265 -1.779792 -0.000001
v -1.288395 -1.291858 -0.000001
v -1.277788 -1.292161 -0.100187
v -1.279769 -1.582630 -0.193393
v -1.279265 -1.756727 -0.193618
v -1.350408 -1.756727 -0.000001
v -1.350409 -1.581648 -0.000001
v -1.339653 -1.581745 -0.100532
v -1.339635 -1.756727 -0.100590
v -1.350408 -1.756727 -0.045547
v -1.339653 -1.581745 0.100531
v -1.350408 -1.756727 0.045546
v -1.339635 -1.756727 0.100589
v -1.277788 -1.292161 0.100186
v -1.279769 -1.582630 0.193392
v -1.279265 -1.756727 0.193617
v -1.218877 -1.294938 -0.193267
v -1.218877 -1.294938 0.193266
v -1.279265 -1.756727 -0.000001
vn -0.6050 0.7760 0.1783
vn -0.2875 -0.0041 -0.9578
vn 0.2875 0.0041 0.9578
vn 0.6050 -0.7760 -0.1783
vn 0.7425 0.6307 -0.2256
vn -0.7425 -0.6307 0.2256
vn -0.2371 0.9500 -0.2033
vn 0.2371 -0.9500 0.2033
vn 0.6508 -0.0000 -0.7593
vn -0.6508 -0.0000 0.7593
vn -0.7213 -0.3123 -0.6182
vn -0.7374 -0.3368 -0.5855
vn 0.6056 -0.7754 -0.1785
vn 0.2679 -0.0123 0.9634
vn -0.3069 -0.0204 -0.9515
vn -0.6277 0.7561 0.1852
vn 0.5888 -0.7894 -0.1734
vn -0.6045 0.7764 0.1782
vn 0.2882 0.0044 0.9576
vn -0.2868 -0.0037 -0.9580
vn -0.7426 -0.6306 0.2256
vn 0.7426 0.6306 -0.2256
vn 0.2279 -0.9500 0.2135
vn -0.2263 0.9504 -0.2132
vn -0.2233 0.9518 -0.2104
vn -0.2205 0.9532 -0.2069
vn -0.6482 -0.0111 0.7614
vn 0.6495 0.0107 -0.7603
vn 0.6520 0.0123 -0.7581
vn 0.6521 0.0124 -0.7580
vn 0.7292 0.3247 0.6023
vn 0.9998 0.0192 -0.0000
vn 0.9941 0.0191 0.1065
vn 0.9412 0.0238 0.3371
vn 0.9387 -0.0866 0.3338
vn 0.9954 -0.0953 -0.0000
vn 0.0555 0.9980 0.0310
vn 0.0145 0.9992 0.0374
vn 0.0035 0.9999 0.0142
vn 0.9387 -0.0866 -0.3338
vn 0.9412 0.0238 -0.3371
vn 0.9941 0.0191 -0.1065
vn 0.9308 -0.3654 -0.0000
vn 0.8822 -0.3458 -0.3195
vn 0.8313 -0.0770 -0.5504
vn 0.8339 0.0272 -0.5512
vn 0.8822 -0.3458 0.3195
vn 0.8339 0.0272 0.5512
vn 0.8313 -0.0770 0.5504
vn 0.7820 -0.3289 -0.5294
vn 0.7820 -0.3289 0.5294
vn 0.0555 0.9980 -0.0310
vn 0.0145 0.9992 -0.0374
vn 0.0298 0.9996 -0.0000
vn 0.0607 0.9982 -0.0000
vn 0.0035 0.9999 -0.0142
vn -0.9999 0.0139 -0.0000
vn -0.9938 0.1114 -0.0000
vn -0.9395 0.1017 -0.3271
vn -0.9426 0.0067 -0.3339
vn -0.9942 0.0138 -0.1064
vn -0.0000 -1.0000 -0.0000
vn -0.9395 0.1017 0.3271
vn -0.9942 0.0138 0.1064
vn -0.9426 0.0067 0.3339
vn -0.8856 0.3460 0.3099
vn -0.9309 0.3654 -0.0000
vn -0.8369 0.0907 0.5398
vn -0.8396 -0.0008 0.5432
vn -0.8856 0.3460 -0.3100
vn -0.8369 0.0907 -0.5398
vn -0.8396 -0.0008 -0.5432
vn -0.7905 0.3336 0.5137
vn -0.7905 0.3336 -0.5137
vt 0.711550 0.000003
vt 0.711550 0.970103
vt 0.675695 0.970100
vt 0.675695 -0.000000
vt 0.639821 0.029152
vt 0.603711 0.029664
vt 0.603711 0.000512
vt 0.639821 0.000000
vt 0.603710 0.029663
vt 0.567593 0.029152
vt 0.567593 -0.000000
vt 0.603710 0.000512
vt 0.639821 0.970092
vt 0.675694 0.970088
vt 0.675694 0.999241
vt 0.639821 0.999245
vt 0.675695 0.999253
vt 0.711550 0.999256
vt 0.639821 0.000004
vt 0.603710 0.999725
vt 0.639821 0.999214
vt 0.567593 0.999189
vt 0.603710 0.999700
vt 0.978467 0.213722
vt 0.978467 0.219404
vt 0.942338 0.219404
vt 0.942338 0.213723
vt 0.978467 0.208041
vt 0.942338 0.213722
vt 0.942338 0.208041
vt 0.265352 0.683922
vt 0.212354 0.780385
vt 0.212354 0.096464
vt 0.265352 0.000000
vt 0.318312 0.096466
vt 0.318312 0.780391
vt 0.265352 0.683925
vt 0.351639 0.165448
vt 0.366522 0.847965
vt 0.333195 0.779308
vt 0.318312 0.096792
vt 0.415493 -0.000000
vt 0.400893 0.682431
vt 0.367381 0.751087
vt 0.381980 0.068656
vt 0.333628 -0.000000
vt 0.366955 0.068656
vt 0.000000 0.000000
vt 0.492192 0.000004
vt 0.529709 0.000000
vt 0.529709 0.970225
vt 0.491806 0.970229
vt 0.415493 0.029289
vt 0.415726 0.000000
vt 0.453508 0.000525
vt 0.453653 0.029800
vt 0.453653 0.029801
vt 0.453809 0.000524
vt 0.491585 0.000000
vt 0.491806 0.029290
vt 0.567593 0.970228
vt 0.567423 0.999518
vt 0.529924 0.999515
vt 0.529709 0.970224
vt 0.529543 0.999503
vt 0.491999 0.999507
vt 0.530067 -0.000000
vt 0.567593 0.000003
vt 0.453277 0.999975
vt 0.415493 0.999450
vt 0.491806 0.999476
vt 0.454031 1.000000
vt 0.942338 0.190235
vt 0.980150 0.190235
vt 0.980137 0.196179
vt 0.942353 0.196179
vt 0.942353 0.184292
vt 0.980137 0.184292
vt 0.051603 0.683946
vt 0.052429 0.000000
vt 0.106432 0.096486
vt 0.106432 0.780411
vt 0.157410 0.096672
vt 0.211596 0.000000
vt 0.212354 0.684148
vt 0.157411 0.780610
vt 0.122323 0.165692
vt 0.157410 0.097017
vt 0.141952 0.779458
vt 0.106595 0.848123
vt 0.034811 0.068866
vt 0.050886 0.751394
vt 0.015722 0.682729
vt 0.106432 0.068865
vt 0.141433 0.000000
vt 0.423750 0.480188
vt 0.423751 0.480186
vt 0.423768 0.479903
vt 0.428779 0.479980
vt 0.428791 0.480293
vt 0.423777 0.478138
vt 0.436454 0.478543
vt 0.436430 0.478241
vt 0.428704 0.478162
vt 0.436251 0.476475
vt 0.423543 0.477915
vt 0.396588 0.396815
vt 0.391707 0.396878
vt 0.391713 0.397178
vt 0.396592 0.397115
vt 0.396613 0.398798
vt 0.383662 0.399007
vt 0.383650 0.398712
vt 0.391760 0.398847
vt 0.383761 0.400649
s 1
usemtl Material.002
f 11/1/1 3/2/1 5/3/1 10/4/1
f 4/5/2 5/6/2 6/7/2 7/8/2
f 3/9/3 2/10/3 9/11/3 8/12/3
f 2/13/4 4/14/4 7/15/4 9/16/4
f 6/17/1 5/3/1 3/2/1 8/18/1
f 13/4/4 4/14/4 2/13/4 12/19/4
f 10/20/2 5/6/2 4/5/2 13/21/2
f 12/22/3 2/10/3 3/9/3 11/23/3
f 8/24/5 9/25/5 7/26/5 6/27/5
f 10/28/6 13/24/6 12/29/6 11/30/6
f 17/31/7 19/32/7 20/33/7 21/34/7
f 23/35/8 18/36/8 16/37/8 22/34/8
f 20/38/9 19/39/9 18/40/9 23/41/9
f 22/42/10 16/43/10 17/44/10 21/45/10
f 20/38/11 23/41/11 22/46/11 21/47/11
s 0
f 38/48/12 39/48/12 41/48/12
s 1
f 34/49/13 33/50/13 28/51/13 26/52/13
f 27/53/14 30/54/14 29/55/14 28/56/14
f 26/57/15 31/58/15 32/59/15 25/60/15
f 25/61/16 32/62/16 30/63/16 27/64/16
f 29/65/17 31/66/17 26/52/17 28/51/17
f 36/67/18 35/68/18 25/61/18 27/64/18
f 33/69/19 36/70/19 27/53/19 28/56/19
f 35/71/20 34/72/20 26/57/20 25/60/20
f 31/73/21 29/74/21 30/75/21 32/76/21
f 33/77/22 34/78/22 35/74/22 36/73/22
f 39/79/23 43/80/23 42/81/23 41/82/23
s 0
f 40/48/12 38/48/12 41/48/12
s 1
f 45/83/24 44/84/24 38/85/25 40/86/26
f 42/87/27 45/88/27 40/89/27 41/90/27
f 44/48/28 43/91/28 39/92/29 38/93/30
f 42/87/31 43/94/31 44/95/31 45/88/31
usemtl Material.001
f 50/96/32 51/97/33 52/98/34 53/99/35 54/100/36
f 51/97/37 49/101/38 52/98/39
f 55/99/40 56/98/41 57/97/42 50/96/32 54/100/36
f 54/100/36 46/102/43 58/103/44 55/99/40
f 59/104/45 60/101/46 56/98/41 55/99/40
f 53/99/35 47/103/47 46/102/43 54/100/36
f 52/98/34 49/101/48 48/104/49 53/99/35
f 55/99/40 58/103/44 62/105/50 59/104/45
f 53/99/35 48/104/49 61/105/51 47/103/47
f 57/97/52 60/101/53 63/106/54 50/96/55
f 50/96/55 63/106/54 49/101/38 51/97/37
f 56/98/56 60/101/53 57/97/52
f 68/107/57 69/108/58 70/109/59 71/110/60 72/107/61
f 72/107/62 71/110/62 67/111/62
f 73/109/63 69/108/58 68/107/57 74/107/64 75/110/65
f 69/108/58 73/109/63 76/112/66 64/113/67
f 77/114/68 73/109/63 75/110/65 78/111/69
f 70/109/59 69/108/58 64/113/67 65/112/70
f 71/110/60 70/109/59 66/114/71 67/111/72
f 73/109/63 77/114/68 80/115/73 76/112/66
f 70/109/59 65/112/70 79/115/74 66/114/71
f 74/107/62 68/107/62 81/111/62 78/111/62
f 68/107/62 72/107/62 67/111/62 81/111/62
f 75/110/62 74/107/62 78/111/62
