# Blender 4.3.2
# www.blender.org
mtllib hands.mtl
o right_wrist
v -0.616094 -0.337084 -0.134908
v -2.444780 -0.981145 -0.143592
v -1.853419 -1.513184 -0.413455
v -2.096740 -0.982074 0.620913
v -1.505378 -1.514113 0.351049
v 0.225393 -0.997883 0.376315
v 0.048535 -0.185753 0.254803
v 0.696639 -0.999301 -0.319044
v 0.519781 -0.187170 -0.440557
v -0.409482 -1.200455 -0.053528
v 0.608199 -0.158959 -0.380694
v 0.785057 -0.971089 -0.259181
v 0.313811 -0.969672 0.436179
v 0.136952 -0.157541 0.314666
v -0.115095 -0.389742 -0.870400
v 0.061764 -1.201872 -0.748887
v -0.586341 -0.388324 -0.175040
v 0.061764 -1.201872 -0.748887
v 0.035526 -1.081391 -0.766914
v -0.586341 -0.388325 -0.175040
v -0.409482 -1.200455 -0.053528
v -0.560104 -0.508806 -0.157014
v -0.115095 -0.389742 -0.870400
v 0.061764 -1.201872 -0.748887
v -0.586341 -0.388325 -0.175040
v -0.409482 -1.200455 -0.053528
v -1.032394 -0.879564 0.136494
v -1.623756 -0.347525 0.406358
v -1.380435 -0.878635 -0.628010
v -1.971796 -0.346596 -0.358147
v -2.444780 -0.981145 -0.143592
v -1.853419 -1.513184 -0.413455
v -2.096740 -0.982074 0.620913
v -1.505378 -1.514113 0.351049
v -0.632020 -0.320988 -0.122439
v -2.461104 -0.971184 -0.152546
v -1.848729 -1.522129 -0.431999
v -2.100696 -0.972146 0.639124
v -1.488321 -1.523091 0.359672
v 0.239169 -1.000954 0.397897
v 0.032608 -0.169657 0.267272
v 0.712566 -1.015397 -0.331513
v 0.506005 -0.184100 -0.462138
v -0.422652 -1.198150 -0.075644
v 0.609031 -0.158245 -0.380951
v 0.805697 -0.986599 -0.259741
v 0.327592 -0.972740 0.457764
v 0.131415 -0.145788 0.336955
v -0.128876 -0.386673 -0.891985
v 0.057315 -1.206990 -0.773832
v -0.606686 -0.376917 -0.186182
v 0.069607 -1.214853 -0.769785
v 0.031030 -1.086472 -0.791857
v -0.607408 -0.373707 -0.178033
v -0.394169 -1.216002 -0.064337
v -0.573273 -0.506500 -0.179129
v -0.114262 -0.389028 -0.870657
v 0.082403 -1.217382 -0.749448
v -0.591878 -0.376571 -0.152751
v -0.395701 -1.203524 -0.031942
v -1.015337 -0.888542 0.145117
v -1.627713 -0.337597 0.424569
v -1.375745 -0.887580 -0.646554
v -1.988120 -0.336635 -0.367101
v -2.461837 -0.972167 -0.152214
v -1.849462 -1.523112 -0.431667
v -2.101429 -0.973129 0.639457
v -1.489054 -1.524074 0.360004
v -2.058874 -0.634087 -0.046412
v -2.029575 -0.678164 0.046613
v -2.080329 -0.705554 0.047303
v -2.104604 -0.669043 -0.047539
v -2.029575 -0.678164 -0.046613
v -2.004771 -0.729105 -0.046896
v -2.004771 -0.729106 0.046895
v -2.080329 -0.705554 -0.047304
v -2.056674 -0.754620 0.046904
v -2.032054 -0.803842 0.045862
v -2.032053 -0.803842 -0.045864
v -2.056674 -0.754620 -0.046905
v -1.990161 -0.764929 0.048291
v -1.947004 -0.796307 0.047841
v -1.979370 -0.843208 0.046226
v -1.990161 -0.764929 -0.048291
v -1.947004 -0.796307 -0.047842
v -1.902566 -0.810058 -0.047518
v -1.902566 -0.810058 0.047517
v -1.979370 -0.843208 -0.046227
v -1.851280 -0.814579 0.047243
v -1.854112 -0.872249 0.046638
v -1.916492 -0.866060 0.046334
v -1.916492 -0.866060 -0.046335
v -1.854112 -0.872249 -0.046640
v -1.792922 -0.871128 -0.046525
v -1.799175 -0.813772 -0.047393
v -1.851280 -0.814579 -0.047244
v -1.696482 -0.794311 -0.047478
v -1.696482 -0.794311 0.047477
v -1.799175 -0.813772 0.047391
v -1.792922 -0.871128 0.046524
v -1.608536 -0.759265 0.048099
v -1.576213 -0.806787 0.045912
v -1.681806 -0.850060 0.046441
v -1.681806 -0.850060 -0.046442
v -1.608536 -0.759265 -0.048099
v -1.553785 -0.702618 -0.048552
v -1.553785 -0.702618 0.048552
v -1.576213 -0.806787 -0.045912
v -1.538929 -0.617146 0.048253
v -1.501897 -0.726650 0.045587
v -1.501897 -0.726650 -0.045588
v -1.819568 -0.485659 -0.057657
v -1.788870 -0.559491 -0.060009
v -1.721554 -0.554402 0.011565
v -1.732942 -0.619926 0.009961
v -1.797865 -0.626579 0.008403
v -1.788870 -0.559491 0.012746
v -1.819568 -0.485659 0.010394
v -1.732942 -0.619926 -0.057223
v -1.724680 -0.671451 -0.054665
v -1.724681 -0.671451 0.007403
v -1.797865 -0.626579 -0.055667
v -1.684661 -0.739196 -0.047349
v -1.684661 -0.739196 0.000087
v -1.775915 -0.700746 0.005527
v -1.775913 -0.700745 -0.052791
v -1.722504 -0.767322 -0.047185
v -1.722505 -0.767323 -0.000078
v -1.897220 -0.493391 -0.011797
v -1.893875 -0.494974 -0.013502
v -1.845301 -0.539185 -0.010664
v -1.771102 -0.494152 -0.000707
v -1.845301 -0.539185 0.065570
v -1.903800 -0.572939 0.063857
v -1.950645 -0.527519 0.062340
v -1.893874 -0.494974 0.068408
v -1.897221 -0.493390 0.066701
v -1.771102 -0.494152 0.055613
v -1.903800 -0.572939 -0.008952
v -1.937901 -0.612469 -0.005926
v -1.937901 -0.612469 0.060832
v -1.950645 -0.527519 -0.007434
v -1.963941 -0.686617 0.001972
v -1.963941 -0.686617 0.052934
v -1.993270 -0.592073 0.058961
v -1.993270 -0.592073 -0.004055
v -2.009839 -0.675743 0.002135
v -2.009839 -0.675743 0.052771
v -0.572421 -0.416550 -0.186039
v -2.071665 -0.644786 0.030786
v -2.071665 -0.644786 -0.030787
v -2.066668 -0.697630 0.030786
v -2.043854 -0.686401 0.030786
v -2.092774 -0.658963 -0.030786
v -2.043854 -0.686401 -0.030786
v -2.019383 -0.736121 0.030786
v -2.019383 -0.736120 -0.030787
v -2.066668 -0.697630 -0.030787
v -2.042197 -0.747349 0.030786
v -2.042197 -0.747349 -0.030787
v -2.018927 -0.792768 -0.030787
v -2.018927 -0.792768 0.030786
v -2.001556 -0.774200 0.030786
v -1.971352 -0.828391 0.030786
v -1.953981 -0.809823 0.030786
v -2.001556 -0.774200 -0.030786
v -1.953981 -0.809823 -0.030787
v -1.905698 -0.825306 0.030786
v -1.905698 -0.825306 -0.030787
v -1.971352 -0.828391 -0.030787
v -1.912746 -0.849737 0.030786
v -1.853435 -0.855803 0.030786
v -1.851880 -0.830423 0.030786
v -1.912746 -0.849737 -0.030787
v -1.853435 -0.855803 -0.030787
v -1.851880 -0.830423 -0.030787
v -1.797550 -0.829388 -0.030787
v -1.794638 -0.854648 -0.030787
v -1.797550 -0.829388 0.030786
v -1.692037 -0.809274 0.030786
v -1.692037 -0.809274 -0.030787
v -1.794638 -0.854648 0.030786
v -1.686553 -0.834103 0.030786
v -1.585977 -0.792712 0.030786
v -1.600102 -0.771568 0.030786
v -1.686553 -0.834103 -0.030787
v -1.600102 -0.771568 -0.030786
v -1.540959 -0.709105 0.030786
v -1.540959 -0.709105 -0.030786
v -1.585977 -0.792712 -0.030786
v -1.517528 -0.718980 -0.030787
v -1.517528 -0.718980 0.030786
v -1.803550 -0.479631 -0.042514
v -1.737251 -0.551293 -0.042514
v -1.774340 -0.557246 -0.042514
v -1.737251 -0.551293 -0.004749
v -1.774340 -0.557246 -0.004749
v -1.781027 -0.624491 -0.006905
v -1.748255 -0.619228 -0.006987
v -1.803550 -0.479631 -0.004749
v -1.748255 -0.619228 -0.040275
v -1.739155 -0.675858 -0.009723
v -1.739155 -0.675858 -0.037539
v -1.781027 -0.624491 -0.040358
v -1.703102 -0.735561 -0.012911
v -1.703102 -0.735561 -0.034351
v -1.761002 -0.692698 -0.037457
v -1.761003 -0.692698 -0.009806
v -1.719991 -0.748582 -0.034351
v -1.719991 -0.748582 -0.012911
v -1.882138 -0.493932 0.005363
v -1.783758 -0.476119 0.005364
v -1.853961 -0.525389 0.005364
v -1.882386 -0.500833 0.005364
v -1.853961 -0.525389 0.049542
v -1.882386 -0.500833 0.049542
v -1.938159 -0.538992 0.047020
v -1.913039 -0.560686 0.046924
v -1.882138 -0.493932 0.049542
v -1.783758 -0.476119 0.049542
v -1.913039 -0.560686 0.007982
v -1.950528 -0.604098 0.043723
v -1.950528 -0.604098 0.011183
v -1.938159 -0.538992 0.007886
v -1.973022 -0.670114 0.039994
v -1.973022 -0.670114 0.014912
v -1.977477 -0.598212 0.011279
v -1.977477 -0.598212 0.043627
v -1.993857 -0.665567 0.014912
v -1.993857 -0.665567 0.039994
v -0.573997 -0.398110 -0.172633
vn 0.5768 0.7738 -0.2617
vn 0.5610 -0.0017 -0.8278
vn -0.5610 0.0017 0.8278
vn 0.2105 -0.9668 0.1447
vn -0.2105 0.9668 -0.1447
vn 0.8006 0.2554 0.5420
vn -0.8006 -0.2554 -0.5420
vn -0.6335 -0.3323 -0.6988
vn -0.6335 -0.3322 -0.6988
vn -0.6335 -0.3321 -0.6988
vn -0.8564 -0.0952 0.5075
vn -0.4143 0.0011 -0.9101
vn 0.4143 -0.0011 0.9101
vn 0.7040 -0.6334 -0.3213
vn -0.7040 0.6334 0.3213
vn -0.5768 -0.7738 0.2617
vn -0.5586 -0.0100 0.8294
vn 0.5666 0.0127 -0.8239
vn 0.5748 0.0248 -0.8179
vn -0.2106 0.9665 -0.1465
vn 0.2046 -0.9668 0.1533
vn -0.8041 -0.2684 -0.5305
vn -0.1968 0.9692 -0.1484
vn 0.1529 -0.9811 0.1187
vn -0.6098 -0.0280 0.7920
vn 0.8002 0.2566 0.5420
vn 0.7985 0.2558 0.5449
vn 0.7998 0.2564 0.5428
vn 0.7982 0.2555 0.5455
vn 0.7236 0.6855 -0.0811
vn -0.8680 -0.4966 -0.0003
vn -0.9132 -0.4075 -0.0000
vn -0.8680 -0.4966 -0.0000
vn 0.0110 -0.0342 0.9994
vn -0.0097 -0.0051 0.9999
vn -0.0096 -0.0050 0.9999
vn 0.0097 -0.0326 0.9994
vn 0.8976 0.4408 -0.0000
vn 0.7678 0.6407 -0.0000
vn 0.8687 0.4954 -0.0000
vn -0.0095 -0.0050 -0.9999
vn 0.0076 0.0020 -1.0000
vn 0.0079 0.0021 -1.0000
vn -0.0097 -0.0051 -0.9999
vn 0.0079 0.0021 1.0000
vn 0.0076 0.0020 1.0000
vn 0.0212 0.0170 -0.9996
vn 0.0129 0.0266 -0.9996
vn 0.0140 0.0270 -0.9995
vn 0.0212 0.0180 -0.9996
vn 0.0212 0.0180 0.9996
vn 0.0212 0.0170 0.9996
vn -0.7855 -0.6188 -0.0000
vn -0.4486 -0.8937 -0.0000
vn -0.1932 -0.9812 -0.0000
vn 0.0140 0.0270 0.9995
vn 0.0129 0.0266 0.9996
vn 0.4749 0.8801 -0.0000
vn 0.0039 0.0198 -0.9998
vn 0.0009 0.0141 -0.9999
vn 0.0040 0.0200 -0.9998
vn 0.2216 0.9751 -0.0000
vn 0.0040 0.0200 0.9998
vn 0.0039 0.0198 0.9998
vn 0.0009 0.0141 0.9999
vn -0.0015 0.0145 0.9999
vn -0.0363 -0.9993 -0.0000
vn 0.0402 0.9992 -0.0000
vn 0.1013 -0.9949 -0.0000
vn 0.2797 -0.9601 -0.0000
vn -0.1026 0.9947 -0.0000
vn -0.0015 0.0145 -0.9999
vn -0.0067 0.0215 -0.9997
vn -0.0218 0.0295 -0.9993
vn -0.0066 0.0213 -0.9998
vn -0.2840 0.9588 -0.0000
vn -0.0066 0.0213 0.9998
vn -0.0067 0.0215 0.9997
vn 0.5577 -0.8300 -0.0000
vn 0.8907 -0.4546 -0.0000
vn -0.0218 0.0295 0.9993
vn -0.5691 0.8222 -0.0000
vn -0.8968 0.4424 -0.0000
vn -0.8968 0.4424 -0.0008
vn -0.0409 0.0204 -0.9990
vn -0.0412 0.0200 -0.9990
vn -0.0412 0.0200 0.9990
vn -0.0409 0.0205 0.9990
vn -0.0063 0.0003 -1.0000
vn 0.0064 0.0458 -0.9989
vn 0.0071 0.0459 -0.9989
vn -0.0057 0.0058 -1.0000
vn 0.9234 0.3839 -0.0000
vn 0.9911 0.1331 -0.0000
vn 0.9911 0.1330 -0.0000
vn -1.0000 0.0086 -0.0000
vn -0.9435 -0.3312 -0.0000
vn 0.9975 0.0704 -0.0000
vn -0.9852 0.1714 -0.0000
vn 0.8891 0.4577 -0.0000
vn -0.0038 0.0605 -0.9982
vn -0.0065 0.0624 -0.9980
vn 0.0071 0.0459 0.9989
vn -0.0066 0.0624 0.9980
vn -0.0039 0.0605 0.9982
vn 0.0064 0.0459 0.9989
vn -0.5965 0.8026 -0.0000
vn 0.7800 0.6258 -0.0000
vn -0.0269 0.0772 -0.9967
vn -0.0269 0.0771 0.9967
vn -0.1026 -0.0918 0.9905
vn -0.0443 -0.0308 0.9985
vn -0.0466 -0.0332 0.9984
vn -0.0466 -0.0332 -0.9984
vn 0.0425 0.0403 -0.9983
vn 0.0431 0.0388 -0.9983
vn -0.0443 -0.0308 -0.9985
vn 0.4278 0.9039 -0.0000
vn 0.9792 -0.2028 -0.0000
vn 0.9792 -0.2027 -0.0000
vn -0.5188 0.8549 -0.0000
vn -0.5091 0.8607 -0.0000
vn -0.1026 -0.0919 -0.9905
vn -0.6339 0.7734 -0.0000
vn -0.8606 0.5093 -0.0000
vn 0.0431 0.0388 0.9983
vn 0.0425 0.0403 0.9983
vn 0.6770 -0.7359 -0.0000
vn -0.5047 0.8633 -0.0000
vn 0.9223 -0.3865 -0.0000
vn 0.0468 0.0485 -0.9977
vn 0.0465 0.0518 -0.9976
vn 0.0465 0.0518 0.9976
vn 0.0468 0.0485 0.9977
vn 0.2305 0.9731 -0.0000
vn 0.9810 -0.1943 -0.0000
vn 0.0438 0.0771 -0.9961
vn 0.0438 0.0771 0.9961
vn 0.8662 0.4997 -0.0000
vn 0.9015 0.4328 -0.0000
vn -0.0000 -0.0000 -1.0000
vn 0.7692 0.6390 -0.0000
vn -0.8936 -0.4488 -0.0000
vn -0.7643 -0.6448 -0.0000
vn -0.8650 -0.5017 -0.0000
vn -0.0000 -0.0000 1.0000
vn 0.7757 0.6311 -0.0000
vn 0.4587 0.8886 -0.0000
vn 0.2012 0.9796 -0.0000
vn -0.4759 -0.8795 -0.0000
vn -0.2237 -0.9747 -0.0000
vn 0.0379 0.9993 -0.0000
vn -0.0411 -0.9992 -0.0000
vn -0.1035 0.9946 -0.0000
vn -0.2848 0.9586 -0.0000
vn 0.1036 -0.9946 -0.0000
vn 0.2851 -0.9585 -0.0000
vn -0.5654 0.8248 -0.0000
vn -0.8915 0.4530 -0.0000
vn 0.5700 -0.8217 -0.0000
vn 0.8969 -0.4423 -0.0000
vn 0.0026 -0.0131 0.9999
vn 0.0033 -0.0169 0.9999
vn 0.0118 -0.0375 0.9992
vn 0.0111 -0.0369 0.9993
vn -0.9359 -0.3522 -0.0000
vn -0.9912 -0.1324 -0.0000
vn 1.0000 -0.0048 -0.0000
vn 0.9409 0.3387 -0.0000
vn 0.0033 -0.0169 -0.9999
vn 0.0026 -0.0131 -0.9999
vn 0.0112 -0.0369 -0.9993
vn 0.0119 -0.0375 -0.9992
vn 0.9833 -0.1818 -0.0000
vn -0.9961 -0.0886 -0.0000
vn 0.9851 -0.1717 -0.0000
vn -0.8985 -0.4391 -0.0000
vn 0.0222 -0.0387 0.9990
vn 0.0206 -0.0394 0.9990
vn 0.0207 -0.0394 -0.9990
vn 0.0222 -0.0387 -0.9990
vn 0.6106 -0.7920 -0.0000
vn -0.8062 -0.5916 -0.0000
vn 0.0263 -0.0369 0.9990
vn 0.0263 -0.0369 -0.9990
vn -0.0102 -0.0126 -0.9999
vn -0.0112 -0.0139 -0.9998
vn -0.0102 -0.0126 0.9999
vn -0.0112 -0.0139 0.9998
vn -0.0246 -0.0388 0.9989
vn -0.0247 -0.0378 0.9990
vn -0.9994 0.0359 -0.0000
vn -0.8789 0.4770 -0.0000
vn 0.5745 -0.8185 -0.0000
vn 0.5444 -0.8388 -0.0000
vn 0.6394 -0.7689 -0.0000
vn 0.8643 -0.5030 -0.0000
vn -0.0247 -0.0378 -0.9990
vn -0.0246 -0.0388 -0.9989
vn -0.7083 0.7059 -0.0000
vn 0.5044 -0.8635 -0.0000
vn -0.9139 0.4059 -0.0000
vn -0.0180 -0.0490 0.9986
vn -0.0197 -0.0482 0.9986
vn -0.0197 -0.0482 -0.9986
vn -0.0180 -0.0490 -0.9986
vn -0.2132 -0.9770 -0.0000
vn -0.9717 0.2363 -0.0000
vn -0.0132 -0.0513 0.9986
vn -0.0132 -0.0513 -0.9986
vt 0.981862 0.765006
vt 0.981862 0.768818
vt 0.940445 0.768818
vt 0.940445 0.765006
vt 0.792400 0.467166
vt 0.792400 0.407690
vt 0.827623 0.363930
vt 0.827623 0.372753
vt 0.827623 0.423406
vt 0.822699 0.576496
vt 0.822699 0.517020
vt 0.827610 0.523114
vt 0.827610 0.582590
vt 0.787433 0.473260
vt 0.787433 0.532736
vt 0.772480 0.359369
vt 0.807703 0.315610
vt 0.802841 0.624816
vt 0.767575 0.581057
vt 0.830073 0.904495
vt 0.830073 0.844899
vt 0.882372 0.893021
vt 0.882372 0.952616
vt 0.787494 0.413784
vt 0.767575 0.365464
vt 0.807752 0.630911
vt 0.787494 0.473260
vt 0.888147 0.263541
vt 0.940314 0.215426
vt 0.940314 0.266179
vt 0.888147 0.272382
vt 0.940314 0.275020
vt 0.888147 0.323135
vt 0.888147 0.059596
vt 0.888147 0.000000
vt 0.940445 0.048121
vt 0.940445 0.107717
vt 0.940445 0.087441
vt 0.940445 0.000000
vt 0.981774 0.000002
vt 0.981774 0.087442
vt 0.981862 0.761194
vt 0.940445 0.761194
vt 0.940445 0.757383
vt 0.981862 0.757383
vt 0.940445 0.174883
vt 0.940445 0.087445
vt 0.981737 0.087442
vt 0.981737 0.174880
vt 0.981595 0.349750
vt 0.940445 0.349757
vt 0.940445 0.262327
vt 0.981595 0.262320
vt 0.981601 0.262320
vt 0.940445 0.262313
vt 0.981601 0.174890
vt 0.940445 0.745677
vt 0.983334 0.745677
vt 0.983334 0.749624
vt 0.940445 0.749624
vt 0.802880 0.151602
vt 0.767611 0.107842
vt 0.767575 0.057183
vt 0.767575 0.048359
vt 0.767937 0.048354
vt 0.803719 0.092119
vt 0.773115 0.261076
vt 0.767575 0.267177
vt 0.767575 0.207687
vt 0.772504 0.201592
vt 0.809420 0.157805
vt 0.809314 0.217311
vt 0.788369 0.000000
vt 0.825161 0.043788
vt 0.809691 0.217319
vt 0.829829 0.265648
vt 0.794436 0.309407
vt 0.884172 0.503195
vt 0.830073 0.551311
vt 0.830073 0.491697
vt 0.884169 0.443484
vt 0.830073 0.049883
vt 0.809263 0.098219
vt 0.788276 0.315610
vt 0.809023 0.157805
vt 0.884049 0.276012
vt 0.883470 0.284860
vt 0.830495 0.278659
vt 0.830252 0.227894
vt 0.830642 0.287500
vt 0.884333 0.335614
vt 0.884333 0.276018
vt 0.883075 0.335657
vt 0.830073 0.287509
vt 0.884172 0.395368
vt 0.830073 0.443484
vt 0.830073 0.383870
vt 0.884169 0.335657
vt 0.930906 0.791409
vt 0.888147 0.791412
vt 0.888147 0.703839
vt 0.930906 0.703836
vt 0.940445 0.741729
vt 0.983334 0.741729
vt 0.930944 0.703836
vt 0.888147 0.703834
vt 0.888147 0.616258
vt 0.930944 0.616260
vt 0.888147 0.878978
vt 0.930765 0.791419
vt 0.930765 0.878985
vt 0.888147 0.966558
vt 0.888147 0.878993
vt 0.930759 0.878985
vt 0.930759 0.966551
vt 0.983334 0.753571
vt 0.940445 0.753571
vt 0.176131 0.397387
vt 0.178381 0.398495
vt 0.174891 0.395172
vt 0.176640 0.396354
vt 0.174249 0.396127
vt 0.178889 0.397463
vt 0.180944 0.398517
vt 0.180104 0.399302
vt 0.181715 0.401456
vt 0.182555 0.400670
vt 0.182415 0.403641
vt 0.182645 0.406077
vt 0.183794 0.406007
vt 0.183520 0.403323
vt 0.183740 0.408668
vt 0.182597 0.408535
vt 0.181685 0.413309
vt 0.179977 0.417469
vt 0.180933 0.418109
vt 0.182809 0.413558
vt 0.177149 0.420144
vt 0.177596 0.421205
vt 0.170012 0.411258
vt 0.173086 0.410762
vt 0.173325 0.409279
vt 0.170282 0.409580
vt 0.166770 0.408257
vt 0.175649 0.411175
vt 0.178349 0.412807
vt 0.176411 0.410187
vt 0.178939 0.412043
vt 0.167419 0.404701
vt 0.167731 0.404690
vt 0.168842 0.405977
vt 0.166611 0.409153
vt 0.170440 0.403304
vt 0.169459 0.402167
vt 0.172405 0.401608
vt 0.175393 0.400592
vt 0.172139 0.400389
vt 0.175188 0.399649
vt 0.292208 0.398935
vt 0.294527 0.400077
vt 0.290929 0.396652
vt 0.290267 0.397637
vt 0.292732 0.397871
vt 0.295051 0.399013
vt 0.297169 0.400100
vt 0.296303 0.400910
vt 0.298830 0.402320
vt 0.297963 0.403129
vt 0.298685 0.405382
vt 0.299825 0.405054
vt 0.300107 0.407821
vt 0.298922 0.407893
vt 0.298873 0.410427
vt 0.300051 0.410563
vt 0.297933 0.415349
vt 0.299091 0.415605
vt 0.297158 0.420296
vt 0.296172 0.419637
vt 0.293257 0.422394
vt 0.293717 0.423487
vt 0.285899 0.413235
vt 0.286178 0.411505
vt 0.289315 0.411194
vt 0.289069 0.412723
vt 0.282558 0.410140
vt 0.291710 0.413148
vt 0.294494 0.414831
vt 0.292496 0.412129
vt 0.295102 0.414044
vt 0.283226 0.406475
vt 0.282393 0.411064
vt 0.284693 0.407790
vt 0.283548 0.406463
vt 0.285329 0.403862
vt 0.286341 0.405035
vt 0.288367 0.403286
vt 0.291447 0.402239
vt 0.288093 0.402029
vt 0.291235 0.401267
s 1
usemtl Material.014
f 4/1/1 5/2/1 3/3/1 2/4/1
f 9/5/2 8/6/2 18/7/2 16/7/2 19/8/2 15/9/2
f 7/10/3 6/11/3 13/12/3 14/13/3
f 21/14/3 6/11/3 7/10/3 20/15/3
f 8/6/4 6/16/4 21/17/4 18/7/4
f 7/10/5 9/18/5 15/19/5 17/15/5 20/15/5
f 12/20/6 11/21/6 14/22/6 13/23/6
f 6/16/4 8/6/4 12/24/4 13/25/4
f 9/18/5 7/10/5 14/13/5 11/26/5
f 8/6/2 9/5/2 11/27/2 12/24/2
f 17/28/7 15/29/7 19/30/7 22/31/7
f 16/32/7 10/33/7 22/31/7 19/30/7
f 20/28/8 17/28/9 22/31/10 10/33/8 16/32/11 18/32/8 21/33/9
f 24/34/6 23/35/6 25/36/6 26/37/6
f 31/38/12 30/39/12 29/40/12 32/41/12
f 29/42/1 30/43/1 28/44/1 27/45/1
f 34/46/13 27/47/13 28/48/13 33/49/13
f 29/50/14 27/51/14 34/52/14 32/53/14
f 28/54/15 30/55/15 31/46/15 33/56/15
f 32/4/16 34/43/16 33/42/16 31/1/16
f 38/57/16 36/58/16 37/59/16 39/60/16
f 43/61/17 49/62/17 53/63/17 50/64/17 52/65/17 42/66/17
f 41/67/18 48/68/18 47/69/18 40/70/18
f 55/71/19 54/72/19 41/67/19 40/70/19
f 42/66/20 52/65/20 55/73/20 40/74/20
f 41/67/21 54/72/21 51/75/21 49/76/21 43/77/21
f 46/78/22 47/79/22 48/80/22 45/81/22
f 40/74/23 47/82/23 46/83/23 42/66/23
f 43/77/24 45/84/24 48/68/24 41/67/24
f 42/66/25 46/83/25 45/85/25 43/61/25
f 51/86/26 56/87/27 53/88/28 49/89/26
f 50/90/29 53/88/28 56/87/27 44/91/29
f 54/92/30 55/93/30 52/94/30 50/90/30 44/91/30 56/87/30 51/86/30
f 58/95/22 60/96/22 59/97/22 57/98/22
f 65/99/13 66/100/13 63/101/13 64/102/13
f 63/58/16 61/57/16 62/103/16 64/104/16
f 68/105/12 67/106/12 62/107/12 61/108/12
f 63/109/15 66/100/15 68/110/15 61/111/15
f 62/112/14 67/113/14 65/114/14 64/115/14
f 66/116/1 65/117/1 67/60/1 68/59/1
usemtl None.010
f 73/118/31 74/119/32 75/119/32 70/118/33
f 72/120/34 76/121/35 73/118/36 69/122/37
f 77/123/38 78/124/39 79/124/39 80/123/38
f 71/121/40 77/123/38 80/123/38 76/121/40
f 70/118/41 75/119/42 77/123/43 71/121/44
f 76/121/35 80/123/45 74/119/46 73/118/36
f 81/125/47 82/126/48 83/127/49 78/124/50
f 75/119/42 81/125/47 78/124/50 77/123/43
f 80/123/45 79/124/51 84/125/52 74/119/46
f 74/119/32 84/125/53 81/125/53 75/119/32
f 85/126/54 86/128/55 87/128/55 82/126/54
f 79/124/51 88/127/56 85/126/57 84/125/52
f 84/125/53 85/126/54 82/126/54 81/125/53
f 78/124/39 83/127/58 88/127/58 79/124/39
f 87/128/59 89/129/60 90/130/60 91/131/61
f 83/127/58 91/131/62 92/131/62 88/127/58
f 82/126/48 87/128/59 91/131/61 83/127/49
f 88/127/56 92/131/63 86/128/64 85/126/57
f 93/130/65 94/132/66 95/133/66 96/129/65
f 92/131/63 93/130/65 96/129/65 86/128/64
f 86/128/55 96/129/67 89/129/67 87/128/55
f 91/131/62 90/130/68 93/130/68 92/131/62
f 95/133/69 97/134/70 98/134/70 99/133/69
f 96/129/67 95/133/69 99/133/69 89/129/67
f 90/130/68 100/132/71 94/132/71 93/130/68
f 89/129/60 99/133/72 100/132/72 90/130/60
f 98/134/73 101/135/74 102/136/74 103/137/75
f 100/132/71 103/137/76 104/137/76 94/132/71
f 99/133/72 98/134/73 103/137/75 100/132/72
f 94/132/66 104/137/77 97/134/78 95/133/66
f 105/135/79 106/138/80 107/138/80 101/135/79
f 104/137/77 108/136/81 105/135/81 97/134/78
f 97/134/70 105/135/79 101/135/79 98/134/70
f 103/137/76 102/136/82 108/136/82 104/137/76
f 102/136/82 110/139/83 111/139/84 108/136/82
f 101/135/74 107/138/85 110/139/86 102/136/74
f 108/136/81 111/139/87 106/138/88 105/135/81
f 114/140/89 115/141/90 116/142/91 117/143/92
f 118/144/93 117/143/94 113/143/95 112/144/93
f 119/141/96 120/145/97 121/145/97 115/141/96
f 117/143/94 116/142/98 122/142/98 113/143/95
f 120/145/97 123/146/99 124/146/99 121/145/97
f 116/142/98 125/147/100 126/147/100 122/142/98
f 115/141/90 121/145/101 125/147/102 116/142/91
f 122/142/103 126/147/104 120/145/105 119/141/106
f 127/148/107 128/148/107 124/146/99 123/146/99
f 125/147/100 128/148/108 127/148/108 126/147/100
f 121/145/101 124/146/109 128/148/109 125/147/102
f 126/147/104 127/148/110 123/146/110 120/145/105
f 129/149/111 130/150/112 131/151/113 132/152/111
f 133/151/114 134/153/115 135/154/116 136/150/117
f 137/149/118 136/150/119 130/150/120 129/149/118
f 132/152/121 131/151/122 133/151/122 138/152/121
f 138/152/123 133/151/114 136/150/117 137/149/123
f 139/153/124 140/155/125 141/155/125 134/153/124
f 130/150/112 142/154/126 139/153/127 131/151/113
f 131/151/122 139/153/124 134/153/124 133/151/122
f 136/150/119 135/154/128 142/154/128 130/150/120
f 140/155/125 143/156/129 144/156/129 141/155/125
f 135/154/128 145/157/130 146/157/130 142/154/128
f 134/153/115 141/155/131 145/157/132 135/154/116
f 142/154/126 146/157/133 140/155/134 139/153/127
f 147/158/135 148/158/135 144/156/129 143/156/129
f 145/157/130 148/158/136 147/158/136 146/157/130
f 141/155/131 144/156/137 148/158/137 145/157/132
f 146/157/133 147/158/138 143/156/138 140/155/134
f 155/159/139 153/159/139 156/160/140 157/160/140
f 154/161/141 151/162/141 155/159/141 158/163/141
f 151/162/142 150/162/142 153/159/139 155/159/139
f 159/164/143 160/164/143 161/165/144 162/165/144
f 152/163/145 158/163/145 160/164/143 159/164/143
f 153/159/146 152/163/146 159/164/146 156/160/146
f 158/163/141 155/159/141 157/160/141 160/164/141
f 163/166/146 162/165/146 164/167/146 165/168/146
f 156/160/146 159/164/146 162/165/146 163/166/146
f 160/164/141 157/160/141 166/166/141 161/165/141
f 157/160/140 156/160/140 163/166/147 166/166/147
f 167/168/148 165/168/148 168/169/149 169/169/149
f 161/165/141 166/166/141 167/168/141 170/167/141
f 166/166/147 163/166/147 165/168/148 167/168/148
f 162/165/144 161/165/144 170/167/150 164/167/150
f 168/169/146 171/170/146 172/171/146 173/172/146
f 164/167/150 170/167/150 174/170/151 171/170/151
f 165/168/146 164/167/146 171/170/146 168/169/146
f 170/167/141 167/168/141 169/169/141 174/170/141
f 175/171/141 176/172/141 177/173/141 178/174/141
f 174/170/141 169/169/141 176/172/141 175/171/141
f 169/169/149 168/169/149 173/172/152 176/172/152
f 171/170/151 174/170/151 175/171/153 172/171/153
f 177/173/154 179/173/154 180/175/155 181/175/155
f 176/172/152 173/172/152 179/173/154 177/173/154
f 172/171/153 175/171/153 178/174/156 182/174/156
f 173/172/146 172/171/146 182/174/146 179/173/146
f 180/175/146 183/176/146 184/177/146 185/178/146
f 182/174/156 178/174/156 186/176/157 183/176/157
f 179/173/146 182/174/146 183/176/146 180/175/146
f 178/174/141 177/173/141 181/175/141 186/176/141
f 187/178/158 185/178/158 188/179/159 189/179/159
f 186/176/141 181/175/141 187/178/141 190/177/141
f 181/175/155 180/175/155 185/178/158 187/178/158
f 183/176/157 186/176/157 190/177/160 184/177/160
f 184/177/160 190/177/160 191/180/161 192/180/161
f 185/178/146 184/177/146 192/180/146 188/179/146
f 190/177/141 187/178/141 189/179/141 191/180/141
f 196/181/162 197/182/163 198/183/164 199/184/165
f 200/185/166 193/185/166 195/182/167 197/182/167
f 201/184/168 199/184/168 202/186/169 203/186/169
f 195/182/170 194/181/171 201/184/172 204/183/173
f 194/181/174 196/181/174 199/184/168 201/184/168
f 197/182/167 195/182/167 204/183/175 198/183/175
f 203/186/169 202/186/169 205/187/176 206/187/176
f 198/183/175 204/183/175 207/188/177 208/188/177
f 199/184/165 198/183/164 208/188/178 202/186/179
f 204/183/173 201/184/172 203/186/180 207/188/181
f 209/189/182 206/187/176 205/187/176 210/189/182
f 208/188/177 207/188/177 209/189/183 210/189/183
f 202/186/179 208/188/178 210/189/184 205/187/184
f 207/188/181 203/186/180 206/187/185 209/189/185
f 211/190/141 212/191/141 213/192/186 214/193/187
f 215/192/188 216/193/189 217/194/190 218/195/191
f 219/190/192 211/190/192 214/193/193 216/193/193
f 212/191/194 220/191/194 215/192/195 213/192/195
f 220/191/146 219/190/146 216/193/189 215/192/188
f 221/195/196 218/195/196 222/196/197 223/196/197
f 214/193/187 213/192/186 221/195/198 224/194/199
f 213/192/195 215/192/195 218/195/196 221/195/196
f 216/193/193 214/193/193 224/194/200 217/194/200
f 223/196/197 222/196/197 225/197/201 226/197/201
f 217/194/200 224/194/200 227/198/202 228/198/202
f 218/195/191 217/194/190 228/198/203 222/196/204
f 224/194/199 221/195/198 223/196/205 227/198/206
f 229/199/207 226/197/201 225/197/201 230/199/207
f 228/198/202 227/198/202 229/199/208 230/199/208
f 222/196/204 228/198/203 230/199/209 225/197/209
f 227/198/206 223/196/205 226/197/210 229/199/210
l 107 109
