# Blender 4.3.2
# www.blender.org
mtllib hands.mtl
o right_wrist
v -175.208755 -366.412994 61.343510
v -154.293533 -205.791367 74.362068
v -89.337547 -366.413025 -76.614418
v -68.422325 -205.791367 -63.595840
v -287.865814 -346.059937 -8.779299
v -181.079376 -185.438309 -133.718643
v -201.994614 -346.059937 -146.737198
v -266.950592 -185.438278 4.239253
v -265.145111 -350.164764 5.363078
v -244.229858 -189.543076 18.381628
v -158.358673 -189.543137 -119.576294
v -179.273926 -350.164764 -132.594818
v -270.748016 -176.048096 13.065602
v -249.127548 -179.954132 26.523151
v -246.376175 -180.451218 28.235725
v -80.284325 -233.949570 45.911411
v -142.631424 -85.499313 67.857117
v -133.138870 -233.431366 -107.751793
v -195.485977 -84.981140 -85.806068
v -196.702316 -288.735962 85.770195
v -311.903931 -139.767563 -45.947308
v -249.556839 -288.217743 -67.893005
v -259.049408 -140.285706 107.715904
v -175.392700 -367.803040 62.936405
v -153.741302 -204.874863 75.871132
v -87.576424 -367.478302 -77.251419
v -290.896057 -345.925049 -8.487298
v -180.648605 -186.184555 -132.077271
v -201.314743 -344.141327 -146.157303
v -266.259979 -187.082657 3.996153
v -244.782150 -190.459579 16.872555
v -162.491150 -191.589050 -118.362549
v -181.035034 -349.099457 -131.957794
v -271.597748 -174.871536 14.278352
v -249.977249 -178.777557 27.735899
v -245.823883 -179.534698 29.744801
v -77.149582 -233.775101 45.941910
v -130.685791 -233.250259 -109.703102
v -198.357925 -290.815857 87.440826
v -251.894150 -290.290985 -68.204178
v -261.502502 -140.466858 109.667236
v -197.666046 -315.993835 29.842447
v -196.746292 -362.441254 29.896902
v -196.107101 -279.277802 29.838150
v -170.720505 -282.384399 17.949902
v -168.601669 -315.652679 18.002769
v -166.033371 -358.998260 18.074886
v -188.602280 -245.461823 29.828714
v -171.690826 -211.115341 29.795393
v -159.689346 -218.761917 17.460508
v -168.365936 -253.176270 17.770967
v -238.220505 -164.612625 35.814018
v -205.308029 -187.704407 34.494530
v -226.305908 -228.275665 34.495224
v -223.653442 -137.079453 35.814789
v -190.313538 -161.710983 34.494511
v -157.262039 -186.561264 29.815666
v -277.777740 -132.965561 -6.045187
v -272.069550 -135.818588 -18.073147
v -263.306702 -145.536957 26.849865
v -272.069550 -135.818588 18.073093
v -177.327499 -138.216934 34.494743
v -144.491318 -168.284683 29.853834
v -210.685059 -113.492912 35.802917
v -192.526413 -102.817558 35.949360
v -168.362778 -123.082535 34.530064
v -129.867569 -186.298538 18.361015
v -162.387329 -113.095215 26.898876
v -162.387329 -113.095215 26.898876
v -168.362778 -123.082535 34.530064
v -192.526413 -102.817558 35.949360
v -180.278671 -97.699532 26.858564
v -180.278671 -97.699532 26.858564
v -142.735519 -190.357834 18.899754
v -150.465897 -197.328079 17.314631
v -196.746292 -362.441254 -29.897026
v -197.666046 -315.993835 -29.842548
v -196.107101 -279.277802 -29.838240
v -238.402756 -269.637878 -34.495541
v -168.601669 -315.652679 -18.002882
v -170.720505 -282.384399 -17.950005
v -166.033371 -358.998260 -18.075014
v -264.032227 -211.944092 -35.809891
v -188.602280 -245.461823 -29.828793
v -168.365936 -253.176270 -17.771059
v -159.689346 -218.761917 -17.460583
v -171.690826 -211.115341 -29.795465
v -226.305908 -228.275665 -34.495296
v -205.308029 -187.704407 -34.494583
v -238.220505 -164.612625 -35.814075
v -190.313538 -161.710983 -34.494568
v -223.653442 -137.079453 -35.814835
v -157.262039 -186.561264 -29.815722
v -263.306702 -145.536957 -26.849916
v -144.491318 -168.284683 -29.853888
v -177.327499 -138.216934 -34.494789
v -246.552597 -119.564796 -26.859934
v -210.685059 -113.492912 -35.802952
v -168.362778 -123.082535 -34.530109
v -192.526413 -102.817558 -35.949383
v -129.867569 -186.298538 -18.361088
v -180.278671 -97.699509 -26.858599
v -192.526413 -102.817558 -35.949383
v -168.362778 -123.082535 -34.530109
v -180.006256 -89.609261 -26.888029
v -180.006256 -89.609261 -26.888029
v -180.278671 -97.699509 -26.858599
v -142.735519 -190.357834 -18.899818
v -150.465897 -197.328079 -17.314701
v 68.412636 -121.479385 -23.089180
v -142.735519 -190.357834 -18.899818
v -142.735519 -190.357834 18.899754
v -129.867569 -186.298538 18.361015
v -129.867569 -186.298538 -18.361088
v -159.689346 -218.761917 -17.460583
v -159.689346 -218.761917 17.460508
v -150.465897 -197.328079 17.314631
v -150.465897 -197.328079 -17.314701
v -166.033371 -358.998260 18.074886
v -166.033371 -358.998260 -18.075014
v -168.601669 -315.652679 -18.002882
v -168.601669 -315.652679 18.002769
v -170.720505 -282.384399 17.949902
v -170.720505 -282.384399 -17.950005
v -277.777740 -132.965561 6.045141
v -168.365936 -253.176270 -17.771059
v -168.365936 -253.176270 17.770967
v -166.033371 -358.998260 18.074886
v -166.033371 -358.998260 -18.075014
v -164.700012 -48.800030 4.699993
v -197.699997 -359.600037 26.899942
v -198.400009 -316.000000 26.899952
v -196.900009 -279.200012 26.899954
v -171.600021 -315.800018 15.999945
v -173.700012 -282.300018 15.999949
v -169.300018 -356.500000 15.999938
v -189.500015 -245.200027 26.899961
v -171.300003 -252.600006 15.999953
v -162.500015 -217.699997 15.999963
v -172.800003 -210.600021 26.899963
v -226.500000 -228.199997 31.499962
v -205.500000 -187.600006 31.499971
v -237.900024 -164.800018 32.799976
v -190.500015 -161.600006 31.499971
v -223.300003 -137.300003 32.799980
v -158.199997 -185.800003 26.899971
v -270.100037 -137.000015 -16.000027
v -275.200012 -134.500000 -5.300024
v -262.200043 -146.199997 24.099976
v -270.100037 -137.000015 15.999975
v -145.000000 -167.699997 26.899975
v -177.500015 -138.100006 31.499977
v -210.300034 -113.800003 32.799988
v -168.900009 -123.599998 31.499979
v -192.900009 -103.300003 32.799988
v -130.699997 -183.400009 16.199968
v -162.900009 -113.800003 23.899982
v -162.900009 -113.800003 23.899982
v -181.300018 -98.200020 23.899984
v -192.900009 -103.300003 32.799988
v -168.900009 -123.599998 31.499979
v -181.300018 -98.200020 23.899984
v -144.400009 -187.900009 17.199965
v -152.900009 -195.500000 15.999966
v -198.400009 -316.000000 -26.900051
v -197.699997 -359.600037 -26.900064
v -238.600021 -269.600006 -31.500044
v -196.900009 -279.200012 -26.900047
v -173.700012 -282.300018 -16.000051
v -171.600021 -315.800018 -16.000055
v -169.300018 -356.500000 -16.000065
v -263.700012 -212.100006 -32.800041
v -189.500015 -245.200027 -26.900040
v -172.800003 -210.600021 -26.900038
v -162.500015 -217.699997 -16.000040
v -171.300003 -252.600006 -16.000048
v -237.900024 -164.800018 -32.800034
v -205.500000 -187.600006 -31.500031
v -226.500000 -228.199997 -31.500038
v -223.300003 -137.300003 -32.800026
v -190.500015 -161.600006 -31.500032
v -158.199997 -185.800003 -26.900030
v -262.200043 -146.199997 -24.100029
v -177.500015 -138.100006 -31.500027
v -145.000000 -167.699997 -26.900026
v -245.500031 -120.200005 -24.100023
v -210.300034 -113.800003 -32.800018
v -192.900009 -103.300003 -32.800018
v -168.900009 -123.599998 -31.500025
v -130.699997 -183.400009 -16.200035
v -162.900009 -113.800003 -23.900021
v -162.900009 -113.800003 -23.900021
v -168.900009 -123.599998 -31.500025
v -192.900009 -103.300003 -32.800018
v -181.300018 -98.199997 -23.900019
v -180.900009 -89.499992 -23.900019
v -180.900009 -89.499992 -23.900019
v -181.300018 -98.199997 -23.900019
v -144.400009 -187.900009 -17.200035
v -152.900009 -195.500000 -16.000036
v -75.900009 61.700008 9.300012
v -144.400009 -187.900009 -17.200035
v -130.699997 -183.400009 -16.200035
v -130.699997 -183.400009 16.199968
v -144.400009 -187.900009 17.199965
v -162.500015 -217.699997 -16.000040
v -152.900009 -195.500000 -16.000036
v -152.900009 -195.500000 15.999966
v -162.500015 -217.699997 15.999963
v -169.300018 -356.500000 -16.000065
v -169.300018 -356.500000 15.999938
v -197.699997 -359.600037 26.899942
v -171.600021 -315.800018 -16.000055
v -173.700012 -282.300018 -16.000051
v -173.700012 -282.300018 15.999949
v -171.600021 -315.800018 15.999945
v -275.200012 -134.500000 5.299977
v -171.300003 -252.600006 -16.000048
v -171.300003 -252.600006 15.999953
v -169.300018 -356.500000 15.999938
v -169.300018 -356.500000 -16.000065
vn 0.8392 -0.1516 0.5223
vn -0.5284 -0.0000 0.8490
vn 0.5284 -0.0000 -0.8490
vn -0.1287 -0.9884 -0.0801
vn 0.1287 0.9884 0.0801
vn -0.8392 0.1516 -0.5223
vn 0.8643 0.4067 -0.2959
vn -0.8643 -0.4067 0.2959
vn -0.3253 0.0032 -0.9456
vn 0.3253 -0.0032 0.9456
vn 0.3837 -0.9135 -0.1351
vn -0.3837 0.9135 0.1351
vn 0.5873 -0.0020 -0.8094
vn 0.5309 -0.0094 -0.8474
vn 0.1365 0.9861 0.0947
vn 0.1544 0.9835 0.0947
vn -0.2433 -0.0031 -0.9699
vn -0.2603 0.0250 -0.9652
vn -0.4231 0.0302 -0.9056
vn -0.3810 -0.0106 -0.9245
vn -0.3655 -0.0165 -0.9307
vn -0.2313 -0.0090 -0.9728
vn -0.2913 0.0839 -0.9529
vn -0.3499 0.1615 -0.9228
vn -0.5739 0.2499 -0.7799
vn -0.4874 0.1244 -0.8643
vn -0.0645 0.0252 -0.9976
vn -0.0637 0.0347 -0.9974
vn 0.1065 -0.0645 -0.9922
vn 0.1161 -0.0725 -0.9906
vn -0.0627 0.0368 -0.9974
vn -0.2914 0.2357 -0.9271
vn -0.0565 0.0403 -0.9976
vn -0.1627 0.1897 -0.9683
vn 0.1282 -0.1029 -0.9864
vn 0.1002 -0.0789 -0.9918
vn -0.0534 0.0448 -0.9976
vn -0.3025 -0.4015 -0.8645
vn -0.3038 -0.4019 -0.8638
vn -0.4839 -0.2447 -0.8402
vn -0.4834 -0.2453 -0.8403
vn -0.3680 0.4595 -0.8083
vn -0.1579 0.3251 -0.9324
vn -0.5354 0.4306 -0.7266
vn -0.2423 -0.0031 0.9702
vn -0.3811 -0.0106 0.9245
vn -0.4230 0.0302 0.9056
vn -0.2601 0.0250 0.9653
vn -0.2314 -0.0089 0.9728
vn -0.3655 -0.0165 0.9307
vn -0.2913 0.0839 0.9529
vn -0.4874 0.1244 0.8643
vn -0.5739 0.2499 0.7799
vn -0.3497 0.1616 0.9228
vn 0.1086 -0.0510 0.9928
vn -0.0645 0.0252 0.9976
vn -0.0637 0.0347 0.9974
vn 0.1055 -0.0617 0.9925
vn -0.0661 0.0135 0.9977
vn -0.0619 0.0368 0.9974
vn 0.1161 -0.0724 0.9906
vn -0.2916 0.2358 0.9270
vn -0.1630 0.1894 0.9683
vn -0.0565 0.0403 0.9976
vn 0.3645 -0.2185 0.9052
vn 0.3473 -0.2078 0.9145
vn 0.1254 -0.0987 0.9872
vn -0.0534 0.0448 0.9976
vn 0.1014 -0.0790 0.9917
vn -0.3680 0.4595 0.8083
vn -0.1579 0.3251 0.9324
vn -0.5354 0.4307 0.7265
vn -0.4925 0.8703 0.0001
vn -0.4925 0.8703 -0.0001
vn -0.2023 0.9793 -0.0000
vn -0.9469 0.3216 -0.0000
vn -0.8092 0.5876 -0.0002
vn -0.8092 0.5875 0.0002
vn -0.9981 -0.0614 -0.0000
vn -1.0000 0.0082 -0.0000
vn -0.9867 0.1626 -0.0000
vn 0.3645 -0.2189 -0.9051
vn 0.6362 -0.3833 -0.6696
vn 0.8330 -0.4976 -0.2417
vn 0.8338 -0.4967 0.2408
vn 0.6351 -0.3823 0.6712
vn -0.9982 -0.0591 -0.0000
vn 0.2433 0.0021 0.9699
vn 0.3809 0.0090 0.9246
vn 0.4228 -0.0310 0.9057
vn 0.2602 -0.0263 0.9652
vn 0.2306 0.0071 0.9730
vn 0.3651 0.0140 0.9309
vn 0.2920 -0.0852 0.9526
vn 0.4867 -0.1249 0.8646
vn 0.5758 -0.2519 0.7778
vn 0.3529 -0.1639 0.9212
vn 0.0647 -0.0252 0.9976
vn 0.0640 -0.0348 0.9973
vn -0.1047 0.0612 0.9926
vn 0.0628 -0.0370 0.9973
vn -0.1136 0.0709 0.9910
vn 0.2961 -0.2401 0.9245
vn 0.1666 -0.1915 0.9672
vn 0.0575 -0.0389 0.9976
vn -0.1243 0.0990 0.9873
vn 0.0554 -0.0417 0.9976
vn -0.0988 0.0822 0.9917
vn 0.3009 0.4054 0.8632
vn 0.4904 0.2457 0.8361
vn 0.4883 0.2498 0.8361
vn 0.3041 0.4064 0.8616
vn 0.3793 -0.4505 0.8082
vn 0.1627 -0.3217 0.9327
vn 0.5511 -0.4251 0.7181
vn 0.2419 0.0020 -0.9703
vn 0.2605 -0.0255 -0.9651
vn 0.4230 -0.0309 -0.9056
vn 0.3809 0.0090 -0.9246
vn 0.3650 0.0140 -0.9309
vn 0.2304 0.0071 -0.9731
vn 0.2920 -0.0852 -0.9526
vn 0.3518 -0.1639 -0.9216
vn 0.5759 -0.2519 -0.7777
vn 0.4867 -0.1249 -0.8646
vn -0.1086 0.0510 -0.9928
vn -0.1055 0.0618 -0.9925
vn 0.0640 -0.0348 -0.9973
vn 0.0653 -0.0247 -0.9976
vn 0.0658 -0.0126 -0.9978
vn -0.1161 0.0725 -0.9906
vn 0.0630 -0.0370 -0.9973
vn 0.2959 -0.2399 -0.9246
vn 0.0574 -0.0390 -0.9976
vn 0.1666 -0.1915 -0.9672
vn -0.3636 0.2179 -0.9057
vn -0.3462 0.2088 -0.9146
vn -0.1243 0.0987 -0.9873
vn -0.0988 0.0821 -0.9917
vn 0.0554 -0.0417 -0.9976
vn 0.3011 0.4061 -0.8628
vn 0.3039 0.4058 -0.8620
vn 0.4883 0.2492 -0.8364
vn 0.4911 0.2452 -0.8359
vn 0.3792 -0.4504 -0.8083
vn 0.1647 -0.3216 -0.9324
vn 0.5511 -0.4251 -0.7181
vn 0.5007 -0.8656 -0.0000
vn 0.2119 -0.9773 -0.0000
vn 0.9464 -0.3231 -0.0000
vn 0.8089 -0.5880 -0.0000
vn 0.9464 -0.3229 -0.0000
vn 0.9982 0.0595 -0.0000
vn 1.0000 -0.0090 -0.0000
vn 0.9866 -0.1631 -0.0000
vn 0.9984 0.0572 -0.0000
vt 0.659955 0.875734
vt 0.659955 0.790482
vt 0.706100 0.756693
vt 0.706100 0.841945
vt 0.572008 0.631723
vt 0.572008 0.716976
vt 0.558590 0.720865
vt 0.558590 0.635612
vt 0.593439 0.771186
vt 0.593439 0.856438
vt 0.558581 0.847223
vt 0.489312 0.847223
vt 0.513047 0.765340
vt 0.582316 0.765340
vt 0.524066 0.892478
vt 0.593335 0.892478
vt 0.639584 0.737397
vt 0.512611 0.687074
vt 0.512611 0.601822
vt 0.927138 0.895523
vt 0.896325 0.816034
vt 0.910240 0.814814
vt 0.941053 0.894303
vt 0.896325 0.943706
vt 0.910240 0.942486
vt 0.526029 0.597932
vt 0.893332 0.387365
vt 0.893332 0.292352
vt 0.985123 0.295424
vt 0.985123 0.390437
vt 0.895021 0.098121
vt 0.895021 0.003102
vt 0.986722 0.000000
vt 0.986722 0.095019
vt 0.550078 0.892478
vt 0.579849 0.892478
vt 0.579849 0.988252
vt 0.550078 0.988252
vt 0.520308 0.988252
vt 0.520308 0.892478
vt 0.706366 0.988894
vt 0.706366 0.893912
vt 0.736136 0.893912
vt 0.736136 0.988894
vt 0.765907 0.893912
vt 0.765907 0.988894
vt 0.896325 0.726961
vt 0.908442 0.730777
vt 0.909215 0.814813
vt 0.896325 0.810969
vt 0.418296 0.848905
vt 0.393624 0.769016
vt 0.462966 0.765340
vt 0.489312 0.847590
vt 0.455212 0.894467
vt 0.385474 0.894467
vt 0.941402 0.693612
vt 0.953827 0.696991
vt 0.985468 0.789820
vt 0.954473 0.789820
vt 0.954473 0.693612
vt 0.985468 0.693612
vt 0.241528 0.447686
vt 0.234913 0.448031
vt 0.235517 0.452601
vt 0.241517 0.452926
vt 0.249334 0.453313
vt 0.249902 0.447771
vt 0.228831 0.449442
vt 0.222669 0.452550
vt 0.224068 0.454700
vt 0.230256 0.453077
vt 0.225667 0.442676
vt 0.218391 0.446532
vt 0.214171 0.440639
vt 0.209234 0.443313
vt 0.213732 0.449280
vt 0.218268 0.455194
vt 0.209519 0.451661
vt 0.214996 0.457528
vt 0.205005 0.445691
vt 0.203112 0.448983
vt 0.206807 0.453303
vt 0.205017 0.454398
vt 0.202211 0.451200
vt 0.218978 0.457806
vt 0.218268 0.460132
vt 0.220221 0.456400
vt 0.222658 0.435905
vt 0.233102 0.440424
vt 0.210690 0.436151
vt 0.206037 0.439216
vt 0.208922 0.434588
vt 0.208398 0.433564
vt 0.341075 0.444280
vt 0.341086 0.449291
vt 0.334818 0.448959
vt 0.334197 0.444627
vt 0.349228 0.444332
vt 0.348700 0.449648
vt 0.327853 0.446072
vt 0.329269 0.449461
vt 0.322760 0.451170
vt 0.321413 0.449257
vt 0.324607 0.439184
vt 0.317054 0.443184
vt 0.312733 0.437167
vt 0.312220 0.446035
vt 0.307617 0.439946
vt 0.316803 0.452031
vt 0.313442 0.454532
vt 0.307849 0.448509
vt 0.303246 0.442420
vt 0.305154 0.450143
vt 0.301315 0.445692
vt 0.303332 0.451282
vt 0.300382 0.447870
vt 0.317220 0.454608
vt 0.316404 0.457178
vt 0.318626 0.453005
vt 0.321530 0.432258
vt 0.332326 0.436847
vt 0.309211 0.432657
vt 0.304380 0.435826
s 1
usemtl Material.001
f 3/1/1 4/2/1 2/3/1 1/4/1
f 6/5/2 7/6/2 12/7/2 11/8/2
f 6/9/3 4/2/3 3/1/3 7/10/3
f 5/11/2 1/12/2 2/13/2 8/14/2
f 3/15/4 1/12/4 5/11/4 7/16/4
f 2/3/5 4/2/5 6/9/5 8/17/5
f 9/18/6 10/19/6 11/8/6 12/7/6
f 5/20/3 8/21/3 10/22/3 9/23/3
f 7/24/5 5/20/5 9/23/5 12/25/5
f 8/26/4 6/5/4 11/8/4 10/19/4
f 18/27/7 19/28/7 17/29/7 16/30/7
f 20/31/8 23/32/8 21/33/8 22/34/8
f 21/35/9 19/36/9 18/37/9 22/38/9
f 20/38/10 16/39/10 17/40/10 23/35/10
f 18/41/11 16/42/11 20/43/11 22/44/11
f 17/45/12 19/46/12 21/44/12 23/43/12
f 28/47/13 32/48/13 33/49/13 29/50/13
f 27/51/14 30/52/14 25/53/14 24/54/14
f 26/55/15 29/56/15 27/51/15 24/54/15
f 30/57/16 31/58/16 32/48/16 28/47/16
f 38/59/12 40/60/12 39/61/12 37/62/12
usemtl None
f 42/63/17 44/64/18 45/65/19 46/66/20
f 42/63/17 46/66/20 47/67/21 43/68/22
f 48/69/23 49/70/24 50/71/25 51/72/26
f 54/73/27 53/74/28 49/70/24 48/69/23
f 44/64/18 48/69/23 51/72/26 45/65/19
f 52/75/29 55/76/30 56/77/31 53/74/28
f 53/74/28 56/77/31 57/78/32 49/70/24
f 56/77/31 62/79/33 63/80/34 57/78/32
f 64/81/35 65/82/36 66/83/37 62/79/33
f 55/76/30 64/81/35 62/79/33 56/77/31
f 69/84/38 70/83/39 71/82/40 72/85/41
f 74/86/42 57/78/32 63/80/34 67/87/43
f 57/78/32 75/88/44 50/71/25 49/70/24
f 75/88/44 57/78/32 74/86/42
f 77/63/45 80/66/46 81/65/47 78/64/48
f 77/63/45 76/68/49 82/67/50 80/66/46
f 84/69/51 85/72/52 86/71/53 87/70/54
f 83/89/55 88/73/56 89/74/57 90/75/58
f 88/73/56 84/69/51 87/70/54 89/74/57
f 79/90/59 78/64/48 84/69/51 88/73/56
f 78/64/48 81/65/47 85/72/52 84/69/51
f 90/75/58 89/74/57 91/77/60 92/76/61
f 89/74/57 87/70/54 93/78/62 91/77/60
f 91/77/60 93/78/62 95/80/63 96/79/64
f 94/91/65 90/75/58 92/76/61 97/92/66
f 98/81/67 96/79/64 99/83/68 100/82/69
f 92/76/61 91/77/60 96/79/64 98/81/67
f 108/86/70 101/87/71 95/80/63 93/78/62
f 93/78/62 87/70/54 86/71/53 109/88/72
f 109/88/72 108/86/70 93/78/62
f 111/86/73 112/86/74 113/87/75 114/87/75
f 115/71/76 116/71/76 117/88/77 118/88/78
f 121/66/79 122/66/79 123/65/80 124/65/80
f 126/72/81 127/72/81 116/71/76 115/71/76
f 64/81/35 55/76/30 52/75/29 60/91/82 61/93/83 125/94/84 58/94/85 59/93/86 94/91/65 97/92/66
f 124/65/80 123/65/80 127/72/81 126/72/81
f 128/67/87 122/66/79 121/66/79 129/67/87
f 117/88/77 112/86/74 111/86/73 118/88/78
f 132/95/88 134/96/89 135/97/90 133/98/91
f 132/95/88 131/99/92 136/100/93 134/96/89
f 137/101/94 138/102/95 139/103/96 140/104/97
f 141/105/98 137/101/94 140/104/97 142/106/99
f 133/98/91 135/97/90 138/102/95 137/101/94
f 143/107/100 142/106/99 144/108/101 145/109/102
f 142/106/99 140/104/97 146/110/103 144/108/101
f 144/108/101 146/110/103 151/111/104 152/112/105
f 153/113/106 152/112/105 154/114/107 155/115/108
f 145/109/102 144/108/101 152/112/105 153/113/106
f 158/116/109 159/117/110 160/115/111 161/114/112
f 163/118/113 156/119/114 151/111/104 146/110/103
f 146/110/103 140/104/97 139/103/96 164/120/115
f 164/120/115 163/118/113 146/110/103
f 165/95/116 168/98/117 169/97/118 170/96/119
f 165/95/116 170/96/119 171/100/120 166/99/121
f 173/101/122 174/104/123 175/103/124 176/102/125
f 172/121/126 177/107/127 178/106/128 179/105/129
f 179/105/129 178/106/128 174/104/123 173/101/122
f 167/122/130 179/105/129 173/101/122 168/98/117
f 168/98/117 173/101/122 176/102/125 169/97/118
f 177/107/127 180/109/131 181/108/132 178/106/128
f 178/106/128 181/108/132 182/110/133 174/104/123
f 181/108/132 184/112/134 185/111/135 182/110/133
f 183/123/136 186/124/137 180/109/131 177/107/127
f 187/113/138 188/115/139 189/114/140 184/112/134
f 186/124/137 187/113/138 180/109/131
f 180/109/131 187/113/138 184/112/134 181/108/132
f 192/116/141 193/114/142 194/115/143 195/117/144
f 199/118/145 182/110/133 185/111/135 190/119/146
f 182/110/133 200/120/147 175/103/124 174/104/123
f 200/120/147 182/110/133 199/118/145
f 202/118/148 203/119/149 204/119/149 205/118/148
f 206/103/150 207/120/151 208/120/151 209/103/152
f 213/96/153 214/97/154 215/97/154 216/96/153
f 218/102/155 206/103/150 209/103/152 219/102/155
f 214/97/154 218/102/155 219/102/155 215/97/154
f 220/100/156 221/100/156 213/96/153 216/96/153
f 208/120/151 207/120/151 202/118/148 205/118/148
l 157 162
l 13 14
l 102 103
l 102 105
l 147 148
l 143 149
l 147 183
l 103 104
l 195 196
l 210 211
l 148 217
l 35 36
l 149 150
l 211 212
l 39 41
l 119 120
l 150 217
l 34 35
l 191 198
l 197 198
l 14 15
l 68 73
l 106 107
