# Blender 4.3.2
# www.blender.org
mtllib wrists.mtl
o right_wrist.001
v -191.597031 -297.391144 94.031273
v -260.658417 -132.953979 118.340363
v -250.631470 -296.812347 -77.598656
v -319.692871 -132.375214 -53.289551
v -296.578339 -121.497505 -61.203430
v -227.516922 -285.934631 -85.512527
v -168.482498 -286.513397 86.117401
v -237.543900 -122.076248 110.426498
v -359.581024 -151.146606 -39.632778
v -290.519623 -315.583771 -63.941879
v -300.546600 -151.725372 131.997147
v -231.485214 -316.162567 107.688049
v -220.927963 -282.833832 -87.768433
v -161.893524 -283.412628 83.861496
v -230.954941 -118.975479 108.170601
v -289.989349 -118.396713 -63.459339
v -293.839325 -317.146027 -62.805302
v -234.804886 -317.724823 108.824623
v -303.866302 -153.287628 133.133728
v -362.900726 -152.708878 -38.496201
v -287.865814 -346.059937 -8.779299
v -181.079376 -185.438309 -133.718643
v -201.994614 -346.059937 -146.737198
v -266.950592 -185.438278 4.239253
v -265.145111 -350.164764 5.363078
v -244.229858 -189.543076 18.381628
v -158.358673 -189.543137 -119.576294
v -179.273926 -350.164764 -132.594818
v -294.108734 -355.450104 -1.475146
v -270.748016 -176.048096 13.065602
v -198.197189 -355.450104 -155.563553
v -174.836502 -176.048126 -141.022797
v -153.215988 -179.954178 -127.565231
v -176.576645 -359.356171 -142.105972
v -272.488251 -359.356171 11.982429
v -249.127548 -179.954132 26.523151
v -150.464600 -180.451248 -125.852684
v -173.825302 -359.853241 -140.393372
v -269.736847 -359.853241 13.695004
v -246.376175 -180.451218 28.235725
v -213.941025 -168.983337 -165.363251
v -237.301743 -348.385345 -179.903961
v -309.852570 -168.983307 -11.274850
v -333.213287 -348.385315 -25.815596
v -311.348114 -168.713120 -12.205725
v -334.708801 -348.115143 -26.746473
v -215.436554 -168.713150 -166.294113
v -238.797272 -348.115173 -180.834869
v -313.532928 -168.318405 -13.565676
v -336.893616 -347.720428 -28.106422
v -217.621368 -168.318436 -167.654083
v -240.982056 -347.720459 -182.194778
v -311.481964 -177.393051 -23.479073
v -332.397186 -338.014709 -36.497650
v -246.525955 -338.014740 -174.455536
v -225.610748 -177.393082 -161.436996
v -285.177582 -182.145325 -7.106047
v -306.092804 -342.766937 -20.124598
v -220.221558 -342.766968 -158.082535
v -199.306320 -182.145325 -145.063980
v -298.370392 -158.740875 121.717728
v -235.947067 -307.191132 99.989746
v -288.264954 -306.672943 -53.856979
v -350.688202 -158.222702 -32.129028
v -196.702316 -288.735962 85.770195
v -311.903931 -139.767563 -45.947308
v -249.556839 -288.217743 -67.893005
v -259.049408 -140.285706 107.715904
v -190.691284 -298.557953 95.072998
v -260.729370 -131.795303 119.725861
v -250.560577 -297.971039 -78.984154
v -320.598663 -131.208374 -54.331284
v -297.484100 -120.330658 -62.245159
v -227.446030 -287.093292 -86.898033
v -167.576767 -287.680267 87.159103
v -237.614822 -120.917572 111.811996
v -360.486786 -149.979782 -40.674503
v -290.448700 -316.742401 -65.327377
v -300.617523 -150.566696 133.382660
v -230.579422 -317.329376 108.729774
v -218.474854 -282.652710 -89.719734
v -228.617630 -116.902267 108.481796
v -288.333710 -116.316833 -65.129936
v -296.176666 -319.219238 -63.116505
v -236.460556 -319.804688 110.495255
v -306.319397 -153.468781 135.085052
v -366.035492 -152.883347 -38.526703
v -290.896057 -345.925049 -8.487298
v -180.648605 -186.184555 -132.077271
v -201.314743 -344.141327 -146.157303
v -266.259979 -187.082657 3.996153
v -264.961212 -348.774719 3.770177
v -244.782150 -190.459579 16.872555
v -162.491150 -191.589050 -118.362549
v -181.035034 -349.099457 -131.957794
v -297.895844 -357.693817 0.074029
v -271.597748 -174.871536 14.278352
v -197.347473 -356.626678 -156.776291
v -171.049377 -173.804413 -142.571976
v -149.428909 -177.710449 -129.114410
v -175.726959 -360.532776 -143.318680
v -276.275299 -361.599854 13.531582
v -249.977249 -178.777557 27.735899
v -146.332138 -178.405304 -127.066368
v -269.920776 -361.243256 15.287880
v -245.823883 -179.534698 29.744801
v -210.153915 -166.739609 -166.912430
v -236.452011 -349.561920 -181.116699
v -310.702271 -167.806732 -10.062100
v -337.000336 -350.629028 -24.266397
v -312.197845 -167.536545 -10.992975
v -338.495880 -350.358856 -25.197298
v -211.649460 -166.469421 -167.843307
v -237.947540 -349.291718 -182.047607
v -315.294037 -167.253128 -12.928652
v -341.026123 -349.766357 -26.892672
v -217.437485 -166.928406 -169.246948
v -241.534378 -348.636932 -183.703812
v -312.331665 -176.216476 -22.266348
v -336.184265 -340.258392 -34.948475
v -245.676224 -339.191284 -175.668289
v -221.823639 -175.149353 -162.986176
v -284.625275 -181.228806 -5.596972
v -306.276703 -344.156982 -18.531723
v -218.460449 -343.832245 -158.719528
v -195.173859 -180.099411 -146.277679
v -296.042938 -156.671997 122.036407
v -232.821686 -307.019745 100.030716
v -285.798035 -306.488708 -55.805759
v -349.020355 -156.138504 -33.799702
v -198.357925 -290.815857 87.440826
v -315.038666 -139.942001 -45.977783
v -251.894150 -290.290985 -68.204178
v -261.502502 -140.466858 109.667236
v -238.402756 -269.637878 34.495449
v -196.107101 -279.277802 29.838150
v -325.077118 -244.427719 -17.956316
v -279.720581 -260.408356 35.809605
v -303.999847 -187.763657 18.018082
v -294.000336 -196.434448 26.850159
v -264.032227 -211.944092 35.809818
v -238.220505 -164.612625 35.814018
v -226.305908 -228.275665 34.495224
v -309.711212 -184.980209 -6.039404
v -303.999847 -187.763657 -18.018154
v -277.777740 -132.965561 -6.045187
v -272.069550 -135.818588 -18.073147
v -263.306702 -145.536957 26.849865
v -272.069550 -135.818588 18.073093
v -289.621002 -314.264587 -35.808331
v -327.947601 -310.046570 -26.858767
v -244.609909 -315.509216 -34.495960
v -238.402756 -269.637878 -34.495541
v -279.720581 -260.408356 -35.809700
v -315.422089 -250.528061 -26.847733
v -294.000336 -196.434448 -26.850225
v -264.032227 -211.944092 -35.809891
v -226.305908 -228.275665 -34.495296
v -309.711212 -184.980209 6.039339
v -277.777740 -132.965561 6.045141
v -196.900009 -279.200012 26.899954
v -238.600021 -269.600006 31.499960
v -322.800018 -245.100021 -16.000044
v -279.400024 -260.500000 32.799957
v -292.800018 -197.000015 24.099966
v -301.899994 -188.800018 15.999968
v -263.700012 -212.100006 32.799969
v -226.500000 -228.199997 31.499962
v -237.900024 -164.800018 32.799976
v -307.000031 -186.300003 -5.300033
v -301.899994 -188.800018 -16.000038
v -270.100037 -137.000015 -16.000027
v -275.200012 -134.500000 -5.300024
v -262.200043 -146.199997 24.099976
v -270.100037 -137.000015 15.999975
v -326.600037 -310.200043 -24.100058
v -289.300018 -314.300018 -32.800056
v -244.800034 -315.500031 -31.500053
v -198.400009 -316.000000 -26.900051
v -238.600021 -269.600006 -31.500044
v -279.400024 -260.500000 -32.800049
v -292.800018 -197.000015 -24.100037
v -314.100006 -250.900009 -24.100046
v -263.700012 -212.100006 -32.800041
v -226.500000 -228.199997 -31.500038
v -78.099998 61.700008 9.300012
v -78.099998 61.700008 9.300012
v -275.200012 -134.500000 5.299977
v -307.000031 -186.300003 5.299968
vn 0.3837 -0.9135 -0.1351
vn -0.3253 0.0032 -0.9456
vn 0.3253 -0.0032 0.9456
vn -0.3837 0.9135 0.1351
vn 0.8643 0.4067 -0.2959
vn -0.8643 -0.4067 0.2959
vn -0.5284 -0.0000 0.8490
vn -0.8392 0.1516 -0.5223
vn 0.5284 -0.0000 -0.8490
vn 0.1287 0.9884 0.0801
vn -0.1287 -0.9884 -0.0801
vn 0.8392 -0.1516 0.5223
vn 0.8653 0.4067 -0.2929
vn 0.3056 -0.0124 0.9521
vn 0.3642 -0.9224 -0.1284
vn 0.4139 -0.8986 -0.1454
vn -0.3529 0.9273 0.1245
vn -0.2943 0.0177 -0.9556
vn 0.3558 0.0113 0.9345
vn 0.5873 -0.0020 -0.8094
vn 0.8428 -0.1471 0.5178
vn -0.4689 -0.0050 0.8833
vn -0.1204 -0.9894 -0.0817
vn 0.1544 0.9835 0.0947
vn -0.1246 -0.9884 -0.0866
vn -0.5271 0.0098 0.8497
vn 0.5271 -0.0098 -0.8497
vn 0.1246 0.9884 0.0866
vn -0.1425 -0.9849 -0.0978
vn -0.5385 0.0107 0.8426
vn -0.5328 0.0108 0.8461
vn 0.3381 0.0272 -0.9407
vn 0.1459 0.9842 0.1000
vn 0.8360 -0.1554 0.5262
vn -0.3107 -0.0317 0.9500
vn 0.0173 -0.9998 0.0065
vn 0.5409 -0.0122 -0.8410
vn -0.1255 -0.9882 -0.0881
vn -0.1266 -0.9880 -0.0887
vn -0.1261 -0.9881 -0.0884
vn -0.8357 0.1559 -0.5266
vn 0.1061 0.9917 0.0722
vn -0.5278 0.0109 0.8493
vn -0.5285 0.0109 0.8489
vn -0.5281 0.0109 0.8491
vn 0.4978 -0.0013 -0.8673
vn -0.8654 -0.4067 0.2928
vn 0.1059 -0.0303 -0.9939
vn 0.1098 -0.0512 -0.9926
vn -0.0645 0.0251 -0.9976
vn -0.0656 0.0127 -0.9978
vn 0.3931 -0.1856 -0.9006
vn 0.3642 -0.2180 -0.9054
vn 0.1071 -0.0625 -0.9923
vn 0.1098 -0.0515 -0.9926
vn 0.6803 -0.3350 -0.6518
vn 0.6366 -0.3816 -0.6702
vn 0.8339 -0.4964 0.2411
vn 0.8735 -0.4253 0.2369
vn 0.6808 -0.3351 0.6514
vn 0.6370 -0.3819 0.6696
vn 0.1054 -0.0124 0.9944
vn -0.0633 0.0026 0.9980
vn -0.0661 0.0135 0.9977
vn 0.1060 -0.0303 0.9939
vn 0.7403 -0.2186 0.6357
vn 0.4299 -0.1213 0.8947
vn 0.3932 -0.1855 0.9006
vn 0.6806 -0.3350 0.6515
vn 0.1097 -0.0515 0.9926
vn 0.4382 -0.0507 0.8974
vn -0.0645 0.0252 0.9976
vn 0.8735 -0.4254 -0.2367
vn 0.8339 -0.4964 -0.2411
vn -0.1058 0.0303 0.9939
vn 0.0657 -0.0126 0.9978
vn 0.0646 -0.0252 0.9976
vn -0.1095 0.0514 0.9927
vn -0.3923 0.1851 0.9010
vn -0.1097 0.0515 0.9926
vn -0.1071 0.0626 0.9923
vn -0.3644 0.2183 0.9053
vn -0.6800 0.3351 0.6522
vn -0.6366 0.3819 0.6700
vn -0.8339 0.4964 -0.2411
vn -0.6370 0.3822 -0.6695
vn -0.6802 0.3352 -0.6519
vn -0.8735 0.4252 -0.2370
vn -0.1051 0.0120 -0.9944
vn -0.1059 0.0303 -0.9939
vn 0.0657 -0.0126 -0.9978
vn 0.0633 -0.0031 -0.9980
vn -0.7401 0.2186 -0.6360
vn -0.6801 0.3351 -0.6521
vn -0.3931 0.1852 -0.9007
vn -0.4304 0.1211 -0.8945
vn -0.1096 0.0514 -0.9926
vn -0.4382 0.0499 -0.8975
vn 0.0652 -0.0247 -0.9976
vn -0.8339 0.4964 0.2411
vn -0.8734 0.4252 0.2375
vt 0.773502 0.893912
vt 0.773502 1.000000
vt 0.767591 1.000000
vt 0.767591 0.893912
vt 0.795601 0.893912
vt 0.795601 1.000000
vt 0.785400 1.000000
vt 0.785400 0.893912
vt 0.379793 0.979081
vt 0.369593 0.979081
vt 0.369593 0.872993
vt 0.379793 0.872993
vt 0.783703 1.000000
vt 0.783703 0.893912
vt 0.687263 0.875734
vt 0.697463 0.875734
vt 0.697463 0.981822
vt 0.687263 0.981822
vt 0.765907 1.000000
vt 0.765907 0.893912
vt 0.703374 0.875734
vt 0.703374 0.981822
vt 0.801511 0.893912
vt 0.801511 1.000000
vt 0.363682 0.979081
vt 0.363682 0.872993
vt 0.361997 0.979081
vt 0.361997 0.872993
vt 0.803196 0.893912
vt 0.803196 1.000000
vt 0.705059 0.875734
vt 0.705059 0.981822
vt 0.686414 0.981822
vt 0.686414 0.875734
vt 0.102524 0.770746
vt 0.102524 0.875991
vt 0.000000 0.872560
vt 0.000000 0.767315
vt 0.360712 0.980587
vt 0.258289 0.984052
vt 0.258289 0.878801
vt 0.360712 0.875336
vt 0.784552 0.893912
vt 0.784552 1.000000
vt 0.380642 0.872993
vt 0.380642 0.979081
vt 0.572008 0.631723
vt 0.572008 0.716976
vt 0.558590 0.720865
vt 0.558590 0.635612
vt 0.512611 0.687074
vt 0.512611 0.601822
vt 0.927138 0.895523
vt 0.896325 0.816034
vt 0.910240 0.814814
vt 0.941053 0.894303
vt 0.896325 0.943706
vt 0.910240 0.942486
vt 0.526029 0.597932
vt 0.827401 0.337420
vt 0.878942 0.299680
vt 0.891707 0.303383
vt 0.840167 0.341123
vt 0.827401 0.432640
vt 0.804313 0.425942
vt 0.804313 0.330722
vt 0.839626 0.532665
vt 0.816533 0.539359
vt 0.816533 0.444138
vt 0.839626 0.437444
vt 0.890981 0.570406
vt 0.867888 0.577100
vt 0.855853 0.292982
vt 0.893332 0.303854
vt 0.841791 0.341594
vt 0.840167 0.436343
vt 0.803765 0.543060
vt 0.803765 0.447839
vt 0.855120 0.580801
vt 0.841791 0.436814
vt 0.893332 0.399074
vt 0.853495 0.581272
vt 0.802140 0.543531
vt 0.802140 0.448310
vt 0.803430 0.425686
vt 0.803430 0.330466
vt 0.891864 0.570150
vt 0.840509 0.532409
vt 0.841799 0.532035
vt 0.893155 0.569776
vt 0.840509 0.437188
vt 0.854970 0.292726
vt 0.841799 0.436814
vt 0.893155 0.474556
vt 0.802140 0.425312
vt 0.802140 0.330092
vt 0.853680 0.292352
vt 0.340166 0.690577
vt 0.385473 0.725482
vt 0.385473 0.741653
vt 0.340166 0.706749
vt 0.303597 0.765404
vt 0.258289 0.730500
vt 0.467356 0.749167
vt 0.512611 0.714413
vt 0.512611 0.730586
vt 0.467356 0.765340
vt 0.258289 0.714329
vt 0.385473 0.725432
vt 0.385473 0.741606
vt 0.986599 0.149445
vt 0.986599 0.244463
vt 0.894842 0.241385
vt 0.894842 0.146368
vt 0.895021 0.098121
vt 0.895021 0.003102
vt 0.986722 0.000000
vt 0.986722 0.095019
vt 0.244436 0.767248
vt 0.250347 0.767248
vt 0.250347 0.874837
vt 0.244436 0.874837
vt 0.580217 0.597932
vt 0.590417 0.597932
vt 0.590417 0.705521
vt 0.580217 0.705521
vt 0.103986 0.874903
vt 0.103986 0.767315
vt 0.114186 0.767315
vt 0.114186 0.874903
vt 0.234236 0.874837
vt 0.234236 0.767248
vt 0.380405 0.765404
vt 0.380405 0.872993
vt 0.370205 0.872993
vt 0.370205 0.765404
vt 0.364294 0.872993
vt 0.364294 0.765404
vt 0.574306 0.705521
vt 0.574306 0.597932
vt 0.120097 0.767315
vt 0.120097 0.874903
vt 0.572008 0.705383
vt 0.572008 0.598070
vt 0.361997 0.872855
vt 0.361997 0.765542
vt 0.381867 0.765542
vt 0.381867 0.872855
vt 0.258289 0.871864
vt 0.258289 0.765404
vt 0.361997 0.768875
vt 0.361997 0.875336
vt 0.232774 0.874699
vt 0.232774 0.767386
vt 0.102524 0.874766
vt 0.102524 0.767452
vt 0.591878 0.598070
vt 0.591878 0.705383
vt 0.896325 0.726961
vt 0.908442 0.730777
vt 0.909215 0.814813
vt 0.896325 0.810969
vt 0.954473 0.781127
vt 0.953827 0.696991
vt 0.954840 0.894261
vt 0.941053 0.893161
vt 0.971728 0.814814
vt 0.984542 0.816101
vt 0.984542 0.941759
vt 0.971129 0.940740
vt 0.941402 0.693612
vt 0.868659 0.191629
vt 0.855892 0.195333
vt 0.804305 0.157026
vt 0.817073 0.153323
vt 0.891751 0.184931
vt 0.892128 0.281473
vt 0.869036 0.288171
vt 0.856630 0.097178
vt 0.857005 0.000637
vt 0.880092 0.007339
vt 0.879717 0.103880
vt 0.804853 0.135483
vt 0.827940 0.142185
vt 0.840165 0.146624
vt 0.853993 0.195919
vt 0.802140 0.157824
vt 0.856268 0.291875
vt 0.892857 0.011045
vt 0.892482 0.107586
vt 0.840705 0.145891
vt 0.895021 0.011843
vt 0.895021 0.108177
vt 0.892634 0.184675
vt 0.893011 0.281217
vt 0.803970 0.135226
vt 0.802140 0.134525
vt 0.854183 0.096432
vt 0.855747 0.096922
vt 0.856122 0.000380
vt 0.841048 0.146368
vt 0.802140 0.038191
vt 0.854310 -0.000000
vt 0.894842 0.184181
vt 0.894842 0.280516
vt 0.382920 0.840470
vt 0.381867 0.839116
vt 0.381867 0.765404
vt 0.383571 0.766716
vt 0.175038 0.691592
vt 0.175073 0.708061
vt 0.129331 0.743185
vt 0.129168 0.726401
vt 0.258149 0.732028
vt 0.212278 0.767248
vt 0.045924 0.750231
vt 0.046064 0.767315
vt 0.000140 0.731942
vt 0.000000 0.715268
vt 0.258289 0.715352
vt 0.129168 0.726453
vt 0.129005 0.743234
vt 0.893155 0.439962
vt 0.986003 0.436814
vt 0.986003 0.533054
vt 0.893155 0.536200
vt 0.686414 0.975074
vt 0.593439 0.971962
vt 0.593439 0.875734
vt 0.686414 0.878846
vt 0.231366 0.432993
vt 0.222658 0.435905
vt 0.225667 0.442676
vt 0.233102 0.440424
vt 0.219810 0.430530
vt 0.210690 0.436151
vt 0.214171 0.440639
vt 0.218230 0.428742
vt 0.208922 0.434588
vt 0.208398 0.433564
vt 0.217718 0.427718
vt 0.241056 0.431114
vt 0.241359 0.439226
vt 0.228407 0.424845
vt 0.229523 0.426575
vt 0.240230 0.424214
vt 0.330552 0.429235
vt 0.332326 0.436847
vt 0.324607 0.439184
vt 0.321530 0.432258
vt 0.318654 0.426844
vt 0.312733 0.437167
vt 0.309211 0.432657
vt 0.317105 0.425157
vt 0.307477 0.431196
vt 0.307000 0.430247
vt 0.316628 0.424208
vt 0.340593 0.427287
vt 0.340898 0.435605
vt 0.327594 0.421148
vt 0.328694 0.422764
vt 0.339759 0.420320
s 1
usemtl Material.002
f 1/1/1 3/2/1 6/3/1 7/4/1
f 4/5/2 3/6/2 10/7/2 9/8/2
f 12/9/3 1/10/3 2/11/3 11/12/3
f 10/13/1 3/2/1 1/1/1 12/14/1
f 11/15/4 2/16/4 4/17/4 9/18/4
f 7/4/1 6/3/1 13/19/1 14/20/1
f 4/17/4 2/16/4 8/21/4 5/22/4
f 3/6/2 4/5/2 5/23/2 6/24/2
f 2/11/3 1/10/3 7/25/3 8/26/3
f 8/26/3 7/25/3 14/27/3 15/28/3
f 6/24/2 5/23/2 16/29/2 13/30/2
f 5/22/4 8/21/4 15/31/4 16/32/4
f 11/15/4 9/18/4 20/33/4 19/34/4
f 15/35/5 14/36/5 13/37/5 16/38/5
f 17/39/6 18/40/6 19/41/6 20/42/6
f 10/13/1 12/14/1 18/43/1 17/44/1
f 12/9/3 11/12/3 19/45/3 18/46/3
f 9/8/2 10/7/2 17/44/2 20/43/2
f 22/47/7 23/48/7 28/49/7 27/50/7
f 25/51/8 26/52/8 27/50/8 28/49/8
f 21/53/9 24/54/9 26/55/9 25/56/9
f 23/57/10 21/53/10 25/56/10 28/58/10
f 24/59/11 22/47/11 27/50/11 26/52/11
f 32/60/10 30/61/10 36/62/10 33/63/10
f 32/60/9 31/64/9 42/65/9 41/66/9
f 44/67/7 29/68/7 30/69/7 43/70/7
f 42/71/11 31/72/11 29/68/11 44/67/11
f 43/73/10 30/61/10 32/60/10 41/66/10
f 33/63/10 36/62/10 40/74/10 37/75/10
f 31/64/9 32/60/9 33/63/9 34/76/9
f 30/69/7 29/68/7 35/77/7 36/78/7
f 29/68/11 31/72/11 34/79/11 35/77/11
f 38/80/12 37/75/12 40/74/12 39/81/12
f 34/76/9 33/63/9 37/75/9 38/80/9
f 35/77/11 34/79/11 38/82/11 39/83/11
f 36/78/7 35/77/7 39/83/7 40/84/7
f 41/66/9 42/65/9 48/85/9 47/86/9
f 48/87/11 46/88/11 50/89/11 52/90/11
f 44/67/7 43/70/7 45/91/7 46/88/7
f 43/73/10 41/66/10 47/86/10 45/92/10
f 42/71/11 44/67/11 46/88/11 48/87/11
f 52/90/8 50/89/8 49/93/8 51/94/8
f 47/86/9 48/85/9 52/95/9 51/96/9
f 45/92/10 47/86/10 51/96/10 49/97/10
f 46/88/7 45/91/7 49/93/7 50/89/7
f 56/98/10 53/99/10 57/100/10 60/101/10
f 57/100/12 58/102/12 59/103/12 60/101/12
f 54/104/11 55/105/11 59/106/11 58/107/11
f 55/108/9 56/98/9 60/101/9 59/103/9
f 53/109/7 54/104/7 58/107/7 57/110/7
f 61/111/13 62/112/13 63/113/13 64/114/13
f 65/115/6 68/116/6 66/117/6 67/118/6
f 69/119/4 75/120/4 74/121/4 71/122/4
f 72/123/3 77/124/3 78/125/3 71/126/3
f 80/127/2 79/128/2 70/129/2 69/130/2
f 78/131/4 80/132/4 69/119/4 71/122/4
f 79/133/1 77/134/1 72/135/1 70/136/1
f 72/135/1 73/137/1 76/138/1 70/136/1
f 71/126/3 74/139/3 73/140/3 72/123/3
f 70/129/2 76/141/2 75/142/2 69/130/2
f 74/139/14 81/143/14 83/144/14 73/140/14
f 73/137/15 83/145/15 82/146/15 76/138/15
f 79/133/16 86/147/16 87/148/16 77/134/16
f 84/149/5 87/150/5 86/151/5 85/152/5
f 78/131/17 84/153/17 85/154/17 80/132/17
f 80/127/18 85/155/18 86/156/18 79/128/18
f 77/124/19 87/157/19 84/158/19 78/125/19
f 89/159/20 94/160/20 95/161/20 90/162/20
f 92/163/21 95/161/21 94/160/21 93/164/21
f 88/165/22 92/166/22 93/167/22 91/168/22
f 90/169/23 95/170/23 92/166/23 88/165/23
f 91/171/24 93/164/24 94/160/24 89/159/24
f 99/172/25 100/173/25 103/174/25 97/175/25
f 99/172/26 107/176/26 108/177/26 98/178/26
f 110/179/27 109/180/27 97/181/27 96/182/27
f 108/183/28 110/179/28 96/182/28 98/184/28
f 109/185/25 107/176/25 99/172/25 97/175/25
f 100/173/29 104/186/29 106/187/29 103/174/29
f 98/178/26 101/188/30 100/173/31 99/172/26
f 97/181/27 103/189/27 102/190/27 96/182/27
f 96/182/28 102/190/28 101/191/28 98/184/28
f 103/189/32 106/192/32 105/193/32 102/190/32
f 107/176/26 113/194/26 114/195/26 108/177/26
f 114/196/33 118/197/33 116/198/33 112/199/33
f 110/179/27 112/199/27 111/200/27 109/180/27
f 109/185/25 111/201/25 113/194/25 107/176/25
f 108/183/28 114/196/28 112/199/28 110/179/28
f 118/197/34 117/202/34 115/203/34 116/198/34
f 113/194/35 117/204/35 118/205/35 114/195/35
f 111/206/36 115/207/36 117/208/36 113/209/36
f 112/199/37 116/198/37 115/203/37 111/200/37
f 122/210/38 126/211/39 123/212/39 119/213/40
f 123/212/41 126/211/41 125/214/41 124/215/41
f 120/216/42 124/217/42 125/218/42 121/219/42
f 121/220/43 125/214/44 126/211/44 122/210/45
f 119/221/46 123/222/46 124/217/46 120/216/46
f 127/223/47 130/224/47 129/225/47 128/226/47
f 131/227/5 133/228/5 132/229/5 134/230/5
usemtl None.001
f 138/231/48 141/232/49 143/233/50 135/234/51
f 140/235/52 148/236/53 142/237/54 141/232/55
f 139/238/56 149/239/57 148/236/53 140/235/52
f 146/240/58 144/241/59 145/238/60 147/239/61
f 150/242/62 152/243/63 153/234/64 154/231/65
f 137/244/66 155/245/67 156/235/68 145/238/69
f 155/245/67 154/231/65 157/232/70 156/235/68
f 151/246/71 150/242/62 154/231/65 155/245/67
f 154/231/65 153/234/64 158/233/72 157/232/70
f 149/239/57 139/238/56 159/241/73 160/240/74
f 160/240/74 159/241/73 144/241/59 146/240/58
f 164/247/75 162/248/76 168/249/77 167/250/78
f 165/251/79 167/250/80 169/252/81 174/253/82
f 166/254/83 165/251/79 174/253/82 175/255/84
f 173/256/85 172/255/86 171/254/87 170/257/88
f 177/258/89 181/247/90 180/248/91 178/259/92
f 163/260/93 171/254/94 182/251/95 183/261/96
f 183/261/96 182/251/95 184/250/97 181/247/90
f 176/262/98 183/261/96 181/247/90 177/258/89
f 181/247/90 184/250/97 185/249/99 180/248/91
f 175/255/84 188/256/100 189/257/101 166/254/83
f 188/256/100 173/256/85 170/257/88 189/257/101
l 161 162
l 178 179
l 135 136
