# Blender 4.3.2
# www.blender.org
mtllib wrists.mtl
o left_arm
v -0.309843 -0.847380 -0.173762
v -0.008042 -0.023494 -0.991280
v 0.164053 -0.845944 -0.876986
v -0.481937 -0.024930 -0.288056
v -0.330777 0.020869 -0.186097
v -0.158683 -0.801581 -0.071803
v 0.315213 -0.800146 -0.775027
v 0.143119 0.022304 -0.889321
v 0.099761 -0.723278 0.102520
v 0.401563 0.100608 -0.714999
v 0.573657 -0.721842 -0.600705
v -0.072333 0.099173 -0.011774
v 0.081075 -0.761761 0.135672
v 0.597443 -0.760197 -0.630577
v 0.409925 0.135963 -0.755115
v 0.281941 -0.855788 -0.843386
v 0.094423 0.040372 -0.967924
v -0.234427 -0.857352 -0.077137
v -0.421945 0.038808 -0.201674
v 0.270709 -0.859191 -0.850963
v 0.083190 0.036969 -0.975500
v -0.433177 0.035405 -0.209251
v -0.245659 -0.860755 -0.084713
v -1.152745 -1.190585 0.412474
v -2.084116 -0.655568 -0.120923
v -1.480821 -1.197203 -0.369463
v -1.756039 -0.648950 0.661014
v -1.642920 -0.500599 0.612297
v -1.039626 -1.042234 0.363758
v -1.367702 -1.048852 -0.418180
v -1.970997 -0.507217 -0.169640
v -3.135888 -3.791398 1.266551
v -0.855764 -0.801107 0.284574
v -1.787135 -0.266090 -0.248823
v -1.183841 -0.807725 -0.497363
v -1.459059 -0.259472 0.533114
v -0.815911 -0.827552 0.309288
v -1.473274 -0.237374 0.580102
v -1.173391 -0.834762 -0.542729
v -1.830754 -0.244585 -0.271915
v -1.412132 -1.147862 -0.439911
v -2.069495 -0.557685 -0.169096
v -1.054653 -1.140651 0.412106
v -1.712016 -0.550474 0.682920
v -1.416647 -1.153783 -0.437966
v -2.074011 -0.563606 -0.167152
v -1.716531 -0.556395 0.684865
v -1.059168 -1.146573 0.414051
v -1.422848 -1.161916 -0.435296
v -2.080211 -0.571738 -0.164481
v -1.722732 -0.564527 0.687535
v -1.065369 -1.154705 0.416721
v -1.424507 -1.164091 -0.434581
v -2.081870 -0.573914 -0.163767
v -1.724390 -0.566703 0.688250
v -1.067027 -1.156880 0.417435
v -1.428675 -1.169557 -0.432787
v -2.086038 -0.579379 -0.161972
v -1.728558 -0.572168 0.690044
v -1.071195 -1.162346 0.419230
v -0.313044 -0.856118 -0.165091
v -0.004840 -0.014756 -0.999951
v 0.170905 -0.854653 -0.883233
v -0.488789 -0.016222 -0.281809
v -0.315481 0.034308 -0.166906
v -0.140406 -0.802387 -0.050632
v 0.341698 -0.800927 -0.766037
v 0.166623 0.035769 -0.882311
v 0.076258 -0.736742 0.095509
v 0.383286 0.101414 -0.736169
v 0.558362 -0.735282 -0.619895
v -0.098818 0.099953 -0.020764
v 0.099352 -0.762567 0.156843
v -0.091147 0.147839 0.030326
v 0.623928 -0.760978 -0.621587
v 0.433429 0.149428 -0.748104
v 0.288793 -0.864496 -0.849633
v 0.097624 0.049111 -0.976595
v -0.237628 -0.866091 -0.068466
v -0.428797 0.047516 -0.195428
v 0.255413 -0.872631 -0.870153
v 0.064914 0.037775 -0.996670
v -0.459662 0.036186 -0.218241
v -0.269163 -0.874220 -0.091724
v -1.117197 -1.184626 0.433929
v -2.119663 -0.661527 -0.142378
v -1.486152 -1.207644 -0.384817
v -1.750708 -0.638509 0.676368
v -1.633245 -0.486710 0.626608
v -1.002857 -1.033611 0.384695
v -1.361836 -1.047888 -0.429482
v -1.977029 -0.497546 -0.178728
v -0.849732 -0.810778 0.293662
v -1.823904 -0.274714 -0.269760
v -1.193516 -0.821614 -0.511673
v -1.464925 -0.260436 0.544416
v -0.779143 -0.818928 0.330225
v -1.463600 -0.223485 0.594413
v -1.167525 -0.833799 -0.554031
v -1.836787 -0.234914 -0.281002
v -1.417464 -1.158303 -0.455265
v -2.105043 -0.563643 -0.190551
v -1.019105 -1.134693 0.433561
v -1.706684 -0.540033 0.698274
v -1.421978 -1.164225 -0.453320
v -2.109558 -0.569565 -0.188607
v -1.711200 -0.545954 0.700219
v -1.023620 -1.140614 0.435505
v -1.428179 -1.172357 -0.450650
v -2.115759 -0.577697 -0.185936
v -1.717400 -0.554086 0.702889
v -1.029821 -1.148746 0.438176
v -1.429838 -1.174532 -0.449935
v -2.117418 -0.579872 -0.185222
v -1.719059 -0.556262 0.703604
v -1.031480 -1.150921 0.438890
v -1.438349 -1.183446 -0.447097
v -2.122806 -0.588003 -0.182909
v -1.734424 -0.573132 0.701346
v -1.065163 -1.172017 0.428318
v 0.181094 0.117540 -0.373414
v 0.175173 0.118617 -0.362334
vn 0.5588 0.0017 -0.8293
vn 0.8041 0.2436 0.5423
vn -0.5588 -0.0017 0.8293
vn -0.2029 0.9699 -0.1348
vn 0.2029 -0.9699 0.1348
vn -0.8041 -0.2436 -0.5423
vn -0.5589 -0.0017 0.8293
vn -0.7114 0.6387 0.2931
vn 0.5867 0.7694 -0.2527
vn 0.7114 -0.6387 -0.2931
vn -0.3869 -0.0078 -0.9221
vn 0.3869 0.0078 0.9221
vn -0.5867 -0.7694 0.2527
vn -0.7114 0.6388 0.2931
vn -0.7115 0.6387 0.2931
vn 0.3868 0.0078 0.9221
vn -0.3868 -0.0077 -0.9221
vn -0.5620 -0.0026 0.8272
vn -0.5650 -0.0036 0.8251
vn 0.5558 0.0007 -0.8313
vn 0.5526 -0.0002 -0.8334
vn 0.5558 0.0008 -0.8313
vn 0.1998 -0.9708 0.1327
vn 0.1967 -0.9717 0.1306
vn -0.2060 0.9689 -0.1369
vn -0.2091 0.9680 -0.1390
vn -0.5620 -0.0027 0.8271
vn 0.5557 0.0007 -0.8314
vn -0.2061 0.9689 -0.1369
vn 0.1998 -0.9708 0.1326
vn -0.5252 0.0084 0.8510
vn -0.1696 0.9791 -0.1123
vn 0.5916 0.0117 -0.8062
vn 0.2360 -0.9590 0.1571
vn 0.6975 -0.6542 -0.2925
vn -0.5773 -0.7732 0.2625
vn -0.7099 0.6364 0.3019
vn 0.3356 -0.0412 0.9411
vn -0.3723 -0.0197 -0.9279
vn -0.3719 -0.0187 -0.9281
vn -0.3722 -0.0195 -0.9279
vn 0.5773 0.7732 -0.2625
vn -0.5780 -0.7729 0.2617
vn 0.3580 -0.0136 0.9336
vn -0.3736 -0.0185 -0.9274
vn -0.3737 -0.0190 -0.9274
vn -0.7092 0.6376 0.3008
vn -0.7088 0.6382 0.3007
vn -0.7088 0.6381 0.3007
vn 0.7037 -0.6464 -0.2949
vn 0.7059 -0.6427 -0.2976
vn 0.7037 -0.6463 -0.2951
vn 0.7083 -0.6388 -0.3005
vn -0.7083 0.6387 0.3005
vn -0.7083 0.6388 0.3005
vn 0.3738 0.0195 0.9273
vn -0.3738 -0.0195 -0.9273
vn -0.7082 0.6389 0.3004
vn -0.5914 0.7688 0.2434
vn 0.5780 0.7729 -0.2617
vn 0.7309 -0.6074 -0.3111
vn -0.0430 0.3693 -0.9283
vn 0.3547 -0.0066 0.9350
vt 0.722207 0.706182
vt 0.847204 0.706182
vt 0.847204 0.714015
vt 0.722207 0.714015
vt 0.998479 0.000000
vt 0.998479 0.124837
vt 0.874797 0.125753
vt 0.874797 0.000916
vt 0.722207 0.539046
vt 0.597209 0.539046
vt 0.597209 0.531214
vt 0.722207 0.531214
vt 0.623766 0.174969
vt 0.748764 0.174969
vt 0.748764 0.182802
vt 0.623766 0.182802
vt 0.748764 0.190634
vt 0.623766 0.190634
vt 0.597209 0.998887
vt 0.597209 0.874099
vt 0.720740 0.875205
vt 0.720740 0.999993
vt 0.982554 0.531214
vt 0.998902 0.531214
vt 0.998902 0.667414
vt 0.982554 0.667414
vt 0.447679 0.991233
vt 0.447679 0.855032
vt 0.464028 0.855032
vt 0.464028 0.991233
vt 0.981972 0.667414
vt 0.981972 0.531214
vt 0.852793 0.714015
vt 0.987396 0.715221
vt 0.987396 0.851192
vt 0.852793 0.849987
vt 0.464610 0.855032
vt 0.464610 0.991233
vt 0.994967 0.987393
vt 0.994967 0.851192
vt 0.995549 0.851192
vt 0.995549 0.987393
vt 0.139164 0.858388
vt 0.139164 0.994589
vt 0.138582 0.994589
vt 0.138582 0.858388
vt 0.503992 0.024589
vt 0.469559 0.082193
vt 0.469559 0.057603
vt 0.503992 -0.000000
vt 0.469559 0.058033
vt 0.349790 0.075992
vt 0.315292 0.017958
vt 0.435062 -0.000000
vt 0.349790 0.100572
vt 0.315292 0.042539
vt 0.623766 0.042520
vt 0.623766 0.017930
vt 0.469559 0.082613
vt 0.315292 0.847749
vt 0.315292 0.726641
vt 0.377358 0.752166
vt 0.377358 0.873274
vt 0.757263 0.517460
vt 0.757263 0.385497
vt 0.825372 0.357700
vt 0.825372 0.489662
vt 0.801468 0.749511
vt 0.852793 0.741828
vt 0.852793 0.873790
vt 0.801468 0.881474
vt 0.876676 0.365392
vt 0.876676 0.497355
vt 0.808567 0.525152
vt 0.785165 0.714015
vt 0.733839 0.721698
vt 0.800497 0.749656
vt 0.732869 0.721844
vt 0.809537 0.525298
vt 0.877646 0.497500
vt 0.878979 0.497700
vt 0.810870 0.525498
vt 0.800497 0.881619
vt 0.877646 0.365538
vt 0.879335 0.497754
vt 0.811226 0.525551
vt 0.799164 0.749856
vt 0.731536 0.722043
vt 0.878979 0.365737
vt 0.799164 0.881818
vt 0.880231 0.497888
vt 0.812122 0.525685
vt 0.798808 0.749909
vt 0.731179 0.722097
vt 0.879335 0.365791
vt 0.798808 0.881872
vt 0.730283 0.722231
vt 0.797912 0.750043
vt 0.797912 0.882006
vt 0.730283 0.854193
vt 0.880231 0.365925
vt 0.285327 0.710623
vt 0.285084 0.719536
vt 0.157921 0.719536
vt 0.157678 0.710623
vt -0.000000 0.859192
vt 0.125671 0.860318
vt 0.125671 0.987267
vt -0.000000 0.986142
vt 0.000000 0.543781
vt 0.000243 0.534868
vt 0.127406 0.534868
vt 0.127649 0.543781
vt 0.469559 0.540127
vt 0.469803 0.531214
vt 0.596965 0.531214
vt 0.597209 0.540127
vt 0.442941 0.707555
vt 0.442698 0.716468
vt 0.315535 0.716468
vt 0.315292 0.707555
vt 0.283503 0.985738
vt 0.157678 0.986669
vt 0.157678 0.859670
vt 0.283503 0.858738
vt 0.136742 0.859192
vt 0.000000 0.857968
vt 0.000000 0.719835
vt 0.136742 0.721059
vt 0.989916 0.357700
vt 0.989916 0.496552
vt 0.972487 0.496308
vt 0.972487 0.357943
vt 0.157678 0.858145
vt 0.140249 0.858388
vt 0.140249 0.719536
vt 0.157678 0.719779
vt 0.466775 0.854789
vt 0.449346 0.855032
vt 0.449346 0.716180
vt 0.466775 0.716423
vt 0.296196 0.716711
vt 0.313625 0.716468
vt 0.313625 0.855320
vt 0.296196 0.855077
vt 0.991583 0.357943
vt 0.991583 0.496308
vt 0.294587 0.719536
vt 0.294587 0.857724
vt 0.157678 0.858738
vt 0.157678 0.720550
vt 0.447680 0.854789
vt 0.447680 0.716423
vt 0.138582 0.858145
vt 0.138582 0.719779
vt 0.315292 0.716711
vt 0.315292 0.855077
vt 0.122255 0.026196
vt 0.122144 -0.000000
vt 0.157539 0.059127
vt 0.157678 0.084328
vt 0.157816 0.058683
vt 0.193144 0.000000
vt 0.314889 0.018303
vt 0.279841 0.076878
vt 0.279938 0.101850
vt 0.315292 0.044175
vt -0.000000 0.044191
vt 0.000403 0.018333
vt 0.157678 0.083893
vt 0.757263 0.499490
vt 0.693524 0.525685
vt 0.693664 0.402311
vt 0.757263 0.376376
vt 0.874329 0.333718
vt 0.805632 0.305480
vt 0.805484 0.171252
vt 0.874329 0.199751
vt 0.801677 0.036336
vt 0.801267 0.170761
vt 0.748764 0.162450
vt 0.748764 0.028482
vt 0.753947 0.313346
vt 0.753529 0.178920
vt 0.821800 0.342020
vt 0.818104 0.000000
vt 0.870038 0.007678
vt 0.871008 0.007824
vt 0.802647 0.036482
vt 0.820829 0.342166
vt 0.819496 0.342366
vt 0.751643 0.313692
vt 0.752976 0.313491
vt 0.802237 0.170908
vt 0.752558 0.179066
vt 0.819140 0.342420
vt 0.751287 0.313745
vt 0.872341 0.008025
vt 0.803980 0.036683
vt 0.751225 0.179266
vt 0.803570 0.171108
vt 0.311349 0.534570
vt 0.312039 0.535416
vt 0.312039 0.618371
vt 0.310015 0.617619
vt 0.872697 0.008078
vt 0.804336 0.036736
vt 0.750868 0.179320
vt 0.803926 0.171162
vt 0.874796 0.008802
vt 0.874796 0.142770
vt 0.805456 0.171252
vt 0.805596 0.037024
vt 0.748764 0.314011
vt 0.748764 0.180044
s 1
usemtl Material.011
f 3/1/1 2/2/1 8/3/1 7/4/1
f 5/5/2 6/6/2 7/7/2 8/8/2
f 4/9/3 1/10/3 6/11/3 5/12/3
f 2/13/4 4/14/4 5/15/4 8/16/4
f 1/17/5 3/18/5 7/16/5 6/15/5
f 9/19/6 12/20/6 10/21/6 11/22/6
f 17/23/1 15/24/1 14/25/1 16/26/1
f 14/27/5 13/28/5 18/29/5 16/30/5
f 17/23/1 16/26/1 20/31/1 21/32/1
f 22/33/6 21/34/6 20/35/6 23/36/6
f 16/30/5 18/29/5 23/37/5 20/38/5
f 18/39/7 19/40/7 22/41/7 23/42/7
f 19/43/4 17/44/4 21/45/4 22/46/4
f 25/47/8 27/48/8 28/49/8 31/50/8
f 28/51/9 29/52/9 30/53/9 31/54/9
f 24/55/10 26/56/10 30/53/10 29/52/10
f 26/57/11 25/47/11 31/50/11 30/58/11
f 27/59/12 24/55/12 29/52/12 28/51/12
f 33/60/13 36/61/13 34/62/13 35/63/13
f 39/64/9 40/65/9 38/66/9 37/67/9
f 42/68/11 40/69/11 39/70/11 41/71/11
f 37/67/12 38/66/12 44/72/12 43/73/12
f 39/64/10 37/67/10 43/73/10 41/74/10
f 38/75/8 40/69/8 42/68/14 44/76/14
f 44/76/14 42/68/14 46/77/8 47/78/8
f 45/79/10 48/80/10 52/81/10 49/82/10
f 42/68/11 41/71/11 45/83/11 46/77/11
f 41/74/10 43/73/10 48/80/10 45/79/10
f 43/73/12 44/72/12 47/84/12 48/80/12
f 49/82/10 52/81/10 56/85/10 53/86/10
f 47/78/8 46/77/8 50/87/15 51/88/15
f 48/80/12 47/84/12 51/89/12 52/81/12
f 46/77/11 45/83/11 49/90/11 50/87/11
f 53/86/10 56/85/10 60/91/10 57/92/10
f 51/88/15 50/87/15 54/93/15 55/94/15
f 52/81/12 51/89/12 55/95/12 56/85/12
f 50/87/11 49/90/11 53/96/11 54/93/11
f 59/97/13 58/98/13 57/99/13 60/100/13
f 55/94/15 54/93/15 58/98/14 59/97/14
f 56/85/12 55/95/12 59/101/16 60/91/16
f 54/93/11 53/96/11 57/99/17 58/98/17
f 63/102/18 67/103/19 68/104/19 62/105/18
f 65/106/6 68/107/6 67/108/6 66/109/6
f 64/110/20 65/111/21 66/112/21 61/113/22
f 62/114/23 68/115/24 65/116/24 64/117/23
f 61/118/25 66/119/26 67/120/26 63/121/25
f 69/122/2 71/123/2 70/124/2 72/125/2
f 75/126/6 73/127/6 74/128/6 76/129/6
f 78/130/27 77/131/27 75/132/27 76/133/27
f 73/134/28 79/135/28 80/136/28 74/137/28
f 75/138/29 77/139/29 79/140/29 73/141/29
f 74/142/30 80/143/30 78/144/30 76/145/30
f 78/130/31 82/146/31 81/147/31 77/131/31
f 83/148/2 84/149/2 81/150/2 82/151/2
f 77/139/32 81/152/32 84/153/32 79/140/32
f 79/135/33 84/154/33 83/155/33 80/136/33
f 80/143/34 83/156/34 82/157/34 78/144/34
f 86/158/35 92/159/35 89/160/35 88/161/35
f 89/162/36 92/163/36 91/164/36 90/165/36
f 85/166/37 90/165/37 91/164/37 87/167/37
f 87/168/38 91/169/38 92/159/38 86/158/38
f 88/170/39 89/162/40 90/165/40 85/166/41
f 93/171/42 95/172/42 94/173/42 96/174/42
f 99/175/43 97/176/43 98/177/43 100/178/43
f 102/179/44 101/180/44 99/181/44 100/182/44
f 97/176/45 103/183/46 104/184/46 98/177/45
f 99/175/47 101/185/48 103/183/49 97/176/47
f 98/186/50 104/187/51 102/179/52 100/182/50
f 104/187/51 107/188/53 106/189/53 102/179/52
f 105/190/54 109/191/55 112/192/55 108/193/54
f 102/179/56 106/189/56 105/194/56 101/180/56
f 101/185/48 105/190/54 108/193/54 103/183/49
f 103/183/46 108/193/57 107/195/57 104/184/46
f 109/191/55 113/196/58 116/197/58 112/192/55
f 107/188/53 111/198/53 110/199/53 106/189/53
f 108/193/57 112/192/57 111/200/57 107/195/57
f 106/189/56 110/199/56 109/201/56 105/194/56
f 113/202/59 117/203/59 120/204/59 116/205/59
f 111/198/53 115/206/53 114/207/53 110/199/53
f 112/192/57 116/197/57 115/208/57 111/200/57
f 110/199/56 114/207/56 113/209/56 109/201/56
f 119/210/60 120/211/60 117/212/60 118/213/60
f 115/206/61 119/210/61 118/213/61 114/207/61
f 116/197/62 120/214/62 119/215/62 115/208/62
f 114/207/63 118/213/63 117/212/63 113/209/63
