# Blender 4.3.2
# www.blender.org
mtllib arms.mtl
o right_wrist.002
v -197.619873 -201.713028 65.031418
v -197.837479 -202.295227 64.678009
v -187.086517 -201.642899 88.831802
v -186.969971 -202.222885 89.233376
v -202.247437 -181.559799 95.482422
v -202.611816 -181.502747 96.094955
v -212.780792 -181.629913 71.682045
v -213.479309 -181.575089 71.539604
v -44.499222 -29.781330 -3.241778
v -44.615749 -29.201334 -3.643342
v -33.965862 -29.711226 20.558605
v -33.748264 -29.129005 20.912018
v -18.804953 -49.794327 13.907987
v -18.106436 -49.849163 14.050433
v -29.338310 -49.864422 -9.892397
v -28.973923 -49.921494 -10.504925
v -169.250839 -72.390839 -195.954178
v -169.208450 -72.821945 -196.523026
v -188.562378 -72.390839 -178.504852
v -189.132599 -72.821945 -178.520187
v -189.353943 -46.390430 -179.380890
v -189.949249 -45.996777 -179.423996
v -170.042374 -46.390430 -196.830215
v -170.025116 -45.996777 -197.426834
v -22.562582 -36.401211 -33.611023
v -21.992374 -35.970104 -33.595695
v -41.874134 -36.401203 -16.161705
v -41.916512 -35.970097 -15.592864
v -41.082581 -62.401615 -15.285667
v -41.099846 -62.795269 -14.689041
v -21.771027 -62.401627 -32.734989
v -21.175711 -62.795280 -32.691879
v -44.664810 -29.717768 -3.003446
v -212.733353 -181.374130 71.825539
v -202.322296 -181.304840 95.349571
v -34.253754 -29.648476 20.520599
v -187.381165 -201.658020 88.797028
v -202.366043 -181.808075 95.370422
v -212.777130 -181.877396 71.846382
v -197.792236 -201.727325 65.272980
v -18.852383 -50.050106 13.764497
v -186.920929 -201.706467 88.593468
v -197.331985 -201.775772 65.069420
v -29.263439 -50.119392 -9.759547
v -44.601250 -29.994585 -3.421710
v -29.616367 -49.844505 -9.995110
v -197.684921 -201.500870 64.833862
v -212.669800 -181.650970 71.407272
v -18.915945 -49.773289 14.182762
v -33.900826 -29.923367 20.756161
v -201.969376 -181.579742 95.585136
v -186.984482 -201.429642 89.011734
v -170.059586 -46.177387 -196.623856
v -189.146912 -46.177387 -179.377151
v -41.869495 -36.201866 -16.381947
v -22.782166 -36.201874 -33.628666
v -188.593094 -72.249260 -178.764236
v -189.375458 -46.550732 -179.630096
v -170.288116 -46.550732 -196.876816
v -169.505753 -72.249260 -196.010956
v -188.342804 -72.590172 -178.487228
v -169.255463 -72.590172 -195.733948
v -21.978056 -62.614670 -32.738739
v -41.065392 -62.614658 -15.492015
v -169.001068 -72.233040 -195.985657
v -169.783432 -46.534515 -196.851501
v -22.506037 -36.559006 -33.856308
v -21.723671 -62.257538 -32.990448
v -189.401291 -46.534515 -179.125427
v -188.618927 -72.233040 -178.259583
v -41.341518 -62.257523 -15.264370
v -42.123882 -36.558998 -16.130234
v -40.836834 -62.241306 -15.239065
v -21.749498 -62.241322 -32.485790
v -22.531862 -36.542789 -33.351650
v -41.619194 -36.542782 -16.104929
v -18.808620 -49.546856 13.743648
v -29.219677 -49.616142 -9.780397
v -44.204559 -29.766222 -3.206997
v -33.793503 -29.696934 20.317047
v -34.229183 -28.652864 22.188143
v -197.728683 -202.004135 64.854713
v -187.028259 -201.932907 89.032593
v -202.429626 -181.531281 95.788689
v -213.130051 -181.602493 71.610825
v -44.557484 -29.491333 -3.442560
v -33.857063 -29.420115 20.735312
v -18.455694 -49.821747 13.979210
v -29.156115 -49.892960 -10.198660
v -169.229645 -72.606392 -196.238586
v -188.847473 -72.606392 -178.512512
v -189.651596 -46.193604 -179.402435
v -170.033752 -46.193604 -197.128510
v -22.277477 -36.185661 -33.603359
v -41.895321 -36.185650 -15.877283
v -41.091213 -62.598442 -14.987354
v -21.473370 -62.598454 -32.713436
v -35.577095 -39.144367 -1.260122
v -37.615585 -50.487411 -3.471480
v -38.891151 -50.405262 -1.636844
v -38.732384 -47.769119 -1.260124
v -37.481705 -47.824848 -3.265190
v -35.315434 -47.921360 -4.702834
v -36.221775 -50.517338 4.727279
v -36.221775 -50.517338 -4.727293
v -35.315434 -47.921360 4.702821
v -37.481705 -47.824848 3.265154
v -37.615585 -50.487411 3.471444
v -32.278065 -39.848797 4.702823
v -34.369583 -39.402203 3.265155
v -38.732384 -47.769119 1.260088
v -35.577095 -39.144367 1.260090
v -39.019337 -47.769119 -0.000006
v -35.864048 -39.144367 -0.000004
v -38.891151 -50.405262 1.636832
v -39.178104 -50.405262 -0.000006
v -36.479897 -38.754631 -1.644834
v -38.210693 -51.164661 -4.020718
v -38.238373 -47.631702 -3.975726
v -39.694229 -47.562481 -1.643388
v -39.668522 -51.047298 -1.950373
v -35.628712 -47.829002 -5.706849
v -36.576595 -51.128910 -5.511399
v -36.576599 -51.128906 5.511385
v -38.210693 -51.164661 4.020679
v -38.238377 -47.631702 3.975689
v -35.628716 -47.828999 5.706835
v -32.571289 -39.717800 5.708709
v -35.075211 -39.094719 3.987989
v -39.694229 -47.562481 1.643355
v -36.479897 -38.754631 1.644803
v -40.054504 -47.561337 -0.000004
v -36.835106 -38.729649 -0.000002
v -39.668522 -51.047298 1.950363
v -39.966434 -51.106670 -0.000006
vn 0.6706 -0.4536 0.5869
vn -0.4079 0.7255 0.5543
vn 0.9129 0.0575 -0.4042
vn -0.3047 0.9432 0.1321
vn 0.0175 -0.4580 -0.8888
vn -0.6861 0.7237 -0.0744
vn -0.2247 -0.9690 0.1023
vn -0.7893 0.5060 0.3478
vn 0.0898 0.3736 -0.9232
vn -0.8011 -0.5982 -0.0196
vn 0.8864 -0.2469 -0.3916
vn -0.4617 -0.8626 0.2069
vn 0.7429 0.3779 0.5525
vn -0.5229 -0.5964 0.6090
vn -0.0537 0.9983 0.0208
vn -0.8622 -0.3321 0.3826
vn -0.6706 0.4536 -0.5869
vn 0.4079 -0.7255 -0.5543
vn 0.2247 0.9690 -0.1023
vn 0.7893 -0.5060 -0.3478
vn -0.0175 0.4580 0.8888
vn 0.6861 -0.7237 0.0743
vn -0.9129 -0.0575 0.4042
vn 0.3047 -0.9432 -0.1321
vn -0.3297 -0.5117 0.7934
vn -0.6223 -0.2212 -0.7508
vn -0.2310 0.6242 0.7463
vn -0.5803 0.2627 -0.7709
vn 0.8079 0.5148 0.2869
vn -0.1378 0.2161 -0.9666
vn 0.7091 -0.6210 0.3340
vn -0.1798 -0.2678 -0.9466
vn -0.8078 -0.5148 -0.2869
vn 0.1378 -0.2161 0.9666
vn 0.2310 -0.6242 -0.7464
vn 0.5803 -0.2627 0.7709
vn 0.3297 0.5117 -0.7934
vn 0.6223 0.2212 0.7508
vn -0.7091 0.6210 -0.3339
vn 0.1798 0.2678 0.9466
vn 0.5584 -0.5535 0.6180
vn 0.2016 0.9537 0.2232
vn 0.6167 -0.5901 -0.5211
vn 0.2265 0.9381 -0.2620
vn -0.5224 -0.6267 -0.5782
vn -0.2588 0.9225 -0.2864
vn -0.5807 -0.5901 0.5608
vn -0.2836 0.9381 0.1988
vn 0.9943 0.0268 -0.1031
vn -0.3739 -0.0426 -0.9265
vn 0.4202 -0.7793 0.4650
vn -0.6185 -0.3860 -0.6845
vn -0.2031 0.0268 0.9788
vn -0.8840 -0.0426 -0.4656
vn 0.3711 0.8329 0.4107
vn -0.6394 0.3008 -0.7076
vn 0.5225 0.6266 0.5782
vn 0.2588 -0.9225 0.2864
vn -0.6167 0.5900 0.5211
vn -0.2265 -0.9381 0.2621
vn -0.5584 0.5535 -0.6180
vn -0.2016 -0.9537 -0.2232
vn 0.5807 0.5901 -0.5608
vn 0.2836 -0.9381 -0.1988
vn 0.1021 0.0366 0.9941
vn 0.9270 0.0156 -0.3748
vn -0.4137 -0.8061 0.4232
vn 0.7072 -0.3434 -0.6180
vn -0.9787 -0.0366 -0.2021
vn 0.4666 -0.0156 -0.8844
vn -0.4628 0.8061 0.3689
vn 0.6863 0.3434 -0.6411
vn 0.9787 0.0366 0.2020
vn -0.4666 0.0156 0.8843
vn 0.4137 0.8060 -0.4232
vn -0.7072 0.3434 0.6180
vn -0.1021 -0.0366 -0.9941
vn -0.9270 -0.0156 0.3748
vn 0.4628 -0.8061 -0.3688
vn -0.6863 -0.3434 0.6411
vn -0.4202 0.7793 -0.4650
vn 0.6185 0.3860 0.6845
vn -0.9943 -0.0268 0.1031
vn 0.3739 0.0426 0.9265
vn -0.3711 -0.8329 -0.4107
vn 0.6394 -0.3008 0.7076
vn 0.2031 -0.0268 -0.9788
vn 0.8840 0.0426 0.4656
vn -0.8864 0.2469 0.3916
vn 0.4617 0.8625 -0.2069
vn -0.0898 -0.3736 0.9232
vn 0.8011 0.5983 0.0196
vn 0.0536 -0.9983 -0.0208
vn 0.8622 0.3321 -0.3826
vn -0.7429 -0.3779 -0.5525
vn 0.5229 0.5964 -0.6090
vn -0.5825 0.7716 0.2555
vn -0.7049 -0.6361 0.3138
vn 0.5825 -0.7716 -0.2555
vn -0.4047 -0.0027 -0.9144
vn 0.4047 0.0027 0.9144
vn -0.0304 0.9990 -0.0337
vn -0.6697 -0.0454 -0.7412
vn 0.0304 -0.9990 0.0337
vn 0.7420 -0.0000 -0.6704
vn -0.7420 -0.0000 0.6704
vn 0.6697 0.0454 0.7412
vn 0.7049 0.6361 -0.3138
vn -0.7175 0.1318 -0.6839
vn -0.9149 0.0926 -0.3929
vn -0.9088 0.2058 -0.3629
vn -0.7154 0.1937 -0.6713
vn -0.3589 0.0970 0.9283
vn -0.2960 0.0987 0.9501
vn -0.7154 0.1937 0.6714
vn -0.7175 0.1318 0.6839
vn -0.3590 0.0970 -0.9283
vn -0.2960 0.0985 -0.9501
vn -0.2788 0.1245 0.9522
vn -0.6689 0.2914 0.6839
vn -0.9088 0.2058 0.3629
vn -0.8548 0.3691 0.3647
vn -0.9784 0.2067 -0.0000
vn -0.9197 0.3927 -0.0000
vn -0.8551 0.3691 -0.3642
vn -0.9149 0.0926 0.3929
vn -0.9972 0.0742 -0.0000
vn -0.0797 -0.9968 -0.0000
vn -0.0304 -0.9995 -0.0000
vn -0.0602 -0.9982 -0.0000
vn -0.0000 -1.0000 -0.0000
vn 0.7259 -0.0435 0.6865
vn 0.7202 -0.1489 0.6776
vn 0.9174 -0.1644 0.3625
vn 0.9230 -0.0076 0.3846
vn 0.3664 -0.0061 -0.9304
vn 0.7259 -0.0435 -0.6865
vn 0.7201 -0.1499 -0.6775
vn 0.3047 -0.0554 -0.9508
vn 0.3665 -0.0050 0.9304
vn 0.3049 -0.0550 0.9508
vn 0.6664 -0.2903 -0.6868
vn 0.2771 -0.1233 -0.9529
vn 0.9174 -0.1644 -0.3625
vn 0.8555 -0.3689 -0.3634
vn 0.9862 -0.1657 -0.0000
vn 0.8560 -0.3687 0.3625
vn 0.9196 -0.3928 -0.0000
vn 0.9230 -0.0076 -0.3846
vn 1.0000 0.0082 -0.0000
vn 0.0660 0.9978 -0.0000
vn -0.0004 1.0000 -0.0000
vn 0.0645 0.9979 -0.0000
vn -0.1954 0.9807 -0.0000
vt 0.997465 0.591859
vt 0.997465 0.000271
vt 0.998016 -0.000000
vt 0.998016 0.592337
vt 0.001487 0.001566
vt 0.001487 0.618033
vt 0.000000 0.619480
vt 0.000000 0.000097
vt 0.132738 0.684105
vt 0.132738 0.619760
vt 0.133275 0.619480
vt 0.133275 0.684581
vt 0.067906 0.001473
vt 0.069330 0.000000
vt 1.000000 0.000488
vt 1.000000 0.602004
vt 0.999552 0.602278
vt 0.999552 0.000000
vt 0.067906 0.617940
vt 0.069330 0.619383
vt 0.131669 0.619944
vt 0.131669 0.685025
vt 0.131138 0.685326
vt 0.131138 0.619480
vt 0.361379 0.662192
vt 0.361379 0.595662
vt 0.361893 0.595267
vt 0.361893 0.662580
vt 0.139977 0.695595
vt 0.139977 0.762127
vt 0.138661 0.763591
vt 0.138661 0.694142
vt 0.131138 0.619846
vt 0.131138 0.686265
vt 0.130614 0.686679
vt 0.130614 0.619480
vt 0.205058 0.695513
vt 0.206595 0.694056
vt 0.364786 0.595648
vt 0.364786 0.662119
vt 0.364164 0.662519
vt 0.364164 0.595267
vt 0.205058 0.762045
vt 0.206595 0.763505
vt 0.125343 0.686311
vt 0.125343 0.619892
vt 0.125886 0.619480
vt 0.125886 0.686679
vt 0.995754 0.601958
vt 0.995754 0.000443
vt 0.996353 0.000000
vt 0.996353 0.602278
vt 0.070818 0.001447
vt 0.070818 0.617914
vt 0.134834 0.619757
vt 0.134834 0.684102
vt 0.134304 0.684581
vt 0.134304 0.619480
vt 0.137236 0.001540
vt 0.138661 0.000097
vt 0.999551 0.000258
vt 0.999551 0.591845
vt 0.999036 0.592337
vt 0.999036 -0.000000
vt 0.137236 0.618007
vt 0.138661 0.619480
vt 0.126919 0.685024
vt 0.126919 0.619943
vt 0.127455 0.619480
vt 0.127455 0.685326
vt 0.360283 0.595660
vt 0.360283 0.662192
vt 0.359679 0.662581
vt 0.359679 0.595267
vt 0.276724 0.602885
vt 0.342006 0.605712
vt 0.343334 0.607312
vt 0.275190 0.604361
vt 0.996909 0.616849
vt 0.996909 0.000382
vt 0.997465 0.000000
vt 0.997465 0.617248
vt 0.276724 0.001369
vt 0.275190 0.000000
vt 0.363638 0.662146
vt 0.363638 0.595675
vt 0.342006 0.004197
vt 0.343334 0.002951
vt 0.999036 0.000401
vt 0.999036 0.616868
vt 0.998526 0.617248
vt 0.998526 -0.000000
vt 0.356970 0.660912
vt 0.356970 0.595570
vt 0.357470 0.595267
vt 0.357470 0.661378
vt 0.344815 0.594000
vt 0.411280 0.593155
vt 0.412713 0.594385
vt 0.343334 0.595267
vt 0.996353 0.616866
vt 0.996353 0.000399
vt 0.996909 -0.000000
vt 0.996909 0.617248
vt 0.344815 0.002413
vt 0.343334 0.000882
vt 0.362509 0.595656
vt 0.362509 0.662187
vt 0.411280 0.001568
vt 0.412713 -0.000000
vt 0.998526 0.000381
vt 0.998526 0.616848
vt 0.998016 0.617248
vt 0.137537 0.686284
vt 0.137537 0.619900
vt 0.138028 0.619480
vt 0.138028 0.686644
vt 0.604179 0.567281
vt 0.657081 0.571451
vt 0.658564 0.572950
vt 0.603343 0.568596
vt 0.994458 0.566064
vt 0.994458 0.000369
vt 0.995092 0.000000
vt 0.995092 0.566472
vt 0.987950 0.001474
vt 0.987950 0.570108
vt 0.986640 0.571549
vt 0.986640 0.000000
vt 0.133789 0.619860
vt 0.133789 0.686374
vt 0.133275 0.686775
vt 0.657081 0.005757
vt 0.604179 0.001586
vt 0.603343 -0.000000
vt 0.658564 0.004353
vt 0.993162 0.000391
vt 0.993162 0.567882
vt 0.992501 0.568270
vt 0.992501 0.000000
vt 0.493565 0.720895
vt 0.493565 0.668061
vt 0.494108 0.667522
vt 0.494108 0.720976
vt 0.480652 0.683603
vt 0.414196 0.683681
vt 0.412713 0.682211
vt 0.482083 0.682130
vt 0.623249 0.648686
vt 0.623249 0.701752
vt 0.622670 0.702255
vt 0.622669 0.648566
vt 0.480652 0.750116
vt 0.482083 0.751560
vt 0.764836 0.672923
vt 0.811538 0.626042
vt 0.812151 0.626030
vt 0.764900 0.673462
vt 0.414196 0.750194
vt 0.412713 0.751641
vt 0.764836 0.578864
vt 0.764900 0.578297
vt 0.765597 0.578188
vt 0.812299 0.625367
vt 0.548958 0.571364
vt 0.601860 0.567193
vt 0.548122 0.572950
vt 0.993162 0.566103
vt 0.993162 0.000408
vt 0.993797 -0.000000
vt 0.993797 0.566472
vt 0.986640 0.001401
vt 0.986640 0.568891
vt 0.985321 0.570401
vt 0.985321 0.000000
vt 0.121560 0.686375
vt 0.121560 0.619862
vt 0.122112 0.619480
vt 0.122112 0.686775
vt 0.601860 0.001498
vt 0.548958 0.005669
vt 0.548122 0.004353
vt 0.991864 0.000390
vt 0.991864 0.569024
vt 0.991203 0.569414
vt 0.991203 0.000000
vt 0.812299 0.626674
vt 0.765597 0.673555
vt 0.659398 0.570889
vt 0.712225 0.570100
vt 0.713708 0.571549
vt 0.658564 0.572373
vt 0.991864 0.567892
vt 0.991864 0.000402
vt 0.990568 0.001537
vt 0.990568 0.567232
vt 0.989259 0.568596
vt 0.989259 0.000000
vt 0.129040 0.619890
vt 0.129040 0.686346
vt 0.128516 0.686717
vt 0.128516 0.619480
vt 0.712225 0.001467
vt 0.659398 0.002256
vt 0.658564 0.000823
vt 0.713708 -0.000000
vt 0.994458 0.000390
vt 0.994458 0.566085
vt 0.137031 0.685998
vt 0.137031 0.619824
vt 0.137537 0.619480
vt 0.137537 0.686431
vt 0.714528 0.569033
vt 0.766937 0.571750
vt 0.768415 0.573237
vt 0.713708 0.570401
vt 0.990568 0.569020
vt 0.990568 0.000387
vt 0.989259 0.001364
vt 0.989259 0.567059
vt 0.987950 0.568596
vt 0.987950 0.000000
vt 0.123171 0.686345
vt 0.123171 0.619888
vt 0.123714 0.619480
vt 0.123714 0.686717
vt 0.766937 0.004260
vt 0.714528 0.001543
vt 0.768415 0.002836
vt 0.995754 0.000387
vt 0.995754 0.566082
vt 0.622669 0.649070
vt 0.622669 0.702136
vt 0.622090 0.702255
vt 0.622090 0.648566
vt 0.342757 0.750772
vt 0.342757 0.684387
vt 0.344263 0.682957
vt 0.344263 0.752252
vt 0.492436 0.720098
vt 0.492436 0.667618
vt 0.493001 0.667522
vt 0.493001 0.720618
vt 0.276585 0.751234
vt 0.275190 0.752735
vt 0.490518 0.720682
vt 0.490518 0.667616
vt 0.490997 0.667580
vt 0.490997 0.721269
vt 0.276585 0.684850
vt 0.275190 0.683440
vt 0.490039 0.668135
vt 0.490039 0.720968
vt 0.489515 0.721033
vt 0.489515 0.667580
vt 0.130089 0.619894
vt 0.130089 0.686312
vt 0.129565 0.686679
vt 0.129565 0.619480
vt 0.698945 0.646185
vt 0.763290 0.646325
vt 0.764836 0.647782
vt 0.697670 0.647636
vt 0.359186 0.662188
vt 0.359186 0.595656
vt 0.698945 0.579654
vt 0.697670 0.578188
vt 0.124257 0.686266
vt 0.124257 0.619848
vt 0.124800 0.619480
vt 0.124800 0.686679
vt 0.763290 0.579794
vt 0.764836 0.578334
vt 0.358078 0.595700
vt 0.358078 0.661043
vt 0.138661 0.618411
vt 0.138661 0.000095
vt 0.206925 -0.000000
vt 0.206926 0.618316
vt 0.479603 0.820106
vt 0.479603 0.751725
vt 0.546493 0.751641
vt 0.546493 0.820022
vt 0.206926 0.000000
vt 0.275190 0.000095
vt 0.275190 0.618411
vt 0.479809 0.606225
vt 0.412713 0.603319
vt 0.479809 0.002906
vt 0.548122 0.593361
vt 0.479809 0.594230
vt 0.479809 0.000868
vt 0.548122 -0.000000
vt 0.877159 0.571821
vt 0.822787 0.567534
vt 0.822787 -0.000000
vt 0.877159 0.004287
vt 0.206595 0.694136
vt 0.274899 0.694056
vt 0.274899 0.762419
vt 0.206595 0.762498
vt 0.768415 0.571821
vt 0.768414 0.004287
vt 0.931455 0.570482
vt 0.877159 0.571293
vt 0.877159 0.000811
vt 0.931455 0.000000
vt 0.985321 0.572128
vt 0.931455 0.569335
vt 0.985321 0.002792
vt 0.764460 0.717376
vt 0.764460 0.785606
vt 0.696449 0.786081
vt 0.696449 0.717851
vt 0.410396 0.821016
vt 0.344263 0.820872
vt 0.344263 0.752492
vt 0.410396 0.752636
vt 0.384591 0.618058
vt 0.384576 0.617853
vt 0.384151 0.617883
vt 0.384162 0.618085
vt 0.384599 0.618283
vt 0.384182 0.618434
vt 0.382886 0.618939
vt 0.382810 0.618602
vt 0.382766 0.618408
vt 0.384150 0.617837
vt 0.382765 0.618362
vt 0.384575 0.617806
vt 0.363399 0.619540
vt 0.362829 0.619542
vt 0.362815 0.619308
vt 0.363377 0.619305
vt 0.363396 0.619804
vt 0.362866 0.619963
vt 0.361459 0.620068
vt 0.361564 0.620471
vt 0.361401 0.619842
vt 0.362815 0.619249
vt 0.361396 0.619785
vt 0.363386 0.619257
s 1
usemtl Material.001
f 33/1/1 34/2/1 7/3/1 9/4/1
f 34/5/2 33/6/2 10/7/2 8/8/2
f 34/9/3 35/10/3 5/11/3 7/12/3
f 35/13/4 34/5/4 8/8/4 6/14/4
f 35/15/5 36/16/5 11/17/5 5/18/5
f 36/19/6 35/13/6 6/14/6 12/20/6
f 36/21/7 33/22/7 9/23/7 11/24/7
f 33/6/8 36/19/8 12/20/8 10/7/8
f 37/25/9 38/26/9 5/27/9 3/28/9
f 38/29/10 37/30/10 4/31/10 6/32/10
f 38/33/11 39/34/11 7/35/11 5/36/11
f 39/37/12 38/29/12 6/32/12 8/38/12
f 39/39/13 40/40/13 1/41/13 7/42/13
f 40/43/14 39/37/14 8/38/14 2/44/14
f 40/45/15 37/46/15 3/47/15 1/48/15
f 37/30/16 40/43/16 2/44/16 4/31/16
f 41/49/17 42/50/17 3/51/17 13/52/17
f 42/53/18 41/54/18 14/20/18 4/14/18
f 42/55/19 43/56/19 1/57/19 3/58/19
f 43/59/20 42/53/20 4/14/20 2/60/20
f 43/61/21 44/62/21 15/63/21 1/64/21
f 44/65/22 43/59/22 2/60/22 16/66/22
f 44/67/23 41/68/23 13/69/23 15/70/23
f 41/54/24 44/65/24 16/66/24 14/20/24
f 45/71/25 46/72/25 15/73/25 9/74/25
f 46/75/26 45/76/26 10/77/26 16/78/26
f 46/79/27 47/80/27 1/81/27 15/82/27
f 47/83/28 46/75/28 16/78/28 2/84/28
f 47/85/29 48/86/29 7/42/29 1/41/29
f 48/87/30 47/83/30 2/84/30 8/88/30
f 48/89/31 45/90/31 9/91/31 7/92/31
f 45/76/32 48/87/32 8/88/32 10/77/32
f 49/93/33 50/94/33 11/95/33 13/96/33
f 50/97/34 49/98/34 14/99/34 12/100/34
f 50/101/35 51/102/35 5/103/35 11/104/35
f 51/105/36 50/97/36 12/100/36 6/106/36
f 51/107/37 52/108/37 3/28/37 5/27/37
f 52/109/38 51/105/38 6/106/38 4/110/38
f 52/111/39 49/112/39 13/113/39 3/3/39
f 49/98/40 52/109/40 4/110/40 14/99/40
f 53/114/41 54/115/41 21/116/41 23/117/41
f 54/118/42 53/119/42 24/120/42 22/121/42
f 54/122/43 55/123/43 27/124/43 21/125/43
f 55/126/44 54/127/44 22/128/44 28/129/44
f 55/130/45 56/131/45 25/132/45 27/11/45
f 56/133/46 55/134/46 28/135/46 26/136/46
f 56/137/47 53/138/47 23/139/47 25/140/47
f 53/119/48 56/133/48 26/136/48 24/120/48
f 57/141/49 58/142/49 21/143/49 19/144/49
f 58/145/50 57/146/50 20/147/50 22/148/50
f 58/149/51 59/150/51 23/151/51 21/152/51
f 59/153/52 58/145/52 22/148/52 24/154/52
f 59/155/53 60/156/53 17/157/53 23/158/53
f 60/159/54 59/153/54 24/154/54 18/160/54
f 60/156/55 57/161/55 19/162/55 17/157/55
f 57/146/56 60/159/56 18/160/56 20/147/56
f 61/163/57 62/164/57 17/157/57 19/162/57
f 62/165/58 61/166/58 20/121/58 18/167/58
f 62/168/59 63/169/59 31/170/59 17/171/59
f 63/172/60 62/173/60 18/174/60 32/175/60
f 63/176/61 64/177/61 29/178/61 31/179/61
f 64/180/62 63/181/62 32/182/62 30/135/62
f 64/183/63 61/184/63 19/185/63 29/186/63
f 61/166/64 64/180/64 30/135/64 20/121/64
f 65/187/65 66/188/65 23/158/65 17/157/65
f 66/189/66 65/190/66 18/191/66 24/192/66
f 66/193/67 67/194/67 25/140/67 23/139/67
f 67/195/68 66/196/68 24/197/68 26/198/68
f 67/199/69 68/200/69 31/201/69 25/202/69
f 68/203/70 67/204/70 26/205/70 32/206/70
f 68/207/71 65/208/71 17/171/71 31/170/71
f 65/190/72 68/203/72 32/206/72 18/191/72
f 69/209/73 70/210/73 19/211/73 21/212/73
f 70/213/74 69/214/74 22/215/74 20/216/74
f 70/217/75 71/218/75 29/186/75 19/185/75
f 71/219/76 70/220/76 20/221/76 30/222/76
f 71/223/77 72/224/77 27/225/77 29/226/77
f 72/227/78 71/228/78 30/206/78 28/229/78
f 72/230/79 69/231/79 21/125/79 27/124/79
f 69/214/80 72/227/80 28/229/80 22/215/80
f 73/232/81 74/233/81 31/234/81 29/235/81
f 74/236/82 73/237/82 30/238/82 32/239/82
f 74/240/83 75/241/83 25/242/83 31/243/83
f 75/244/84 74/236/84 32/239/84 26/245/84
f 75/246/85 76/247/85 27/248/85 25/249/85
f 76/250/86 75/244/86 26/245/86 28/251/86
f 76/252/87 73/253/87 29/254/87 27/255/87
f 73/237/88 76/250/88 28/251/88 30/238/88
f 77/256/89 78/257/89 15/258/89 13/259/89
f 78/260/90 77/261/90 14/262/90 16/263/90
f 78/264/91 79/265/91 9/74/91 15/73/91
f 79/266/92 78/260/92 16/263/92 10/267/92
f 79/268/93 80/269/93 11/270/93 9/271/93
f 80/272/94 79/266/94 10/267/94 12/273/94
f 80/274/95 77/275/95 13/96/95 11/95/95
f 77/261/96 80/272/96 12/273/96 14/262/96
f 86/276/97 85/277/97 84/278/97 87/279/97
f 83/280/98 84/281/98 85/282/98 82/283/98
f 88/279/99 83/284/99 82/285/99 89/286/99
f 86/287/100 89/288/100 82/110/100 85/289/100
f 88/290/101 87/291/101 84/292/101 83/293/101
f 93/294/102 92/295/102 95/296/102 94/297/102
f 91/298/103 92/299/103 93/300/103 90/301/103
f 91/295/104 90/302/104 97/303/104 96/296/104
f 90/304/105 93/305/105 94/306/105 97/307/105
f 92/308/106 91/309/106 96/307/106 95/310/106
f 96/311/107 97/312/107 94/313/107 95/314/107
f 88/315/108 89/316/108 86/317/108 87/318/108
usemtl None.003
f 99/319/109 100/320/110 101/321/111 102/322/112
f 104/323/113 106/324/114 107/322/115 108/319/116
f 105/323/117 99/319/109 102/322/112 103/324/118
f 107/322/115 106/324/114 109/325/119 110/326/120
f 111/321/121 107/322/115 110/326/120 112/327/122
f 113/328/123 114/329/124 98/327/125 101/321/111
f 108/319/116 107/322/115 111/321/121 115/320/126
f 116/330/127 113/328/123 101/321/111 100/320/110
f 105/323/128 104/323/128 108/319/129 99/319/129
f 99/319/129 108/319/129 115/320/130 100/320/130
f 115/320/126 111/321/121 113/328/123 116/330/127
f 111/321/121 112/327/122 114/329/124 113/328/123
f 100/320/130 115/320/130 116/330/131
f 118/331/132 119/332/133 120/333/134 121/334/135
f 124/335/136 125/331/137 126/332/138 127/336/139
f 123/335/140 122/336/141 119/332/133 118/331/132
f 126/332/138 129/337/142 128/338/143 127/336/139
f 130/333/144 131/339/145 129/337/142 126/332/138
f 132/340/146 120/333/134 117/339/147 133/341/148
f 125/331/137 134/334/149 130/333/144 126/332/138
f 135/342/150 121/334/135 120/333/134 132/340/146
f 123/335/151 118/331/152 125/331/152 124/335/151
f 118/331/152 121/334/153 134/334/153 125/331/152
f 134/334/149 135/342/150 132/340/146 130/333/144
f 130/333/144 132/340/146 133/341/148 131/339/145
f 121/334/153 135/342/154 134/334/153
