# Blender 4.3.2
# www.blender.org
mtllib hands.mtl
o right_wrist.002
v -19.819696 -42.378296 -15.417508
v -20.037294 -42.960506 -15.770920
v -21.119423 -61.047890 6.823957
v -21.137732 -61.441540 7.420554
v -21.909449 -35.047482 5.946544
v -21.952816 -34.616375 6.515307
v -1.792307 -61.047890 -10.578246
v -1.197066 -61.441540 -10.534093
v -2.582331 -35.047478 -11.455660
v -2.012151 -34.616371 -11.439339
v -13.374312 -35.779861 -23.441372
v -13.356003 -35.386211 -24.037970
v -12.584288 -61.780273 -22.563961
v -32.701431 -35.779865 -6.039165
v -33.296669 -35.386211 -6.083320
v -31.911406 -61.780273 -5.161751
v -32.481586 -62.211380 -5.178072
v -35.265591 -21.449383 -7.342855
v -35.964108 -21.394543 -7.485301
v -20.104683 -41.532478 -13.993473
v -20.322279 -42.114693 -14.346884
v -24.732233 -21.379272 16.457533
v -25.096622 -21.322210 17.070057
v -9.571326 -41.462376 9.806910
v -9.454793 -42.042366 10.208471
v 2.600101 -30.479506 4.387840
v 3.298619 -30.534348 4.530287
v -12.560805 -10.396406 11.038459
v -12.343209 -9.814189 11.391870
v -7.933256 -30.549614 -19.412546
v -7.568869 -30.606678 -20.025070
v -23.094164 -10.466514 -12.761925
v -20.388746 -42.620945 -15.390662
v -20.035820 -42.895840 -15.155099
v -19.992058 -42.392586 -15.175950
v -13.115337 -35.923950 -23.462219
v -2.525358 -35.205273 -11.700849
v -1.744506 -60.903797 -10.833623
v -12.334488 -61.622478 -22.594992
v -1.771212 -60.887581 -10.329006
v -2.552064 -35.189056 -11.196234
v -21.654606 -35.189060 6.003763
v -20.873755 -60.887581 6.870989
v -21.378395 -60.903797 6.844802
v -22.159250 -35.205276 5.977576
v -32.749229 -35.923954 -5.783790
v -31.968378 -61.622478 -4.916564
v -1.999328 -61.260933 -10.582355
v -21.101871 -61.260933 6.617640
v -31.691853 -61.979607 -5.143725
v -12.589312 -61.979607 -22.343725
v -21.904427 -34.848145 5.726311
v -2.801883 -34.848141 -11.473686
v -32.494408 -35.566822 -6.035056
v -31.941671 -61.638695 -5.421177
v -32.722523 -35.940170 -6.288404
v -13.619980 -35.940166 -23.488403
v -12.839130 -61.638695 -22.621178
v -24.807104 -21.124308 16.324682
v -12.848696 -10.333658 11.000451
v -9.865987 -41.477478 9.772128
v -24.850866 -21.627558 16.345530
v -35.261921 -21.696852 -7.178515
v -20.277044 -41.546768 -13.751916
v -35.154598 -21.470419 -7.617630
v -23.196192 -10.679769 -12.941856
v -8.211314 -30.529688 -19.515257
v -20.169720 -41.320335 -14.191030
v -7.814624 -30.301329 -19.300543
v -22.799503 -10.451407 -12.727143
v -12.388445 -10.382114 10.796902
v 2.596433 -30.232035 4.223499
v -19.816793 -41.595222 -13.955465
v -7.858387 -30.804581 -19.279696
v 2.552671 -30.735287 4.244351
v -9.405735 -41.525936 9.568577
v -9.469297 -41.249119 9.986840
v 2.489108 -30.458471 4.662615
v -12.495770 -10.608550 11.236013
v -24.454176 -21.399197 16.560244
v -19.928493 -42.669403 -15.594213
v -21.128578 -61.244717 7.122256
v -21.931133 -34.831928 6.230926
v -1.494686 -61.244717 -10.556170
v -2.297241 -34.831924 -11.447499
v -13.365158 -35.583035 -23.739670
v -12.562605 -61.995823 -22.848341
v -32.999050 -35.583035 -6.061242
v -32.196495 -61.995823 -5.169911
v -35.614849 -21.421963 -7.414079
v -20.213482 -41.823582 -14.170178
v -24.914429 -21.350742 16.763794
v -9.513060 -41.752373 10.007690
v 2.949360 -30.506927 4.459063
v -12.452006 -10.105298 11.215164
v -7.751062 -30.578146 -19.718809
v -23.152430 -10.176517 -12.962708
v -17.539406 -50.824558 1.550444
v -12.872293 -26.688599 4.730334
v -10.392837 -26.643513 3.346622
v -25.029243 -26.808760 4.702825
v -8.536582 -26.650776 -1.258016
v -8.536582 -26.650776 1.257985
v -10.190497 -28.227882 3.456094
v -9.084370 -28.227882 1.388226
v -11.815981 -28.227882 4.730334
v -24.862661 -22.701881 3.265158
v -26.027050 -22.241920 1.260092
v -24.876476 -19.545177 3.265158
v -26.124079 -19.441004 1.260092
v -13.490928 -28.230347 -4.702831
v -11.474174 -29.027025 -3.348687
v -10.309810 -29.486959 -1.260121
v -12.872293 -26.688599 -4.730364
v -11.815981 -28.227882 -4.730365
v -25.029243 -26.808760 -4.702830
v -10.309810 -29.486959 1.260090
v -11.474174 -29.027025 3.348656
v -10.190497 -28.227882 -3.456126
v -9.084370 -28.227882 -1.388257
v -28.210361 -25.552143 -1.260120
v -27.045996 -26.012079 -3.265186
v -24.862661 -22.701881 -3.265186
v -22.845917 -23.498539 -4.702830
v -13.490928 -28.230347 4.702824
v -26.027050 -22.241920 -1.260120
v -26.124079 -19.441004 -1.260119
v -24.876476 -19.545177 -3.265185
v -22.715601 -19.725586 -4.702829
v -26.494482 -16.683159 -3.265185
v -24.333609 -16.863569 -4.702829
v -10.392837 -26.643513 -3.346629
v -22.715601 -19.725592 4.702826
v -22.845913 -23.498539 4.702825
v -26.411011 -19.441004 -0.000001
v -26.313976 -22.241920 -0.000002
v -9.896172 -25.974802 3.992484
v -12.765944 -26.642221 5.779852
v -7.825778 -25.912283 -1.511540
v -7.825776 -25.912285 1.511509
v -8.755314 -29.227097 1.478429
v -9.923104 -29.218508 3.701834
v -11.776685 -28.808437 5.610464
v -26.962868 -21.983662 1.675408
v -25.560757 -22.493378 4.029438
v -27.067614 -19.715155 1.646791
v -25.613972 -19.749384 3.992715
v -13.364816 -28.377462 -5.740802
v -10.880403 -29.598806 -4.008449
v -9.466448 -30.071772 -1.508363
v -12.765949 -26.642221 -5.779882
v -11.776690 -28.808437 -5.610495
v -25.292610 -26.642355 -5.711739
v -9.466448 -30.071772 1.508331
v -10.880402 -29.598806 4.008415
v -8.755314 -29.227097 -1.478460
v -9.923104 -29.218508 -3.701867
v -27.689777 -25.602009 -3.994797
v -29.040670 -25.022713 -1.641211
v -23.086226 -23.421587 -5.728147
v -25.560751 -22.493378 -4.029468
v -13.364809 -28.377462 5.740794
v -26.962868 -21.983662 -1.675434
v -25.613964 -19.749378 -3.992746
v -27.067614 -19.715157 -1.646816
v -22.975719 -19.779949 -5.724751
v -24.603073 -17.053692 -5.705910
v -27.126858 -17.221819 -3.916997
v -9.896172 -25.974802 -3.992492
v -22.975719 -19.779955 5.724747
v -23.086220 -23.421587 5.728143
v -27.424416 -19.737579 0.000001
v -27.327019 -21.944094 0.000000
vn -0.4145 -0.8061 0.4224
vn 0.7083 -0.3434 -0.6168
vn -0.9783 -0.0366 -0.2038
vn 0.4681 -0.0156 -0.8835
vn -0.4635 0.8061 0.3680
vn 0.1004 0.0366 0.9943
vn -0.9945 -0.0268 0.1014
vn 0.3723 0.0426 0.9271
vn -0.3704 -0.8329 -0.4113
vn 0.6381 -0.3008 0.7087
vn 0.2048 -0.0268 -0.9784
vn 0.8832 0.0426 0.4672
vn -0.4193 0.7793 -0.4657
vn 0.6173 0.3860 0.6856
vn -0.1004 -0.0366 -0.9943
vn -0.9276 -0.0156 0.3732
vn 0.4635 -0.8061 -0.3680
vn -0.6874 -0.3434 0.6399
vn 0.9783 0.0366 0.2038
vn -0.4681 0.0156 0.8835
vn 0.4145 0.8061 -0.4225
vn -0.7083 0.3434 0.6168
vn -0.5573 0.5535 -0.6189
vn -0.2013 -0.9537 -0.2235
vn 0.5817 0.5901 -0.5598
vn 0.2839 -0.9381 -0.1983
vn 0.5214 0.6267 0.5791
vn -0.6176 0.5901 0.5200
vn -0.5214 -0.6267 -0.5791
vn -0.2583 0.9225 -0.2868
vn 0.6176 -0.5901 -0.5200
vn 0.2269 0.9381 -0.2617
vn 0.9945 0.0268 -0.1014
vn -0.3723 -0.0426 -0.9271
vn 0.4193 -0.7793 0.4657
vn -0.6173 -0.3860 -0.6856
vn -0.2048 0.0268 0.9784
vn 0.3704 0.8329 0.4113
vn 0.0175 -0.4580 -0.8888
vn -0.6861 0.7237 -0.0744
vn 0.0898 0.3736 -0.9232
vn -0.8011 -0.5982 -0.0196
vn 0.8864 -0.2469 -0.3916
vn -0.4617 -0.8625 0.2069
vn 0.7429 0.3779 0.5525
vn -0.5229 -0.5964 0.6090
vn -0.0536 0.9983 0.0208
vn -0.8622 -0.3321 0.3826
vn 0.7091 -0.6210 0.3340
vn -0.3297 -0.5117 0.7934
vn -0.2310 0.6242 0.7463
vn -0.5803 0.2627 -0.7709
vn 0.8078 0.5148 0.2869
vn -0.1378 0.2161 -0.9666
vn -0.0898 -0.3736 0.9232
vn 0.0536 -0.9983 -0.0208
vn -0.7429 -0.3779 -0.5525
vn 0.5229 0.5964 -0.6090
vn -0.8864 0.2469 0.3916
vn 0.4617 0.8625 -0.2069
vn -0.0175 0.4580 0.8888
vn 0.6861 -0.7237 0.0744
vn -0.9129 -0.0575 0.4042
vn 0.3047 -0.9432 -0.1321
vn -0.6706 0.4536 -0.5869
vn 0.4079 -0.7255 -0.5543
vn 0.2247 0.9690 -0.1023
vn 0.7893 -0.5060 -0.3478
vn -0.7091 0.6210 -0.3340
vn 0.1798 0.2678 0.9466
vn -0.8078 -0.5148 -0.2869
vn 0.1378 -0.2161 0.9666
vn 0.2310 -0.6242 -0.7463
vn 0.5803 -0.2627 0.7709
vn 0.3297 0.5117 -0.7934
vn 0.6223 0.2212 0.7509
vn 0.7431 -0.0000 -0.6691
vn 0.6684 0.0454 0.7424
vn -0.7431 -0.0000 0.6691
vn 0.0304 -0.9990 0.0337
vn -0.0304 0.9990 -0.0337
vn -0.6684 -0.0454 -0.7424
vn -0.5825 0.7716 0.2555
vn -0.7049 -0.6361 0.3138
vn -0.4047 -0.0027 -0.9144
vn 0.7049 0.6361 -0.3138
vn 0.5825 -0.7716 -0.2555
vn 0.4047 0.0027 0.9144
vn -0.6632 0.1969 0.7220
vn -0.7010 -0.1912 0.6871
vn -0.8943 -0.2564 0.3668
vn -0.8869 0.2427 0.3930
vn 0.0970 -0.0372 -0.9946
vn -0.0051 -0.0035 -1.0000
vn 0.1196 -0.1401 -0.9829
vn 0.7944 -0.5605 0.2340
vn 0.6594 -0.7287 0.1846
vn 0.5179 -0.7363 0.4355
vn 0.5577 -0.5507 0.6210
vn 0.7944 -0.5605 -0.2340
vn 0.5583 -0.5513 -0.6200
vn 0.5179 -0.7363 -0.4355
vn 0.6594 -0.7287 -0.1846
vn 0.1291 -0.8442 -0.5202
vn -0.2497 0.1578 -0.9554
vn -0.6107 0.3880 -0.6903
vn -0.6631 0.1974 -0.7220
vn -0.2287 0.0734 -0.9707
vn -0.7869 0.5002 -0.3613
vn -0.8868 0.2428 -0.3932
vn -0.8943 -0.2564 -0.3668
vn -0.7003 -0.1938 -0.6870
vn -0.2517 -0.0528 -0.9664
vn -0.5985 -0.5115 -0.6166
vn -0.2593 -0.1844 -0.9480
vn 0.0970 -0.0371 -0.9946
vn -0.2516 -0.0511 0.9665
vn -0.2283 0.0731 0.9708
vn 0.0971 -0.0371 0.9946
vn 0.1291 -0.8442 0.5202
vn 0.0970 -0.0372 0.9946
vn 0.1205 -0.1410 0.9826
vn -0.0051 -0.0035 1.0000
vn -0.2493 0.1576 0.9555
vn -0.9607 -0.2777 -0.0000
vn -0.9594 0.2822 -0.0000
vn 0.1214 -0.1397 -0.9827
vn 0.1216 -0.1421 0.9824
vn 0.6548 -0.1972 -0.7296
vn 0.8846 -0.2481 -0.3948
vn 0.8938 0.2601 -0.3654
vn 0.6928 0.1901 -0.6956
vn -0.1044 0.0470 0.9934
vn -0.1158 0.1283 0.9849
vn -0.0271 0.0363 0.9990
vn -0.8087 0.5378 -0.2384
vn -0.5711 0.5138 -0.6402
vn -0.5641 0.6970 -0.4427
vn -0.7068 0.6848 -0.1776
vn -0.8087 0.5378 0.2384
vn -0.7068 0.6848 0.1776
vn -0.5641 0.6970 0.4427
vn -0.5720 0.5141 0.6391
vn 0.1331 0.9163 0.3776
vn 0.2487 -0.1570 0.9558
vn 0.2241 -0.0711 0.9720
vn 0.6547 -0.1976 0.7296
vn 0.6066 -0.3897 0.6929
vn 0.8845 -0.2482 0.3951
vn 0.7825 -0.5072 0.3611
vn 0.6923 0.1922 0.6956
vn 0.8938 0.2601 0.3654
vn 0.2438 0.0503 0.9685
vn 0.2542 0.1724 0.9517
vn 0.5985 0.4983 0.6273
vn -0.1040 0.0469 0.9935
vn 0.2435 0.0488 -0.9687
vn -0.1043 0.0459 -0.9935
vn 0.2241 -0.0710 -0.9720
vn 0.1331 0.9163 -0.3776
vn -0.1047 0.0461 -0.9934
vn -0.0270 0.0363 -0.9990
vn -0.1165 0.1290 -0.9848
vn 0.9596 0.2812 -0.0000
vn 0.9600 -0.2800 -0.0000
vn -0.1163 0.1319 0.9844
vn -0.1172 0.1296 -0.9846
vt 0.349128 0.636557
vt 0.349128 0.595669
vt 0.349764 0.595267
vt 0.349764 0.636935
vt 0.353031 0.596804
vt 0.353031 0.637563
vt 0.351722 0.638929
vt 0.351722 0.595267
vt 0.128516 0.619890
vt 0.128516 0.686346
vt 0.127991 0.686717
vt 0.127991 0.619480
vt 0.386697 0.875268
vt 0.386697 0.822438
vt 0.388143 0.821624
vt 0.388143 0.876770
vt 0.261937 0.618801
vt 0.261937 0.659561
vt 0.261275 0.659948
vt 0.261275 0.618411
vt 0.812287 0.721990
vt 0.765596 0.768882
vt 0.764900 0.768790
vt 0.812140 0.721346
vt 0.493001 0.720094
vt 0.493001 0.667617
vt 0.493565 0.667522
vt 0.493565 0.720615
vt 0.070765 0.762249
vt 0.136937 0.761799
vt 0.138443 0.763279
vt 0.069370 0.763749
vt 0.490039 0.720628
vt 0.490039 0.667616
vt 0.490518 0.667580
vt 0.490518 0.721215
vt 0.070765 0.695909
vt 0.069370 0.694498
vt 0.488385 0.668118
vt 0.488385 0.720948
vt 0.487861 0.721014
vt 0.487861 0.667563
vt 0.136937 0.695458
vt 0.138443 0.694028
vt 0.495986 0.666838
vt 0.495986 0.719851
vt 0.495407 0.719970
vt 0.495407 0.666334
vt 0.125886 0.686345
vt 0.125886 0.619888
vt 0.126429 0.619480
vt 0.126429 0.686717
vt 0.414211 0.823731
vt 0.414211 0.876207
vt 0.412713 0.877104
vt 0.412713 0.822327
vt 0.260641 0.618798
vt 0.260641 0.659558
vt 0.259979 0.659948
vt 0.259979 0.618411
vt 0.455046 0.821657
vt 0.456456 0.820106
vt 0.135365 0.685998
vt 0.135365 0.619825
vt 0.135872 0.619480
vt 0.135872 0.686431
vt 0.455046 0.874134
vt 0.456456 0.874883
vt 0.350426 0.636623
vt 0.350426 0.595655
vt 0.351061 0.595267
vt 0.351061 0.637017
vt 0.354340 0.596633
vt 0.354340 0.637392
vt 0.353031 0.638929
vt 0.353031 0.595267
vt 0.122112 0.686327
vt 0.122112 0.619862
vt 0.122664 0.619480
vt 0.122664 0.686726
vt 0.697827 0.787676
vt 0.697827 0.840689
vt 0.696449 0.841419
vt 0.696449 0.786081
vt 0.351722 0.595658
vt 0.351722 0.636626
vt 0.738463 0.790848
vt 0.739978 0.789479
vt 0.765595 0.673555
vt 0.812286 0.720683
vt 0.764900 0.673665
vt 0.260641 0.659578
vt 0.260641 0.618819
vt 0.134304 0.619861
vt 0.134304 0.686326
vt 0.133789 0.686726
vt 0.133789 0.619480
vt 0.665602 0.844715
vt 0.665602 0.791702
vt 0.667117 0.790746
vt 0.667117 0.846084
vt 0.259345 0.659540
vt 0.259345 0.618781
vt 0.355651 0.596741
vt 0.355651 0.637708
vt 0.354340 0.639152
vt 0.354340 0.595267
vt 0.494108 0.720892
vt 0.494108 0.668062
vt 0.494651 0.667522
vt 0.494651 0.720972
vt 0.067939 0.695499
vt 0.001482 0.695571
vt 0.000000 0.694103
vt 0.069370 0.694028
vt 0.495407 0.666454
vt 0.495407 0.719466
vt 0.494827 0.719970
vt 0.494827 0.666334
vt 0.067939 0.761964
vt 0.069370 0.763408
vt 0.764836 0.768252
vt 0.811527 0.721359
vt 0.764836 0.674232
vt 0.353285 0.639417
vt 0.353285 0.682216
vt 0.352837 0.682490
vt 0.352837 0.638928
vt 0.411268 0.596755
vt 0.367405 0.596694
vt 0.365934 0.595267
vt 0.412713 0.595333
vt 0.362509 0.662193
vt 0.362509 0.595662
vt 0.363023 0.595267
vt 0.363023 0.662580
vt 0.345579 0.684496
vt 0.345579 0.751028
vt 0.344263 0.752492
vt 0.344263 0.683043
vt 0.130614 0.619846
vt 0.130614 0.686265
vt 0.130089 0.686679
vt 0.130089 0.619480
vt 0.410660 0.684415
vt 0.412198 0.682957
vt 0.365934 0.595648
vt 0.365934 0.662119
vt 0.365312 0.662519
vt 0.365312 0.595267
vt 0.410660 0.750947
vt 0.412198 0.752406
vt 0.123714 0.686311
vt 0.123714 0.619892
vt 0.124257 0.619480
vt 0.124257 0.686679
vt 0.488896 0.668046
vt 0.488895 0.711909
vt 0.488385 0.712290
vt 0.488385 0.667645
vt 0.361379 0.595660
vt 0.361379 0.662192
vt 0.360776 0.662581
vt 0.360776 0.595267
vt 0.349727 0.681180
vt 0.349727 0.637318
vt 0.350283 0.636935
vt 0.350283 0.681580
vt 0.075702 0.688070
vt 0.118461 0.686219
vt 0.120002 0.687687
vt 0.074400 0.689662
vt 0.364786 0.662146
vt 0.364786 0.595675
vt 0.075702 0.622728
vt 0.074400 0.621455
vt 0.360283 0.662188
vt 0.360283 0.595656
vt 0.124800 0.686266
vt 0.124800 0.619848
vt 0.125343 0.619480
vt 0.125343 0.686679
vt 0.359186 0.595700
vt 0.359186 0.661043
vt 0.358578 0.661378
vt 0.358578 0.595267
vt 0.762068 0.715919
vt 0.762068 0.649388
vt 0.763615 0.647928
vt 0.763615 0.717376
vt 0.129565 0.619894
vt 0.129565 0.686312
vt 0.129040 0.686679
vt 0.129040 0.619480
vt 0.697724 0.715778
vt 0.696449 0.717229
vt 0.352238 0.639186
vt 0.352238 0.681279
vt 0.351722 0.681771
vt 0.351722 0.638928
vt 0.214037 0.686380
vt 0.257899 0.686319
vt 0.259345 0.687742
vt 0.212566 0.687807
vt 0.127455 0.685024
vt 0.127455 0.619943
vt 0.127991 0.685326
vt 0.214037 0.619962
vt 0.212566 0.618476
vt 0.349128 0.680177
vt 0.349128 0.637378
vt 0.349727 0.636935
vt 0.349727 0.680497
vt 0.257899 0.619900
vt 0.259345 0.618411
vt 0.135365 0.619757
vt 0.135365 0.684102
vt 0.134834 0.684581
vt 0.134834 0.619480
vt 0.491507 0.667960
vt 0.491507 0.711823
vt 0.490997 0.712224
vt 0.490997 0.667579
vt 0.207844 0.830466
vt 0.249933 0.831001
vt 0.251483 0.832454
vt 0.206595 0.831884
vt 0.358078 0.660912
vt 0.358078 0.595570
vt 0.207844 0.763995
vt 0.206595 0.762498
vt 0.350426 0.681279
vt 0.350426 0.637416
vt 0.350982 0.637017
vt 0.350982 0.681661
vt 0.249933 0.764530
vt 0.251483 0.763069
vt 0.363638 0.595656
vt 0.363638 0.662187
vt -0.000000 0.831812
vt 0.042813 0.832406
vt 0.042813 0.886704
vt -0.000000 0.886110
vt 0.616133 0.791328
vt 0.548122 0.791791
vt 0.548122 0.723605
vt 0.616133 0.723142
vt 0.275190 0.877361
vt 0.275190 0.823426
vt 0.317869 0.821259
vt 0.317869 0.875194
vt 0.456456 0.874593
vt 0.498926 0.823422
vt 0.498926 0.877909
vt 0.541395 0.820106
vt 0.541395 0.874593
vt 0.623589 0.722432
vt 0.691892 0.722358
vt 0.691892 0.790672
vt 0.623589 0.790746
vt 0.000000 0.763484
vt 0.045711 0.763547
vt 0.045711 0.831812
vt -0.000000 0.831748
vt 0.412713 0.820106
vt 0.412713 0.751725
vt 0.479603 0.751641
vt 0.479603 0.820022
vt 0.069370 0.765679
vt 0.113931 0.763749
vt 0.113931 0.830908
vt 0.069370 0.832838
vt 0.275190 0.821115
vt 0.275190 0.752735
vt 0.341323 0.752879
vt 0.341323 0.821259
vt 0.184372 0.831855
vt 0.138661 0.831919
vt 0.138661 0.763654
vt 0.184372 0.763591
vt 0.808699 0.837758
vt 0.764836 0.837201
vt 0.764836 0.768882
vt 0.808699 0.769440
vt 0.380134 0.620167
vt 0.379625 0.620170
vt 0.379606 0.619969
vt 0.380058 0.619980
vt 0.380800 0.622093
vt 0.381050 0.622260
vt 0.381047 0.621990
vt 0.381256 0.622501
vt 0.381055 0.622701
vt 0.381053 0.622522
vt 0.381179 0.622314
vt 0.380796 0.620132
vt 0.380664 0.619808
vt 0.380267 0.620490
vt 0.380588 0.619621
vt 0.379658 0.620518
vt 0.379161 0.619915
vt 0.379194 0.620263
vt 0.379606 0.619923
vt 0.380057 0.619933
vt 0.358799 0.621634
vt 0.358714 0.621408
vt 0.358348 0.621396
vt 0.358356 0.621630
vt 0.359492 0.623689
vt 0.359771 0.623589
vt 0.359843 0.623845
vt 0.360051 0.624215
vt 0.359972 0.623988
vt 0.359913 0.624143
vt 0.359916 0.624331
vt 0.359469 0.621669
vt 0.358953 0.622031
vt 0.359296 0.621284
vt 0.359200 0.621068
vt 0.358366 0.622055
vt 0.357924 0.621798
vt 0.357946 0.621391
vt 0.358351 0.621338
vt 0.358707 0.621350
s 1
usemtl Material.001
f 36/1/1 37/2/1 9/3/1 11/4/1
f 37/5/2 36/6/2 12/7/2 10/8/2
f 37/9/3 38/10/3 7/11/3 9/12/3
f 38/13/4 37/14/4 10/15/4 8/16/4
f 38/17/5 39/18/5 13/19/5 7/20/5
f 39/21/6 36/22/6 11/23/6 13/24/6
f 40/25/7 41/26/7 9/27/7 7/28/7
f 41/29/8 40/30/8 8/31/8 10/32/8
f 41/33/9 42/34/9 5/35/9 9/36/9
f 42/37/10 41/29/10 10/32/10 6/38/10
f 42/39/11 43/40/11 3/41/11 5/42/11
f 43/43/12 42/37/12 6/38/12 4/44/12
f 43/45/13 40/46/13 7/47/13 3/48/13
f 40/30/14 43/43/14 4/44/14 8/31/14
f 44/49/15 45/50/15 5/51/15 3/52/15
f 45/53/16 44/54/16 4/55/16 6/56/16
f 45/57/17 46/58/17 14/59/17 5/60/17
f 46/61/18 45/53/18 6/56/18 15/62/18
f 46/63/19 47/64/19 16/65/19 14/66/19
f 47/67/20 46/61/20 15/62/20 17/68/20
f 47/69/21 44/70/21 3/71/21 16/72/21
f 44/73/22 47/74/22 17/75/22 4/76/22
f 48/77/23 49/78/23 3/79/23 7/80/23
f 49/81/24 48/82/24 8/83/24 4/84/24
f 49/85/25 50/86/25 16/72/25 3/71/25
f 50/87/26 49/81/26 4/84/26 17/88/26
f 50/89/27 51/90/27 13/24/27 16/91/27
f 51/92/28 48/93/28 7/20/28 13/19/28
f 52/94/29 53/95/29 9/96/29 5/97/29
f 53/98/30 52/99/30 6/100/30 10/101/30
f 54/102/31 52/103/31 5/60/31 14/59/31
f 52/104/32 54/105/32 15/106/32 6/107/32
f 55/108/33 56/109/33 14/110/33 16/111/33
f 56/112/34 55/113/34 17/114/34 15/115/34
f 56/116/35 57/117/35 11/118/35 14/119/35
f 57/120/36 56/112/36 15/115/36 12/121/36
f 57/122/37 58/123/37 13/24/37 11/23/37
f 58/123/38 55/124/38 16/91/38 13/24/38
f 59/125/39 60/126/39 28/127/39 22/128/39
f 60/129/40 59/130/40 23/131/40 29/132/40
f 61/133/41 62/134/41 22/135/41 24/136/41
f 62/137/42 61/138/42 25/139/42 23/140/42
f 62/141/43 63/142/43 18/143/43 22/144/43
f 63/145/44 62/137/44 23/140/44 19/146/44
f 63/147/45 64/148/45 20/149/45 18/150/45
f 64/151/46 63/145/46 19/146/46 21/152/46
f 64/153/47 61/154/47 24/155/47 20/156/47
f 61/138/48 64/151/48 21/152/48 25/139/48
f 65/157/49 66/158/49 32/159/49 18/160/49
f 66/161/50 67/162/50 30/163/50 32/164/50
f 67/165/51 68/166/51 20/167/51 30/168/51
f 68/169/52 67/170/52 31/171/52 21/172/52
f 68/173/53 65/174/53 18/150/53 20/149/53
f 65/175/54 68/169/54 21/172/54 19/176/54
f 69/177/55 70/178/55 32/164/55 30/163/55
f 70/179/56 71/180/56 28/181/56 32/182/56
f 71/183/57 72/184/57 26/185/57 28/186/57
f 72/187/58 71/188/58 29/189/58 27/190/58
f 72/191/59 69/192/59 30/193/59 26/194/59
f 69/195/60 72/187/60 27/190/60 31/196/60
f 73/197/61 74/198/61 30/199/61 20/200/61
f 74/201/62 73/202/62 21/203/62 31/204/62
f 74/205/63 75/206/63 26/12/63 30/207/63
f 75/208/64 74/201/64 31/204/64 27/209/64
f 75/210/65 76/211/65 24/212/65 26/213/65
f 76/214/66 75/208/66 27/209/66 25/215/66
f 76/216/67 73/217/67 20/218/67 24/219/67
f 73/202/68 76/214/68 25/215/68 21/203/68
f 77/220/69 78/221/69 26/222/69 24/223/69
f 78/224/70 77/225/70 25/226/70 27/227/70
f 78/228/71 79/229/71 28/186/71 26/185/71
f 79/230/72 78/224/72 27/227/72 29/231/72
f 79/232/73 80/233/73 22/234/73 28/235/73
f 80/236/74 79/230/74 29/231/74 23/237/74
f 80/238/75 77/239/75 24/136/75 22/135/75
f 77/225/76 80/236/76 23/237/76 25/226/76
f 86/240/77 85/241/77 84/242/77 87/243/77
f 84/244/78 85/245/78 83/246/78 82/247/78
f 82/248/79 83/249/79 88/250/79 89/251/79
f 84/252/80 82/62/80 89/253/80 87/254/80
f 83/255/81 85/256/81 86/254/81 88/253/81
f 89/257/82 88/258/82 86/259/82 87/260/82
f 92/261/83 95/262/83 97/263/83 90/264/83
f 93/265/84 92/266/84 90/267/84 91/268/84
f 90/269/85 97/270/85 96/271/85 91/272/85
f 96/273/86 97/274/86 95/275/86 94/276/86
f 91/277/87 96/278/87 94/279/87 93/280/87
f 93/281/88 94/282/88 95/283/88 92/284/88
usemtl None.003
f 107/285/89 109/286/90 110/287/91 108/288/92
f 114/289/93 115/290/94 111/291/95
f 117/292/96 105/293/97 104/294/98 118/295/99
f 113/292/100 112/295/101 119/294/102 120/293/103
f 112/295/101 115/290/104 119/294/102
f 116/296/105 122/297/106 123/285/107 124/298/108
f 122/297/106 121/299/109 126/288/110 123/285/107
f 123/285/107 126/288/110 127/287/111 128/286/112
f 124/298/108 123/285/107 128/286/112 129/300/113
f 129/300/113 128/286/112 130/301/114 131/302/115
f 129/300/113 114/289/116 124/298/108
f 124/298/108 114/289/116 116/296/105
f 133/300/117 134/298/118 99/289/119
f 118/295/99 104/294/98 106/290/120
f 134/298/118 133/300/117 109/286/90 107/285/89
f 99/289/121 125/291/122 106/290/123
f 120/293/103 105/293/97 117/292/96 113/292/100
f 134/298/118 101/296/124 99/289/119
f 135/303/125 136/304/126 108/288/92 110/287/91
f 115/290/104 112/295/101 111/291/127
f 106/290/120 125/291/128 118/295/99
f 127/287/111 126/288/110 136/304/126 135/303/125
f 145/305/129 144/306/130 146/307/131 147/308/132
f 151/309/133 148/310/134 152/311/135
f 154/312/136 155/313/137 142/314/138 141/315/139
f 150/312/140 156/315/141 157/314/142 149/313/143
f 149/313/143 157/314/142 152/311/144
f 153/316/145 160/317/146 161/305/147 158/318/148
f 158/318/148 161/305/147 163/306/149 159/319/150
f 161/305/147 164/308/151 165/307/152 163/306/149
f 160/317/146 166/320/153 164/308/151 161/305/147
f 166/320/153 167/321/154 168/322/155 164/308/151
f 166/320/153 160/317/146 151/309/156
f 160/317/146 153/316/145 151/309/156
f 170/320/157 138/309/158 171/317/159
f 155/313/137 143/311/160 142/314/138
f 171/317/159 145/305/129 147/308/132 170/320/157
f 138/309/161 143/311/162 162/310/163
f 156/315/141 150/312/140 154/312/136 141/315/139
f 172/323/164 146/307/131 144/306/130 173/324/165
f 152/311/144 148/310/166 149/313/143
f 143/311/160 155/313/137 162/310/167
f 165/307/152 172/323/164 173/324/165 163/306/149
l 114 132
l 100 103
l 102 103
l 102 132
l 137 138
l 137 140
l 151 169
l 139 140
l 139 169
l 1 33
l 1 34
l 1 35
l 2 33
l 2 34
l 2 35
l 99 100
