# Blender 4.3.2
# www.blender.org
mtllib hands.mtl
o right_wrist
v 143.933716 -160.060394 54.007538
v 114.875954 -58.753799 39.392967
v 191.741226 -160.060364 -41.047195
v 162.683456 -58.753815 -55.661758
v 98.865242 -176.257324 31.340446
v 117.615013 -74.950775 -78.328850
v 146.672775 -176.257355 -63.714283
v 69.807426 -74.950768 16.725893
v 78.527222 -183.566559 21.111486
v 49.469410 -82.259972 6.496933
v 97.276955 -82.259956 -88.557800
v 126.334732 -183.566513 -73.943222
v -495.778900 -586.815857 83.191467
v -176.605606 -45.508244 65.582451
v -141.155899 -112.467964 -64.423874
v -217.494629 -45.508259 -32.647144
v -131.466309 -154.200714 46.792793
v -248.694077 -87.241005 -19.660057
v -172.355347 -154.200714 -51.436798
v -207.805054 -87.240990 78.569534
v -139.517166 -164.969620 50.144035
v -215.855881 -98.009903 81.920776
v -256.744934 -98.009911 -16.308815
v -180.406189 -164.969620 -48.085556
v -147.531982 -175.690353 53.480278
v -223.870728 -108.730621 85.257019
v -264.759735 -108.730644 -12.972564
v -188.421021 -175.690353 -44.749298
v 144.551498 -160.793732 55.481621
v 115.127930 -57.321255 40.538849
v 193.381317 -160.614868 -41.390789
v 98.026810 -177.997818 32.604359
v 118.453407 -73.210327 -79.592766
v 147.470398 -177.475616 -64.630554
v 69.009842 -73.732506 17.642162
v 77.071884 -185.399857 21.888016
v 47.829319 -81.705467 6.840502
v 96.659203 -81.526642 -90.031898
v 126.082726 -184.999069 -75.089119
v -496.280121 -588.547668 82.330750
v -98.348930 -111.978760 34.076725
v -176.104324 -43.776440 66.443176
v -139.996750 -111.978767 -65.975769
v -217.752151 -43.776459 -33.609337
v -130.134109 -154.961655 47.547974
v -250.026276 -86.480064 -20.415249
v -171.952484 -154.961655 -52.914215
v -208.207886 -86.480057 80.046944
v -138.184967 -165.730560 50.899223
v -216.258743 -97.248962 83.398193
v -258.077118 -97.248978 -17.063995
v -180.003342 -165.730560 -49.562965
v -147.274460 -177.422150 54.442478
v -225.029861 -109.219818 86.808914
v -266.677704 -109.219841 -13.243585
v -188.922287 -177.422150 -45.610027
v -190.020493 -136.453140 -0.000037
v -194.114487 -135.383453 -11.715054
v -194.114487 -135.383453 11.714873
v -198.112793 -133.536880 -14.745978
v -201.143707 -132.496506 16.793468
v -198.112793 -133.536880 14.745801
v -198.313766 -140.770813 16.672792
v -195.910172 -142.371826 14.800978
v -191.750717 -144.700989 11.690519
v -187.732605 -146.964600 -0.000040
v -191.750717 -144.700989 -11.690708
v -195.910172 -142.371826 -14.801165
v -196.139328 -153.477280 11.772291
v -192.186478 -155.619003 -0.000043
v -196.139328 -153.477280 -11.772487
v -200.116470 -149.687607 -14.934901
v -202.313202 -147.703842 -16.694210
v -198.313766 -140.770813 -16.672976
v -201.143707 -132.496506 -16.793648
v -217.768677 -43.312782 -31.576553
v 72.409897 -119.191483 15.929902
v -156.869095 -79.099442 4.160236
v -193.361679 -136.114700 -0.000037
v -196.692947 -135.165985 -9.766705
v -196.692947 -135.165985 9.766524
v -199.976303 -133.398453 -12.279583
v -201.839706 -132.395126 13.705524
v -199.976303 -133.398453 12.279406
v -199.553833 -140.800354 13.705521
v -197.690414 -142.237747 12.279403
v -194.407150 -144.398804 9.766521
v -191.075790 -146.458023 -0.000040
v -194.407150 -144.398804 -9.766708
v -197.690414 -142.237747 -12.279587
v -202.803513 -146.655426 13.705519
v -200.940079 -148.232925 12.279400
v -197.656830 -151.012253 9.766519
v -194.325470 -152.699692 -0.000042
v -197.656830 -151.012253 -9.766710
v -200.940079 -148.232925 -12.279590
v -202.803513 -146.655426 -13.705709
v -199.553833 -140.800354 -13.705708
v -201.839706 -132.395126 -13.705704
v -217.836258 -40.772263 -28.574600
v 68.946922 -121.121277 14.438089
vn 0.8506 0.3057 0.4278
vn 0.4493 -0.0000 -0.8934
vn -0.4493 -0.0000 0.8934
vn 0.2731 -0.9521 0.1374
vn -0.2731 0.9521 -0.1374
vn -0.8506 -0.3057 -0.4278
vn -0.3843 -0.0000 -0.9232
vn -0.7175 0.6293 0.2987
vn 0.3843 -0.0000 0.9232
vn 0.7175 -0.6293 -0.2987
vn -0.5810 -0.7771 0.2418
vn -0.4375 0.0064 0.8992
vn 0.4497 -0.0025 -0.8932
vn 0.4496 -0.0025 -0.8932
vn 0.4441 -0.0040 -0.8959
vn -0.2808 0.9497 -0.1387
vn -0.2754 0.9517 -0.1356
vn -0.2754 0.9517 -0.1355
vn 0.8504 0.3031 0.4301
vn 0.4551 -0.0010 -0.8904
vn -0.2700 0.9537 -0.1323
vn 0.2884 -0.9468 0.1426
vn 0.3831 -0.0016 0.9237
vn 0.3820 -0.0031 0.9242
vn -0.3855 -0.0016 -0.9227
vn -0.3866 -0.0031 -0.9222
vn -0.7198 0.6262 0.2996
vn -0.7186 0.6278 0.2991
vn 0.7151 -0.6324 -0.2977
vn 0.7163 -0.6309 -0.2982
vn 0.3927 0.0113 0.9196
vn 0.5810 0.7771 -0.2418
vn -0.3758 0.0113 -0.9266
vn -0.7089 0.6406 0.2951
vn 0.7259 -0.6179 -0.3021
vn -0.5826 -0.0086 -0.8127
vn -0.2109 0.0265 -0.9772
vn -0.5769 0.0433 -0.8157
vn -0.5694 0.0451 -0.8208
vn -0.9313 -0.2181 -0.2917
vn -0.9313 -0.2181 0.2917
vn -0.5769 0.0434 0.8157
vn -0.5692 0.0457 0.8209
vn -0.5502 0.0923 0.8299
vn -0.6180 0.0258 0.7857
vn -0.8321 0.4204 -0.3616
vn -0.8321 0.4204 0.3616
vn -0.4696 0.2490 0.8471
vn -0.4724 0.2410 0.8478
vn -0.5825 -0.0079 0.8128
vn -0.4659 0.2591 0.8461
vn -0.2108 0.0264 0.9772
vn -0.6181 0.0257 -0.7857
vn -0.5505 0.0917 -0.8298
vn 0.6041 0.0144 0.7968
vn 0.5762 -0.0434 0.8162
vn 0.6032 -0.0422 0.7965
vn 0.2198 -0.0320 0.9750
vn 0.9335 0.2180 0.2848
vn 0.9335 0.2180 -0.2848
vn 0.6031 -0.0423 -0.7965
vn 0.6388 -0.0219 -0.7691
vn 0.5495 -0.1010 -0.8293
vn 0.5762 -0.0434 -0.8162
vn 0.4536 -0.2488 0.8557
vn 0.4620 -0.2448 0.8524
vn 0.8312 -0.4202 0.3641
vn 0.8312 -0.4202 -0.3641
vn 0.4686 -0.2416 -0.8497
vn 0.4620 -0.2448 -0.8524
vn 0.6041 0.0144 -0.7968
vn 0.4536 -0.2488 -0.8557
vn 0.2198 -0.0320 -0.9750
vn 0.4686 -0.2416 0.8497
vn 0.5495 -0.1010 0.8293
vn 0.6388 -0.0218 0.7691
vt 0.900878 0.234581
vt 0.900878 0.151326
vt 0.955886 0.117115
vt 0.955886 0.200371
vt 0.443986 0.860959
vt 0.443986 0.944386
vt 0.432824 0.943483
vt 0.432824 0.860057
vt 0.468720 0.862959
vt 0.468720 0.946385
vt 0.981083 0.198545
vt 0.981083 0.115290
vt 0.405415 0.682534
vt 0.405415 0.592142
vt 0.447381 0.600147
vt 0.447380 0.690539
vt 0.268886 0.637126
vt 0.268886 0.727519
vt 0.226923 0.735524
vt 0.226923 0.645132
vt 0.376839 0.909955
vt 0.376839 0.826529
vt 0.992454 0.114466
vt 0.992454 0.197721
vt 0.466318 0.603759
vt 0.466318 0.694152
vt 0.207986 0.739137
vt 0.207986 0.648744
vt 0.225278 0.837628
vt 0.225278 0.933931
vt 0.216612 0.933931
vt 0.216612 0.837628
vt 0.258857 0.837628
vt 0.258857 0.933931
vt 0.304000 0.826529
vt 0.304000 0.920835
vt 0.282033 0.925980
vt 0.282033 0.831675
vt 0.207986 0.933931
vt 0.207986 0.837628
vt 0.938305 0.911410
vt 0.938305 0.815108
vt 0.946970 0.815108
vt 0.946970 0.911410
vt 0.490972 0.969052
vt 0.490972 0.874667
vt 0.496613 0.875974
vt 0.496613 0.970358
vt 0.276365 0.927308
vt 0.276365 0.833002
vt 0.502229 0.877274
vt 0.575332 0.864824
vt 0.575332 0.959208
vt 0.502229 0.971659
vt 0.955597 0.815108
vt 0.955597 0.911410
vt 0.270721 0.928630
vt 0.270721 0.834324
vt 0.836039 0.850221
vt 0.848432 0.849657
vt 0.848258 0.934591
vt 0.836242 0.935578
vt 0.821992 0.779569
vt 0.822192 0.694037
vt 0.847568 0.696148
vt 0.847742 0.781257
vt 0.270621 0.625381
vt 0.227793 0.633637
vt 0.227567 0.541110
vt 0.270721 0.533261
vt 0.904726 0.900118
vt 0.904726 0.815108
vt 0.810554 0.778618
vt 0.810554 0.693433
vt 0.207986 0.637127
vt 0.207986 0.544911
vt 0.448259 0.496113
vt 0.468052 0.500022
vt 0.468152 0.592142
vt 0.448034 0.588640
vt 0.577605 0.899144
vt 0.577605 0.803008
vt 0.652064 0.790326
vt 0.652064 0.886462
vt 0.439890 0.694152
vt 0.448555 0.694152
vt 0.448555 0.792643
vt 0.439890 0.792643
vt 0.405415 0.792442
vt 0.405415 0.694353
vt 0.226169 0.837628
vt 0.226169 0.739137
vt 0.260644 0.739338
vt 0.260644 0.837427
vt 0.468152 0.480207
vt 0.445752 0.485713
vt 0.445752 0.389264
vt 0.468152 0.384151
vt 0.674659 0.795301
vt 0.674659 0.891830
vt 0.458073 0.694353
vt 0.458073 0.792442
vt 0.217504 0.837628
vt 0.217504 0.739137
vt 0.440083 0.487041
vt 0.440083 0.390592
vt 0.680300 0.796607
vt 0.680300 0.893137
vt 0.433703 0.392220
vt 0.433703 0.488276
vt 0.359513 0.475277
vt 0.359513 0.379221
vt 0.207986 0.837427
vt 0.207986 0.739338
vt 0.686345 0.798265
vt 0.686345 0.894401
vt 0.148449 0.320819
vt 0.147419 0.320567
vt 0.147547 0.320791
vt 0.148629 0.321041
vt 0.148902 0.321434
vt 0.147772 0.321185
vt 0.147898 0.321587
vt 0.149164 0.321833
vt 0.149697 0.321018
vt 0.149913 0.321418
vt 0.149349 0.320627
vt 0.149151 0.320405
vt 0.224253 0.318875
vt 0.224434 0.319098
vt 0.223351 0.318847
vt 0.223223 0.318623
vt 0.224707 0.319490
vt 0.224968 0.319889
vt 0.223702 0.319643
vt 0.223577 0.319241
vt 0.224955 0.318462
vt 0.225153 0.318683
vt 0.225502 0.319074
vt 0.225717 0.319474
s 1
usemtl Material.002
f 3/1/1 4/2/1 2/3/1 1/4/1
f 6/5/2 7/6/2 12/7/2 11/8/2
f 6/5/2 4/9/2 3/10/2 7/6/2
f 5/11/3 1/4/3 2/3/3 8/12/3
f 3/13/4 1/14/4 5/15/4 7/16/4
f 2/17/5 4/18/5 6/19/5 8/20/5
f 9/21/6 10/22/6 11/8/6 12/7/6
f 5/11/3 8/12/3 10/23/3 9/24/3
f 7/16/4 5/15/4 9/25/4 12/26/4
f 8/20/5 6/19/5 11/27/5 10/28/5
f 18/29/7 19/30/7 24/31/7 23/32/7
f 18/29/7 16/33/7 15/34/7 19/30/7
f 14/35/8 16/36/8 18/37/8 20/38/8
f 23/32/7 24/31/7 28/39/7 27/40/7
f 17/41/9 20/42/9 22/43/9 21/44/9
f 19/45/10 17/46/10 21/47/10 24/48/10
f 20/38/8 18/37/8 23/49/8 22/50/8
f 25/51/11 26/52/11 27/53/11 28/54/11
f 21/44/9 22/43/9 26/55/9 25/56/9
f 24/48/10 21/47/10 25/51/10 28/54/10
f 22/50/8 23/49/8 27/57/8 26/58/8
f 33/59/12 38/60/12 39/61/12 34/62/12
f 32/63/13 35/64/14 30/65/15 29/66/15
f 31/67/16 34/68/17 32/69/18 29/70/16
f 36/71/19 39/61/19 38/60/19 37/72/19
f 32/63/13 36/73/20 37/74/20 35/64/14
f 34/68/17 39/75/21 36/76/21 32/69/18
f 35/77/22 37/78/22 38/79/22 33/80/22
f 43/81/11 41/82/11 42/83/11 44/84/11
f 46/85/23 51/86/9 52/87/9 47/88/23
f 46/85/23 47/88/23 43/89/24 44/90/24
f 45/91/25 48/92/25 42/93/26 41/94/26
f 43/95/27 47/96/28 45/97/28 41/98/27
f 42/83/29 48/99/30 46/100/30 44/84/29
f 51/86/31 55/101/31 56/102/31 52/87/31
f 45/91/25 49/103/7 50/104/7 48/92/25
f 47/96/28 52/105/8 49/106/8 45/97/28
f 48/99/30 50/107/10 51/108/10 46/100/30
f 53/109/32 56/110/32 55/111/32 54/112/32
f 49/103/33 53/113/33 54/114/33 50/104/33
f 52/105/34 56/110/34 53/109/34 49/106/34
f 50/107/35 54/115/35 55/116/35 51/108/35
usemtl None.001
f 63/117/36 61/118/37 62/119/38 64/120/39
f 65/121/40 59/122/40 57/123/40 66/124/40
f 66/124/41 57/123/41 58/122/41 67/121/41
f 60/119/42 68/120/43 67/121/44 58/122/45
f 69/125/46 65/121/46 66/124/46 70/126/46
f 70/126/47 66/124/47 67/121/47 71/125/47
f 68/120/43 72/127/48 71/125/49 67/121/44
f 74/117/50 73/128/51 72/127/48 68/120/43
f 75/118/52 74/117/50 68/120/43 60/119/42
f 62/119/38 59/122/53 65/121/54 64/120/39
f 85/129/55 86/130/56 84/131/57 83/132/58
f 87/133/59 88/134/59 79/135/59 81/136/59
f 88/134/60 89/133/60 80/136/60 79/135/60
f 82/131/61 80/136/62 89/133/63 90/130/64
f 91/137/65 92/138/66 86/130/56 85/129/55
f 93/139/67 94/140/67 88/134/67 87/133/67
f 94/140/68 95/139/68 89/133/68 88/134/68
f 90/130/64 89/133/63 95/139/69 96/138/70
f 98/129/71 90/130/64 96/138/70 97/137/72
f 99/132/73 82/131/61 90/130/64 98/129/71
f 86/130/56 92/138/66 93/139/74 87/133/75
f 84/131/57 86/130/56 87/133/75 81/136/76
