# Blender 4.3.2
# www.blender.org
mtllib wrists.mtl
o right_wrist
v -23.541664 -45.946018 -14.614653
v -11.640291 -46.103767 12.049421
v -28.479538 -23.508181 19.699207
v -40.380913 -23.350437 -6.964864
v -26.985527 -49.026772 -13.095730
v -15.084150 -49.184525 13.568342
v -31.923395 -26.588936 21.218132
v -43.824776 -26.431190 -5.445942
v -29.021809 -50.848362 -12.197621
v -45.861057 -28.252777 -4.547833
v -17.120434 -51.006111 14.466452
v -33.959682 -28.410522 22.116240
v -37.998138 -21.218891 -8.015788
v -21.158888 -43.814476 -15.665577
v -9.257516 -43.972225 10.998495
v -26.096762 -21.376638 18.648285
v -37.442654 -20.721972 -8.260786
v -20.603405 -43.317558 -15.910574
v -8.702030 -43.475307 10.753499
v -25.541279 -20.879719 18.403286
v -37.184685 -20.491205 -8.374563
v -20.345436 -43.086792 -16.024351
v -8.444063 -43.244534 10.639722
v -25.283310 -20.648951 18.289509
v -36.955406 -20.286100 -8.475688
v -20.116158 -42.881683 -16.125477
v -8.214783 -43.039433 10.538596
v -25.054029 -20.443846 18.188385
v -36.455261 -19.838692 -8.696279
v -19.616013 -42.434273 -16.346066
v -7.714639 -42.592022 10.318007
v -24.553886 -19.996435 17.967796
v -45.931160 -28.315487 -4.516915
v -34.029785 -28.473232 22.147158
v -29.091911 -50.911072 -12.166703
v -17.190536 -51.068821 14.497369
v -46.177986 -28.536293 -4.408049
v -34.276611 -28.694038 22.256023
v -29.338739 -51.131878 -12.057839
v -17.437366 -51.289627 14.606236
v -16.178984 -63.735584 -29.074402
v -37.878811 -63.735580 -9.535789
v -38.765144 -34.565647 -10.520162
v -17.065315 -34.565651 -30.058781
v -18.861809 -63.917648 -32.053993
v -40.561638 -63.917645 -12.515368
v -41.447971 -34.747707 -13.499744
v -19.748142 -34.747715 -33.038361
v -41.340736 -63.970516 -13.380647
v -42.227066 -34.800583 -14.365019
v -20.527241 -34.800591 -33.903637
v -19.640907 -63.970535 -32.919270
v -34.571594 -63.511135 -5.862730
v -12.871762 -63.511139 -25.401344
v -13.758093 -34.341213 -26.385717
v -35.457924 -34.341206 -6.847103
v -21.086203 -34.838520 -34.524429
v -20.199869 -64.008453 -33.540058
v -41.899700 -64.008461 -14.001435
v -42.786030 -34.838516 -14.985809
v -33.180038 -63.416706 -4.317253
v -11.480205 -63.416702 -23.855864
v -34.066368 -34.246769 -5.301625
v -12.366539 -34.246773 -24.840242
v -32.662945 -63.381615 -3.742964
v -10.963115 -63.381615 -23.281576
v -33.549278 -34.211678 -4.727337
v -11.849446 -34.211678 -24.265949
v -31.831230 -63.325169 -2.819250
v -10.131398 -63.325169 -22.357862
v -32.717564 -34.155235 -3.803624
v -11.017731 -34.155235 -23.342236
v -21.272583 -34.851173 -34.731422
v -20.386244 -64.021111 -33.747055
v -42.086082 -64.021111 -14.208431
v -42.972404 -34.851166 -15.192805
v -29.258545 -49.772572 -10.552423
v -44.483070 -29.343689 -3.636174
v -33.722923 -29.486309 20.471069
v -18.498398 -49.915188 13.554820
v -35.577419 -21.377010 -7.564034
v -20.352896 -41.805893 -14.480284
v -24.817274 -21.519629 16.543213
v -9.592750 -41.948513 9.626961
v -40.901821 -62.609890 -14.985389
v -21.282804 -62.609901 -32.650444
v -22.084145 -36.237080 -33.540421
v -41.703163 -36.237072 -15.875372
v -20.825758 -34.820251 7.311337
v -12.847379 -35.610229 -23.281954
v -12.046040 -61.983044 -22.391972
v -32.466400 -35.610229 -5.616904
v -31.665058 -61.983044 -4.726924
v -23.410732 -46.540989 -15.524535
v -10.878191 -46.707108 12.553612
v -28.610474 -22.913208 20.609093
v -41.143013 -22.747097 -7.469056
v -26.854591 -49.621746 -14.005613
v -14.322049 -49.787865 14.072536
v -32.054333 -25.993963 22.128017
v -44.586872 -25.827850 -5.950135
v -28.890873 -51.443333 -13.107506
v -46.623158 -27.649441 -5.052026
v -16.358334 -51.609451 14.970643
v -34.090618 -27.815552 23.026125
v -38.760239 -20.615553 -8.519980
v -21.027954 -44.409447 -16.575460
v -8.495416 -44.575562 11.502690
v -26.227699 -20.781666 19.558168
v -38.204754 -20.118639 -8.764979
v -20.472469 -43.912529 -16.820457
v -7.939929 -44.078640 11.257690
v -25.672215 -20.284748 19.313169
v -37.946785 -19.887869 -8.878756
v -20.214502 -43.681763 -16.934237
v -7.681962 -43.847874 11.143912
v -25.414246 -20.053978 19.199394
v -37.717506 -19.682764 -8.979880
v -19.985222 -43.476654 -17.035360
v -7.452682 -43.642769 11.042789
v -25.184965 -19.848873 19.098269
v -37.059731 -19.330160 -9.115790
v -19.491323 -42.904160 -17.096825
v -7.074604 -43.068741 10.721835
v -24.643015 -19.494734 18.702869
v -46.693260 -27.712151 -5.021107
v -34.160721 -27.878262 23.057043
v -28.960976 -51.506042 -13.076588
v -16.428436 -51.672157 15.001561
v -46.818020 -28.059578 -4.811878
v -34.401306 -28.224154 23.006784
v -29.249613 -51.633572 -12.792911
v -16.832897 -51.798153 15.025749
v -15.651320 -64.563820 -29.558733
v -37.322838 -63.916527 -8.622719
v -39.292809 -33.737408 -10.035832
v -17.621288 -34.384708 -30.971853
v -18.334146 -64.745895 -32.538322
v -40.005669 -64.098595 -11.602297
v -41.975628 -33.919476 -13.015412
v -20.304115 -34.566776 -33.951435
v -40.784767 -64.151466 -12.467574
v -42.754734 -33.972347 -13.880691
v -21.083216 -34.619648 -34.816711
v -19.113243 -64.798759 -33.403595
v -34.015617 -63.692085 -4.949657
v -12.344099 -64.339378 -25.885672
v -14.314067 -34.160271 -27.298792
v -35.985588 -33.512966 -6.362773
v -21.642176 -34.657585 -35.437504
v -19.672207 -64.836700 -34.024391
v -41.343735 -64.189400 -13.088358
v -43.313690 -34.010281 -14.501473
v -32.624062 -63.597645 -3.404179
v -10.952541 -64.244942 -24.340195
v -34.594032 -33.418533 -4.817295
v -12.922512 -34.065830 -25.753311
v -32.106972 -63.562557 -2.829892
v -10.435452 -64.209854 -23.765907
v -34.076942 -33.383438 -4.243007
v -12.405419 -34.030735 -25.179024
v -32.808880 -33.590881 -2.870327
v -10.968194 -34.129471 -23.316851
v -21.829346 -34.670288 -35.645363
v -20.294930 -64.585464 -34.680344
v -42.135567 -64.046875 -14.233708
v -43.737999 -34.094376 -15.387752
v -29.133854 -50.242455 -11.303184
v -45.087540 -28.835155 -4.055688
v -33.812050 -28.984608 21.206144
v -17.858362 -50.391914 13.958649
v -36.217461 -20.900295 -7.967863
v -20.263771 -42.307590 -15.215358
v -24.941967 -21.049744 17.293972
v -8.988278 -42.457047 10.046475
v -40.345055 -62.790771 -14.071448
v -20.517214 -63.366692 -32.455502
v -22.034609 -36.211315 -33.515038
v -41.794472 -35.672718 -14.942076
v -20.917074 -34.255898 8.244633
v -13.404141 -35.429352 -24.195896
v -11.954722 -62.547401 -23.325270
v -33.231991 -34.853439 -5.811850
v -31.714600 -62.008812 -4.752317
v -36.798275 -36.372509 -4.116693
v -31.880234 -28.644182 -4.124797
v -32.821247 -28.516367 -0.000007
v -20.686592 -47.241474 -6.881654
v -35.335655 -36.502598 -6.007804
v -30.424660 -28.778687 -6.005339
v -28.461960 -28.971203 -6.877739
v -33.368313 -36.692444 -6.875034
v -13.429462 -39.041035 5.601243
v -17.246832 -37.793491 6.880484
v -31.880234 -28.644184 4.124784
v -20.686592 -47.241474 6.881626
v -30.424660 -28.778688 6.005324
v -28.461960 -28.971203 6.877724
v -33.368313 -36.692444 6.875015
v -12.453941 -41.333778 2.747735
v -17.164761 -47.672493 5.455695
v -21.348225 -49.958828 4.193590
v -22.237795 -49.930740 5.070058
v -36.368404 -36.610950 -3.908020
v -32.347012 -28.761909 -0.000007
v -31.447077 -28.869064 -3.908017
v -20.773058 -47.220322 -6.355094
v -30.123783 -28.932896 -5.591962
v -35.034813 -36.672756 -5.600705
v -28.363159 -29.018993 -6.355107
v -33.263054 -36.753963 -6.355106
v -13.722187 -38.935654 5.167195
v -17.336739 -37.761097 6.355073
v -31.447077 -28.869066 3.908004
v -20.773058 -47.220322 6.355066
v -30.123783 -28.932898 5.591948
v -28.363159 -29.018993 6.355093
v -33.263054 -36.753963 6.355087
v -12.870694 -41.101131 2.508193
v -17.467785 -47.652470 5.016419
v -21.840418 -49.943375 3.986958
v -22.439775 -49.924404 4.575737
vn -0.4076 0.0054 -0.9132
vn -0.5767 0.7738 0.2620
vn 0.4076 -0.0054 0.9132
vn 0.5767 -0.7738 -0.2620
vn 0.7080 0.6334 -0.3123
vn -0.7080 -0.6334 0.3123
vn 0.0304 -0.9990 0.0337
vn 0.7431 -0.0000 -0.6691
vn -0.7431 -0.0000 0.6691
vn -0.0304 0.9990 -0.0337
vn 0.6684 0.0454 0.7424
vn -0.6684 -0.0454 -0.7424
vn 0.4311 -0.8804 -0.1976
vn 0.2651 -0.1261 0.9559
vn -0.7011 0.6389 0.3167
vn -0.5351 -0.1155 -0.8369
vn -0.2874 0.9484 0.1339
vn -0.4076 0.0054 -0.9131
vn 0.6326 0.2200 0.7426
vn -0.1294 0.2301 -0.9645
vn 0.7907 -0.4982 -0.3559
vn -0.0156 0.9988 -0.0470
vn -0.7425 -0.0171 0.6696
vn 0.7425 0.0171 -0.6696
vn 0.0156 -0.9988 0.0470
vn -0.7316 -0.0157 0.6816
vn -0.0198 0.9985 -0.0510
vn -0.0237 0.9982 -0.0544
vn 0.7386 0.0164 -0.6740
vn 0.7404 0.0167 -0.6719
vn -0.0651 -0.9971 -0.0399
vn 0.6807 0.0615 0.7300
vn 0.0362 -0.9970 0.0679
vn 0.1326 0.9849 0.1112
vn 0.8580 0.0291 -0.5128
vn -0.6820 -0.0632 -0.7286
vn 0.6820 0.0632 0.7286
vn 0.8038 -0.4462 0.3935
vn 0.5636 -0.3185 0.7622
vn 0.5624 -0.2883 0.7750
vn 0.8100 -0.4205 0.4088
vn 0.1986 -0.1160 0.9732
vn 0.1860 -0.0907 0.9784
vn -0.1670 0.0603 -0.9841
vn 0.1966 -0.1144 -0.9738
vn 0.1843 -0.0897 -0.9788
vn -0.8042 0.4465 -0.3923
vn -0.8105 0.4213 -0.4070
vn -0.5634 0.2888 -0.7741
vn -0.5633 0.3186 -0.7623
vn -0.1858 0.0901 -0.9785
vn -0.1979 0.1157 -0.9734
vn 0.1655 -0.0597 0.9844
vn -0.1840 0.0890 0.9789
vn -0.1957 0.1144 0.9740
vt 0.973045 0.544235
vt 0.973045 0.561451
vt 0.943141 0.561450
vt 0.943141 0.544234
vt 0.943141 0.701952
vt 0.972781 0.701955
vt 0.972781 0.726838
vt 0.943141 0.726835
vt 0.973045 0.473985
vt 0.973045 0.491201
vt 0.943141 0.491201
vt 0.943141 0.473985
vt 0.943141 0.684736
vt 0.972781 0.684739
vt 0.972801 0.631700
vt 0.943141 0.631703
vt 0.943141 0.614487
vt 0.972801 0.614484
vt 0.943141 0.656586
vt 0.972801 0.656583
vt 0.972801 0.671295
vt 0.943141 0.671299
vt 0.973045 0.586334
vt 0.943141 0.586333
vt 0.973045 0.516083
vt 0.943141 0.516084
vt 0.943141 0.741547
vt 0.972781 0.741551
vt 0.972781 0.742057
vt 0.943141 0.742054
vt 0.973045 0.530796
vt 0.943141 0.530797
vt 0.973045 0.601046
vt 0.943141 0.601046
vt 0.943141 0.469972
vt 0.973045 0.469971
vt 0.972781 0.680726
vt 0.943141 0.680723
vt 0.943141 0.678859
vt 0.972781 0.678862
vt 0.943141 0.610474
vt 0.972801 0.610470
vt 0.943141 0.540221
vt 0.973045 0.540221
vt 0.972801 0.608607
vt 0.943141 0.608610
vt 0.943141 0.606953
vt 0.972801 0.606950
vt 0.943141 0.538357
vt 0.973045 0.538357
vt 0.943141 0.468108
vt 0.973045 0.468107
vt 0.972781 0.677205
vt 0.943141 0.677202
vt 0.943141 0.673588
vt 0.972781 0.673592
vt 0.943141 0.466451
vt 0.973045 0.466451
vt 0.943141 0.536700
vt 0.973045 0.536701
vt 0.973063 0.762157
vt 0.943141 0.762157
vt 0.943141 0.756223
vt 0.973063 0.756223
vt 0.943141 0.533087
vt 0.973045 0.533087
vt 0.943141 0.603340
vt 0.972801 0.603336
vt 0.943141 0.462837
vt 0.973045 0.462837
vt 0.943141 0.671805
vt 0.972801 0.671802
vt 0.972801 0.673585
vt 0.973045 0.531303
vt 0.943141 0.531303
vt 0.973045 0.601553
vt 0.943141 0.601552
vt 0.973063 0.768091
vt 0.943141 0.768091
vt 0.973045 0.603336
vt 0.943141 0.603336
vt 0.973045 0.533086
vt 0.972781 0.743840
vt 0.943141 0.743837
vt 0.927401 0.208362
vt 0.922142 0.215190
vt 0.921501 0.105386
vt 0.926760 0.098558
vt 0.917875 0.220728
vt 0.917234 0.110924
vt 0.922142 0.012484
vt 0.927401 0.005657
vt 0.919169 0.339337
vt 0.924430 0.346165
vt 0.924967 0.439065
vt 0.919706 0.432237
vt 0.919706 0.229532
vt 0.924967 0.236359
vt 0.928697 0.351703
vt 0.929234 0.241898
vt 0.930474 0.243506
vt 0.929937 0.353311
vt 0.917875 0.018023
vt 0.929234 0.444603
vt 0.931363 0.244660
vt 0.930826 0.354465
vt 0.916636 0.222336
vt 0.915995 0.112532
vt 0.916636 0.019631
vt 0.930474 0.446211
vt 0.929614 0.002784
vt 0.928973 0.095686
vt 0.915747 0.020785
vt 0.915106 0.113686
vt 0.914810 0.114071
vt 0.915451 0.021169
vt 0.931363 0.447365
vt 0.915747 0.223490
vt 0.930437 0.001717
vt 0.929796 0.094618
vt 0.916955 0.336465
vt 0.917492 0.226659
vt 0.917492 0.429365
vt 0.929614 0.205490
vt 0.931759 0.000000
vt 0.931118 0.092901
vt 0.930437 0.204422
vt 0.916133 0.335397
vt 0.916670 0.225592
vt 0.916670 0.428297
vt 0.822184 0.515463
vt 0.783337 0.608138
vt 0.783337 0.498261
vt 0.822184 0.405586
vt 0.931759 0.202705
vt 0.914810 0.333680
vt 0.915347 0.223875
vt 0.915347 0.426580
vt 0.822184 0.700813
vt 0.822184 0.810690
vt 0.783337 0.718015
vt 0.931659 0.245044
vt 0.931122 0.354850
vt 0.915451 0.223875
vt 0.931659 0.447750
vt 0.970194 0.795946
vt 0.970194 0.801311
vt 0.943141 0.801311
vt 0.943141 0.795946
vt 0.970194 0.806676
vt 0.970194 0.812041
vt 0.943141 0.812041
vt 0.943141 0.806676
vt 0.858951 0.733239
vt 0.858951 0.832581
vt 0.823829 0.916369
vt 0.823829 0.817028
vt 0.860596 0.282470
vt 0.860596 0.183129
vt 0.895718 0.266918
vt 0.895718 0.366258
vt 0.943141 0.192082
vt 0.974631 0.192081
vt 0.974631 0.209297
vt 0.943141 0.209298
vt 0.974374 0.350311
vt 0.974374 0.375193
vt 0.943141 0.375197
vt 0.943141 0.350314
vt 0.943141 0.262588
vt 0.974631 0.262589
vt 0.974631 0.279805
vt 0.943141 0.279804
vt 0.943141 0.333098
vt 0.974374 0.333095
vt 0.943141 0.420820
vt 0.943141 0.403604
vt 0.974353 0.403607
vt 0.974353 0.420823
vt 0.974353 0.445706
vt 0.974353 0.460419
vt 0.943141 0.460415
vt 0.943141 0.445703
vt 0.974631 0.234180
vt 0.943141 0.234181
vt 0.974631 0.304688
vt 0.943141 0.304687
vt 0.974374 0.389906
vt 0.974374 0.390412
vt 0.943141 0.390416
vt 0.943141 0.389909
vt 0.974631 0.319400
vt 0.943141 0.319400
vt 0.974631 0.248893
vt 0.943141 0.248893
vt 0.943141 0.258575
vt 0.974631 0.258575
vt 0.943141 0.329085
vt 0.943141 0.327221
vt 0.974374 0.327217
vt 0.974374 0.329081
vt 0.943141 0.399590
vt 0.974353 0.399594
vt 0.943141 0.188068
vt 0.974631 0.188068
vt 0.943141 0.397727
vt 0.943141 0.396070
vt 0.974353 0.396073
vt 0.974353 0.397730
vt 0.943141 0.186204
vt 0.974631 0.186204
vt 0.943141 0.256711
vt 0.974631 0.256711
vt 0.943141 0.325564
vt 0.943305 0.321822
vt 0.974249 0.321819
vt 0.974374 0.325561
vt 0.943141 0.255054
vt 0.974631 0.255055
vt 0.943141 0.184548
vt 0.974631 0.184547
vt 0.974359 0.743840
vt 0.974359 0.750032
vt 0.943141 0.750032
vt 0.943141 0.743840
vt 0.943292 0.180806
vt 0.974491 0.180805
vt 0.943305 0.392328
vt 0.974229 0.392331
vt 0.943292 0.251312
vt 0.974491 0.251312
vt 0.974353 0.460925
vt 0.974229 0.462837
vt 0.943305 0.462834
vt 0.943141 0.460922
vt 0.974631 0.319907
vt 0.943141 0.319906
vt 0.974631 0.249399
vt 0.943141 0.249400
vt 0.974359 0.756223
vt 0.974491 0.251311
vt 0.974491 0.321819
vt 0.943292 0.321818
vt 0.974249 0.392324
vt 0.900108 0.432934
vt 0.901258 0.323094
vt 0.906554 0.329920
vt 0.905404 0.439760
vt 0.910850 0.335457
vt 0.909700 0.445297
vt 0.901270 0.230161
vt 0.906567 0.236987
vt 0.909010 0.115683
vt 0.908912 0.208618
vt 0.903617 0.215444
vt 0.903715 0.122509
vt 0.907750 0.005845
vt 0.902455 0.012671
vt 0.899419 0.128047
vt 0.898172 0.129655
vt 0.896913 0.019816
vt 0.898160 0.018208
vt 0.910863 0.242524
vt 0.899322 0.220981
vt 0.897277 0.130809
vt 0.896018 0.020970
vt 0.912098 0.337065
vt 0.910948 0.446905
vt 0.912111 0.244132
vt 0.898075 0.222589
vt 0.899029 0.320222
vt 0.899042 0.227288
vt 0.913006 0.245286
vt 0.913305 0.245672
vt 0.913938 0.338610
vt 0.912993 0.338219
vt 0.897180 0.223743
vt 0.911843 0.448059
vt 0.898201 0.319154
vt 0.898214 0.226221
vt 0.909978 0.002972
vt 0.911237 0.112811
vt 0.911140 0.205745
vt 0.897879 0.430061
vt 0.897051 0.428994
vt 0.910806 0.001905
vt 0.912065 0.111744
vt 0.911968 0.204678
vt 0.913301 0.000000
vt 0.914042 0.110021
vt 0.823829 -0.000000
vt 0.823829 0.110099
vt 0.783380 0.202793
vt 0.783337 0.092871
vt 0.896263 0.131200
vt 0.895718 0.021356
vt 0.913305 0.448632
vt 0.895718 0.224316
vt 0.971490 0.790580
vt 0.943141 0.790580
vt 0.943141 0.784958
vt 0.971490 0.784958
vt 0.971490 0.779336
vt 0.943141 0.779336
vt 0.943141 0.773714
vt 0.971490 0.773714
vt 0.823872 0.183370
vt 0.860596 0.267178
vt 0.860596 0.366740
vt 0.823829 0.282755
vt 0.820104 0.910253
vt 0.783380 0.994061
vt 0.783337 0.894675
vt 0.820104 0.810690
vt 0.614009 0.625736
vt 0.614132 0.627252
vt 0.605510 0.633154
vt 0.605385 0.631649
vt 0.614295 0.629267
vt 0.605678 0.635156
vt 0.616075 0.647369
vt 0.515202 0.629179
vt 0.506579 0.635092
vt 0.506704 0.636597
vt 0.515325 0.630696
vt 0.506872 0.638599
vt 0.515488 0.632711
vt 0.517268 0.650813
s 1
usemtl Material.004
f 14/1/1 1/2/1 4/3/1 13/4/1
f 3/5/2 4/6/2 8/7/2 7/8/2
f 16/9/3 3/10/3 2/11/3 15/12/3
f 4/6/2 3/5/2 16/13/2 13/14/2
f 2/15/4 1/16/4 14/17/4 15/18/4
f 5/19/4 6/20/4 11/21/4 9/22/4
f 1/16/4 2/15/4 6/20/4 5/19/4
f 4/3/1 1/2/1 5/23/1 8/24/1
f 2/11/3 3/10/3 7/25/3 6/26/3
f 12/27/2 10/28/2 33/29/2 34/30/2
f 6/26/3 7/25/3 12/31/3 11/32/3
f 7/8/2 8/7/2 10/28/2 12/27/2
f 8/24/1 5/23/1 9/33/1 10/34/1
f 16/9/3 15/12/3 19/35/3 20/36/3
f 17/37/2 20/38/2 24/39/2 21/40/2
f 15/18/4 14/17/4 18/41/4 19/42/4
f 14/1/1 13/4/1 17/43/1 18/44/1
f 13/14/2 16/13/2 20/38/2 17/37/2
f 23/45/4 22/46/4 26/47/4 27/48/4
f 18/44/1 17/43/1 21/49/1 22/50/1
f 19/42/4 18/41/4 22/46/4 23/45/4
f 20/36/3 19/35/3 23/51/3 24/52/3
f 25/53/2 28/54/2 32/55/2 29/56/2
f 24/52/3 23/51/3 27/57/3 28/58/3
f 21/40/2 24/39/2 28/54/2 25/53/2
f 22/50/1 21/49/1 25/59/1 26/60/1
f 30/61/5 29/62/5 32/63/5 31/64/5
f 26/60/1 25/59/1 29/65/1 30/66/1
f 27/48/4 26/47/4 30/67/4 31/68/4
f 28/58/3 27/57/3 31/69/3 32/70/3
f 35/71/4 36/72/4 40/73/4 39/55/4
f 11/32/3 12/31/3 34/74/3 36/75/3
f 10/34/1 9/33/1 35/76/1 33/77/1
f 9/22/4 11/21/4 36/72/4 35/71/4
f 40/78/6 38/79/6 37/62/6 39/61/6
f 33/77/1 35/76/1 39/80/1 37/81/1
f 36/75/3 34/74/3 38/82/3 40/65/3
f 34/30/2 33/29/2 37/83/2 38/84/2
f 53/85/7 42/86/7 41/87/7 54/88/7
f 41/87/7 42/86/7 46/89/7 45/90/7
f 41/87/8 44/91/8 55/92/8 54/88/8
f 56/93/9 43/94/9 42/95/9 53/96/9
f 55/97/10 44/98/10 43/94/10 56/93/10
f 47/99/10 48/100/10 51/101/10 50/102/10
f 44/91/8 41/87/8 45/90/8 48/103/8
f 42/95/9 43/94/9 47/99/9 46/104/9
f 43/94/10 44/98/10 48/100/10 47/99/10
f 50/102/10 51/101/10 57/105/10 60/106/10
f 45/90/7 46/89/7 49/107/7 52/108/7
f 48/103/8 45/90/8 52/108/8 51/109/8
f 46/104/9 47/99/9 50/102/9 49/110/9
f 54/88/8 55/92/8 64/111/8 62/112/8
f 57/113/8 58/114/8 74/115/8 73/116/8
f 51/109/8 52/108/8 58/114/8 57/113/8
f 49/110/9 50/102/9 60/106/9 59/117/9
f 52/108/7 49/107/7 59/118/7 58/114/7
f 62/112/8 64/111/8 68/119/8 66/120/8
f 55/97/10 56/93/10 63/121/10 64/122/10
f 56/93/9 53/96/9 61/123/9 63/121/9
f 53/85/7 54/88/7 62/112/7 61/124/7
f 66/120/8 68/119/8 72/125/8 70/126/8
f 61/124/7 62/112/7 66/120/7 65/127/7
f 64/122/10 63/121/10 67/128/10 68/129/10
f 63/121/9 61/123/9 65/130/9 67/128/9
f 70/131/11 72/132/11 71/133/11 69/134/11
f 65/127/7 66/120/7 70/126/7 69/135/7
f 68/129/10 67/128/10 71/136/10 72/137/10
f 67/128/9 65/130/9 69/138/9 71/136/9
f 75/132/12 76/139/12 73/140/12 74/141/12
f 60/106/10 57/105/10 73/142/10 76/143/10
f 58/114/7 59/118/7 75/144/7 74/115/7
f 59/117/9 60/106/9 76/143/9 75/145/9
f 78/146/5 79/147/5 80/148/5 77/149/5
f 83/150/6 81/151/6 82/152/6 84/153/6
f 85/154/11 86/155/11 87/156/11 88/157/11
f 91/158/12 93/159/12 92/160/12 90/161/12
f 107/162/3 106/163/3 97/164/3 94/165/3
f 96/166/4 100/167/4 101/168/4 97/169/4
f 109/170/1 108/171/1 95/172/1 96/173/1
f 97/169/4 106/174/4 109/175/4 96/166/4
f 95/176/2 108/177/2 107/178/2 94/179/2
f 98/180/2 102/181/2 104/182/2 99/183/2
f 94/179/2 98/180/2 99/183/2 95/176/2
f 97/164/3 101/184/3 98/185/3 94/165/3
f 95/172/1 99/186/1 100/187/1 96/173/1
f 105/188/4 127/189/4 126/190/4 103/191/4
f 99/186/1 104/192/1 105/193/1 100/187/1
f 100/167/4 105/188/4 103/191/4 101/168/4
f 101/184/3 103/194/3 102/195/3 98/185/3
f 109/170/1 113/196/1 112/197/1 108/171/1
f 110/198/4 114/199/4 117/200/4 113/201/4
f 108/177/2 112/202/2 111/203/2 107/178/2
f 107/162/3 111/204/3 110/205/3 106/163/3
f 106/174/4 110/198/4 113/201/4 109/175/4
f 116/206/2 120/207/2 119/208/2 115/209/2
f 111/204/3 115/210/3 114/211/3 110/205/3
f 112/202/2 116/206/2 115/209/2 111/203/2
f 113/196/1 117/212/1 116/213/1 112/197/1
f 118/214/13 122/215/13 125/216/13 121/217/13
f 117/212/1 121/218/1 120/219/1 116/213/1
f 114/199/4 118/214/4 121/217/4 117/200/4
f 115/210/3 119/220/3 118/221/3 114/211/3
f 123/222/6 124/223/6 125/224/6 122/225/6
f 119/220/14 123/226/14 122/227/14 118/221/14
f 120/207/15 124/228/15 123/229/15 119/208/15
f 121/218/16 125/230/16 124/231/16 120/219/16
f 128/232/17 132/233/17 133/234/17 129/235/17
f 104/192/1 129/236/18 127/237/18 105/193/1
f 103/194/3 126/238/3 128/239/3 102/195/3
f 102/181/2 128/232/2 129/235/2 104/182/2
f 133/223/5 132/240/5 130/63/5 131/224/5
f 126/238/19 130/241/19 132/230/19 128/239/19
f 129/236/20 133/242/20 131/243/20 127/237/20
f 127/189/21 131/244/21 130/228/21 126/190/21
f 146/245/22 147/246/22 134/247/22 135/248/22
f 134/247/22 138/249/22 139/250/22 135/248/22
f 134/247/23 147/246/23 148/251/23 137/252/23
f 149/253/24 146/254/24 135/255/24 136/256/24
f 148/257/25 149/253/25 136/256/25 137/258/25
f 140/259/25 143/260/25 144/261/25 141/262/25
f 137/252/23 141/263/23 138/249/23 134/247/23
f 135/255/24 139/264/24 140/259/24 136/256/24
f 136/256/25 140/259/25 141/262/25 137/258/25
f 143/260/25 153/265/25 150/266/25 144/261/25
f 138/249/22 145/267/22 142/268/22 139/250/22
f 141/263/23 144/269/23 145/267/23 138/249/23
f 139/264/24 142/270/24 143/260/24 140/259/24
f 147/246/23 155/271/23 157/272/23 148/251/23
f 150/273/26 164/274/26 165/275/26 151/276/26
f 144/269/23 150/273/23 151/276/23 145/267/23
f 142/270/24 152/277/24 153/265/24 143/260/24
f 145/267/22 151/276/22 152/278/22 142/268/22
f 155/271/23 159/279/23 161/280/23 157/272/23
f 148/257/25 157/281/25 156/282/25 149/253/25
f 149/253/24 156/282/24 154/283/24 146/254/24
f 146/245/22 154/284/22 155/271/22 147/246/22
f 154/284/22 158/285/27 159/279/28 155/271/22
f 157/281/25 161/286/25 160/287/25 156/282/25
f 156/282/24 160/287/29 158/288/30 154/283/24
f 161/286/31 163/289/31 162/290/31 160/287/31
f 166/291/32 165/292/32 164/293/32 167/294/32
f 153/265/33 167/295/33 164/296/33 150/266/33
f 151/276/34 165/275/34 166/297/34 152/278/34
f 152/277/35 166/298/35 167/295/35 153/265/35
f 169/299/6 168/300/6 171/301/6 170/302/6
f 174/303/5 175/304/5 173/305/5 172/306/5
f 176/307/36 179/308/36 178/309/36 177/310/36
f 182/311/37 181/312/37 183/313/37 184/314/37
usemtl None.009
f 185/315/38 189/316/39 190/317/40 186/318/41
f 190/317/40 189/316/39 192/319/42 191/320/43
f 194/321/44 199/319/45 198/320/46
f 204/322/47 206/323/48 208/324/49 209/325/50
f 208/324/49 210/326/51 211/327/52 209/325/50
f 213/328/53 217/326/54 218/327/55
l 221 222
l 89 92
l 180 183
l 186 187
l 196 201
l 187 195
l 205 206
l 205 214
l 215 220
l 193 194
l 195 197
l 197 198
l 212 213
l 194 196
l 213 215
l 214 216
l 202 203
l 216 217
