# Blender 4.3.2
# www.blender.org
mtllib arms.mtl
o right_wrist
v -180.340271 -260.177582 -41.135593
v -227.268951 -186.412460 -59.810783
v -147.284927 -260.177582 -124.200027
v -194.213608 -186.412476 -142.875229
v -385.228149 -435.527283 -218.889130
v -418.283508 -435.527252 -135.824661
v -465.212158 -361.762177 -154.499878
v -432.156830 -361.762207 -237.564331
v -30.078892 -149.444077 18.660662
v -43.952221 -75.678932 -83.078979
v 2.976470 -149.444077 -64.403786
v -77.007561 -75.678932 -0.014539
v -64.089897 -66.159386 5.126029
v -17.161242 -139.924545 23.801224
v 15.894130 -139.924545 -59.263210
v -31.034552 -66.159416 -77.938400
v -466.851379 -495.678589 -251.370926
v -499.906708 -495.678619 -168.306488
v -546.835388 -421.913483 -186.981674
v -513.780029 -421.913513 -270.046112
v -292.586365 -336.152893 41.799892
v -372.449677 -295.988373 40.787621
v -291.146637 -335.542938 -47.586411
v -371.009949 -295.378479 -48.598675
v -430.541107 -612.820068 -51.723507
v -431.980804 -613.429932 37.662792
v -511.844086 -573.265503 36.650524
v -510.404449 -572.655579 -52.735775
v -204.558578 -161.052109 44.412476
v -282.982208 -120.277687 -45.986103
v -203.118896 -160.442184 -44.973835
v -284.421906 -120.887611 43.400211
v -180.833344 -261.928802 -40.090889
v -227.866165 -185.092850 -58.965397
v -146.687714 -261.497192 -125.045441
v -193.720566 -184.661255 -143.919937
v -384.630951 -436.846863 -219.734543
v -418.776581 -437.278473 -134.779984
v -465.809418 -360.442566 -153.654465
v -431.663788 -360.010986 -238.609009
v -30.571939 -151.195297 19.705353
v 3.573670 -150.763657 -65.249168
v -467.077148 -497.506042 -252.345428
v -500.949127 -497.796631 -167.610184
v -548.398438 -421.886230 -186.675247
v -514.655884 -421.794708 -271.273254
v -291.661499 -336.633728 42.865974
v -373.408417 -295.521942 41.829826
v -290.187836 -336.009399 -48.628601
v -371.934814 -294.897614 -49.664745
v -430.456787 -614.590454 -52.595188
v -431.924225 -615.212097 38.512512
v -513.325562 -574.274109 37.480755
v -511.858124 -573.652527 -53.626942
v -203.633728 -161.532944 45.478546
v -283.907074 -119.796852 -47.052174
v -202.160080 -160.908646 -46.016026
v -285.380707 -120.421143 44.442402
v -94.494072 -125.437889 -12.772990
v -64.216972 -138.295822 -10.442619
v -61.269653 -138.077332 -5.912517
v -65.232834 -126.613052 -10.442664
v -62.285473 -126.394569 -5.912513
v -86.061508 -124.650444 -10.672000
v -94.494072 -125.437889 -10.672000
v -71.204887 -127.099831 -12.772989
v -86.061508 -124.650444 -12.772990
v -70.187172 -138.804474 -12.772995
v -94.045479 -124.943413 -13.790207
v -63.570312 -138.981522 -11.179199
v -60.308895 -138.738815 -6.180044
v -61.146606 -126.254883 -6.251900
v -64.491669 -126.505081 -11.375821
v -93.781776 -124.565346 -11.175927
v -86.907471 -123.905067 -11.176264
v -70.985466 -127.039993 -13.947419
v -86.571045 -124.242981 -13.792695
v -69.956085 -139.548233 -13.681505
vn 0.3697 -0.0000 -0.9291
vn -0.5249 0.8251 -0.2089
vn -0.3697 -0.0000 0.9291
vn 0.5249 -0.8251 0.2089
vn 0.7666 0.5650 0.3051
vn -0.7666 -0.5650 -0.3051
vn 0.0161 0.0068 -0.9998
vn -0.4491 -0.8934 -0.0133
vn -0.0161 -0.0068 0.9998
vn -0.8933 0.4493 -0.0113
vn 0.8933 -0.4493 0.0113
vn -0.3706 0.0013 0.9288
vn -0.3694 0.0016 0.9292
vn -0.3694 0.0016 0.9293
vn 0.5273 -0.8238 0.2082
vn 0.5290 -0.8224 0.2093
vn 0.3706 -0.0013 -0.9288
vn 0.3711 -0.0010 -0.9286
vn 0.5256 -0.8251 0.2071
vn -0.5256 0.8251 -0.2071
vn -0.5255 0.8252 -0.2071
vn 0.7693 0.5595 0.3085
vn -0.5253 0.8254 -0.2070
vn -0.3683 0.0020 0.9297
vn 0.3716 -0.0007 -0.9284
vn -0.0160 -0.0065 0.9999
vn -0.0158 -0.0063 0.9999
vn 0.4491 0.8934 0.0133
vn 0.0162 0.0071 -0.9998
vn 0.0164 0.0074 -0.9998
vn 0.8935 -0.4490 0.0113
vn 0.8936 -0.4487 0.0113
vn -0.8932 0.4495 -0.0113
vn -0.8930 0.4498 -0.0113
vn -0.0180 -0.0106 0.9998
vn 0.0142 0.0031 -0.9999
vn -0.8952 0.4455 -0.0114
vn 0.8914 -0.4530 0.0113
vn 0.6285 0.0547 -0.7759
vn 0.6274 0.0508 -0.7770
vn 0.9542 0.0772 -0.2889
vn 0.9541 0.0830 -0.2879
vn -0.0000 -0.0000 -1.0000
vn -0.0930 0.9957 -0.0000
vn 0.3611 0.0314 -0.9320
vn 0.3613 0.0292 -0.9320
vn -0.6305 -0.0338 0.7755
vn -0.9553 -0.0625 0.2888
vn -0.9548 -0.0668 0.2898
vn -0.6293 -0.0404 0.7761
vn 0.0072 0.0069 0.9999
vn 0.0090 -0.0214 0.9997
vn 0.0052 -0.0214 0.9998
vn 0.0936 -0.9862 0.1363
vn -0.3660 -0.0194 0.9304
vn -0.3657 -0.0113 0.9307
vt 0.654339 0.307127
vt 0.577243 0.346055
vt 0.577243 0.117374
vt 0.654339 0.078446
vt 0.307025 0.090484
vt 0.212868 0.080030
vt 0.211257 0.000000
vt 0.305414 0.010453
vt 0.731440 0.345730
vt 0.654339 0.306802
vt 0.654339 0.078363
vt 0.731440 0.117291
vt 0.311720 0.323783
vt 0.217564 0.313329
vt 0.412294 0.352518
vt 0.318139 0.362986
vt 0.322802 0.129704
vt 0.416957 0.119237
vt 0.577243 0.490468
vt 0.654339 0.451540
vt 0.654339 0.463955
vt 0.577243 0.502883
vt 0.731440 0.489989
vt 0.654339 0.451061
vt 0.315194 0.510303
vt 0.409349 0.499836
vt 0.220529 0.460658
vt 0.314686 0.471112
vt 0.314941 0.483777
vt 0.305414 0.523646
vt 0.211257 0.513193
vt 0.220784 0.473324
vt 0.731440 0.502391
vt 0.654339 0.463463
vt 0.409096 0.512500
vt 0.314941 0.522968
vt 0.324402 0.049680
vt 0.314941 0.010468
vt 0.409096 -0.000000
vt 0.418557 0.039213
vt 0.577243 0.038928
vt 0.654339 -0.000000
vt 0.731440 0.038928
vt 0.767692 0.629511
vt 0.861836 0.631868
vt 0.861836 0.813442
vt 0.767692 0.811085
vt 0.332451 0.599316
vt 0.314941 0.531758
vt 0.408690 0.522968
vt 0.426200 0.590526
vt 0.000000 0.655473
vt 0.094166 0.653227
vt 0.094166 0.834956
vt 0.000000 0.837201
vt 0.209643 0.661680
vt 0.115857 0.652847
vt 0.105663 0.525310
vt 0.199448 0.534143
vt 0.415901 0.719174
vt 0.322151 0.727964
vt 0.767692 0.514846
vt 0.861836 0.517203
vt 0.000000 0.540711
vt 0.094166 0.538466
vt 0.315647 0.809206
vt 0.409397 0.800416
vt 0.122295 0.733387
vt 0.216080 0.742220
vt 0.000000 0.000000
vt 0.497897 0.308063
vt 0.497897 0.079624
vt 0.577243 0.118512
vt 0.577243 0.346951
vt 0.113483 0.091635
vt 0.115335 0.010562
vt 0.209890 0.081249
vt 0.418557 0.347016
vt 0.418557 0.118334
vt 0.497897 0.079446
vt 0.497897 0.308127
vt 0.108735 0.324915
vt 0.205142 0.314529
vt 0.006236 0.354413
vt 0.001456 0.121115
vt 0.097864 0.131488
vt 0.102644 0.364785
vt 0.105663 0.512113
vt 0.009255 0.501740
vt 0.096092 0.050866
vt 0.000000 0.040370
vt 0.009739 0.000000
vt 0.105663 0.010548
vt 0.498352 -0.000000
vt 0.577178 0.039413
vt 0.418588 0.039330
vt 0.497488 0.000000
vt 0.827826 0.128162
vt 0.827588 0.310777
vt 0.731609 0.313066
vt 0.731439 0.130460
vt 0.593496 0.582983
vt 0.497897 0.574057
vt 0.515506 0.504610
vt 0.611105 0.513537
vt 0.314941 0.654054
vt 0.314702 0.836563
vt 0.218745 0.834160
vt 0.218576 0.651641
vt 0.661434 0.640429
vt 0.672130 0.511273
vt 0.767692 0.502391
vt 0.757401 0.631510
vt 0.508005 0.702354
vt 0.604010 0.711318
vt 0.731439 0.015699
vt 0.827826 0.013400
vt 0.218576 0.536976
vt 0.314941 0.539389
vt 0.610513 0.791853
vt 0.514508 0.782888
vt 0.750831 0.712746
vt 0.654864 0.721666
vt 0.102089 0.571648
vt 0.102165 0.570349
vt 0.101838 0.570334
vt 0.101761 0.571633
vt 0.102829 0.570384
vt 0.105408 0.570127
vt 0.104470 0.570066
vt 0.102753 0.571686
vt 0.100307 0.499896
vt 0.099910 0.499880
vt 0.099922 0.498407
vt 0.100345 0.498428
vt 0.101133 0.498469
vt 0.102886 0.498071
vt 0.103601 0.498122
vt 0.102978 0.497989
vt 0.103516 0.498027
vt 0.101060 0.499947
s 1
usemtl Material.004
f 4/1/1 3/2/1 5/3/1 8/4/1
f 7/5/2 8/6/2 20/7/2 19/8/2
f 1/9/3 2/10/3 7/11/3 6/12/3
f 2/13/2 4/14/2 8/6/2 7/5/2
f 3/15/4 1/16/4 6/17/4 5/18/4
f 11/19/1 10/20/1 16/21/1 15/22/1
f 3/2/1 4/1/1 10/20/1 11/19/1
f 2/10/3 1/9/3 9/23/3 12/24/3
f 9/25/4 1/16/4 3/15/4 11/26/4
f 10/27/2 4/14/2 2/13/2 12/28/2
f 13/29/5 14/30/5 15/31/5 16/32/5
f 12/24/3 9/23/3 14/33/3 13/34/3
f 10/27/2 12/28/2 13/29/2 16/32/2
f 9/25/4 11/26/4 15/35/4 14/36/4
f 18/37/6 19/38/6 20/39/6 17/40/6
f 5/18/4 6/17/4 18/37/4 17/40/4
f 8/4/1 5/3/1 17/41/1 20/42/1
f 6/12/3 7/11/3 19/42/3 18/43/3
f 24/44/7 23/45/7 25/46/7 28/47/7
f 26/48/8 27/49/8 28/50/8 25/51/8
f 21/52/9 22/53/9 27/54/9 26/55/9
f 22/56/10 24/57/10 28/58/10 27/59/10
f 23/60/11 21/61/11 26/48/11 25/51/11
f 23/45/7 24/44/7 30/62/7 31/63/7
f 22/53/9 21/52/9 29/64/9 32/65/9
f 29/66/11 21/61/11 23/60/11 31/67/11
f 30/68/10 24/57/10 22/56/10 32/69/10
s 0
f 58/70/8 57/70/8 55/70/8
f 58/70/8 56/70/8 57/70/8
s 1
f 36/71/12 40/72/13 37/73/14 35/74/12
f 39/75/15 45/76/16 46/7/16 40/77/15
f 33/78/17 38/79/18 39/80/18 34/81/17
f 34/82/19 39/75/15 40/77/15 36/83/19
f 35/84/20 37/85/21 38/86/21 33/87/20
f 41/88/20 42/89/20 35/84/20 33/87/20
f 44/90/22 43/91/22 46/92/22 45/93/22
f 37/85/21 43/91/23 44/90/23 38/86/21
f 40/72/13 46/94/24 43/95/24 37/73/14
f 38/79/18 44/96/25 45/97/25 39/80/18
f 50/98/26 54/99/27 51/100/27 49/101/26
f 52/102/28 51/103/28 54/104/28 53/105/28
f 47/106/29 52/107/30 53/108/30 48/109/29
f 48/110/31 53/111/32 54/112/32 50/113/31
f 49/114/33 51/103/34 52/102/34 47/115/33
f 49/101/26 57/116/35 56/117/35 50/98/26
f 48/109/29 58/118/36 55/119/36 47/106/29
f 55/120/37 57/121/37 49/114/33 47/115/33
f 56/122/38 58/123/38 48/110/31 50/113/31
usemtl None
f 60/124/39 62/125/40 63/126/41 61/127/42
f 66/128/43 59/129/43 67/130/43
f 67/130/44 59/129/44 65/129/44 64/130/44
f 62/125/40 60/124/39 68/131/45 66/128/46
f 70/132/47 71/133/48 72/134/49 73/135/50
f 76/136/51 77/137/52 69/138/53
f 77/137/54 75/139/54 74/140/54 69/138/54
f 73/135/50 76/136/55 78/141/56 70/132/47
