# Blender 4.3.2
# www.blender.org
mtllib hands.mtl
o right_wrist
v 49.651642 -90.687508 50.389286
v 2.722970 -16.922375 31.714083
v 82.706985 -90.687531 -32.675167
v 35.778313 -16.922409 -51.350361
v 8.483089 -121.026245 34.006317
v -5.390220 -47.261108 -67.733315
v 41.538429 -121.026245 -49.058117
v -38.445591 -47.261120 15.331127
v 0.059550 -127.233864 30.654200
v -46.869133 -53.468761 11.978998
v -13.813761 -53.468731 -71.085434
v 33.114910 -127.233887 -52.410236
v -157.849991 -68.141487 45.798733
v -237.713303 -27.977001 44.786469
v -156.410278 -67.531586 -43.587570
v -236.273590 -27.367109 -44.599831
v -181.967819 -116.115532 45.082939
v -260.391418 -75.341141 -45.315636
v -180.528107 -115.505615 -44.303364
v -261.831116 -75.951042 44.070671
v -185.114059 -122.373917 44.989555
v -264.977386 -82.209435 43.977295
v -263.537659 -81.599510 -45.409008
v -183.674362 -121.763992 -44.396744
v 50.527523 -90.806290 51.616371
v 2.948760 -15.094924 32.688602
v 84.270058 -90.714775 -32.981606
v 36.820740 -14.804348 -52.046661
v 7.990040 -122.777466 35.051018
v -4.897160 -45.509857 -68.778008
v 42.135620 -122.345848 -49.903507
v -39.042801 -45.941521 16.176529
v -0.982860 -129.351898 31.350489
v -48.432178 -53.441509 12.285448
v -14.689601 -53.349937 -72.312538
v 32.889122 -129.061295 -53.384766
v -156.396286 -67.144562 46.689911
v -237.797607 -26.206604 45.658157
v -154.928879 -66.522911 -44.417793
v -236.330185 -25.584957 -45.449543
v -181.042953 -116.596397 46.149021
v -261.316254 -74.860291 -46.381702
v -179.569290 -115.972084 -45.345554
v -262.789917 -75.484581 45.112869
v -266.458801 -83.218094 44.807526
v -264.991364 -82.596443 -46.300190
v -183.590057 -123.534401 -45.268436
v -215.729034 -37.942997 2.600080
v -242.406082 -37.986858 -8.677693
v -235.402008 -27.725649 18.839640
v -235.402008 -27.725634 -18.839661
v -215.729034 -37.942997 -2.600105
v -216.523346 -37.723053 3.471859
v -234.857620 -27.387310 -19.863472
v -216.523346 -37.723053 -3.471884
vn 0.7666 0.5650 0.3051
vn 0.5249 -0.8251 0.2089
vn 0.3697 -0.0000 -0.9291
vn -0.3697 -0.0000 0.9291
vn -0.5249 0.8251 -0.2089
vn -0.7666 -0.5650 -0.3051
vn 0.4491 0.8934 0.0133
vn 0.8933 -0.4493 0.0113
vn 0.0161 0.0068 -0.9998
vn -0.0161 -0.0068 0.9998
vn -0.8933 0.4493 -0.0113
vn -0.4491 -0.8934 -0.0133
vn -0.7693 -0.5595 -0.3085
vn -0.5275 0.8236 -0.2083
vn -0.5224 0.8275 -0.2059
vn -0.5275 0.8237 -0.2083
vn -0.3725 0.0001 0.9280
vn 0.3665 -0.0033 -0.9304
vn -0.5325 0.8198 -0.2107
vn 0.5249 -0.8256 0.2069
vn 0.7693 0.5595 0.3085
vn 0.5559 -0.8016 0.2201
vn -0.3540 0.0122 0.9352
vn 0.3790 0.0046 -0.9254
vn -0.0177 -0.0100 0.9998
vn 0.0145 0.0037 -0.9999
vn -0.8949 0.4461 -0.0114
vn 0.8917 -0.4524 0.0113
vn 0.9032 -0.4290 0.0116
vn -0.0060 0.0134 0.9999
vt 0.088896 0.937006
vt 0.048219 0.931936
vt 0.048219 0.837201
vt 0.088896 0.842270
vt 0.901862 0.715323
vt 0.901862 0.620587
vt 0.910051 0.621664
vt 0.910051 0.716399
vt 0.618332 0.508259
vt 0.653651 0.526093
vt 0.653651 0.612459
vt 0.618332 0.594626
vt 0.646387 0.702475
vt 0.611105 0.720289
vt 0.611105 0.633918
vt 0.646387 0.616104
vt 0.861836 0.710061
vt 0.861836 0.615326
vt 0.008190 0.937198
vt 0.008190 0.842462
vt 0.950069 0.616594
vt 0.950069 0.711329
vt -0.000000 0.938274
vt -0.000000 0.843539
vt 0.611105 0.590977
vt 0.611105 0.504610
vt 0.653606 0.612459
vt 0.653606 0.698830
vt 0.409034 0.923098
vt 0.339589 0.912231
vt 0.339589 0.818030
vt 0.409034 0.828897
vt 0.851504 0.417851
vt 0.851504 0.323690
vt 0.854374 0.324193
vt 0.854374 0.418353
vt 0.928286 0.117851
vt 0.959692 0.117065
vt 0.959692 0.211238
vt 0.928286 0.212024
vt 0.930624 0.811341
vt 0.899191 0.810592
vt 0.899191 0.716399
vt 0.930624 0.717149
vt 0.829509 0.413999
vt 0.829509 0.319838
vt 0.317785 0.916056
vt 0.317785 0.821855
vt 0.923271 0.313066
vt 0.923271 0.407226
vt 0.314941 0.916555
vt 0.314941 0.822354
vt 0.924189 0.212127
vt 0.924189 0.117953
vt 0.934725 0.717247
vt 0.934725 0.811439
vt 0.218576 0.938334
vt 0.218576 0.841832
vt 0.259095 0.836563
vt 0.259024 0.933227
vt 0.155778 0.921162
vt 0.146855 0.922129
vt 0.146785 0.825465
vt 0.155551 0.824198
vt 0.489287 0.618788
vt 0.489989 0.707148
vt 0.453562 0.724905
vt 0.453452 0.636741
vt 0.461178 0.597161
vt 0.461879 0.508806
vt 0.497897 0.526888
vt 0.497897 0.615014
vt 0.196826 0.915591
vt 0.196826 0.819090
vt 0.299856 0.841692
vt 0.299628 0.938657
vt 0.105663 0.916860
vt 0.105663 0.820359
vt 0.309065 0.843100
vt 0.309065 0.939602
vt 0.497852 0.615014
vt 0.497852 0.703145
vt 0.453452 0.593263
vt 0.453561 0.505104
vt 0.827826 0.224380
vt 0.827826 0.128406
vt 0.898051 0.117065
vt 0.898051 0.213038
vt 0.894209 0.716933
vt 0.894209 0.813347
vt 0.861836 0.812406
vt 0.861836 0.716399
vt 0.616142 0.817323
vt 0.616142 0.720928
vt 0.648427 0.720289
vt 0.648427 0.816276
vt 0.864386 0.915987
vt 0.842101 0.920151
vt 0.842101 0.823728
vt 0.864386 0.819972
vt 0.920832 0.120800
vt 0.920832 0.217182
vt 0.924189 0.121642
vt 0.924189 0.217616
vt 0.899191 0.717290
vt 0.899191 0.813296
s 1
usemtl Material.004
f 3/1/1 4/2/1 2/3/1 1/4/1
f 7/5/2 5/6/2 9/7/2 12/8/2
f 6/9/3 4/10/3 3/11/3 7/12/3
f 5/13/4 1/14/4 2/15/4 8/16/4
f 3/17/2 1/18/2 5/6/2 7/5/2
f 2/3/5 4/2/5 6/19/5 8/20/5
f 9/7/6 10/21/6 11/22/6 12/8/6
f 8/20/5 6/19/5 11/23/5 10/24/5
f 6/9/3 7/12/3 12/25/3 11/26/3
f 5/13/4 8/16/4 10/27/4 9/28/4
f 15/29/7 16/30/7 14/31/7 13/32/7
f 19/33/8 17/34/8 21/35/8 24/36/8
f 18/37/9 16/38/9 15/39/9 19/40/9
f 17/41/10 13/42/10 14/43/10 20/44/10
f 15/45/8 13/46/8 17/34/8 19/33/8
f 14/31/11 16/30/11 18/47/11 20/48/11
f 21/35/12 22/49/12 23/50/12 24/36/12
f 20/48/11 18/47/11 23/51/11 22/52/11
f 18/37/9 19/40/9 24/53/9 23/54/9
f 17/41/10 20/44/10 22/55/10 21/56/10
f 27/57/13 25/58/13 26/59/13 28/60/13
f 31/61/14 36/62/15 33/63/15 29/64/16
f 30/65/17 31/66/17 27/67/17 28/68/17
f 29/69/18 32/70/18 26/71/18 25/72/18
f 27/73/19 31/61/14 29/64/16 25/74/19
f 26/59/20 32/75/20 30/76/20 28/60/20
f 33/63/21 36/62/21 35/77/21 34/78/21
f 32/75/22 34/79/22 35/80/22 30/76/22
f 30/65/23 35/81/23 36/82/23 31/66/23
f 29/69/24 33/83/24 34/84/24 32/70/24
f 39/85/12 37/86/12 38/87/12 40/88/12
f 42/89/25 43/90/25 39/91/25 40/92/25
f 41/93/26 44/94/26 38/95/26 37/96/26
f 39/97/27 43/98/27 41/99/27 37/100/27
f 38/87/28 44/101/28 42/102/28 40/88/28
f 44/101/29 45/103/29 46/104/29 42/102/29
f 42/89/30 46/105/30 47/106/30 43/90/30
l 53 55
l 48 52
