# Blender 4.3.2
# www.blender.org
mtllib arms.mtl
o left_arm
v -87.403954 -117.762329 -83.889259
v -97.095642 -66.156532 -89.968834
v -59.314880 -117.762329 -128.667053
v -69.006577 -66.156532 -134.746658
v 32.601883 -86.356384 -8.609733
v 50.999264 -34.750587 -59.467148
v 60.690964 -86.356392 -53.387554
v 22.910191 -34.750576 -14.689329
v -252.976105 -106.950981 -187.752487
v -243.284409 -158.556778 -181.672867
v -224.887070 -106.950981 -232.530319
v -215.195358 -158.556778 -226.450699
v -276.072388 -112.995346 -202.240723
v -266.380646 -164.601151 -196.161102
v -238.291595 -164.601151 -240.938919
v -247.983292 -112.995346 -247.018524
v -290.328552 -116.726234 -211.183594
v -280.636810 -168.332047 -205.104004
v -252.547806 -168.332047 -249.881836
v -262.239502 -116.726250 -255.961426
v -303.217072 -120.099197 -219.268524
v -293.525360 -171.705017 -213.188919
v -265.436310 -171.705017 -257.966797
v -275.128021 -120.099220 -264.046387
v -130.500122 -224.875275 78.281601
v -165.910248 -188.296188 92.499245
v -150.816833 -225.577621 29.488308
v -186.226944 -188.998550 43.705944
v -38.328461 -120.146072 38.395351
v -94.055298 -84.269325 3.819688
v -58.645176 -120.848419 -10.397953
v -73.738602 -83.566963 52.613003
v -60.609596 -68.649254 46.931557
v -25.199463 -105.228363 32.713917
v -45.516159 -105.930702 -16.079386
v -222.814590 -307.384460 60.644520
v -258.224701 -270.805328 74.862175
v -237.908020 -270.102966 123.655457
v -202.497894 -306.682068 109.437851
v -87.664139 -118.492142 -83.170013
v -97.629951 -65.426704 -89.421570
v -58.780571 -118.492142 -129.214340
v -68.746391 -65.426704 -135.465912
v 32.341705 -87.086197 -7.890498
v 51.259434 -34.020771 -60.186382
v 61.225258 -87.086205 -53.934837
v 22.375885 -34.020756 -14.142047
v -243.544601 -159.286591 -180.953644
v -224.626862 -106.221176 -233.249557
v -214.661072 -159.286621 -226.997986
v -276.606659 -112.265526 -201.693436
v -266.640839 -165.330948 -195.441864
v -237.757294 -165.330948 -241.486191
v -247.723114 -112.265533 -247.737762
v -290.862823 -115.996422 -210.636322
v -280.897003 -169.061859 -204.384750
v -252.013519 -169.061859 -250.429092
v -261.979340 -115.996437 -256.680695
v -305.774292 -120.058372 -220.152161
v -295.858795 -172.855957 -213.932175
v -267.121033 -172.855988 -259.744141
v -277.036560 -120.058395 -265.964111
v -126.906204 -224.287018 80.382271
v -165.352249 -187.378815 93.763474
v -151.374802 -226.494980 28.224079
v -189.820877 -189.586777 41.605278
v -34.734535 -119.557816 40.496025
v -97.649231 -84.857574 1.719018
v -59.203163 -121.765785 -11.662181
v -73.180611 -82.649605 53.877220
v -59.668179 -67.470490 48.118248
v -21.504095 -104.460327 34.778522
v -45.010132 -105.908356 -17.009077
v -81.370392 -68.543182 -2.636221
v -223.756042 -308.563171 59.457825
v -261.920135 -271.573364 72.797569
v -238.414062 -270.125305 124.585167
v -202.053787 -307.490509 110.212326
v -80.047348 -72.305893 6.626259
v -76.673538 -74.781090 10.667046
v -72.206909 -78.048073 12.124942
v -55.685265 -96.594521 -0.000032
v -53.586010 -99.499336 -0.000033
v -58.459057 -95.873795 -6.829005
v -66.627861 -0.583028 0.000000
v -76.221191 -75.149879 9.640248
v -72.087875 -78.145416 10.953914
v -58.724072 -93.026131 5.476938
v -56.857601 -96.451080 -0.000032
v -59.353828 -95.993187 -6.067378
vn 0.5314 -0.0000 -0.8471
vn -0.5314 -0.0000 0.8471
vn -0.1834 0.9763 -0.1150
vn 0.1834 -0.9763 0.1150
vn -0.8270 -0.2164 -0.5188
vn -0.3844 -0.0133 -0.9231
vn 0.3844 0.0133 0.9231
vn -0.6699 0.6920 0.2690
vn 0.6699 -0.6920 -0.2690
vn -0.6352 -0.7218 0.2749
vn -0.5343 -0.0008 0.8453
vn 0.5285 -0.0008 -0.8490
vn -0.1862 0.9755 -0.1168
vn 0.1804 -0.9771 0.1132
vn -0.5283 0.0008 0.8491
vn 0.1865 -0.9755 0.1170
vn 0.1896 -0.9746 0.1189
vn -0.1802 0.9771 -0.1131
vn 0.5345 0.0008 -0.8452
vn 0.8270 0.2164 0.5188
vn 0.5376 0.0016 -0.8432
vn -0.5251 0.0016 0.8510
vn -0.1771 0.9779 -0.1111
vn 0.3607 0.0370 0.9319
vn 0.3606 0.0373 0.9320
vn -0.3625 -0.0169 -0.9318
vn 0.6645 -0.6919 -0.2824
vn 0.6644 -0.6920 -0.2823
vn -0.6642 0.6948 0.2758
vn -0.6648 0.6942 0.2758
vn -0.6642 0.6935 0.2790
vn 0.6543 -0.7060 -0.2710
vn 0.3605 0.0377 0.9320
vn -0.3605 -0.0377 -0.9320
vn -0.3601 -0.0367 -0.9322
vn -0.6649 0.6914 0.2826
vn 0.6643 -0.6921 -0.2823
vn -0.6193 -0.7292 0.2910
vn -0.6655 0.6907 0.2829
vn 0.3265 -0.0243 0.9449
vn -0.3597 -0.0357 -0.9324
vn 0.6193 0.7292 -0.2910
vt 0.776325 0.122652
vt 0.667023 0.122652
vt 0.667023 0.029896
vt 0.776325 0.029896
vt 0.667023 0.281965
vt 0.776325 0.281965
vt 0.776325 0.374722
vt 0.667023 0.374722
vt 0.418003 0.683991
vt 0.308702 0.683991
vt 0.308702 0.591235
vt 0.418003 0.591235
vt 0.000000 0.645059
vt 0.109302 0.645059
vt 0.109302 0.737815
vt 0.000000 0.737815
vt 0.776325 0.194061
vt 0.667023 0.194061
vt 0.667023 0.210556
vt 0.776325 0.210556
vt 0.109302 0.573650
vt 0.000000 0.573650
vt 0.308702 0.755400
vt 0.418003 0.755400
vt 0.667023 0.016152
vt 0.776325 0.016152
vt 0.667023 0.007669
vt 0.776325 0.007669
vt 0.109302 0.751559
vt 0.000000 0.751559
vt 0.308702 0.577491
vt 0.418003 0.577491
vt 0.776325 0.388465
vt 0.667023 0.388465
vt 0.418003 0.569008
vt 0.308702 0.569008
vt 0.308702 0.561339
vt 0.418003 0.561339
vt 0.109302 0.760042
vt 0.000000 0.760042
vt 0.776325 0.396948
vt 0.667023 0.396948
vt 0.826991 0.986613
vt 0.826991 0.877333
vt 0.936053 0.877188
vt 0.936053 0.986468
vt 0.776325 0.404617
vt 0.667023 0.404617
vt 0.667023 0.000000
vt 0.776325 -0.000000
vt 0.109302 0.767711
vt 0.000000 0.767711
vt 0.450469 0.488182
vt 0.450469 0.289940
vt 0.554630 0.307449
vt 0.554630 0.505691
vt 0.313840 0.561339
vt 0.313840 0.362999
vt 0.418003 0.345502
vt 0.418003 0.543841
vt 0.418003 0.543700
vt 0.418003 0.345458
vt 0.281395 0.505920
vt 0.281395 0.307580
vt 0.450469 0.036150
vt 0.554630 0.053660
vt 0.313840 0.109084
vt 0.418003 0.091587
vt 0.281395 0.053665
vt 0.418003 0.091668
vt 0.281395 0.017497
vt 0.313840 0.072916
vt 0.418003 0.055419
vt 0.522164 0.561210
vt 0.667023 0.490583
vt 0.667023 0.583339
vt 0.554630 0.583339
vt 0.554630 0.490583
vt 0.554630 0.123916
vt 0.554630 0.031159
vt 0.667023 0.031159
vt 0.667023 0.123916
vt 0.554630 0.419174
vt 0.667023 0.419174
vt 0.530396 0.685125
vt 0.530396 0.756535
vt 0.418003 0.756535
vt 0.418003 0.685125
vt 0.667023 0.195325
vt 0.554630 0.195325
vt 0.554630 0.214341
vt 0.667023 0.214341
vt 0.667023 0.285750
vt 0.554630 0.285750
vt 0.667023 0.597082
vt 0.554630 0.597082
vt 0.667023 0.605565
vt 0.554630 0.605565
vt 0.554630 0.017416
vt 0.667023 0.017416
vt 0.667023 0.400733
vt 0.666740 0.409666
vt 0.554914 0.409666
vt 0.554630 0.400733
vt 0.554630 0.008933
vt 0.667023 0.008933
vt 0.667023 0.392249
vt 0.554630 0.392249
vt 0.418003 0.578626
vt 0.418003 0.570143
vt 0.530396 0.570143
vt 0.530396 0.578626
vt 0.957505 0.726442
vt 0.845950 0.726307
vt 0.845950 0.614498
vt 0.957505 0.614634
vt 0.418287 0.561210
vt 0.530113 0.561210
vt 0.666740 0.614498
vt 0.554914 0.614498
vt 0.554914 -0.000000
vt 0.666740 0.000000
vt 0.106892 0.490582
vt 0.000142 0.508539
vt 0.000000 0.309521
vt 0.106989 0.291878
vt 0.247630 0.565276
vt 0.141190 0.547277
vt 0.140688 0.347586
vt 0.247674 0.365247
vt 0.140185 0.547417
vt 0.140688 0.347625
vt 0.281253 0.508308
vt 0.281395 0.309388
vt 0.106989 0.037963
vt 0.106944 0.000000
vt 0.140545 0.056864
vt 0.140688 0.093710
vt 0.000000 0.055606
vt 0.140688 0.093796
vt 0.247674 0.111457
vt 0.281395 0.055598
vt 0.140830 0.056968
vt 0.174453 -0.000000
vt 0.280893 0.017999
vt 0.247577 0.074943
vt 0.000502 0.017986
vt 0.033743 0.565403
vt 0.000000 0.000000
s 1
usemtl Material.013
f 4/1/1 3/2/1 12/3/1 11/4/1
f 1/5/2 2/6/2 9/7/2 10/8/2
f 2/9/3 4/10/3 11/11/3 9/12/3
f 3/13/4 1/14/4 10/15/4 12/16/4
f 3/2/1 4/1/1 6/17/1 7/18/1
f 2/6/2 1/5/2 5/19/2 8/20/2
f 5/21/4 1/14/4 3/13/4 7/22/4
f 6/23/3 4/10/3 2/9/3 8/24/3
f 11/4/1 12/3/1 15/25/1 16/26/1
f 16/26/1 15/25/1 19/27/1 20/28/1
f 12/16/4 10/15/4 14/29/4 15/30/4
f 9/12/3 11/11/3 16/31/3 13/32/3
f 10/8/2 9/7/2 13/33/2 14/34/2
f 17/35/3 20/36/3 24/37/3 21/38/3
f 15/30/4 14/29/4 18/39/4 19/40/4
f 13/32/3 16/31/3 20/36/3 17/35/3
f 14/34/2 13/33/2 17/41/2 18/42/2
f 22/43/5 21/44/5 24/45/5 23/46/5
f 18/42/2 17/41/2 21/47/2 22/48/2
f 20/28/1 19/27/1 23/49/1 24/50/1
f 19/40/4 18/39/4 22/51/4 23/52/4
f 37/53/6 28/54/6 27/55/6 36/56/6
f 39/57/7 25/58/7 26/59/7 38/60/7
f 38/61/8 26/62/8 28/54/8 37/53/8
f 36/63/9 27/64/9 25/58/9 39/57/9
f 27/55/6 28/54/6 30/65/6 31/66/6
f 26/59/7 25/58/7 29/67/7 32/68/7
f 29/67/9 25/58/9 27/64/9 31/69/9
f 30/65/8 28/54/8 26/62/8 32/70/8
f 29/67/9 31/69/9 35/71/9 34/72/9
f 32/68/7 29/67/7 34/72/7 33/73/7
f 36/56/10 39/74/10 38/61/10 37/53/10
f 43/75/2 49/76/2 50/77/2 42/78/2
f 42/79/3 50/80/3 48/81/3 40/82/3
f 42/78/2 46/83/11 45/84/11 43/75/2
f 41/85/1 47/86/12 44/87/12 40/88/1
f 44/89/13 46/90/13 42/79/3 40/82/3
f 45/91/14 47/92/14 41/93/4 43/94/4
f 49/76/2 54/95/2 53/96/2 50/77/2
f 54/95/2 58/97/15 57/98/15 53/96/2
f 50/80/3 53/99/3 52/100/3 48/81/3
f 55/101/16 59/102/17 62/103/17 58/104/16
f 53/99/3 57/105/18 56/106/18 52/100/3
f 51/107/4 55/101/16 58/104/16 54/108/4
f 52/109/1 56/110/19 55/111/19 51/112/1
f 60/113/20 61/114/20 62/115/20 59/116/20
f 56/110/19 60/117/21 59/118/21 55/111/19
f 58/97/15 62/119/22 61/120/22 57/98/15
f 57/105/18 61/121/23 60/122/23 56/106/18
f 76/123/24 75/124/24 65/125/25 66/126/25
f 78/127/26 77/128/26 64/129/26 63/130/26
f 77/131/27 76/123/27 66/126/28 64/132/28
f 75/133/29 78/127/29 63/130/30 65/134/31
f 68/135/32 74/136/32 71/137/32 70/138/32
f 65/125/25 69/139/33 68/135/33 66/126/25
f 64/129/34 70/140/35 67/141/35 63/130/34
f 67/141/36 69/142/36 65/134/31 63/130/30
f 68/135/37 70/138/37 64/132/28 66/126/28
f 71/143/38 74/144/38 73/145/38 72/146/38
f 67/141/36 72/146/39 73/145/39 69/142/36
f 69/139/40 73/147/40 74/136/40 68/135/40
f 70/140/35 71/143/41 72/146/41 67/141/35
f 75/124/42 76/123/42 77/131/42 78/148/42
s 0
f 44/149/5 47/149/5 45/149/5
f 46/149/5 44/149/5 45/149/5
l 79 80
l 82 83
l 86 87
l 80 81
l 83 84
