# Blender 4.3.2
# www.blender.org
mtllib hands.mtl
o left_arm
v 76.178070 -20.810188 18.725548
v 113.958839 -72.415993 -19.972670
v 104.267151 -20.810198 -26.052259
v 56.716919 -80.045387 6.517602
v 75.114296 -28.439600 -44.339806
v 84.805984 -80.045387 -38.260220
v 47.025230 -28.439594 0.438007
v -24.360941 -27.462036 31.245363
v -9.267505 -64.743492 -31.765600
v -70.099159 -57.049355 -6.547076
v -34.689018 -93.628448 -20.764717
v -49.782463 -56.346992 42.246231
v 87.778305 -72.456825 26.722885
v 77.862793 -19.659231 20.502893
v 116.516075 -72.456825 -19.089031
v 106.600563 -19.659239 -25.309025
v 56.456741 -80.775215 7.236837
v 75.374474 -27.709782 -45.059044
v 85.340286 -80.775215 -38.807491
v 46.490913 -27.709774 0.985280
v 14.744561 -63.273113 19.092339
v -23.419514 -26.283279 32.432060
v -8.761481 -64.721146 -32.695293
v -45.121746 -27.355980 -18.322430
v -10.778392 -92.337852 30.129267
v -73.693092 -57.637608 -8.647737
v -35.247021 -94.545830 -22.028944
v -49.224468 -55.429630 43.510456
v 85.853134 -38.334583 11.008325
v 87.593193 -38.577404 9.162005
v 87.699600 -39.423111 9.516932
v -28.836706 -54.698029 12.353857
v -66.627861 -0.583028 0.000000
v 87.579155 -38.298985 9.175200
vn 0.5314 -0.0000 -0.8471
vn -0.1834 0.9763 -0.1150
vn 0.5991 0.7373 -0.3123
vn -0.8270 -0.2164 -0.5188
vn -0.5298 0.0004 0.8481
vn -0.5344 -0.0008 0.8452
vn 0.5330 0.0004 -0.8461
vn 0.5284 -0.0008 -0.8490
vn -0.1863 0.9755 -0.1169
vn -0.1818 0.9767 -0.1140
vn -0.1817 0.9767 -0.1140
vn 0.1803 -0.9771 0.1131
vn 0.1849 -0.9759 0.1160
vn -0.6193 -0.7292 0.2910
vn 0.3472 -0.0007 0.9378
vn -0.3603 -0.0365 -0.9321
vn -0.6649 0.6914 0.2826
vn 0.6600 -0.6996 -0.2738
vn 0.8270 0.2164 0.5188
vt 0.266778 0.832134
vt 0.284125 0.832134
vt 0.284125 0.941435
vt 0.266778 0.941435
vt 0.701925 0.768903
vt 0.701925 0.878204
vt 0.684577 0.878204
vt 0.684577 0.768903
vt 0.000000 0.000000
vt 0.938571 0.877041
vt 0.826991 0.877189
vt 0.826991 0.765385
vt 0.938571 0.765237
vt 0.277609 0.719741
vt 0.277609 0.832134
vt 0.259001 0.831850
vt 0.259001 0.720024
vt 0.900003 0.377016
vt 0.900003 0.264623
vt 0.918611 0.264907
vt 0.918611 0.376732
vt 0.136950 0.677512
vt 0.118342 0.677796
vt 0.118342 0.565403
vt 0.136950 0.565686
vt 0.894543 0.000284
vt 0.913151 -0.000000
vt 0.913151 0.112393
vt 0.894543 0.112109
vt 0.272293 0.565276
vt 0.248937 0.626978
vt 0.140688 0.627053
vt 0.164342 0.565276
vt 0.666693 0.685328
vt 0.558260 0.684899
vt 0.570665 0.614498
vt 0.678616 0.614498
vt 0.260764 0.696338
vt 0.152331 0.696762
vt 0.284701 0.635639
vt 0.702274 0.676165
vt 0.690633 0.745911
s 1
usemtl Material.013
f 5/1/1 3/2/1 2/3/1 6/4/1
f 1/5/2 3/6/2 5/7/2 7/8/2
s 0
f 28/9/3 25/9/3 27/9/3
s 1
f 15/10/4 13/11/4 14/12/4 16/13/4
f 18/14/5 19/15/5 15/16/6 16/17/6
f 17/18/7 20/19/7 14/20/8 13/21/8
f 15/22/9 19/23/10 17/24/11 13/25/9
f 14/26/12 20/27/13 18/28/13 16/29/12
f 23/30/14 21/31/14 22/32/14 24/33/14
f 26/34/15 27/35/15 23/36/15 24/37/15
f 25/38/16 28/39/16 22/32/16 21/31/16
f 23/30/17 27/40/17 25/38/17 21/31/17
f 22/41/18 28/42/18 26/34/18 24/37/18
s 0
f 26/9/3 28/9/3 27/9/3
f 20/9/19 17/9/19 19/9/19
f 20/9/19 19/9/19 18/9/19
l 4 7
l 4 6
l 8 12
l 9 11
l 29 30
l 10 11
l 10 12
