# Blender 4.3.2
# www.blender.org
mtllib wrists.mtl
o left_arm
v 21.692072 -188.801132 -56.496922
v 53.188946 -98.131706 -150.300018
v 74.869881 -189.262421 -135.096649
v 0.011130 -97.670441 -71.700287
v 61.736874 -174.767868 -29.486364
v 93.233749 -84.098480 -123.289436
v 114.914673 -175.229187 -108.086067
v 40.055939 -83.637199 -44.689728
v 55.393139 -176.990967 -33.765255
v 33.712212 -85.860283 -48.968616
v 86.890022 -86.321564 -127.568329
v 108.570946 -177.452255 -112.364975
v -50.699692 -199.200043 73.059288
v -144.261398 -127.998985 8.339601
v -85.552086 -198.743195 -15.207961
v -109.408989 -128.455841 96.606857
v -91.286812 -111.064766 89.541290
v -32.577511 -181.808975 65.993752
v -67.429893 -181.352127 -22.273504
v -126.139198 -110.607925 1.274037
v -15.763671 -165.673492 59.438324
v -109.325356 -94.472427 -5.281396
v -50.616051 -165.216614 -28.828934
v -74.472977 -94.929260 82.985870
v -21.049490 -170.746048 61.499176
v -79.758789 -100.001839 85.046722
v -114.611183 -99.544983 -3.220555
v -55.901882 -170.289200 -26.768084
v 52.802883 -181.968384 -29.632721
v 28.905882 -81.522972 -46.390079
v 111.416130 -182.476807 -116.266335
v 87.519127 -82.031395 -133.023682
v 27.978439 -190.667831 -46.377010
v 62.694714 -90.730843 -149.767960
v 86.591698 -191.176254 -133.010605
v 4.081440 -90.222435 -63.134357
v 91.311882 -80.702278 -130.465454
v 115.208878 -181.147705 -113.708107
v 56.595623 -180.639267 -27.074486
v 32.698620 -80.193863 -43.831825
v 78.229721 -194.106628 -138.650848
v 19.616440 -193.598190 -52.017239
v -4.280560 -93.152802 -68.774582
v 54.332722 -93.661194 -155.408188
v 17.156309 -194.460312 -53.676620
v -6.740690 -94.014923 -70.433975
v 75.769585 -194.968750 -140.310226
v 51.872578 -94.523331 -157.067566
v 14.697380 -195.322021 -55.335197
v -9.199620 -94.876625 -72.092545
v 73.310661 -195.830444 -141.968796
v 49.413662 -95.385048 -158.726135
v -15.982811 -174.111298 64.695625
v -80.692955 -96.136124 90.650024
v -54.397572 -173.607727 -32.593697
v -119.107719 -95.632591 -6.639286
v -38.137550 -195.372223 73.333397
v -141.262436 -116.893509 1.998488
v -76.552299 -194.868668 -23.955931
v -102.847672 -117.397041 99.287819
v -42.400963 -199.463608 74.995644
v -80.815727 -198.960068 -22.293680
v -145.525864 -120.984924 3.660738
v -107.111099 -121.488457 100.950066
v -151.126633 -126.359756 5.844389
v -112.711876 -126.863274 103.133690
v -48.001751 -204.838455 77.179306
v -86.416504 -204.334915 -20.110020
v -151.958771 -127.158318 6.168809
v -113.544029 -127.661850 103.458160
v -48.833889 -205.637009 77.503746
v -87.248650 -205.133469 -19.785589
v -14.775169 -172.952377 64.224800
v -79.485306 -94.977196 90.179199
v -53.189930 -172.448807 -33.064545
v -117.900063 -94.473671 -7.110126
v 23.487671 -188.861496 -54.289425
v 55.530102 -96.621651 -149.717255
v 77.586563 -189.330780 -134.250534
v 1.431210 -96.152397 -69.756126
v 61.402790 -175.729584 -28.491432
v 93.567825 -83.136780 -124.284370
v 115.708679 -176.200653 -108.758492
v 39.261940 -82.665733 -44.017307
v 53.051991 -178.501038 -34.348034
v 30.995533 -85.791924 -49.814728
v 85.094414 -86.261177 -129.775848
v 107.150871 -178.970306 -114.309128
v -47.365410 -198.826675 75.016418
v -147.595688 -128.372360 6.382469
v -86.565979 -200.152939 -17.006121
v -108.395096 -127.046074 98.405006
v -89.775230 -109.363213 91.238739
v -29.014038 -181.121323 67.897301
v -66.728073 -181.388657 -23.516563
v -126.505814 -109.511612 0.317697
v -12.429390 -165.300125 61.395435
v -112.659630 -94.845787 -7.238516
v -51.629940 -166.626358 -30.627106
v -73.459068 -93.519516 84.784035
v -20.682890 -171.842377 62.455536
v -80.460625 -99.965286 86.289772
v -118.174660 -100.232666 -5.124095
v -57.413441 -171.990723 -28.465515
v 52.468800 -182.930069 -28.637793
v 112.210121 -183.448288 -116.938744
v 87.853203 -81.069702 -134.018600
v 27.644369 -191.629532 -45.382076
v 63.028778 -89.769135 -150.762894
v 87.385696 -192.147751 -133.683029
v 3.287450 -89.250946 -62.461937
v 93.653030 -79.192207 -129.882675
v 117.925552 -181.216064 -112.861977
v 58.391232 -180.699631 -24.866993
v 34.118702 -78.675797 -41.887669
v 79.023712 -195.078094 -139.323273
v 19.282362 -194.559875 -51.022320
v -5.074550 -92.181313 -68.102173
v 54.666805 -92.699516 -156.403122
v 16.822229 -195.422028 -52.681694
v -7.534690 -93.043449 -69.761559
v 76.563583 -195.940216 -140.982635
v 52.206661 -93.561638 -158.062500
v 12.356231 -196.832077 -55.917984
v -11.916290 -94.808258 -72.938660
v 71.890572 -197.348511 -143.912964
v 47.618053 -95.324661 -160.933640
v -12.648530 -173.737930 66.652763
v -79.679062 -94.726379 92.448181
v -55.411476 -175.017502 -34.391865
v -122.441994 -96.005959 -8.596405
v -34.803261 -194.998856 75.290527
v -144.596725 -117.266861 0.041368
v -77.566193 -196.278412 -25.754089
v -101.833794 -115.987297 101.085999
v -39.066681 -199.090271 76.952759
v -81.829613 -200.369843 -24.091841
v -148.860153 -121.358276 1.703608
v -106.097206 -120.078720 102.748215
v -154.460922 -126.733116 3.887269
v -111.697998 -125.453545 104.931854
v -44.667461 -204.465088 79.136421
v -87.430389 -205.744659 -21.908209
v -155.522247 -127.846008 4.265259
v -114.245865 -127.625313 104.701195
v -48.467281 -206.733353 78.460091
v -88.760216 -206.835007 -21.483019
v -11.211700 -172.264694 66.128334
v -77.973740 -93.275650 91.876648
v -52.488098 -172.485382 -34.307617
v -118.266663 -93.377342 -8.066486
v 55.129375 -181.084839 -77.471497
v 55.129375 -181.084854 -88.428688
v 61.915112 -187.870575 -88.428688
v 61.915112 -187.870560 -77.471497
v 63.814281 -183.923248 -79.900093
v 58.808704 -179.362900 -79.900093
v -78.469780 -141.576584 15.368774
v -78.469780 -141.576584 -14.468918
v -92.053795 -133.105560 -14.451180
v -63.969654 -142.236221 15.287413
v -96.475784 -122.231689 -14.415538
v -92.053795 -133.105560 15.351049
v -96.475784 -122.231689 15.315415
v 56.299995 -180.599960 -87.400093
v 56.299995 -180.599960 -78.500092
v 62.400002 -186.699951 -87.400093
v 62.400002 -186.699936 -78.500092
v 64.400002 -182.399948 -79.900093
v 60.299999 -178.699951 -79.900093
v -78.099998 -140.400009 14.299930
v -91.099998 -132.300003 -13.400065
v -78.099998 -140.400009 -13.400070
v -64.599998 -141.100006 14.299930
v -95.199997 -122.300003 -13.400061
v -91.099998 -132.300003 14.299933
v -95.199997 -122.300003 14.299939
vn 0.7961 0.2790 0.5370
vn 0.5604 -0.0049 -0.8282
vn -0.7961 -0.2790 -0.5370
vn -0.5604 0.0049 0.8282
vn 0.2285 -0.9603 0.1602
vn -0.2285 0.9603 -0.1602
vn -0.6186 0.7455 0.2481
vn 0.6946 0.6665 -0.2708
vn 0.6186 -0.7455 -0.2481
vn -0.3673 0.0048 -0.9301
vn 0.3673 -0.0048 0.9301
vn -0.6946 -0.6665 0.2708
vn -0.3672 0.0048 -0.9301
vn 0.3672 -0.0048 0.9301
vn -0.5464 0.0097 0.8375
vn 0.5742 -0.0000 -0.8187
vn -0.2145 0.9650 -0.1508
vn 0.2423 -0.9553 0.1696
vn 0.6103 -0.7526 -0.2472
vn 0.6176 -0.7455 -0.2508
vn -0.6872 -0.6694 0.2821
vn -0.6182 0.7443 0.2527
vn -0.6193 0.7432 0.2532
vn 0.3248 -0.0375 0.9450
vn -0.3602 -0.0021 -0.9329
vn -0.3594 -0.0012 -0.9332
vn 0.3583 0.0002 0.9336
vn 0.3559 -0.0023 0.9345
vn 0.3584 0.0003 0.9336
vn 0.6872 0.6694 -0.2821
vn -0.2512 0.1050 -0.9622
vn -0.5951 0.7667 0.2408
vn 0.6241 -0.7386 -0.2549
vn 0.6242 -0.7384 -0.2553
vn 0.6207 -0.7419 -0.2537
vn -0.2484 0.9530 -0.1736
vn -0.5801 -0.0021 0.8145
vn -0.2025 0.9688 -0.1427
vn 0.5859 0.0042 -0.8104
vn 0.2542 -0.9507 0.1776
vn -0.5342 0.0139 0.8452
vn 0.5545 -0.8016 -0.2236
vn -0.6172 0.7454 0.2518
vn 0.3614 0.0022 0.9324
vn -0.3614 -0.0022 -0.9324
vn 0.6172 -0.7454 -0.2518
vn -0.5420 0.8115 0.2184
vn 0.6879 0.6691 -0.2811
vn 0.6435 -0.7189 -0.2630
vn 0.3366 -0.0221 0.9414
vn -0.0528 0.2718 -0.9609
vn -0.6879 -0.6691 0.2811
vn 0.0916 -0.2410 0.9662
vn -0.3427 0.0162 -0.9393
vn -0.6386 0.7239 0.2610
vn 0.3835 0.9236 -0.0000
vn 0.9235 0.3836 -0.0000
vn 0.2977 0.9546 -0.0000
vn 0.2977 0.9546 0.0003
vn 0.7647 0.6443 -0.0000
vn 0.9263 0.3767 -0.0000
vn -0.3834 -0.9236 -0.0000
vn -0.9235 -0.3836 -0.0000
vn -0.3003 -0.9539 -0.0001
vn -0.7640 -0.6452 -0.0000
vn -0.3002 -0.9539 -0.0000
vn -0.9253 -0.3794 -0.0000
vt 0.607558 0.882154
vt 0.607558 0.990966
vt 0.500342 0.992647
vt 0.500342 0.883834
vt 0.954117 0.311735
vt 0.954117 0.420911
vt 0.951217 0.420911
vt 0.951217 0.311735
vt 0.611287 0.970764
vt 0.611287 0.861935
vt 0.718561 0.863552
vt 0.718561 0.972381
vt 0.971811 0.635871
vt 0.971811 0.526695
vt 0.974711 0.526695
vt 0.974711 0.635871
vt 0.967493 -0.000000
vt 0.967493 0.109177
vt 0.964593 0.109177
vt 0.964593 -0.000000
vt 0.973675 0.298259
vt 0.973675 0.189083
vt 0.976575 0.189083
vt 0.976575 0.298259
vt 0.858391 0.631620
vt 0.902551 0.580638
vt 0.902551 0.599786
vt 0.858391 0.650768
vt 0.500342 0.057630
vt 0.392545 0.064903
vt 0.376387 0.007273
vt 0.484184 -0.000000
vt 0.858391 0.278994
vt 0.814118 0.228213
vt 0.814118 0.209031
vt 0.858391 0.259812
vt 0.361013 0.032055
vt 0.253216 0.024780
vt 0.252424 -0.000000
vt 0.360220 0.007275
vt 0.499550 0.082412
vt 0.391754 0.089685
vt 0.318344 0.789388
vt 0.318344 0.897430
vt 0.311148 0.898147
vt 0.311148 0.790105
vt 0.252424 0.885907
vt 0.252424 0.777865
vt 0.237708 0.943945
vt 0.237708 0.835903
vt 0.244905 0.836620
vt 0.244905 0.944662
vt 0.713882 0.698680
vt 0.713882 0.631309
vt 0.717559 0.627092
vt 0.717559 0.694462
vt 0.929433 0.307513
vt 0.929433 0.240065
vt 0.933089 0.244286
vt 0.933089 0.311735
vt 0.971099 0.777100
vt 0.971099 0.897436
vt 0.969366 0.897436
vt 0.969366 0.777100
vt 0.982646 0.177924
vt 0.982646 0.298259
vt 0.978824 0.298259
vt 0.978824 0.177924
vt 0.979731 0.300575
vt 0.991078 0.300575
vt 0.991078 0.420911
vt 0.979731 0.420911
vt 0.982447 0.897436
vt 0.982447 0.777100
vt 0.993994 0.177924
vt 0.993994 0.298259
vt 0.976445 0.647030
vt 0.976445 0.526695
vt 0.987792 0.526695
vt 0.987792 0.647030
vt 0.991615 0.526695
vt 0.991615 0.647030
vt 0.975908 0.420911
vt 0.975908 0.300575
vt 0.986269 0.777100
vt 0.986269 0.897436
vt 0.376387 0.899571
vt 0.376387 0.779636
vt 0.494562 0.777784
vt 0.494562 0.897718
vt 0.995727 0.177924
vt 0.995727 0.298259
vt 0.974711 0.647030
vt 0.992812 0.300575
vt 0.992812 0.420911
vt 0.977699 0.298259
vt 0.977699 0.177924
vt 0.976575 0.177924
vt 0.974784 0.420911
vt 0.974784 0.300575
vt 0.987394 0.777100
vt 0.987394 0.897436
vt 0.992739 0.526695
vt 0.992739 0.647030
vt 0.839249 0.778882
vt 0.839249 0.898836
vt 0.721011 0.897053
vt 0.721011 0.777100
vt 0.988518 0.777100
vt 0.988518 0.897436
vt 0.993863 0.526695
vt 0.993863 0.647030
vt 0.973660 0.420911
vt 0.973660 0.300575
vt 0.970195 0.654364
vt 0.970195 0.728706
vt 0.969360 0.727742
vt 0.969360 0.653399
vt 0.971620 0.502617
vt 0.968654 0.506018
vt 0.968654 0.431761
vt 0.971620 0.428360
vt 0.802615 0.012040
vt 0.832775 0.009034
vt 0.832775 0.128119
vt 0.802615 0.131125
vt 0.596725 0.871829
vt 0.566561 0.868824
vt 0.566561 0.749739
vt 0.596725 0.752744
vt 0.953244 0.523694
vt 0.953244 0.449437
vt 0.985521 0.672057
vt 0.985521 0.746400
vt 0.988471 0.749805
vt 0.988471 0.675462
vt 0.796811 0.012619
vt 0.796811 0.131703
vt 0.602529 0.753323
vt 0.602529 0.872407
vt 0.992345 0.754278
vt 0.992345 0.679935
vt 0.975516 0.498148
vt 0.975516 0.423891
vt 0.789187 0.013378
vt 0.789187 0.132463
vt 0.610154 0.873167
vt 0.610154 0.754082
vt 0.976094 0.423227
vt 0.976094 0.497484
vt 0.788054 0.013491
vt 0.788054 0.132576
vt 0.723327 0.119085
vt 0.723327 0.000000
vt 0.992921 0.680600
vt 0.992921 0.754943
vt 0.611287 0.754195
vt 0.611287 0.873280
vt 0.500342 0.882154
vt 0.500342 0.763069
vt 0.564917 0.749575
vt 0.564917 0.868660
vt 0.834419 0.008870
vt 0.834419 0.127955
vt 0.952404 0.524658
vt 0.952404 0.450401
vt 0.611287 0.749575
vt 0.720419 0.751220
vt 0.720419 0.861935
vt 0.611287 0.860290
vt 0.923038 0.311735
vt 0.926884 0.311947
vt 0.926884 0.423015
vt 0.923038 0.423227
vt 0.948322 0.887797
vt 0.839249 0.889507
vt 0.839249 0.778810
vt 0.948322 0.777100
vt 0.906397 0.534720
vt 0.902551 0.534507
vt 0.902551 0.423440
vt 0.906397 0.423227
vt 0.923038 0.534720
vt 0.926884 0.534932
vt 0.926884 0.646000
vt 0.923038 0.646212
vt 0.930730 0.423227
vt 0.930730 0.311735
vt 0.721011 0.229479
vt 0.721880 0.209031
vt 0.767621 0.260737
vt 0.767598 0.280362
vt 0.000000 0.058759
vt 0.016650 0.000000
vt 0.126216 0.007368
vt 0.109859 0.066058
vt 0.814094 0.581898
vt 0.814118 0.601260
vt 0.768163 0.652903
vt 0.767621 0.632994
vt 0.141688 0.033321
vt 0.142858 0.007366
vt 0.251753 0.026152
vt 0.000704 0.084015
vt 0.110769 0.091188
vt 0.180496 0.719682
vt 0.188035 0.720531
vt 0.187946 0.830632
vt 0.180267 0.829980
vt 0.247547 0.817960
vt 0.247547 0.708146
vt 0.508911 0.742606
vt 0.500342 0.743285
vt 0.500342 0.633471
vt 0.508682 0.632307
vt 0.682855 0.658147
vt 0.686853 0.662657
vt 0.686853 0.731771
vt 0.681679 0.727206
vt 0.649368 0.631495
vt 0.653991 0.627092
vt 0.654417 0.696138
vt 0.650548 0.700472
vt 0.957576 0.000000
vt 0.961398 0.000000
vt 0.961398 0.122652
vt 0.957576 0.122652
vt 0.962342 0.653399
vt 0.962342 0.776051
vt 0.950995 0.776051
vt 0.950995 0.653399
vt 0.946228 0.000000
vt 0.946228 0.122652
vt 0.955339 0.899752
vt 0.951517 0.899752
vt 0.951517 0.777100
vt 0.955339 0.777100
vt 0.966165 0.653399
vt 0.966165 0.776051
vt 0.940107 0.311735
vt 0.936284 0.311735
vt 0.936284 0.189083
vt 0.940107 0.189083
vt 0.120096 0.831882
vt 0.000000 0.830071
vt 0.000000 0.708233
vt 0.120096 0.710043
vt 0.943550 0.122439
vt 0.943550 0.000212
vt 0.948316 0.775839
vt 0.948316 0.653612
vt 0.962523 0.000000
vt 0.962523 0.122652
vt 0.964593 0.000212
vt 0.964593 0.122439
vt 0.967289 0.653399
vt 0.967289 0.776051
vt 0.935160 0.311735
vt 0.935160 0.189083
vt 0.950392 0.899752
vt 0.950392 0.777100
vt 0.721011 0.655281
vt 0.841043 0.653399
vt 0.841043 0.775219
vt 0.933089 0.311522
vt 0.933089 0.189295
vt 0.948322 0.899539
vt 0.948322 0.777313
vt 0.969360 0.653612
vt 0.969360 0.775839
vt 0.929221 0.525363
vt 0.926884 0.526695
vt 0.926884 0.450774
vt 0.928042 0.449501
vt 0.947474 0.548847
vt 0.946298 0.624799
vt 0.943327 0.621413
vt 0.944503 0.545461
vt 0.033183 0.585505
vt 0.032953 0.706846
vt 0.002791 0.703836
vt 0.003020 0.582494
vt 0.142150 0.697818
vt 0.141922 0.576477
vt 0.172081 0.573466
vt 0.172309 0.694807
vt 0.929063 0.527867
vt 0.927886 0.603819
vt 0.943567 0.431925
vt 0.944747 0.507788
vt 0.946555 0.428543
vt 0.947734 0.504406
vt 0.038987 0.586084
vt 0.038758 0.707426
vt 0.136346 0.698398
vt 0.136118 0.577056
vt 0.950480 0.424100
vt 0.951659 0.499963
vt 0.951378 0.553295
vt 0.950201 0.629247
vt 0.046612 0.586845
vt 0.046383 0.708187
vt 0.128722 0.699159
vt 0.128494 0.577818
vt 0.952269 0.554271
vt 0.952269 0.630279
vt 0.048087 0.587089
vt 0.113588 0.573453
vt 0.113588 0.694309
vt 0.047998 0.708233
vt 0.951979 0.423227
vt 0.952404 0.499159
vt 0.126216 0.699233
vt 0.126216 0.578376
vt 0.239953 0.708146
vt 0.174295 0.694512
vt 0.174207 0.573368
vt 0.239953 0.587289
vt -0.000000 0.703227
vt 0.000000 0.582370
vt 0.926884 0.602716
vt 0.927311 0.526695
vt 0.671298 0.198245
vt 0.671734 0.197783
vt 0.681537 0.194549
vt 0.682477 0.193927
vt 0.682758 0.193183
vt 0.672519 0.241792
vt 0.672955 0.241331
vt 0.682758 0.238097
vt 0.683698 0.237474
vt 0.683979 0.236730
s 1
usemtl Material.005
f 4/1/1 1/2/1 3/3/1 2/4/1
f 6/5/2 7/6/2 12/7/2 11/8/2
f 9/9/3 10/10/3 11/11/3 12/12/3
f 5/13/4 8/14/4 10/15/4 9/16/4
f 7/17/5 5/18/5 9/19/5 12/20/5
f 8/21/6 6/22/6 11/23/6 10/24/6
f 14/25/7 16/26/7 17/27/7 20/28/7
f 17/29/8 18/30/8 19/31/8 20/32/8
f 13/33/9 15/34/9 19/35/9 18/36/9
f 15/37/10 14/38/10 20/39/10 19/40/10
f 16/41/11 13/42/11 18/30/11 17/29/11
f 22/43/10 23/44/10 28/45/10 27/46/10
f 25/47/12 26/48/12 27/46/12 28/45/12
f 21/49/11 24/50/11 26/51/11 25/52/11
f 23/53/9 21/54/9 25/55/9 28/56/9
f 24/57/7 22/58/7 27/59/7 26/60/7
f 30/61/4 29/62/4 39/63/4 40/64/4
f 35/65/5 33/66/5 42/67/5 41/68/5
f 34/69/2 32/70/2 31/71/2 35/72/2
f 33/73/4 29/62/4 30/61/4 36/74/4
f 31/75/5 29/76/5 33/66/5 35/65/5
f 30/77/6 32/78/6 34/79/6 36/80/6
f 36/80/6 34/79/6 44/81/6 43/82/6
f 34/69/2 35/72/2 41/83/2 44/84/2
f 33/73/4 36/74/4 43/85/4 42/86/4
f 38/87/1 37/88/1 40/89/1 39/90/1
f 29/76/5 31/75/5 38/91/5 39/92/5
f 32/78/6 30/77/6 40/93/6 37/15/6
f 31/71/2 32/70/2 37/94/2 38/95/2
f 41/68/5 42/67/5 45/96/5 47/97/5
f 47/97/5 45/96/5 49/24/5 51/98/5
f 44/84/2 41/83/2 47/99/2 48/100/2
f 42/86/4 43/85/4 46/101/4 45/102/4
f 43/82/6 44/81/6 48/103/6 46/104/6
f 52/105/3 51/106/3 49/107/3 50/108/3
f 45/102/4 46/101/4 50/109/4 49/110/4
f 46/104/6 48/103/6 52/111/6 50/112/6
f 48/100/2 47/99/2 51/113/2 52/114/2
f 56/115/7 54/116/7 74/117/7 76/118/7
f 62/119/9 59/120/9 57/121/9 61/122/9
f 58/123/10 56/124/10 55/125/10 59/126/10
f 57/127/11 53/128/11 54/129/11 60/130/11
f 55/131/9 53/132/9 57/121/9 59/120/9
f 54/116/7 56/115/7 58/133/7 60/134/7
f 64/135/7 60/134/7 58/133/7 63/136/7
f 63/137/10 58/123/10 59/126/10 62/138/10
f 57/127/11 60/130/11 64/139/11 61/140/11
f 66/141/7 64/135/7 63/136/7 65/142/7
f 68/143/9 62/119/9 61/122/9 67/144/9
f 65/145/10 63/137/10 62/138/10 68/146/10
f 67/147/11 61/140/11 64/139/11 66/148/11
f 68/143/9 67/144/9 71/149/9 72/150/9
f 69/151/12 72/152/12 71/153/12 70/154/12
f 66/141/7 65/142/7 69/155/7 70/156/7
f 65/145/10 68/146/10 72/152/13 69/151/13
f 67/147/11 66/148/11 70/157/11 71/158/11
f 75/159/8 76/160/8 74/161/8 73/162/8
f 55/125/10 56/124/10 76/163/10 75/164/10
f 54/129/11 53/128/11 73/162/14 74/161/14
f 53/132/9 55/131/9 75/165/9 73/166/9
f 80/167/3 78/168/3 79/169/3 77/170/3
f 82/171/15 87/172/15 88/173/15 83/174/15
f 85/175/1 88/176/1 87/177/1 86/178/1
f 81/179/16 85/180/16 86/181/16 84/182/16
f 83/183/17 88/184/17 85/185/17 81/186/17
f 84/187/18 86/173/18 87/172/18 82/188/18
f 90/189/19 96/190/19 93/191/19 92/192/20
f 93/193/21 96/194/21 95/195/21 94/196/21
f 89/197/22 94/198/23 95/199/23 91/200/22
f 91/201/24 95/202/24 96/39/24 90/203/24
f 92/204/25 93/193/26 94/196/26 89/205/25
f 98/206/27 103/207/28 104/208/28 99/209/29
f 101/210/30 104/208/30 103/207/30 102/211/30
f 97/212/31 101/213/31 102/214/31 100/215/31
f 99/216/32 104/217/32 101/218/32 97/219/32
f 100/220/33 102/221/34 103/222/34 98/223/35
f 110/224/6 116/225/6 117/226/6 108/227/6
f 109/228/4 110/229/4 106/230/4 107/231/4
f 106/232/6 110/224/6 108/227/6 105/233/6
f 111/234/5 118/235/5 119/236/5 109/237/5
f 109/228/4 119/238/4 116/239/4 110/229/4
f 108/240/2 117/241/2 118/242/2 111/243/2
f 113/244/3 114/245/3 115/246/3 112/247/3
f 105/233/36 114/248/36 113/249/36 106/232/36
f 106/230/37 113/250/37 112/251/37 107/231/37
f 116/225/6 122/252/6 120/253/6 117/226/6
f 122/252/38 126/254/38 124/255/38 120/253/38
f 119/238/4 123/256/4 122/257/4 116/239/4
f 117/241/2 120/258/2 121/259/2 118/242/2
f 118/235/5 121/260/5 123/261/5 119/236/5
f 127/262/1 125/263/1 124/264/1 126/108/1
f 120/258/39 124/265/39 125/266/39 121/259/39
f 121/260/40 125/267/40 127/268/40 123/261/40
f 123/256/41 127/269/41 126/270/41 122/257/41
f 131/271/42 151/272/42 149/273/42 129/274/42
f 137/275/43 136/276/43 132/277/43 134/278/43
f 133/279/44 134/280/44 130/281/44 131/282/44
f 132/283/45 135/284/45 129/285/45 128/286/45
f 130/287/43 134/278/43 132/277/43 128/288/43
f 129/274/46 135/289/46 133/290/46 131/271/46
f 139/291/46 138/292/46 133/290/46 135/289/46
f 138/293/44 137/294/44 134/280/44 133/279/44
f 132/283/45 136/295/45 139/296/45 135/284/45
f 141/297/46 140/298/46 138/292/46 139/291/46
f 143/299/43 142/300/43 136/276/43 137/275/43
f 140/301/44 143/302/44 137/294/44 138/293/44
f 142/303/45 141/304/45 139/296/45 136/295/45
f 143/299/47 147/305/47 146/306/47 142/300/47
f 144/307/48 145/308/48 146/309/48 147/310/48
f 141/297/49 145/311/49 144/312/49 140/298/49
f 140/301/50 144/307/50 147/310/50 143/302/50
f 142/303/51 146/313/51 145/314/51 141/304/51
f 150/315/52 148/316/52 149/317/52 151/318/52
f 130/281/53 150/319/53 151/320/53 131/282/53
f 129/285/54 149/317/54 148/316/54 128/286/54
f 128/288/55 148/321/55 150/322/55 130/287/55
usemtl None.005
f 155/323/56 154/323/56 153/324/57
f 158/325/58 159/325/59 160/326/60
f 162/327/61 164/327/61 163/326/60
f 155/323/56 153/324/57 152/324/57
f 158/325/58 160/326/60 163/326/60
f 162/327/61 163/326/60 160/326/60
f 168/328/62 165/329/63 167/328/62
f 171/330/64 172/331/65 173/330/66
f 175/332/67 176/331/65 177/332/67
f 168/328/62 166/329/63 165/329/63
f 171/330/64 176/331/65 172/331/65
f 175/332/67 172/331/65 176/331/65
l 171 174
l 156 157
l 169 170
l 158 161
