# Blender 4.3.2
# www.blender.org
mtllib arms.mtl
o right_wrist
v 46.886677 -58.825535 -25.108074
v 41.768394 -65.401947 -25.224224
v 48.338318 -56.960342 -25.075130
v 39.177132 -68.731430 -25.283028
v 37.674332 -70.662361 -25.317133
v 37.466991 -70.928764 -25.321836
v 51.038681 -53.490681 -25.013855
v 36.897694 -71.660255 -25.334757
v 119.264931 -2.485316 -26.085680
v 28.331648 -103.665680 -24.107544
v 7.661552 -65.467476 -35.093170
v 49.462280 -103.592346 -63.611111
v 28.792175 -65.394150 -74.596718
v -43.827339 -168.459839 -113.632538
v -64.957962 -168.533157 -74.128983
v -85.628067 -130.334961 -85.114609
v -64.497437 -130.261627 -124.618164
v 87.244148 -62.701790 7.481050
v 87.704674 -24.430258 -43.008141
v 108.374771 -62.628464 -32.022507
v 66.574043 -24.503584 -3.504572
v -81.274216 -194.497986 -133.711365
v -102.404854 -194.571289 -94.207817
v -123.074966 -156.373093 -105.193436
v -101.944313 -156.299774 -144.696991
v -7.306416 -123.001823 20.952988
v -42.647743 -95.481842 20.127514
v -6.271516 -123.016228 -23.835056
v -41.612846 -95.496254 -24.660528
v -82.514572 -220.979935 -25.565241
v -83.549469 -220.965546 19.222803
v -118.890808 -193.445541 18.397327
v -117.855896 -193.459961 -26.390717
v 40.841160 -61.137634 22.045597
v 6.534719 -33.632076 -23.567921
v 41.876053 -61.152039 -22.742447
v 5.499824 -33.617657 21.220123
v 53.916878 -45.680946 -22.469204
v 48.024193 -53.252380 -22.602926
v 47.458076 -59.258045 -25.798634
v 42.339790 -65.834457 -25.914785
v 48.909710 -57.392849 -25.765690
v 39.748524 -69.163940 -25.973589
v 38.245720 -71.094872 -26.007689
v 38.038383 -71.361282 -26.012392
v 51.835396 -53.419586 -25.570198
v 37.034065 -72.437630 -25.906088
v 28.362089 -104.230057 -23.303524
v 6.998868 -64.874565 -34.646969
v 50.124958 -104.185257 -64.057297
v 28.761736 -64.829773 -75.400742
v -43.164646 -169.052750 -114.078743
v -64.927528 -169.097534 -73.324966
v -86.290741 -129.742035 -84.668411
v -64.527878 -129.697266 -125.422188
v 88.108170 -23.683685 -43.422905
v 109.325111 -62.837322 -32.160107
v 66.448395 -23.740925 -2.910768
v -81.148567 -195.260620 -134.305191
v -102.808365 -195.317825 -93.793053
v -124.025299 -156.164276 -105.055855
v -102.362671 -156.100555 -145.576721
v -6.767531 -123.433876 21.669474
v -43.219139 -95.049347 20.818071
v -5.700128 -123.448738 -24.525618
v -42.151733 -95.064209 -25.377020
v -82.378204 -221.757324 -26.136570
v -83.439644 -221.742554 19.800318
v -119.687515 -193.516663 18.953671
v -118.626060 -193.531418 -26.983217
v 41.611320 -61.066170 22.638100
v 6.424900 -32.855068 -24.145445
v 42.672768 -61.080944 -23.298790
v 54.488270 -46.113445 -23.159761
v 48.160561 -54.029755 -23.174255
v 14.091018 -45.133389 -2.522104
v 10.587631 -47.744823 -2.522422
v 10.587631 -47.744823 2.732199
v 14.091018 -45.133389 2.731885
v 6.072854 -48.053242 -2.517997
v 6.072854 -48.053246 2.727773
v 10.897314 -42.745926 -6.455893
v 13.105504 -44.396660 -5.168410
v 9.225347 -43.994007 -6.455756
v 10.167372 -46.587685 -5.168006
v 6.554237 -44.138504 -6.459502
v 6.222423 -46.837093 -5.180812
v 13.105509 -44.396660 5.378227
v 10.897314 -42.745934 6.665721
v 10.167375 -46.587688 5.377822
v 9.225346 -43.994007 6.665577
v 6.222422 -46.837105 5.390624
v 6.554237 -44.138512 6.669323
v 12.393250 -43.864239 -2.099388
v 12.393250 -43.864239 2.309179
v 9.864036 -45.752514 2.309176
v 9.864036 -45.752514 -2.099390
v 6.331656 -45.948574 2.309176
v 6.331656 -45.948574 -2.099390
v 11.843219 -43.453053 -3.689190
v 10.515347 -42.460396 -4.347715
v 9.629232 -45.106010 -3.689192
v 9.062333 -43.545185 -4.347716
v 6.610459 -43.681282 -4.347716
v 6.413331 -45.284527 -3.689192
v 11.843219 -43.453053 3.899017
v 10.515347 -42.460396 4.557542
v 9.629232 -45.106010 3.899014
v 9.062333 -43.545185 4.557541
v 6.413331 -45.284527 3.899014
v 6.610459 -43.681282 4.557541
vn 0.4717 0.0016 -0.8818
vn -0.4614 0.8526 -0.2452
vn -0.4717 -0.0016 0.8818
vn 0.4614 -0.8526 0.2452
vn 0.7514 0.5225 0.4029
vn -0.7514 -0.5225 -0.4029
vn 0.0231 -0.0003 -0.9997
vn -0.6141 -0.7891 -0.0139
vn -0.0231 0.0003 0.9997
vn -0.7889 0.6143 -0.0184
vn 0.7889 -0.6143 0.0184
vn 0.6141 0.7891 0.0139
vn -0.4722 -0.0023 0.8815
vn -0.4707 -0.0012 0.8823
vn 0.4622 -0.8520 0.2458
vn 0.4631 -0.8514 0.2463
vn 0.4712 0.0015 -0.8821
vn 0.4726 0.0025 -0.8813
vn 0.4710 0.0014 -0.8821
vn 0.4606 -0.8531 0.2450
vn -0.4619 0.8522 -0.2457
vn -0.4602 0.8534 -0.2448
vn -0.4617 0.8523 -0.2456
vn -0.4729 -0.0027 0.8811
vn 0.4600 -0.8536 0.2447
vn 0.7514 0.5229 0.4025
vn -0.4592 0.8541 -0.2443
vn -0.4698 -0.0005 0.8828
vn 0.4736 0.0033 -0.8807
vn -0.0233 0.0001 0.9997
vn -0.0225 0.0011 0.9997
vn 0.0229 -0.0006 -0.9997
vn 0.0237 0.0005 -0.9997
vn 0.7888 -0.6143 0.0184
vn 0.7895 -0.6135 0.0184
vn -0.7891 0.6140 -0.0184
vn -0.7882 0.6151 -0.0184
vn -0.0241 -0.0010 0.9997
vn -0.7899 0.6130 -0.0184
vn -0.5856 0.7856 0.1998
vn -0.3389 0.9174 0.2089
vn -0.3389 0.9174 -0.2089
vn -0.5856 0.7856 -0.1998
vn 0.1279 0.9705 0.2046
vn 0.1279 0.9705 -0.2046
vn -0.2058 0.1553 0.9662
vn -0.0885 0.2387 0.9670
vn -0.1458 0.3955 0.9068
vn -0.3383 0.2552 0.9058
vn -0.5459 0.7323 0.4071
vn -0.3139 0.8501 0.4229
vn 0.0304 0.2481 0.9683
vn 0.0554 0.4299 0.9012
vn 0.1192 0.9033 0.4122
vn -0.3139 0.8501 -0.4229
vn -0.5459 0.7323 -0.4071
vn -0.3382 0.2553 -0.9058
vn -0.1458 0.3955 -0.9068
vn -0.0885 0.2387 -0.9670
vn -0.2060 0.1552 -0.9662
vn 0.1191 0.9036 -0.4114
vn 0.0554 0.4299 -0.9012
vn 0.0297 0.2477 -0.9684
vn 0.5876 -0.7870 -0.1878
vn 0.5876 -0.7870 0.1878
vn 0.5876 -0.7871 0.1877
vn 0.5876 -0.7871 -0.1877
vn 0.0544 -0.9807 -0.1877
vn 0.0544 -0.9807 0.1877
vn -0.1151 -0.9743 0.1936
vn -0.1151 -0.9743 -0.1936
vn 0.1789 -0.1355 -0.9745
vn 0.2945 -0.2226 -0.9294
vn 0.1258 -0.3465 -0.9296
vn 0.0754 -0.2077 -0.9753
vn 0.5527 -0.7403 -0.3827
vn -0.0461 -0.3747 -0.9260
vn -0.0246 -0.2156 -0.9762
vn 0.0512 -0.9225 -0.3827
vn -0.1082 -0.9153 -0.3879
vn 0.5527 -0.7403 0.3827
vn 0.2945 -0.2226 0.9294
vn 0.1788 -0.1355 0.9745
vn 0.0754 -0.2077 0.9753
vn 0.1258 -0.3465 0.9296
vn 0.0512 -0.9225 0.3827
vn -0.1082 -0.9153 0.3879
vn -0.0246 -0.2155 0.9762
vn -0.0461 -0.3747 0.9260
vt 0.413394 0.331197
vt 0.332254 0.324865
vt 0.332254 0.093051
vt 0.413394 0.099383
vt 0.574514 0.094137
vt 0.494549 0.094165
vt 0.494549 0.000028
vt 0.574514 -0.000000
vt 0.494549 0.324671
vt 0.413394 0.331012
vt 0.413394 0.099337
vt 0.494549 0.092996
vt 0.574514 0.328655
vt 0.494549 0.328684
vt 0.654460 0.328517
vt 0.574515 0.328549
vt 0.574515 0.094129
vt 0.654460 0.094097
vt 0.820753 0.564180
vt 0.901059 0.565626
vt 0.901059 0.646427
vt 0.820753 0.644980
vt 0.413394 0.477587
vt 0.332254 0.471255
vt 0.494549 0.470974
vt 0.413394 0.477316
vt 0.574515 0.476585
vt 0.654460 0.476554
vt 0.494549 0.476782
vt 0.574514 0.476754
vt 0.827086 0.789168
vt 0.907392 0.787722
vt 0.907392 0.868522
vt 0.827086 0.869969
vt 0.574515 0.000032
vt 0.654460 0.000000
vt 0.332254 -0.000000
vt 0.413394 0.006332
vt 0.413394 0.006342
vt 0.494549 0.000000
vt 0.249813 0.629759
vt 0.330151 0.631206
vt 0.330151 0.870456
vt 0.249813 0.869010
vt 0.083668 0.935405
vt 0.083668 0.855029
vt 0.163134 0.857653
vt 0.163134 0.938029
vt 0.332254 0.630136
vt 0.412590 0.628725
vt 0.412590 0.868055
vt 0.332254 0.869466
vt 0.494279 0.716433
vt 0.413394 0.715096
vt 0.494279 0.478653
vt 0.575435 0.714671
vt 0.494549 0.715982
vt 0.494549 0.478093
vt 0.575435 0.476782
vt 0.242600 0.855029
vt 0.242600 0.935405
vt 0.249813 0.478672
vt 0.330151 0.480119
vt 0.332254 0.478999
vt 0.412590 0.477587
vt 0.494549 0.866209
vt 0.575435 0.864899
vt 0.413394 0.865254
vt 0.494279 0.866591
vt 0.083668 0.332159
vt 0.083668 0.100484
vt 0.167351 0.094061
vt 0.167351 0.325737
vt 0.249813 0.095225
vt 0.250007 0.000063
vt 0.331999 0.000000
vt 0.332254 0.095107
vt 0.000000 0.325862
vt 0.000000 0.094049
vt 0.083668 0.100461
vt 0.083668 0.332274
vt 0.249813 0.329645
vt 0.332254 0.329527
vt 0.167351 0.329647
vt 0.167351 0.095129
vt 0.249813 0.095185
vt 0.249813 0.329703
vt 0.167101 0.473005
vt 0.083887 0.479458
vt 0.331950 0.478604
vt 0.249977 0.478672
vt 0.082348 0.565594
vt 0.082359 0.648452
vt -0.000000 0.646966
vt -0.000000 0.564092
vt 0.167515 0.000000
vt 0.249509 0.000007
vt 0.083845 0.006462
vt 0.167068 0.000000
vt 0.000219 -0.000000
vt 0.083418 0.006443
vt 0.820749 0.152196
vt 0.820286 0.392540
vt 0.737889 0.393921
vt 0.737889 0.153584
vt 0.902254 0.351947
vt 0.820749 0.354639
vt 0.820749 0.272201
vt 0.902254 0.269509
vt 0.820753 0.547413
vt 0.820753 0.787722
vt 0.738352 0.786331
vt 0.737889 0.546013
vt 0.654460 0.240158
vt 0.654927 0.001271
vt 0.737889 -0.000000
vt 0.737889 0.238879
vt 0.654460 0.630291
vt 0.654460 0.391448
vt 0.737421 0.392730
vt 0.737887 0.631580
vt 0.738207 0.001381
vt 0.820605 -0.000000
vt 0.737841 0.782728
vt 0.654881 0.781446
vt 0.289778 0.272391
vt 0.291103 0.270627
vt 0.291267 0.268349
vt 0.288579 0.270774
vt 0.289212 0.269932
vt 0.290520 0.270413
vt 0.289408 0.271892
vt 0.289290 0.268584
vt 0.290653 0.268422
vt 0.409967 0.274357
vt 0.410908 0.273107
vt 0.411012 0.271356
vt 0.409275 0.273424
vt 0.409765 0.274084
vt 0.410588 0.272989
vt 0.409815 0.272706
vt 0.410682 0.271396
vt 0.409887 0.271490
s 1
usemtl Material.005
f 13/1/1 12/2/1 14/3/1 17/4/1
f 16/5/2 17/6/2 25/7/2 24/8/2
f 10/9/3 11/10/3 16/11/3 15/12/3
f 11/13/2 13/14/2 17/6/2 16/5/2
f 12/15/4 10/16/4 15/17/4 14/18/4
f 21/19/5 18/20/5 20/21/5 19/22/5
f 12/2/1 13/1/1 19/23/1 20/24/1
f 11/10/3 10/9/3 18/25/3 21/26/3
f 18/27/4 10/16/4 12/15/4 20/28/4
f 19/29/2 13/14/2 11/13/2 21/30/2
f 23/31/6 24/32/6 25/33/6 22/34/6
f 14/18/4 15/17/4 23/35/4 22/36/4
f 17/4/1 14/3/1 22/37/1 25/38/1
f 15/12/3 16/11/3 24/39/3 23/40/3
f 29/41/7 28/42/7 30/43/7 33/44/7
f 31/45/8 32/46/8 33/47/8 30/48/8
f 26/49/9 27/50/9 32/51/9 31/52/9
f 27/53/10 29/54/10 33/26/10 32/55/10
f 28/56/11 26/57/11 31/58/11 30/59/11
f 37/60/12 34/61/12 36/48/12 35/47/12
f 28/42/7 29/41/7 35/62/7 36/63/7
f 27/50/9 26/49/9 34/64/9 37/65/9
f 34/66/11 26/57/11 28/56/11 36/67/11
f 35/68/10 29/54/10 27/53/10 37/69/10
f 51/70/13 55/71/14 52/72/14 50/73/13
f 54/74/15 61/75/16 62/76/16 55/77/15
f 48/78/17 53/79/18 54/80/18 49/81/19
f 49/82/20 54/74/15 55/77/15 51/83/20
f 50/84/21 52/85/22 53/86/22 48/87/23
f 50/73/13 57/88/24 56/89/24 51/70/13
f 56/90/25 58/91/25 49/82/20 51/83/20
f 60/92/26 59/93/26 62/94/26 61/95/26
f 52/85/22 59/96/27 60/97/27 53/86/22
f 55/71/14 62/98/28 59/99/28 52/72/14
f 53/79/18 60/100/29 61/101/29 54/80/18
f 66/102/30 70/103/31 67/104/31 65/105/30
f 68/106/12 67/107/12 70/108/12 69/109/12
f 63/110/32 68/111/33 69/112/33 64/113/32
f 64/114/34 69/115/35 70/116/35 66/117/34
f 65/118/36 67/119/37 68/120/37 63/121/36
f 65/105/30 73/122/38 72/123/38 66/102/30
f 71/124/39 73/125/39 65/118/36 63/121/36
usemtl None
f 76/126/40 77/127/41 78/127/42 79/126/43
f 77/127/41 80/128/44 81/128/45 78/127/42
f 82/129/46 84/130/47 85/131/48 83/132/49
f 83/132/50 85/131/51 77/127/41 76/126/40
f 84/130/47 86/133/52 87/134/53 85/131/48
f 85/131/51 87/134/54 80/128/44 77/127/41
f 79/126/43 78/127/42 90/131/55 88/132/56
f 88/132/57 90/131/58 91/130/59 89/129/60
f 78/127/42 81/128/45 92/134/61 90/131/55
f 90/131/58 92/134/62 93/133/63 91/130/59
f 93/133/63 89/129/60 91/130/59
f 82/129/46 86/133/52 84/130/47
f 94/135/64 95/135/65 96/136/66 97/136/67
f 97/136/68 96/136/69 98/137/70 99/137/71
f 101/138/72 100/139/73 102/140/74 103/141/75
f 100/139/76 94/135/64 97/136/67 102/140/76
f 103/141/75 102/140/74 105/142/77 104/143/78
f 102/140/79 97/136/68 99/137/71 105/142/80
f 95/135/65 106/139/81 108/140/81 96/136/66
f 106/139/82 107/138/83 109/141/84 108/140/85
f 96/136/69 108/140/86 110/142/87 98/137/70
f 108/140/85 109/141/84 111/143/88 110/142/89
f 111/143/88 109/141/84 107/138/83
f 101/138/72 103/141/75 104/143/78
l 3 7
l 1 2
l 1 3
l 5 6
l 41 43
l 43 44
l 45 47
l 74 75
l 42 46
l 2 4
l 4 5
l 6 8
l 38 39
l 40 41
l 40 42
l 44 45
