# Blender 4.3.2
# www.blender.org
mtllib sniper wrists.mtl
o right_wrist
v -29.270130 -95.192261 -2.608735
v 23.076019 -149.157211 -24.839909
v 1.786960 -94.721313 69.375954
v 54.133114 -148.686295 47.144783
v -10.114590 -73.147324 -11.017439
v 42.231564 -127.112267 -33.248600
v 20.942501 -72.676353 60.967258
v 73.288658 -126.641319 38.736080
v 23.849371 -69.331039 59.691227
v 76.195518 -123.295998 37.460056
v 45.138432 -123.766930 -34.524635
v -7.207720 -69.801979 -12.293459
v -29.570429 -95.537857 -2.476916
v 22.775719 -149.502808 -24.708078
v 1.486660 -95.066910 69.507782
v 53.832825 -149.031876 47.276604
v 24.452770 -68.636620 59.426361
v 76.798920 -122.601578 37.195187
v 45.741833 -123.072510 -34.789505
v -6.604320 -69.107567 -12.558340
v 128.943039 -116.928368 6.861688
v 148.915482 -50.210499 -66.252907
v 169.523117 -117.045029 -51.885277
v 108.335442 -50.093819 -7.505962
v 128.076935 -56.902725 -84.887932
v 150.704926 -130.289673 -69.111687
v 83.518448 -56.774639 -20.381493
v 106.146416 -130.161606 -4.605250
v 176.231750 -118.633186 -51.501945
v 153.603745 -45.246231 -67.278191
v 131.673218 -118.505104 13.004518
v 109.045265 -45.118130 -2.771723
v 133.703659 -117.577934 14.405218
v 111.075676 -44.190971 -1.371033
v 155.634186 -44.319073 -65.877487
v 178.262161 -117.706017 -50.101246
v 99.385361 -54.180767 -13.680223
v 119.992958 -121.015343 0.687428
v 160.573029 -121.131981 -58.059528
v 139.965424 -54.297466 -72.427170
v 8.777360 -90.200401 62.518509
v 56.449745 -139.347061 42.272251
v 28.165602 -139.775940 -23.285229
v -19.506781 -90.629295 -3.038976
v 68.658287 -125.296997 36.913078
v -7.298230 -76.579247 -8.398168
v 40.374153 -125.725906 -28.644413
v 20.985889 -76.150330 57.159321
v 54.636860 -141.433395 43.068062
v 6.964470 -92.286736 63.314304
v -21.319662 -92.715637 -2.243186
v 26.352728 -141.862289 -22.489428
v -29.859892 -94.813995 -2.960546
v 23.226561 -149.542145 -25.506107
v 1.636420 -94.336380 70.042160
v 54.722870 -149.064545 47.496597
v -10.704340 -72.769066 -11.369249
v 42.382088 -127.497185 -33.914810
v 20.791960 -72.291435 61.633457
v 73.878410 -127.019585 39.087891
v 23.698832 -68.946106 60.357445
v 76.785271 -123.674255 37.811867
v -30.838001 -96.133614 -2.419116
v 22.112589 -150.721695 -24.906988
v 0.577710 -95.657234 70.396790
v 53.528309 -150.245331 47.908901
v 127.595543 -118.504936 7.463548
v 148.766342 -49.847672 -67.018997
v 169.477295 -117.746338 -52.392902
v 107.463799 -49.930122 -7.420593
v 127.927795 -56.539875 -85.654015
v 150.659088 -130.990967 -69.619331
v 82.646790 -56.610950 -20.296122
v 104.798912 -131.738174 -4.003390
v 176.727158 -119.135689 -51.845856
v 154.809006 -43.702232 -68.023979
v 130.468002 -120.049110 13.750309
v 108.549805 -44.615631 -2.427803
v 133.852829 -117.940788 15.171288
v 111.121498 -43.489681 -0.863393
v 156.981674 -42.742493 -66.479347
v 179.133804 -117.869705 -50.186615
v 99.431175 -53.479500 -13.172603
v 120.142143 -121.378174 1.453508
v 161.444687 -121.295677 -58.144917
v 141.312927 -52.720886 -73.029045
v 9.440480 -88.981499 62.717415
v 57.717297 -138.751312 42.214462
v 29.074549 -139.185654 -24.174227
v -19.202271 -89.415848 -3.671276
v 69.248032 -125.675270 37.264885
v -7.887990 -76.200974 -8.749978
v 40.524689 -126.110817 -29.310619
v 20.835371 -75.765404 57.825531
v 54.332363 -142.646851 43.700352
v 6.055521 -92.877052 64.203308
v -22.587231 -93.311394 -2.185396
v 25.689610 -143.081177 -22.688349
v 123.095726 -80.504082 -13.526193
v 119.487343 -75.676811 -13.469184
v 119.938698 -51.911495 -14.783378
v 122.083366 -51.911495 -12.638710
v 120.821182 -75.725067 -12.159216
v 121.094475 -76.269608 -15.361909
v 122.882034 -76.269714 -13.425610
v 121.213638 -80.500847 -15.562268
v 178.400009 -36.699989 -17.700014
v 39.399998 -42.200008 15.299983
v 39.399998 -42.200008 15.299983
v 121.700005 -79.300003 -13.000025
v 119.200005 -77.800003 -13.000025
v 178.400009 -36.699989 -17.700014
v 119.200005 -77.800003 -13.000025
v 119.200005 -52.200001 -13.000019
v 120.300003 -77.800003 -11.900027
v 120.300003 -52.200001 -11.900017
v 120.599998 -77.800003 -14.200025
v 120.300003 -77.800003 -11.900027
v 121.700005 -77.800003 -13.000025
v 120.599998 -79.300003 -14.200025
v 120.599998 -79.300003 -14.200025
v 120.599998 -77.800003 -14.200025
v 121.700005 -77.800003 -13.000025
v 121.700005 -79.300003 -13.000025
vn -0.3961 -0.0060 -0.9182
vn 0.3961 0.0060 0.9182
vn 0.6677 -0.6883 -0.2836
vn -0.6677 0.6883 0.2836
vn -0.6303 -0.7254 0.2767
vn 0.6303 0.7254 -0.2767
vn -0.7705 -0.3518 -0.5315
vn 0.5683 -0.0016 -0.8228
vn -0.5683 0.0016 0.8228
vn 0.2886 -0.9361 0.2012
vn -0.2886 0.9361 -0.2012
vn 0.7705 0.3518 0.5315
vn 0.4326 0.0487 0.9003
vn 0.7037 -0.6444 -0.2994
vn -0.6294 0.7299 0.2668
vn -0.3583 0.0367 -0.9329
vn 0.7687 0.3463 0.5377
vn -0.5595 0.0115 0.8288
vn 0.5713 -0.0098 -0.8207
vn -0.2930 0.9363 -0.1938
vn 0.3013 -0.9315 0.2036
vn 0.7689 0.3468 0.5372
vn -0.5758 0.0078 0.8176
vn -0.7689 -0.3468 -0.5372
vn 0.4690 -0.0498 -0.8818
vn -0.3798 0.8881 -0.2588
vn 0.2879 -0.9386 0.1903
vn -0.7687 -0.3463 -0.5377
vn 0.3969 0.0069 0.9178
vn 0.3989 0.0091 0.9170
vn -0.3954 -0.0051 -0.9185
vn -0.3934 -0.0029 -0.9194
vn -0.6669 0.6892 0.2832
vn -0.6649 0.6915 0.2824
vn 0.6685 -0.6874 -0.2839
vn 0.6704 -0.6852 -0.2848
vn -0.9215 0.0569 0.3842
vn -0.9205 0.0568 0.3865
vn -0.3829 0.0578 0.9220
vn -0.3884 0.0579 0.9197
vn -0.1073 -0.9722 0.2083
vn -0.2085 -0.9742 0.0865
vn -0.2173 -0.9735 0.0713
vn -0.0750 -0.9689 0.2359
vn -0.3945 -0.0488 0.9176
vn -0.9239 -0.0552 0.3787
vn -0.9244 -0.0551 0.3773
vn -0.3910 -0.0545 0.9188
vn 0.9222 -0.0000 -0.3866
vn 0.3872 -0.0000 -0.9220
vn 0.3871 -0.0000 -0.9220
vn 0.9227 -0.0000 -0.3856
vn -0.0000 1.0000 -0.0000
vn 0.3947 -0.0000 -0.9188
vn 0.9263 -0.0000 -0.3768
vt 0.960591 0.880442
vt 0.960591 0.765006
vt 0.976833 0.765006
vt 0.976833 0.880441
vt 0.943564 0.160678
vt 0.959805 0.160678
vt 0.959805 0.276113
vt 0.943564 0.276113
vt 0.976556 0.276113
vt 0.960315 0.276113
vt 0.960315 0.160678
vt 0.976556 0.160678
vt 0.943840 0.765006
vt 0.960082 0.765006
vt 0.960082 0.880442
vt 0.943840 0.880442
vt 0.960337 0.880442
vt 0.960337 0.765006
vt 0.941375 0.880442
vt 0.941375 0.765006
vt 0.979297 0.880441
vt 0.979297 0.765006
vt 0.979809 0.765006
vt 0.979809 0.880441
vt 0.979021 0.160678
vt 0.979021 0.276113
vt 0.941099 0.276113
vt 0.941099 0.160678
vt 0.545098 0.789738
vt 0.545098 0.902803
vt 0.433019 0.897232
vt 0.433019 0.784167
vt 0.960336 0.765006
vt 0.960336 0.880442
vt 0.960060 0.276113
vt 0.960060 0.160678
vt 0.787711 0.644186
vt 0.899738 0.638425
vt 0.899738 0.751362
vt 0.787711 0.757123
vt 0.940587 0.276113
vt 0.940587 0.160678
vt 0.940864 0.880442
vt 0.940864 0.765006
vt 0.979533 0.160678
vt 0.979533 0.276113
vt 0.204184 0.719451
vt 0.204184 0.629616
vt 0.267768 0.667874
vt 0.267768 0.757710
vt 0.787711 0.620579
vt 0.787711 0.521937
vt 0.824677 0.538469
vt 0.824677 0.637110
vt 0.790649 0.337922
vt 0.827588 0.321374
vt 0.827588 0.420017
vt 0.790649 0.436565
vt 0.897405 0.462026
vt 0.860466 0.478574
vt 0.857209 0.479891
vt 0.894175 0.496422
vt 0.897405 0.363384
vt 0.827617 0.539784
vt 0.827617 0.638425
vt 0.897116 0.497737
vt 0.897116 0.596379
vt 0.787711 0.437881
vt 0.787711 0.339239
vt 0.857528 0.479891
vt 0.575821 0.590782
vt 0.493814 0.627456
vt 0.433019 0.585310
vt 0.515026 0.548636
vt 0.999141 0.582744
vt 0.897116 0.587991
vt 0.897116 0.485137
vt 0.999141 0.479891
vt 0.911174 0.000000
vt 0.911174 0.105128
vt 0.899285 0.105128
vt 0.899285 0.000000
vt 0.999477 0.429418
vt 0.897405 0.424344
vt 0.897405 0.321374
vt 0.999477 0.326449
vt 0.928111 0.743554
vt 0.928111 0.638425
vt 0.940000 0.638425
vt 0.940000 0.743554
vt 0.951435 0.000000
vt 0.951435 0.105128
vt 0.939547 0.105128
vt 0.939547 0.000000
vt 0.968373 0.743554
vt 0.968373 0.638425
vt 0.980261 0.638425
vt 0.980261 0.743554
vt 0.413327 0.901287
vt 0.397085 0.901287
vt 0.397085 0.784219
vt 0.413327 0.784219
vt 0.562261 0.784167
vt 0.562261 0.901235
vt 0.546019 0.901235
vt 0.546019 0.784167
vt 0.126055 0.746733
vt 0.126055 0.629665
vt 0.142296 0.629665
vt 0.142296 0.746733
vt 0.284931 0.629616
vt 0.284931 0.746683
vt 0.268689 0.746683
vt 0.268689 0.629616
vt 0.414248 0.784369
vt 0.414248 0.901137
vt 0.564725 0.784167
vt 0.564725 0.901235
vt 0.682582 0.779508
vt 0.795903 0.773680
vt 0.795903 0.887921
vt 0.682582 0.893749
vt 0.267768 0.746534
vt 0.267768 0.629766
vt 0.143218 0.629815
vt 0.143218 0.746583
vt 0.545098 0.901085
vt 0.545098 0.784317
vt 0.354059 0.718621
vt 0.290124 0.757348
vt 0.290124 0.666318
vt 0.354191 0.627502
vt 0.899285 0.142371
vt 0.861853 0.159287
vt 0.861370 0.059308
vt 0.899285 0.042532
vt 0.895564 0.177271
vt 0.895078 0.277249
vt 0.857851 0.260605
vt 0.857982 0.160678
vt 0.825171 0.319985
vt 0.787711 0.303086
vt 0.791136 0.016609
vt 0.828690 -0.000000
vt 0.787711 0.203248
vt 0.858306 0.160678
vt 0.858177 0.060751
vt 0.787711 0.018307
vt 0.787711 0.118146
vt 0.898993 0.178967
vt 0.898993 0.278805
vt 0.828721 0.321374
vt 0.000151 0.592485
vt 0.061704 0.549658
vt 0.144930 0.586757
vt 0.083243 0.629665
vt 0.795903 0.877956
vt 0.795903 0.773681
vt 0.899269 0.778819
vt 0.899269 0.883094
vt 0.277467 0.784174
vt 0.290022 0.784324
vt 0.290022 0.890786
vt 0.277467 0.890935
vt 0.145109 0.893645
vt 0.145109 0.789487
vt 0.248428 0.784174
vt 0.248428 0.888332
vt 0.115921 0.890992
vt 0.103366 0.890842
vt 0.103366 0.784380
vt 0.115921 0.784231
vt 0.928309 0.773681
vt 0.940864 0.773830
vt 0.940864 0.880292
vt 0.928309 0.880441
vt 0.911548 0.267439
vt 0.898993 0.267289
vt 0.898993 0.160828
vt 0.911548 0.160678
vt 0.726181 0.790151
vt 0.726295 0.791474
vt 0.726062 0.791474
vt 0.726014 0.790151
vt 0.726127 0.790097
vt 0.726319 0.790099
vt 0.726127 0.789620
vt 0.726319 0.789618
vt 0.726365 0.752823
vt 0.726297 0.752823
vt 0.726297 0.754406
vt 0.726365 0.754406
vt 0.726383 0.752823
vt 0.726451 0.752823
vt 0.726383 0.752730
vt 0.726451 0.752730
s 1
usemtl Material.012
f 2/1/1 1/2/1 5/3/1 6/4/1
f 7/5/2 3/6/2 4/7/2 8/8/2
f 8/9/3 4/10/3 2/11/3 6/12/3
f 5/13/4 1/14/4 3/15/4 7/16/4
f 1/2/1 2/1/1 14/17/1 13/18/1
f 5/13/4 7/16/4 9/19/4 12/20/4
f 11/21/1 12/22/1 20/23/1 19/24/1
f 6/4/1 5/3/1 12/22/1 11/21/1
f 8/9/3 6/12/3 11/25/3 10/26/3
f 7/5/2 8/8/2 10/27/2 9/28/2
f 14/29/5 16/30/5 15/31/5 13/32/5
f 3/15/4 1/14/4 13/33/4 15/34/4
f 2/11/3 4/10/3 16/35/3 14/36/3
f 4/7/2 3/6/2 15/36/2 16/35/2
f 19/37/6 20/38/6 17/39/6 18/40/6
f 9/28/2 10/27/2 18/41/2 17/42/2
f 12/20/4 9/19/4 17/43/4 20/44/4
f 10/26/3 11/25/3 19/45/3 18/46/3
f 21/47/7 24/48/7 22/49/7 23/50/7
f 26/51/8 25/52/8 30/53/8 29/54/8
f 32/55/9 27/56/9 28/57/9 31/58/9
f 31/58/10 28/57/10 26/59/10 29/60/10
f 25/52/11 27/61/11 32/62/11 30/53/11
f 26/59/7 28/57/7 27/56/7 25/63/7
f 29/54/8 30/53/8 35/64/8 36/65/8
f 34/66/12 33/67/12 36/65/12 35/64/12
f 32/55/9 31/58/9 33/68/9 34/69/9
f 31/58/10 29/60/10 36/70/10 33/68/10
f 30/53/11 32/62/11 34/66/11 35/64/11
f 37/71/12 38/72/12 39/73/12 40/74/12
f 41/75/6 42/76/6 43/77/6 44/78/6
f 46/79/1 47/80/1 52/81/1 51/82/1
f 49/83/5 50/84/5 51/85/5 52/86/5
f 45/87/2 48/88/2 50/89/2 49/90/2
f 47/91/3 45/92/3 49/93/3 52/94/3
f 48/95/4 46/96/4 51/97/4 50/98/4
f 54/99/2 58/100/2 57/101/2 53/102/2
f 59/103/1 60/104/1 56/105/1 55/106/1
f 60/107/4 58/108/4 54/109/4 56/110/4
f 57/111/3 59/112/3 55/113/3 53/114/3
f 53/102/13 63/115/13 64/116/13 54/99/13
f 59/103/1 61/117/1 62/118/1 60/104/1
f 64/119/6 63/120/6 65/121/6 66/122/6
f 55/113/14 65/123/14 63/124/14 53/114/14
f 54/109/15 64/125/15 66/126/15 56/110/15
f 56/105/16 66/127/16 65/128/16 55/106/16
f 67/129/17 69/130/17 68/131/17 70/132/17
f 72/133/18 75/134/18 76/135/18 71/136/18
f 78/137/19 77/138/19 74/139/19 73/140/19
f 77/138/20 75/141/20 72/142/20 74/139/20
f 71/136/21 76/135/21 78/143/21 73/144/21
f 72/142/22 71/145/22 73/140/22 74/139/22
f 75/134/23 82/146/23 81/147/23 76/135/23
f 80/148/24 81/147/24 82/146/24 79/149/24
f 78/137/25 80/150/25 79/151/25 77/138/25
f 77/138/26 79/151/26 82/152/26 75/141/26
f 76/135/27 81/147/27 80/148/27 78/143/27
f 83/153/28 86/154/28 85/155/28 84/156/28
f 87/157/5 90/158/5 89/159/5 88/160/5
f 92/161/29 97/162/30 98/163/30 93/164/29
f 95/165/6 98/166/6 97/167/6 96/168/6
f 91/169/31 95/170/32 96/171/32 94/172/31
f 93/173/33 98/174/34 95/175/34 91/176/33
f 94/177/35 96/178/36 97/179/36 92/180/35
usemtl None
f 103/181/37 102/182/38 101/183/39 100/184/40
f 104/185/41 105/186/42 103/181/43 100/184/44
f 106/187/45 99/188/46 105/186/47 104/185/48
f 115/189/49 113/190/50 114/191/51 116/192/52
f 117/193/53 111/190/53 118/189/53 119/194/53
f 121/195/54 122/193/54 123/194/55 124/196/55
l 110 120
