# Blender 4.3.2
# www.blender.org
mtllib hands.mtl
o right_wrist
v -65.881264 -139.588058 48.404861
v -138.313889 -70.811615 77.375839
v -104.503517 -139.588058 -48.157658
v -176.936142 -70.811623 -19.186678
v -85.972694 -164.132599 56.440865
v -197.027557 -95.356163 -11.150685
v -124.594948 -164.132599 -40.121658
v -158.405304 -95.356148 85.411835
v -92.516594 -172.126907 59.058239
v -131.138855 -172.126907 -37.504276
v -203.571472 -103.350464 -8.533305
v -164.949203 -103.350456 88.029205
v -93.723328 -173.601105 59.540894
v -132.345581 -173.601105 -37.021618
v -204.778198 -104.824661 -8.050654
v -166.155930 -104.824654 88.511864
v -96.816307 -177.379623 60.778008
v -135.438568 -177.379623 -35.784512
v -207.871170 -108.603188 -6.813544
v -169.248932 -108.603165 89.748962
v 16.654699 -131.038544 9.751570
v -9.679010 -43.223419 -11.009984
v 48.234619 -43.361362 -85.050484
v 74.568314 -131.176483 -64.288933
v -15.133899 -146.555313 -15.188437
v 16.298891 -58.724796 -109.897354
v 42.733669 -146.539993 -89.265068
v -41.568661 -58.740116 -35.820732
v -99.096886 -170.336548 56.305065
v -199.473404 -108.173241 -4.787294
v -134.005463 -170.336548 -30.972595
v -164.564819 -108.173225 82.490364
v -73.508102 -139.076218 46.070282
v -138.976044 -76.912888 72.255585
v -173.884628 -76.912895 -15.022079
v -108.416687 -139.076218 -41.207382
v 15.806140 -135.423660 15.328581
v -13.440821 -38.266415 -7.498634
v 79.829834 -135.406708 -66.628532
v 50.582870 -38.249485 -89.455742
v -7.992100 -146.956085 -3.264648
v 26.784611 -49.781910 -108.048965
v 56.031593 -146.939133 -85.221756
v -37.239059 -49.798840 -26.091852
v 51.546539 -37.782475 -88.702820
v 80.793510 -134.939728 -65.875626
v 16.769831 -134.956680 16.081501
v -12.477130 -37.799419 -6.745714
v 18.485201 -53.803726 -114.533188
v 47.732182 -150.960968 -91.705978
v -16.291521 -150.977905 -9.748867
v -45.538460 -53.820652 -32.576073
v 45.262280 -152.157852 -93.635635
v -18.761391 -152.174789 -11.678537
v 16.015341 -55.000587 -116.462860
v -48.008362 -55.017532 -34.505745
v -64.592064 -139.193481 48.535904
v -137.861053 -69.622879 77.841408
v -103.660294 -139.193481 -49.141632
v -176.929291 -69.622887 -19.836121
v -85.187416 -164.618912 56.918804
v -197.812851 -94.869843 -11.628626
v -124.355873 -164.618912 -41.009319
v -158.644379 -94.869827 86.299492
v -91.731316 -172.613220 59.536186
v -130.899780 -172.613220 -38.391937
v -204.356750 -102.864151 -9.011255
v -165.188278 -102.864128 88.916862
v -92.938042 -174.087418 60.018848
v -132.106522 -174.087418 -37.909286
v -205.563477 -104.338341 -8.528595
v -166.395020 -104.338326 89.399529
v -96.823174 -178.568359 61.427441
v -135.891403 -178.568359 -36.250084
v -209.160385 -108.997765 -6.944593
v 15.527530 -132.404312 10.204949
v -10.755140 -42.957638 -10.986335
v 48.063202 -42.914864 -86.053520
v 74.588974 -132.067276 -64.960114
v -14.961611 -147.002716 -14.185939
v 17.425211 -57.358128 -110.350189
v 43.810631 -146.804382 -89.290024
v -41.589981 -57.850933 -35.148365
v -97.807671 -169.941956 56.436115
v -199.466553 -106.984489 -5.436734
v -133.162216 -169.941956 -31.956564
v -164.112000 -106.984467 82.955933
v -73.514977 -140.264969 46.719711
v -139.819290 -77.307480 73.239548
v -175.173843 -77.307487 -15.153129
v -108.869522 -140.264969 -41.672958
v 14.941541 -136.726486 16.090370
v -14.095481 -37.575050 -7.080103
v 80.484489 -136.098068 -67.047050
v 51.447491 -36.946674 -90.217552
v -8.856700 -148.258896 -2.502838
v 27.649231 -48.479069 -108.810768
v 56.686249 -147.630493 -85.640274
v 52.672859 -36.415806 -89.155647
v 81.870499 -135.204102 -65.900558
v -12.498460 -36.910252 -6.073335
v 19.349800 -52.500900 -115.294991
v 48.386822 -151.652328 -92.124489
v -17.156120 -152.280731 -8.987057
v -46.193127 -53.129295 -32.157555
v 45.283600 -153.047028 -94.308006
v -19.887701 -153.541489 -11.225707
v 15.843030 -54.553211 -117.465363
v -49.085339 -54.753155 -34.480797
v -105.263649 -120.643883 7.534389
v -107.554276 -152.976181 -7.521203
v -107.851212 -141.832993 -7.520074
v -107.851212 -141.832993 7.519932
v -107.554276 -152.976181 7.521049
v -99.614754 -143.924286 -17.183432
v -106.897644 -165.778503 7.209057
v -99.287369 -155.033356 17.198109
v -18.318405 -94.054977 -13.026706
v -21.806099 -92.782982 -15.990174
v -18.053419 -60.055763 -12.076517
v -13.442655 -83.138397 -13.036489
v -16.473032 -82.424744 -15.805736
v -22.897785 -82.006401 -18.754875
v -99.614754 -143.924271 17.183292
v -23.997515 -86.157639 -18.748760
v -15.534270 -90.502945 -13.013459
v -18.377214 -89.475761 -15.771069
v -142.311157 24.946056 -18.437473
v -184.899353 -96.857620 20.384142
v -155.128098 -76.819160 19.161030
v -161.706833 -97.811050 19.259295
v -166.543777 -97.805870 22.843834
v -159.963364 -74.626328 23.218746
v -187.222092 -106.411797 7.934160
v -187.222092 -106.411797 -7.934266
v -22.130220 -52.133411 -22.251570
v -161.815475 -106.292534 7.007723
v -166.997757 -107.198097 8.253201
v -161.706833 -97.811028 -19.259390
v -161.815475 -106.292534 -7.007829
v -166.997757 -107.198097 -8.253309
v -166.543777 -97.805809 -22.843931
v -21.770008 -47.004036 -26.802979
v -2.820497 -64.844582 -8.720763
v 5.291214 -86.038078 -8.613140
v -0.883814 -75.004097 -8.700146
v -104.200005 -152.900009 -6.300076
v -104.200005 -152.900009 6.299923
v -104.500000 -142.000000 6.299928
v -104.500000 -142.000000 -6.300072
v -98.000000 -144.000000 -14.000071
v -97.699997 -155.000000 13.999920
v -18.400000 -82.400002 -12.800042
v -98.000000 -144.000000 13.999929
v -157.999985 -75.500000 17.499964
v -160.900009 -74.200027 19.799963
v -167.300003 -96.100029 19.799955
v -164.300003 -96.099998 17.499952
v -184.900009 -96.100029 19.799955
v -184.900009 -103.800003 7.199948
v -184.900009 -103.800003 -7.200052
v -21.699999 -48.899990 -20.800024
v -167.300003 -103.800003 7.199948
v -164.300003 -103.800003 6.399948
v -164.300003 -96.099998 -17.500046
v -164.300003 -103.800003 -6.400052
v -167.300003 -103.800003 -7.200052
v -167.300003 -96.099976 -19.800047
v -21.400000 -45.699993 -23.500025
v 7.200000 -84.099998 -6.300042
v 1.600000 -74.099998 -6.300037
vn 0.6140 0.7501 -0.2456
vn 0.6965 -0.6613 -0.2786
vn -0.3714 -0.0000 -0.9285
vn 0.3714 -0.0000 0.9285
vn -0.6965 0.6613 0.2786
vn -0.6140 -0.7501 0.2456
vn -0.7362 -0.3567 -0.5752
vn 0.7362 0.3567 0.5752
vn -0.2812 0.9342 -0.2195
vn 0.6156 0.0002 -0.7880
vn 0.6156 0.0002 -0.7881
vn -0.6156 -0.0002 0.7880
vn 0.2812 -0.9342 0.2195
vn -0.6156 -0.0002 0.7881
vn -0.6977 0.6598 0.2791
vn 0.3701 -0.0015 0.9290
vn 0.3689 -0.0030 0.9295
vn -0.3726 -0.0015 -0.9280
vn -0.3738 -0.0030 -0.9275
vn -0.6989 0.6583 0.2795
vn 0.6940 -0.6643 -0.2776
vn 0.6952 -0.6628 -0.2781
vn -0.6827 0.6778 0.2731
vn 0.3849 0.0166 0.9228
vn 0.7353 0.3542 0.5778
vn -0.7353 -0.3542 -0.5778
vn 0.2573 -0.9463 0.1959
vn -0.6167 0.0034 0.7872
vn -0.2836 0.9342 -0.2165
vn -0.6427 -0.0094 0.7661
vn 0.6291 0.0028 -0.7773
vn 0.7354 0.3545 0.5776
vn 0.3371 -0.9048 0.2602
vn -0.2711 0.9401 -0.2068
vn -0.5601 0.0283 0.8279
vn 0.9992 0.0389 -0.0000
vn 0.9989 -0.0474 -0.0000
vn 0.7657 0.0367 -0.6421
vn 0.7651 0.0337 -0.6430
vn 0.7559 -0.0399 -0.6534
vn 0.7572 -0.0305 -0.6525
vn -0.7217 0.3622 0.5899
vn -0.8018 0.0228 0.5971
vn -0.5452 -0.0090 0.8383
vn -0.4880 0.2737 0.8288
vn -0.4211 0.2776 0.8635
vn -0.6671 0.4067 0.6242
vn -0.2735 -0.0166 0.9617
vn -0.2336 0.1307 0.9635
vn -0.5520 0.2557 -0.7936
vn -0.5846 0.1791 -0.7913
vn -0.5520 0.2557 -0.7937
vn -0.1223 0.8362 -0.5346
vn -0.3218 0.7912 -0.5201
vn -0.1572 0.8304 -0.5346
vn -0.9754 0.2204 -0.0000
vn -0.9999 0.0128 -0.0000
vn -0.1721 0.9851 -0.0000
vn -0.0591 0.9983 -0.0000
vn 0.0388 0.9992 -0.0000
vn -0.1224 0.8362 0.5346
vn -0.1573 0.8304 0.5346
vn -0.3218 0.7912 0.5201
vn -0.9997 -0.0229 -0.0000
vn -0.9989 0.0466 -0.0000
vn -0.7663 -0.0170 0.6423
vn -0.7601 0.0293 0.6492
vn -0.7582 0.0411 0.6507
vn -0.7664 -0.0181 0.6421
vn 0.5427 -0.2480 0.8025
vn 0.5427 -0.2472 0.8027
vn 0.5814 -0.1737 0.7948
vn 0.1080 -0.8427 0.5274
vn 0.1458 -0.8366 0.5281
vn 0.2710 -0.8072 0.5245
vn -0.0000 -0.8533 0.5214
vn 0.9772 -0.2121 -0.0000
vn 1.0000 -0.0000 -0.0000
vn -0.0000 -1.0000 -0.0000
vn 0.1140 -0.8418 -0.5276
vn 0.2710 -0.8071 -0.5245
vn 0.1513 -0.8356 -0.5281
vt 0.565320 0.884296
vt 0.478742 0.868730
vt 0.478742 0.763988
vt 0.565320 0.779554
vt 0.015256 0.883891
vt 0.011508 0.882683
vt 0.011508 0.777873
vt 0.015256 0.779081
vt 0.980303 0.626070
vt 0.999624 0.626070
vt 0.999624 0.734007
vt 0.980303 0.734007
vt 0.989572 0.595462
vt 0.970252 0.595462
vt 0.970252 0.487525
vt 0.989572 0.487525
vt 0.000000 0.878974
vt -0.000000 0.774164
vt 0.467205 0.872472
vt 0.467205 0.767730
vt 0.463447 0.768949
vt 0.463447 0.873691
vt 0.974010 0.626070
vt 0.974010 0.734007
vt 0.995865 0.595462
vt 0.995865 0.487525
vt 0.997026 0.487525
vt 0.997026 0.595462
vt 1.000000 0.487525
vt 1.000000 0.595462
vt 0.462754 0.873916
vt 0.462754 0.769174
vt 0.015947 0.779303
vt 0.015947 0.884113
vt 0.972850 0.734007
vt 0.972850 0.626070
vt 0.017719 0.884684
vt 0.017719 0.779874
vt 0.104421 0.764512
vt 0.104421 0.869322
vt 0.969875 0.734007
vt 0.969875 0.626070
vt 0.460977 0.874492
vt 0.460977 0.769750
vt 0.860665 0.706158
vt 0.860665 0.626070
vt 0.915033 0.671370
vt 0.915033 0.751459
vt 0.914536 0.125219
vt 0.914536 0.205465
vt 0.859833 0.250442
vt 0.859833 0.170196
vt 0.581337 0.689219
vt 0.554298 0.763988
vt 0.460977 0.748054
vt 0.488017 0.673285
vt 0.189809 0.803129
vt 0.268175 0.789243
vt 0.268175 0.883975
vt 0.189809 0.897861
vt 0.502028 0.979905
vt 0.502028 0.884640
vt 0.503172 0.884296
vt 0.503172 0.979561
vt 0.012762 0.888621
vt 0.012762 0.983392
vt 0.002927 0.980358
vt 0.002927 0.885587
vt 0.040963 0.897320
vt 0.040963 0.992091
vt 0.532516 0.983003
vt 0.504315 0.991703
vt 0.504315 0.896932
vt 0.532516 0.888233
vt 0.625880 0.971073
vt 0.625880 0.875808
vt 0.654142 0.884308
vt 0.654142 0.979573
vt 0.473766 0.988406
vt 0.473766 0.893141
vt 0.542351 0.885199
vt 0.542351 0.979970
vt 0.663998 0.887272
vt 0.663998 0.982537
vt 0.463911 0.896105
vt 0.463910 0.991370
vt 0.800573 0.626070
vt 0.800573 0.537287
vt 0.861096 0.487525
vt 0.861096 0.576308
vt 0.042105 0.897673
vt 0.042105 0.992444
vt 0.503173 0.992055
vt 0.503173 0.897284
vt 0.624735 0.970728
vt 0.624735 0.875463
vt 0.545278 0.884296
vt 0.545278 0.979067
vt 0.860665 0.676106
vt 0.860665 0.764802
vt 0.800573 0.714766
vt 0.460977 0.992252
vt 0.460977 0.896987
vt 0.666931 0.888155
vt 0.666931 0.983420
vt 0.000000 0.979455
vt -0.000000 0.884684
vt 0.769276 0.421799
vt 0.769276 0.315779
vt 0.856980 0.300239
vt 0.856980 0.406260
vt 0.753720 0.421171
vt 0.753720 0.314948
vt 0.757478 0.313729
vt 0.757478 0.419953
vt 0.686875 0.875463
vt 0.686875 0.984927
vt 0.666931 0.984787
vt 0.666931 0.875603
vt 0.556329 0.993759
vt 0.556329 0.884296
vt 0.576273 0.884436
vt 0.576273 0.993619
vt 0.769276 0.415933
vt 0.769276 0.309981
vt 0.868971 0.303912
vt 0.868971 0.410204
vt 0.872719 0.305120
vt 0.872719 0.411412
vt 0.693167 0.875463
vt 0.693167 0.984927
vt 0.550036 0.993759
vt 0.550036 0.884296
vt 0.548876 0.993759
vt 0.548876 0.884296
vt 0.873411 0.305342
vt 0.873411 0.411635
vt 0.753027 0.421396
vt 0.753027 0.315173
vt 0.694328 0.875463
vt 0.694328 0.984927
vt 0.750767 0.421937
vt 0.750767 0.315985
vt 0.697926 0.875603
vt 0.697926 0.984787
vt 0.160313 0.845882
vt 0.104421 0.891279
vt 0.104421 0.810001
vt 0.160099 0.764512
vt 0.858742 0.786518
vt 0.914186 0.832093
vt 0.913972 0.913462
vt 0.858742 0.867795
vt 0.581337 0.689413
vt 0.675942 0.673449
vt 0.703015 0.749370
vt 0.608410 0.765334
vt 0.660590 0.779583
vt 0.660590 0.875463
vt 0.581337 0.861214
vt 0.581337 0.765334
vt 0.125920 0.694885
vt 0.124402 0.694387
vt 0.124402 0.597856
vt 0.126162 0.598190
vt 0.611071 0.879401
vt 0.620913 0.876387
vt 0.621159 0.972586
vt 0.611318 0.975600
vt 0.583099 0.984242
vt 0.582852 0.888043
vt 0.166091 0.585599
vt 0.137813 0.594043
vt 0.137572 0.497348
vt 0.165850 0.488903
vt 0.127951 0.596988
vt 0.127710 0.500293
vt 0.581337 0.984586
vt 0.581337 0.888551
vt 0.934886 0.397329
vt 0.931585 0.396275
vt 0.931585 0.300239
vt 0.935133 0.301131
vt 0.334359 0.488990
vt 0.334572 0.578976
vt 0.272915 0.629082
vt 0.272915 0.539189
vt 0.164302 0.609580
vt 0.167772 0.610733
vt 0.167889 0.707176
vt 0.164061 0.706275
vt 0.124402 0.501326
vt 0.624617 0.971411
vt 0.301124 0.267047
vt 0.298967 0.267036
vt 0.301568 0.268322
vt 0.299392 0.268312
vt 0.288911 0.284351
vt 0.287694 0.284735
vt 0.287566 0.284322
vt 0.288764 0.283959
vt 0.289402 0.283312
vt 0.289572 0.283823
vt 0.287463 0.283257
vt 0.288190 0.283042
vt 0.285583 0.256753
vt 0.289627 0.255416
vt 0.289614 0.254823
vt 0.285313 0.256185
vt 0.291150 0.255382
vt 0.291136 0.254789
vt 0.291058 0.251309
vt 0.407052 0.264671
vt 0.404895 0.264660
vt 0.407496 0.265947
vt 0.405320 0.265936
vt 0.391511 0.254378
vt 0.391241 0.253810
vt 0.395542 0.252448
vt 0.395555 0.253041
vt 0.397065 0.252414
vt 0.397078 0.253007
vt 0.395464 0.248968
vt 0.396986 0.248934
s 1
usemtl Material.001
f 3/1/1 4/2/1 2/3/1 1/4/1
f 10/5/2 7/6/2 5/7/2 9/8/2
f 6/9/3 4/10/3 3/11/3 7/12/3
f 5/13/4 1/14/4 2/15/4 8/16/4
f 3/17/2 1/18/2 5/7/2 7/6/2
f 2/3/5 4/2/5 6/19/5 8/20/5
f 12/21/5 8/20/5 6/19/5 11/22/5
f 11/23/3 6/9/3 7/12/3 10/24/3
f 9/25/4 5/13/4 8/16/4 12/26/4
f 9/25/4 12/26/4 16/27/4 13/28/4
f 13/28/4 16/27/4 20/29/4 17/30/4
f 12/21/5 11/22/5 15/31/5 16/32/5
f 10/5/2 9/8/2 13/33/2 14/34/2
f 11/23/3 10/24/3 14/35/3 15/36/3
f 18/37/6 17/38/6 20/39/6 19/40/6
f 14/34/2 13/33/2 17/38/2 18/37/2
f 15/36/3 14/35/3 18/41/3 19/42/3
f 16/32/5 15/31/5 19/43/5 20/44/5
f 21/45/7 22/46/7 23/47/7 24/48/7
f 28/49/8 25/50/8 27/51/8 26/52/8
f 32/53/1 29/54/1 31/55/1 30/56/1
f 33/57/6 34/58/6 35/59/6 36/60/6
f 40/61/9 38/62/9 48/63/9 45/64/9
f 42/65/10 43/66/10 50/67/11 49/68/11
f 42/65/10 40/69/10 39/70/10 43/66/10
f 41/71/12 37/72/12 38/73/12 44/74/12
f 39/75/13 37/76/13 41/77/13 43/78/13
f 38/62/9 40/61/9 42/79/9 44/80/9
f 41/71/12 44/74/12 52/81/14 51/82/14
f 43/78/13 41/77/13 51/83/13 50/84/13
f 52/85/9 44/80/9 42/79/9 49/86/9
f 46/87/8 45/88/8 48/89/8 47/90/8
f 39/70/10 40/69/10 45/91/10 46/92/10
f 38/73/12 37/72/12 47/93/12 48/94/12
f 37/76/13 39/75/13 46/95/13 47/96/13
f 51/82/14 52/81/14 56/97/14 54/98/14
f 56/87/7 55/99/7 53/100/7 54/101/7
f 52/85/9 49/86/9 55/102/9 56/103/9
f 50/84/13 51/83/13 54/104/13 53/105/13
f 49/68/11 50/67/11 53/106/11 55/107/11
f 59/108/6 57/109/6 58/110/6 60/111/6
f 66/112/5 65/113/5 61/114/15 63/115/15
f 62/116/16 63/117/16 59/118/17 60/119/17
f 61/120/18 64/121/18 58/122/19 57/123/19
f 59/124/20 63/115/15 61/114/15 57/125/20
f 58/110/21 64/126/22 62/127/22 60/111/21
f 68/128/2 67/129/2 62/127/22 64/126/22
f 67/130/4 66/131/4 63/117/16 62/116/16
f 65/132/3 68/133/3 64/121/18 61/120/18
f 65/132/3 69/134/3 72/135/3 68/133/3
f 68/128/2 72/136/2 71/137/2 67/129/2
f 66/112/5 70/138/5 69/139/5 65/113/5
f 67/130/4 71/140/4 70/141/4 66/131/4
f 70/138/23 74/142/23 73/143/23 69/139/23
f 71/140/24 75/144/24 74/145/24 70/141/24
f 76/146/25 79/147/25 78/148/25 77/149/25
f 83/150/26 81/151/26 82/152/26 80/153/26
f 87/154/6 85/155/6 86/156/6 84/157/6
f 88/158/1 91/159/1 90/160/1 89/161/1
f 95/162/27 99/163/27 101/164/27 93/165/27
f 97/166/28 102/167/28 103/168/28 98/169/28
f 97/166/28 98/169/28 94/170/28 95/171/28
f 94/172/29 98/173/29 96/174/29 92/175/29
f 98/173/29 103/176/29 104/177/29 96/174/29
f 94/170/30 100/178/30 99/179/30 95/171/30
f 104/180/31 107/181/31 109/182/31 105/183/31
f 109/184/32 107/185/32 106/186/32 108/187/32
f 105/188/33 109/189/33 108/190/33 102/191/33
f 103/176/34 106/164/34 107/192/34 104/177/34
f 102/167/35 108/96/35 106/193/35 103/168/35
usemtl None.008
f 111/194/36 112/195/37 113/195/37 114/194/36
f 117/196/38 114/194/39 113/195/40 124/197/41
f 126/198/42 121/199/43 122/200/44 127/201/45
f 119/202/46 118/203/47 126/198/42 127/201/45
f 122/200/44 123/204/48 125/205/49 127/201/45
f 130/206/50 131/207/51 132/208/51 133/209/52
f 132/208/53 131/207/54 137/210/54 138/211/55
f 139/207/56 140/210/57 137/210/57 131/207/56
f 140/210/58 141/211/59 138/211/59 137/210/58
f 141/211/59 135/212/60 134/212/60 138/211/59
f 142/208/61 141/211/62 140/210/63 139/207/63
f 147/213/64 148/213/64 149/214/65 150/214/65
f 152/215/66 154/216/67 149/214/68 148/213/69
f 155/217/70 156/218/71 157/219/72 158/220/72
f 157/219/73 163/221/74 164/222/75 158/220/75
f 159/223/76 160/224/76 163/221/74 157/219/73
f 165/220/77 158/220/77 164/222/78 166/222/78
f 166/222/79 164/222/79 163/221/79 167/221/79
f 167/221/79 163/221/79 160/224/79 161/224/79
f 168/219/80 165/220/81 166/222/81 167/221/82
l 145 146
l 110 113
l 162 169
l 120 121
l 92 93
l 170 171
l 112 115
l 144 146
l 150 151
l 114 116
l 136 143
